<?xml version="1.0" encoding="UTF-8" standalone="no"?><svg xmlns="http://www.w3.org/2000/svg" xmlns:xlink="http://www.w3.org/1999/xlink" clip-rule="evenodd" stroke-miterlimit="10" viewBox="0 0 1024 768"><desc>SVG generated by Keynote</desc><defs></defs><g transform="matrix(1.00, 0.00, -0.00, -1.00, 0.0, 768.0)"><path d="M 0.0 768.0 L 1024.0 768.0 L 1024.0 0.0 L 0.0 0.0 Z M 0.0 768.0 " fill="#FDFEF7"></path><text xml:space="preserve" font-family="BebasNeue,Bebas Neue" font-size="78.0" fill="#5E5E5E" transform="matrix(1.00, 0.00, -0.00, -1.00, 28.0, 670.4)">C</text><text xml:space="preserve" font-family="BebasNeue,Bebas Neue" font-size="78.0" fill="#5E5E5E" transform="matrix(1.00, 0.00, -0.00, -1.00, 59.7, 670.4)">o</text><text xml:space="preserve" font-family="BebasNeue,Bebas Neue" font-size="78.0" fill="#5E5E5E" transform="matrix(1.00, 0.00, -0.00, -1.00, 92.1, 670.4)">n</text><text xml:space="preserve" font-family="BebasNeue,Bebas Neue" font-size="78.0" fill="#5E5E5E" transform="matrix(1.00, 0.00, -0.00, -1.00, 127.0, 670.4)">n</text><text xml:space="preserve" font-family="BebasNeue,Bebas Neue" font-size="78.0" fill="#5E5E5E" transform="matrix(1.00, 0.00, -0.00, -1.00, 161.8, 670.4)">e</text><text xml:space="preserve" font-family="BebasNeue,Bebas Neue" font-size="78.0" fill="#5E5E5E" transform="matrix(1.00, 0.00, -0.00, -1.00, 192.1, 670.4)">c</text><text xml:space="preserve" font-family="BebasNeue,Bebas Neue" font-size="78.0" fill="#5E5E5E" transform="matrix(1.00, 0.00, -0.00, -1.00, 223.8, 670.4)">t</text><text xml:space="preserve" font-family="BebasNeue,Bebas Neue" font-size="78.0" fill="#5E5E5E" transform="matrix(1.00, 0.00, -0.00, -1.00, 253.1, 670.4)">i</text><text xml:space="preserve" font-family="BebasNeue,Bebas Neue" font-size="78.0" fill="#5E5E5E" transform="matrix(1.00, 0.00, -0.00, -1.00, 269.5, 670.4)">v</text><text xml:space="preserve" font-family="BebasNeue,Bebas Neue" font-size="78.0" fill="#5E5E5E" transform="matrix(1.00, 0.00, -0.00, -1.00, 302.4, 670.4)">i</text><text xml:space="preserve" font-family="BebasNeue,Bebas Neue" font-size="78.0" fill="#5E5E5E" transform="matrix(1.00, 0.00, -0.00, -1.00, 318.8, 670.4)">t</text><text xml:space="preserve" font-family="BebasNeue,Bebas Neue" font-size="78.0" fill="#5E5E5E" transform="matrix(1.00, 0.00, -0.00, -1.00, 348.1, 670.4)">y</text><text xml:space="preserve" font-family="BebasNeue,Bebas Neue" font-size="78.0" fill="#5E5E5E" transform="matrix(1.00, 0.00, -0.00, -1.00, 380.6, 670.4)"> </text><text xml:space="preserve" font-family="BebasNeue,Bebas Neue" font-size="78.0" fill="#6EB1D8" transform="matrix(1.00, 0.00, -0.00, -1.00, 394.2, 670.4)">S</text><text xml:space="preserve" font-family="BebasNeue,Bebas Neue" font-size="78.0" fill="#6EB1D8" transform="matrix(1.00, 0.00, -0.00, -1.00, 424.9, 670.4)">t</text><text xml:space="preserve" font-family="BebasNeue,Bebas Neue" font-size="78.0" fill="#6EB1D8" transform="matrix(1.00, 0.00, -0.00, -1.00, 451.3, 670.4)">a</text><text xml:space="preserve" font-family="BebasNeue,Bebas Neue" font-size="78.0" fill="#6EB1D8" transform="matrix(1.00, 0.00, -0.00, -1.00, 481.6, 670.4)">t</text><text xml:space="preserve" font-family="BebasNeue,Bebas Neue" font-size="78.0" fill="#6EB1D8" transform="matrix(1.00, 0.00, -0.00, -1.00, 511.0, 670.4)">e</text><text xml:space="preserve" font-family="BebasNeue,Bebas Neue" font-size="78.0" fill="#6EB1D8" transform="matrix(1.00, 0.00, -0.00, -1.00, 541.2, 670.4)"> </text><text xml:space="preserve" font-family="BebasNeue,Bebas Neue" font-size="78.0" fill="#6EB1D8" transform="matrix(1.00, 0.00, -0.00, -1.00, 554.9, 670.4)">m</text><text xml:space="preserve" font-family="BebasNeue,Bebas Neue" font-size="78.0" fill="#6EB1D8" transform="matrix(1.00, 0.00, -0.00, -1.00, 598.6, 670.4)">a</text><text xml:space="preserve" font-family="BebasNeue,Bebas Neue" font-size="78.0" fill="#6EB1D8" transform="matrix(1.00, 0.00, -0.00, -1.00, 631.9, 670.4)">c</text><text xml:space="preserve" font-family="BebasNeue,Bebas Neue" font-size="78.0" fill="#6EB1D8" transform="matrix(1.00, 0.00, -0.00, -1.00, 663.5, 670.4)">h</text><text xml:space="preserve" font-family="BebasNeue,Bebas Neue" font-size="78.0" fill="#6EB1D8" transform="matrix(1.00, 0.00, -0.00, -1.00, 698.4, 670.4)">i</text><text xml:space="preserve" font-family="BebasNeue,Bebas Neue" font-size="78.0" fill="#6EB1D8" transform="matrix(1.00, 0.00, -0.00, -1.00, 714.8, 670.4)">n</text><text xml:space="preserve" font-family="BebasNeue,Bebas Neue" font-size="78.0" fill="#6EB1D8" transform="matrix(1.00, 0.00, -0.00, -1.00, 749.7, 670.4)">e</text><image xlink:href="../../D2202376-6E30-490C-A592-8C4A428C4828/assets/CD049FFFA19C72A1F2FFBED7413B6F50.png" width="1011.00" height="594.00" transform="matrix(1.00, 0.00, -0.00, -1.00, 10.2, 626.8)" opacity="0.75"></image><image xlink:href="../../D2202376-6E30-490C-A592-8C4A428C4828/assets/062D78B06A3917F1589569566E8B9665.png" width="1347.00" height="768.00" transform="matrix(0.73, 0.00, -0.00, -0.73, 22.0, 618.0)"></image><image xlink:href="../../D2202376-6E30-490C-A592-8C4A428C4828/assets/7C44556D0B17EFFEDF8541F9BF35A231.png" width="991.00" height="574.00" transform="matrix(1.00, 0.00, -0.00, 1.00, 16.0, 46.8)"></image></g></svg>