<?xml version="1.0" encoding="UTF-8" standalone="no"?><svg xmlns="http://www.w3.org/2000/svg" xmlns:xlink="http://www.w3.org/1999/xlink" clip-rule="evenodd" stroke-miterlimit="10" viewBox="0 0 1024 768"><desc>SVG generated by Keynote</desc><defs></defs><g transform="matrix(1.00, 0.00, -0.00, -1.00, 0.0, 768.0)"><path d="M 0.0 768.0 L 1024.0 768.0 L 1024.0 0.0 L 0.0 0.0 Z M 0.0 768.0 " fill="#FDFEF7"></path><text xml:space="preserve" font-family="BebasNeue,Bebas Neue" font-size="78.0" fill="#5E5E5E" transform="matrix(1.00, 0.00, -0.00, -1.00, 28.0, 670.4)">T</text><text xml:space="preserve" font-family="BebasNeue,Bebas Neue" font-size="78.0" fill="#5E5E5E" transform="matrix(1.00, 0.00, -0.00, -1.00, 57.3, 670.4)">H</text><text xml:space="preserve" font-family="BebasNeue,Bebas Neue" font-size="78.0" fill="#5E5E5E" transform="matrix(1.00, 0.00, -0.00, -1.00, 92.2, 670.4)">E</text><text xml:space="preserve" font-family="BebasNeue,Bebas Neue" font-size="78.0" fill="#5E5E5E" transform="matrix(1.00, 0.00, -0.00, -1.00, 122.5, 670.4)">S</text><text xml:space="preserve" font-family="BebasNeue,Bebas Neue" font-size="78.0" fill="#5E5E5E" transform="matrix(1.00, 0.00, -0.00, -1.00, 153.2, 670.4)">E</text><text xml:space="preserve" font-family="BebasNeue,Bebas Neue" font-size="78.0" fill="#6EB1D8" transform="matrix(1.00, 0.00, -0.00, -1.00, 197.1, 670.4)">S</text><text xml:space="preserve" font-family="BebasNeue,Bebas Neue" font-size="78.0" fill="#6EB1D8" transform="matrix(1.00, 0.00, -0.00, -1.00, 227.8, 670.4)">l</text><text xml:space="preserve" font-family="BebasNeue,Bebas Neue" font-size="78.0" fill="#6EB1D8" transform="matrix(1.00, 0.00, -0.00, -1.00, 255.8, 670.4)">i</text><text xml:space="preserve" font-family="BebasNeue,Bebas Neue" font-size="78.0" fill="#6EB1D8" transform="matrix(1.00, 0.00, -0.00, -1.00, 272.2, 670.4)">d</text><text xml:space="preserve" font-family="BebasNeue,Bebas Neue" font-size="78.0" fill="#6EB1D8" transform="matrix(1.00, 0.00, -0.00, -1.00, 305.6, 670.4)">e</text><text xml:space="preserve" font-family="BebasNeue,Bebas Neue" font-size="78.0" fill="#6EB1D8" transform="matrix(1.00, 0.00, -0.00, -1.00, 335.9, 670.4)">s</text><text xml:space="preserve" font-family="Helvetica,Helvetica" font-size="54.0" fill="#304863" transform="matrix(1.00, 0.00, -0.00, -1.00, 175.8, 396.4)">h</text><text xml:space="preserve" font-family="Helvetica,Helvetica" font-size="54.0" fill="#304863" transform="matrix(1.00, 0.00, -0.00, -1.00, 205.8, 396.4)">t</text><text xml:space="preserve" font-family="Helvetica,Helvetica" font-size="54.0" fill="#304863" transform="matrix(1.00, 0.00, -0.00, -1.00, 220.8, 396.4)">t</text><text xml:space="preserve" font-family="Helvetica,Helvetica" font-size="54.0" fill="#304863" transform="matrix(1.00, 0.00, -0.00, -1.00, 235.8, 396.4)">p</text><text xml:space="preserve" font-family="Helvetica,Helvetica" font-size="54.0" fill="#304863" transform="matrix(1.00, 0.00, -0.00, -1.00, 265.9, 396.4)">s</text><text xml:space="preserve" font-family="Helvetica,Helvetica" font-size="54.0" fill="#304863" transform="matrix(1.00, 0.00, -0.00, -1.00, 292.9, 396.4)">:</text><text xml:space="preserve" font-family="Helvetica,Helvetica" font-size="54.0" fill="#304863" transform="matrix(1.00, 0.00, -0.00, -1.00, 307.9, 396.4)">/</text><text xml:space="preserve" font-family="Helvetica,Helvetica" font-size="54.0" fill="#304863" transform="matrix(1.00, 0.00, -0.00, -1.00, 322.9, 396.4)">/</text><text xml:space="preserve" font-family="Helvetica,Helvetica" font-size="54.0" fill="#304863" transform="matrix(1.00, 0.00, -0.00, -1.00, 337.9, 396.4)">g</text><text xml:space="preserve" font-family="Helvetica,Helvetica" font-size="54.0" fill="#304863" transform="matrix(1.00, 0.00, -0.00, -1.00, 367.9, 396.4)">i</text><text xml:space="preserve" font-family="Helvetica,Helvetica" font-size="54.0" fill="#304863" transform="matrix(1.00, 0.00, -0.00, -1.00, 379.9, 396.4)">t</text><text xml:space="preserve" font-family="Helvetica,Helvetica" font-size="54.0" fill="#304863" transform="matrix(1.00, 0.00, -0.00, -1.00, 394.9, 396.4)">h</text><text xml:space="preserve" font-family="Helvetica,Helvetica" font-size="54.0" fill="#304863" transform="matrix(1.00, 0.00, -0.00, -1.00, 424.9, 396.4)">u</text><text xml:space="preserve" font-family="Helvetica,Helvetica" font-size="54.0" fill="#304863" transform="matrix(1.00, 0.00, -0.00, -1.00, 455.0, 396.4)">b</text><text xml:space="preserve" font-family="Helvetica,Helvetica" font-size="54.0" fill="#304863" transform="matrix(1.00, 0.00, -0.00, -1.00, 485.0, 396.4)">.</text><text xml:space="preserve" font-family="Helvetica,Helvetica" font-size="54.0" fill="#304863" transform="matrix(1.00, 0.00, -0.00, -1.00, 500.0, 396.4)">c</text><text xml:space="preserve" font-family="Helvetica,Helvetica" font-size="54.0" fill="#304863" transform="matrix(1.00, 0.00, -0.00, -1.00, 527.0, 396.4)">o</text><text xml:space="preserve" font-family="Helvetica,Helvetica" font-size="54.0" fill="#304863" transform="matrix(1.00, 0.00, -0.00, -1.00, 557.1, 396.4)">m</text><text xml:space="preserve" font-family="Helvetica,Helvetica" font-size="54.0" fill="#304863" transform="matrix(1.00, 0.00, -0.00, -1.00, 602.0, 396.4)">/</text><text xml:space="preserve" font-family="Helvetica,Helvetica" font-size="54.0" fill="#304863" transform="matrix(1.00, 0.00, -0.00, -1.00, 617.0, 396.4)">i</text><text xml:space="preserve" font-family="Helvetica,Helvetica" font-size="54.0" fill="#304863" transform="matrix(1.00, 0.00, -0.00, -1.00, 629.0, 396.4)">f</text><text xml:space="preserve" font-family="Helvetica,Helvetica" font-size="54.0" fill="#304863" transform="matrix(1.00, 0.00, -0.00, -1.00, 644.0, 396.4)">a</text><text xml:space="preserve" font-family="Helvetica,Helvetica" font-size="54.0" fill="#304863" transform="matrix(1.00, 0.00, -0.00, -1.00, 674.1, 396.4)">n</text><text xml:space="preserve" font-family="Helvetica,Helvetica" font-size="54.0" fill="#304863" transform="matrix(1.00, 0.00, -0.00, -1.00, 704.1, 396.4)">d</text><text xml:space="preserve" font-family="Helvetica,Helvetica" font-size="54.0" fill="#304863" transform="matrix(1.00, 0.00, -0.00, -1.00, 734.2, 396.4)">e</text><text xml:space="preserve" font-family="Helvetica,Helvetica" font-size="54.0" fill="#304863" transform="matrix(1.00, 0.00, -0.00, -1.00, 764.2, 396.4)">l</text><text xml:space="preserve" font-family="Helvetica,Helvetica" font-size="54.0" fill="#304863" transform="matrix(1.00, 0.00, -0.00, -1.00, 776.2, 396.4)">s</text><text xml:space="preserve" font-family="Helvetica,Helvetica" font-size="54.0" fill="#304863" transform="matrix(1.00, 0.00, -0.00, -1.00, 803.2, 396.4)">e</text><text xml:space="preserve" font-family="Helvetica,Helvetica" font-size="54.0" fill="#304863" transform="matrix(1.00, 0.00, -0.00, -1.00, 833.3, 396.4)">/</text><g><clipPath id="clip0x7fd9eeb310a0"><path d="M 174.8 390.0 L 848.2 390.0 L 848.2 394.7 L 174.8 394.7 Z M 174.8 390.0 "></path></clipPath><g clip-path="url(#clip0x7fd9eeb310a0)"><path d="M 112.8 61.7 L 785.2 61.7 " fill="none" stroke="#304863" stroke-width="2.66" transform="matrix(1.00, 0.00, 0.00, -1.00, 63.0, 454.0)"></path></g></g><text xml:space="preserve" font-family="Helvetica,Helvetica" font-size="54.0" fill="#304863" transform="matrix(1.00, 0.00, -0.00, -1.00, 190.9, 331.4)">D</text><text xml:space="preserve" font-family="Helvetica,Helvetica" font-size="54.0" fill="#304863" transform="matrix(1.00, 0.00, -0.00, -1.00, 229.9, 331.4)">e</text><text xml:space="preserve" font-family="Helvetica,Helvetica" font-size="54.0" fill="#304863" transform="matrix(1.00, 0.00, -0.00, -1.00, 259.9, 331.4)">n</text><text xml:space="preserve" font-family="Helvetica,Helvetica" font-size="54.0" fill="#304863" transform="matrix(1.00, 0.00, -0.00, -1.00, 290.0, 331.4)">v</text><text xml:space="preserve" font-family="Helvetica,Helvetica" font-size="54.0" fill="#304863" transform="matrix(1.00, 0.00, -0.00, -1.00, 317.0, 331.4)">e</text><text xml:space="preserve" font-family="Helvetica,Helvetica" font-size="54.0" fill="#304863" transform="matrix(1.00, 0.00, -0.00, -1.00, 347.0, 331.4)">r</text><text xml:space="preserve" font-family="Helvetica,Helvetica" font-size="54.0" fill="#304863" transform="matrix(1.00, 0.00, -0.00, -1.00, 365.0, 331.4)">J</text><text xml:space="preserve" font-family="Helvetica,Helvetica" font-size="54.0" fill="#304863" transform="matrix(1.00, 0.00, -0.00, -1.00, 392.0, 331.4)">S</text><text xml:space="preserve" font-family="Helvetica,Helvetica" font-size="54.0" fill="#304863" transform="matrix(1.00, 0.00, -0.00, -1.00, 428.0, 331.4)">-</text><text xml:space="preserve" font-family="Helvetica,Helvetica" font-size="54.0" fill="#304863" transform="matrix(1.00, 0.00, -0.00, -1.00, 446.0, 331.4)">D</text><text xml:space="preserve" font-family="Helvetica,Helvetica" font-size="54.0" fill="#304863" transform="matrix(1.00, 0.00, -0.00, -1.00, 485.0, 331.4)">e</text><text xml:space="preserve" font-family="Helvetica,Helvetica" font-size="54.0" fill="#304863" transform="matrix(1.00, 0.00, -0.00, -1.00, 515.0, 331.4)">c</text><text xml:space="preserve" font-family="Helvetica,Helvetica" font-size="54.0" fill="#304863" transform="matrix(1.00, 0.00, -0.00, -1.00, 542.0, 331.4)">e</text><text xml:space="preserve" font-family="Helvetica,Helvetica" font-size="54.0" fill="#304863" transform="matrix(1.00, 0.00, -0.00, -1.00, 572.1, 331.4)">m</text><text xml:space="preserve" font-family="Helvetica,Helvetica" font-size="54.0" fill="#304863" transform="matrix(1.00, 0.00, -0.00, -1.00, 617.1, 331.4)">b</text><text xml:space="preserve" font-family="Helvetica,Helvetica" font-size="54.0" fill="#304863" transform="matrix(1.00, 0.00, -0.00, -1.00, 647.1, 331.4)">e</text><text xml:space="preserve" font-family="Helvetica,Helvetica" font-size="54.0" fill="#304863" transform="matrix(1.00, 0.00, -0.00, -1.00, 677.1, 331.4)">r</text><text xml:space="preserve" font-family="Helvetica,Helvetica" font-size="54.0" fill="#304863" transform="matrix(1.00, 0.00, -0.00, -1.00, 695.1, 331.4)">-</text><text xml:space="preserve" font-family="Helvetica,Helvetica" font-size="54.0" fill="#304863" transform="matrix(1.00, 0.00, -0.00, -1.00, 713.1, 331.4)">2</text><text xml:space="preserve" font-family="Helvetica,Helvetica" font-size="54.0" fill="#304863" transform="matrix(1.00, 0.00, -0.00, -1.00, 743.2, 331.4)">0</text><text xml:space="preserve" font-family="Helvetica,Helvetica" font-size="54.0" fill="#304863" transform="matrix(1.00, 0.00, -0.00, -1.00, 773.2, 331.4)">1</text><text xml:space="preserve" font-family="Helvetica,Helvetica" font-size="54.0" fill="#304863" transform="matrix(1.00, 0.00, -0.00, -1.00, 803.2, 331.4)">3</text><g><clipPath id="clip0x7fd9eec8d460"><path d="M 189.9 325.0 L 833.1 325.0 L 833.1 329.7 L 189.9 329.7 Z M 189.9 325.0 "></path></clipPath><g clip-path="url(#clip0x7fd9eec8d460)"><path d="M 127.9 126.7 L 770.2 126.7 " fill="none" stroke="#304863" stroke-width="2.66" transform="matrix(1.00, 0.00, 0.00, -1.00, 63.0, 454.0)"></path></g></g></g></svg>