<?xml version="1.0" encoding="UTF-8" standalone="no"?><svg xmlns="http://www.w3.org/2000/svg" xmlns:xlink="http://www.w3.org/1999/xlink" clip-rule="evenodd" stroke-miterlimit="10" viewBox="0 0 1024 768"><desc>SVG generated by Keynote</desc><defs></defs><g transform="matrix(1.00, 0.00, -0.00, -1.00, 0.0, 768.0)"><path d="M 0.0 768.0 L 1024.0 768.0 L 1024.0 0.0 L 0.0 0.0 Z M 0.0 768.0 " fill="#FDFEF7"></path><text xml:space="preserve" font-family="BebasNeue,Bebas Neue" font-size="144.0" fill="#5E5E5E" transform="matrix(1.00, 0.00, -0.00, -1.00, 376.1, 600.7)">G</text><text xml:space="preserve" font-family="BebasNeue,Bebas Neue" font-size="144.0" fill="#5E5E5E" transform="matrix(1.00, 0.00, -0.00, -1.00, 435.2, 600.7)">o</text><text xml:space="preserve" font-family="BebasNeue,Bebas Neue" font-size="144.0" fill="#5E5E5E" transform="matrix(1.00, 0.00, -0.00, -1.00, 495.1, 600.7)">o</text><text xml:space="preserve" font-family="BebasNeue,Bebas Neue" font-size="144.0" fill="#5E5E5E" transform="matrix(1.00, 0.00, -0.00, -1.00, 555.0, 600.7)">D</text><text xml:space="preserve" font-family="BebasNeue,Bebas Neue" font-size="144.0" fill="#5E5E5E" transform="matrix(1.00, 0.00, -0.00, -1.00, 616.6, 600.7)">!</text><text xml:space="preserve" font-family="BebasNeue,Bebas Neue" font-size="144.0" fill="#6EB1D8" transform="matrix(1.00, 0.00, -0.00, -1.00, 96.9, 427.7)">H</text><text xml:space="preserve" font-family="BebasNeue,Bebas Neue" font-size="144.0" fill="#6EB1D8" transform="matrix(1.00, 0.00, -0.00, -1.00, 161.3, 427.7)">e</text><text xml:space="preserve" font-family="BebasNeue,Bebas Neue" font-size="144.0" fill="#6EB1D8" transform="matrix(1.00, 0.00, -0.00, -1.00, 217.2, 427.7)">r</text><text xml:space="preserve" font-family="BebasNeue,Bebas Neue" font-size="144.0" fill="#6EB1D8" transform="matrix(1.00, 0.00, -0.00, -1.00, 277.9, 427.7)">e</text><text xml:space="preserve" font-family="BebasNeue,Bebas Neue" font-size="144.0" fill="#6EB1D8" transform="matrix(1.00, 0.00, -0.00, -1.00, 333.8, 427.7)">’</text><text xml:space="preserve" font-family="BebasNeue,Bebas Neue" font-size="144.0" fill="#6EB1D8" transform="matrix(1.00, 0.00, -0.00, -1.00, 362.7, 427.7)">s</text><text xml:space="preserve" font-family="BebasNeue,Bebas Neue" font-size="144.0" fill="#6EB1D8" transform="matrix(1.00, 0.00, -0.00, -1.00, 444.7, 427.7)">s</text><text xml:space="preserve" font-family="BebasNeue,Bebas Neue" font-size="144.0" fill="#6EB1D8" transform="matrix(1.00, 0.00, -0.00, -1.00, 501.4, 427.7)">o</text><text xml:space="preserve" font-family="BebasNeue,Bebas Neue" font-size="144.0" fill="#6EB1D8" transform="matrix(1.00, 0.00, -0.00, -1.00, 561.3, 427.7)">m</text><text xml:space="preserve" font-family="BebasNeue,Bebas Neue" font-size="144.0" fill="#6EB1D8" transform="matrix(1.00, 0.00, -0.00, -1.00, 642.1, 427.7)">e</text><text xml:space="preserve" font-family="BebasNeue,Bebas Neue" font-size="144.0" fill="#6EB1D8" transform="matrix(1.00, 0.00, -0.00, -1.00, 723.2, 427.7)">F</text><text xml:space="preserve" font-family="BebasNeue,Bebas Neue" font-size="144.0" fill="#6EB1D8" transform="matrix(1.00, 0.00, -0.00, -1.00, 775.6, 427.7)">i</text><text xml:space="preserve" font-family="BebasNeue,Bebas Neue" font-size="144.0" fill="#6EB1D8" transform="matrix(1.00, 0.00, -0.00, -1.00, 805.8, 427.7)">n</text><text xml:space="preserve" font-family="BebasNeue,Bebas Neue" font-size="144.0" fill="#6EB1D8" transform="matrix(1.00, 0.00, -0.00, -1.00, 870.2, 427.7)">e</text><text xml:space="preserve" font-family="BebasNeue,Bebas Neue" font-size="144.0" fill="#6EB1D8" transform="matrix(1.00, 0.00, -0.00, -1.00, 155.1, 254.7)">P</text><text xml:space="preserve" font-family="BebasNeue,Bebas Neue" font-size="144.0" fill="#6EB1D8" transform="matrix(1.00, 0.00, -0.00, -1.00, 212.3, 254.7)">r</text><text xml:space="preserve" font-family="BebasNeue,Bebas Neue" font-size="144.0" fill="#6EB1D8" transform="matrix(1.00, 0.00, -0.00, -1.00, 273.0, 254.7)">i</text><text xml:space="preserve" font-family="BebasNeue,Bebas Neue" font-size="144.0" fill="#6EB1D8" transform="matrix(1.00, 0.00, -0.00, -1.00, 303.3, 254.7)">n</text><text xml:space="preserve" font-family="BebasNeue,Bebas Neue" font-size="144.0" fill="#6EB1D8" transform="matrix(1.00, 0.00, -0.00, -1.00, 367.6, 254.7)">t</text><text xml:space="preserve" font-family="BebasNeue,Bebas Neue" font-size="144.0" fill="#6EB1D8" transform="matrix(1.00, 0.00, -0.00, -1.00, 447.0, 254.7)">o</text><text xml:space="preserve" font-family="BebasNeue,Bebas Neue" font-size="144.0" fill="#6EB1D8" transform="matrix(1.00, 0.00, -0.00, -1.00, 506.9, 254.7)">n</text><text xml:space="preserve" font-family="BebasNeue,Bebas Neue" font-size="144.0" fill="#6EB1D8" transform="matrix(1.00, 0.00, -0.00, -1.00, 596.5, 254.7)">S</text><text xml:space="preserve" font-family="BebasNeue,Bebas Neue" font-size="144.0" fill="#6EB1D8" transform="matrix(1.00, 0.00, -0.00, -1.00, 653.2, 254.7)">t</text><text xml:space="preserve" font-family="BebasNeue,Bebas Neue" font-size="144.0" fill="#6EB1D8" transform="matrix(1.00, 0.00, -0.00, -1.00, 701.9, 254.7)">a</text><text xml:space="preserve" font-family="BebasNeue,Bebas Neue" font-size="144.0" fill="#6EB1D8" transform="matrix(1.00, 0.00, -0.00, -1.00, 757.9, 254.7)">t</text><text xml:space="preserve" font-family="BebasNeue,Bebas Neue" font-size="144.0" fill="#6EB1D8" transform="matrix(1.00, 0.00, -0.00, -1.00, 812.0, 254.7)">e</text><text xml:space="preserve" font-family="BebasNeue,Bebas Neue" font-size="144.0" fill="#6EB1D8" transform="matrix(1.00, 0.00, -0.00, -1.00, 275.4, 81.7)">m</text><text xml:space="preserve" font-family="BebasNeue,Bebas Neue" font-size="144.0" fill="#6EB1D8" transform="matrix(1.00, 0.00, -0.00, -1.00, 356.2, 81.7)">a</text><text xml:space="preserve" font-family="BebasNeue,Bebas Neue" font-size="144.0" fill="#6EB1D8" transform="matrix(1.00, 0.00, -0.00, -1.00, 417.5, 81.7)">c</text><text xml:space="preserve" font-family="BebasNeue,Bebas Neue" font-size="144.0" fill="#6EB1D8" transform="matrix(1.00, 0.00, -0.00, -1.00, 476.0, 81.7)">h</text><text xml:space="preserve" font-family="BebasNeue,Bebas Neue" font-size="144.0" fill="#6EB1D8" transform="matrix(1.00, 0.00, -0.00, -1.00, 540.4, 81.7)">i</text><text xml:space="preserve" font-family="BebasNeue,Bebas Neue" font-size="144.0" fill="#6EB1D8" transform="matrix(1.00, 0.00, -0.00, -1.00, 570.6, 81.7)">n</text><text xml:space="preserve" font-family="BebasNeue,Bebas Neue" font-size="144.0" fill="#6EB1D8" transform="matrix(1.00, 0.00, -0.00, -1.00, 635.0, 81.7)">e</text><text xml:space="preserve" font-family="BebasNeue,Bebas Neue" font-size="144.0" fill="#6EB1D8" transform="matrix(1.00, 0.00, -0.00, -1.00, 690.9, 81.7)">s</text></g></svg>