<?xml version="1.0" encoding="UTF-8" standalone="no"?><svg xmlns="http://www.w3.org/2000/svg" xmlns:xlink="http://www.w3.org/1999/xlink" clip-rule="evenodd" stroke-miterlimit="10" viewBox="0 0 1024 768"><desc>SVG generated by Keynote</desc><defs></defs><g transform="matrix(1.00, 0.00, -0.00, -1.00, 0.0, 768.0)"><path d="M 0.0 768.0 L 1024.0 768.0 L 1024.0 0.0 L 0.0 0.0 Z M 0.0 768.0 " fill="#FDFEF7"></path><text xml:space="preserve" font-family="HelveticaNeue,Helvetica Neue" font-size="60.0" fill="#304863" transform="matrix(1.00, 0.00, -0.00, -1.00, 34.8, 552.8)">•</text><text xml:space="preserve" font-family="HelveticaNeue,Helvetica Neue" font-size="48.0" fill="#304863" transform="matrix(1.00, 0.00, -0.00, -1.00, 79.8, 557.6)">A</text><text xml:space="preserve" font-family="HelveticaNeue,Helvetica Neue" font-size="48.0" fill="#304863" transform="matrix(1.00, 0.00, -0.00, -1.00, 110.9, 557.6)">c</text><text xml:space="preserve" font-family="HelveticaNeue,Helvetica Neue" font-size="48.0" fill="#304863" transform="matrix(1.00, 0.00, -0.00, -1.00, 136.7, 557.6)">c</text><text xml:space="preserve" font-family="HelveticaNeue,Helvetica Neue" font-size="48.0" fill="#304863" transform="matrix(1.00, 0.00, -0.00, -1.00, 162.4, 557.6)">e</text><text xml:space="preserve" font-family="HelveticaNeue,Helvetica Neue" font-size="48.0" fill="#304863" transform="matrix(1.00, 0.00, -0.00, -1.00, 188.2, 557.6)">p</text><text xml:space="preserve" font-family="HelveticaNeue,Helvetica Neue" font-size="48.0" fill="#304863" transform="matrix(1.00, 0.00, -0.00, -1.00, 216.7, 557.6)">t</text><text xml:space="preserve" font-family="HelveticaNeue,Helvetica Neue" font-size="48.0" fill="#304863" transform="matrix(1.00, 0.00, -0.00, -1.00, 231.8, 557.6)">o</text><text xml:space="preserve" font-family="HelveticaNeue,Helvetica Neue" font-size="48.0" fill="#304863" transform="matrix(1.00, 0.00, -0.00, -1.00, 259.4, 557.6)">r</text></g></svg>