<?xml version="1.0" encoding="UTF-8" standalone="no"?><svg xmlns="http://www.w3.org/2000/svg" xmlns:xlink="http://www.w3.org/1999/xlink" clip-rule="evenodd" stroke-miterlimit="10" viewBox="0 0 1024 768"><desc>SVG generated by Keynote</desc><defs></defs><g transform="matrix(1.00, 0.00, -0.00, -1.00, 0.0, 768.0)"><path d="M 0.0 768.0 L 1024.0 768.0 L 1024.0 0.0 L 0.0 0.0 Z M 0.0 768.0 " fill="#FDFEF7"></path><text xml:space="preserve" font-family="BebasNeue,Bebas Neue" font-size="78.0" fill="#5E5E5E" transform="matrix(1.00, 0.00, -0.00, -1.00, 24.0, 689.4)">B</text><text xml:space="preserve" font-family="BebasNeue,Bebas Neue" font-size="78.0" fill="#5E5E5E" transform="matrix(1.00, 0.00, -0.00, -1.00, 57.2, 689.4)">u</text><text xml:space="preserve" font-family="BebasNeue,Bebas Neue" font-size="78.0" fill="#5E5E5E" transform="matrix(1.00, 0.00, -0.00, -1.00, 89.8, 689.4)">t</text><text xml:space="preserve" font-family="BebasNeue,Bebas Neue" font-size="78.0" fill="#6EB1D8" transform="matrix(1.00, 0.00, -0.00, -1.00, 132.8, 689.4)">i</text><text xml:space="preserve" font-family="BebasNeue,Bebas Neue" font-size="78.0" fill="#6EB1D8" transform="matrix(1.00, 0.00, -0.00, -1.00, 149.2, 689.4)">t</text><text xml:space="preserve" font-family="BebasNeue,Bebas Neue" font-size="78.0" fill="#6EB1D8" transform="matrix(1.00, 0.00, -0.00, -1.00, 178.5, 689.4)">’</text><text xml:space="preserve" font-family="BebasNeue,Bebas Neue" font-size="78.0" fill="#6EB1D8" transform="matrix(1.00, 0.00, -0.00, -1.00, 194.2, 689.4)">s</text><text xml:space="preserve" font-family="BebasNeue,Bebas Neue" font-size="78.0" fill="#6EB1D8" transform="matrix(1.00, 0.00, -0.00, -1.00, 238.6, 689.4)">O</text><text xml:space="preserve" font-family="BebasNeue,Bebas Neue" font-size="78.0" fill="#6EB1D8" transform="matrix(1.00, 0.00, -0.00, -1.00, 271.0, 689.4)">K</text><text xml:space="preserve" font-family="BebasNeue,Bebas Neue" font-size="78.0" fill="#6EB1D8" transform="matrix(1.00, 0.00, -0.00, -1.00, 304.9, 689.4)">.</text><text xml:space="preserve" font-family="BebasNeue,Bebas Neue" font-size="78.0" fill="#6EB1D8" transform="matrix(1.00, 0.00, -0.00, -1.00, 320.9, 689.4)">.</text><text xml:space="preserve" font-family="BebasNeue,Bebas Neue" font-size="78.0" fill="#6EB1D8" transform="matrix(1.00, 0.00, -0.00, -1.00, 337.0, 689.4)">.</text><text xml:space="preserve" font-family="BebasNeue,Bebas Neue" font-size="78.0" fill="#6EB1D8" transform="matrix(1.00, 0.00, -0.00, -1.00, 353.1, 689.4)">b</text><text xml:space="preserve" font-family="BebasNeue,Bebas Neue" font-size="78.0" fill="#6EB1D8" transform="matrix(1.00, 0.00, -0.00, -1.00, 386.3, 689.4)">e</text><text xml:space="preserve" font-family="BebasNeue,Bebas Neue" font-size="78.0" fill="#6EB1D8" transform="matrix(1.00, 0.00, -0.00, -1.00, 416.6, 689.4)">c</text><text xml:space="preserve" font-family="BebasNeue,Bebas Neue" font-size="78.0" fill="#6EB1D8" transform="matrix(1.00, 0.00, -0.00, -1.00, 448.2, 689.4)">a</text><text xml:space="preserve" font-family="BebasNeue,Bebas Neue" font-size="78.0" fill="#6EB1D8" transform="matrix(1.00, 0.00, -0.00, -1.00, 481.5, 689.4)">u</text><text xml:space="preserve" font-family="BebasNeue,Bebas Neue" font-size="78.0" fill="#6EB1D8" transform="matrix(1.00, 0.00, -0.00, -1.00, 514.2, 689.4)">s</text><text xml:space="preserve" font-family="BebasNeue,Bebas Neue" font-size="78.0" fill="#6EB1D8" transform="matrix(1.00, 0.00, -0.00, -1.00, 544.9, 689.4)">e</text><text xml:space="preserve" font-family="BebasNeue,Bebas Neue" font-size="78.0" fill="#6EB1D8" transform="matrix(1.00, 0.00, -0.00, -1.00, 575.1, 689.4)">.</text><text xml:space="preserve" font-family="BebasNeue,Bebas Neue" font-size="78.0" fill="#6EB1D8" transform="matrix(1.00, 0.00, -0.00, -1.00, 591.2, 689.4)">.</text><text xml:space="preserve" font-family="BebasNeue,Bebas Neue" font-size="78.0" fill="#6EB1D8" transform="matrix(1.00, 0.00, -0.00, -1.00, 607.3, 689.4)">.</text><text xml:space="preserve" font-family="BebasNeue,Bebas Neue" font-size="78.0" fill="#6EB1D8" transform="matrix(1.00, 0.00, -0.00, -1.00, 623.4, 689.4)">r</text><text xml:space="preserve" font-family="BebasNeue,Bebas Neue" font-size="78.0" fill="#6EB1D8" transform="matrix(1.00, 0.00, -0.00, -1.00, 656.3, 689.4)">e</text><text xml:space="preserve" font-family="BebasNeue,Bebas Neue" font-size="78.0" fill="#6EB1D8" transform="matrix(1.00, 0.00, -0.00, -1.00, 686.5, 689.4)">f</text><text xml:space="preserve" font-family="BebasNeue,Bebas Neue" font-size="78.0" fill="#6EB1D8" transform="matrix(1.00, 0.00, -0.00, -1.00, 713.9, 689.4)">a</text><text xml:space="preserve" font-family="BebasNeue,Bebas Neue" font-size="78.0" fill="#6EB1D8" transform="matrix(1.00, 0.00, -0.00, -1.00, 747.1, 689.4)">c</text><text xml:space="preserve" font-family="BebasNeue,Bebas Neue" font-size="78.0" fill="#6EB1D8" transform="matrix(1.00, 0.00, -0.00, -1.00, 778.8, 689.4)">t</text><text xml:space="preserve" font-family="BebasNeue,Bebas Neue" font-size="78.0" fill="#6EB1D8" transform="matrix(1.00, 0.00, -0.00, -1.00, 808.1, 689.4)">o</text><text xml:space="preserve" font-family="BebasNeue,Bebas Neue" font-size="78.0" fill="#6EB1D8" transform="matrix(1.00, 0.00, -0.00, -1.00, 840.6, 689.4)">r</text><text xml:space="preserve" font-family="BebasNeue,Bebas Neue" font-size="78.0" fill="#6EB1D8" transform="matrix(1.00, 0.00, -0.00, -1.00, 873.5, 689.4)">i</text><text xml:space="preserve" font-family="BebasNeue,Bebas Neue" font-size="78.0" fill="#6EB1D8" transform="matrix(1.00, 0.00, -0.00, -1.00, 889.9, 689.4)">n</text><text xml:space="preserve" font-family="BebasNeue,Bebas Neue" font-size="78.0" fill="#6EB1D8" transform="matrix(1.00, 0.00, -0.00, -1.00, 924.7, 689.4)">g</text><image xlink:href="A2553D146D5AEFB3C6EC347754DB4E85.png" width="445.00" height="703.00" transform="matrix(1.00, 0.00, -0.00, -1.00, 293.2, 679.8)" opacity="0.75"></image><image xlink:href="../../09C1E5A1-774F-4FCD-BFEE-D046ED95131E/assets/FE4CD307344EF8D71F512CF2FDD8C3B1.png" width="241.00" height="394.00" transform="matrix(1.62, 0.00, -0.00, -1.62, 316.0, 663.0)"></image><image xlink:href="../../09C1E5A1-774F-4FCD-BFEE-D046ED95131E/assets/FF2FEEF5DD47C1372B2054463BC2BC89.png" width="425.00" height="683.00" transform="matrix(1.00, 0.00, -0.00, 1.00, 299.0, -9.2)"></image></g></svg>