<?xml version="1.0" encoding="UTF-8" standalone="no"?><svg xmlns="http://www.w3.org/2000/svg" xmlns:xlink="http://www.w3.org/1999/xlink" clip-rule="evenodd" stroke-miterlimit="10" viewBox="0 0 1024 768"><desc>SVG generated by Keynote</desc><defs></defs><g transform="matrix(1.00, 0.00, -0.00, -1.00, 0.0, 768.0)"><path d="M 0.0 768.0 L 1024.0 768.0 L 1024.0 0.0 L 0.0 0.0 Z M 0.0 768.0 " fill="#FDFEF7"></path><image xlink:href="760F6AC9EC6437DEB715A8DDCDF9AF50.png" width="1029.00" height="329.00" transform="matrix(1.00, 0.00, -0.00, -1.00, 1.7, 544.3)" opacity="0.75"></image><path d="M 7.5 537.5 L 1016.5 537.5 L 1016.5 229.5 L 7.5 229.5 Z M 7.9 538.0 " fill="#FFFFFF"></path><path d="M -0.4 0.5 L 1008.6 0.5 L 1008.6 308.5 L -0.4 308.5 Z M 0.0 0.0 " fill="none" stroke="#000000" stroke-width="1.00" transform="matrix(1.00, 0.00, 0.00, -1.00, 7.9, 538.0)"></path><g><clipPath id="clip0x7fda09a88950"><path d="M 2.2 206.2 L 1021.8 206.2 L 1021.8 543.8 L 2.2 543.8 Z M 2.2 206.2 "></path></clipPath><g clip-path="url(#clip0x7fda09a88950)"><text xml:space="preserve" font-family="AndaleMono,Andale Mono" font-size="40.0" fill="#4E7927" transform="matrix(1.00, 0.00, -0.00, -1.00, 13.4, 496.2)">/</text><text xml:space="preserve" font-family="AndaleMono,Andale Mono" font-size="40.0" fill="#4E7927" transform="matrix(1.00, 0.00, -0.00, -1.00, 34.0, 496.2)">/</text><text xml:space="preserve" font-family="AndaleMono,Andale Mono" font-size="40.0" fill="#4E7927" transform="matrix(1.00, 0.00, -0.00, -1.00, 54.6, 496.2)"> </text><text xml:space="preserve" font-family="AndaleMono,Andale Mono" font-size="40.0" fill="#4E7927" transform="matrix(1.00, 0.00, -0.00, -1.00, 75.2, 496.2)">y</text><text xml:space="preserve" font-family="AndaleMono,Andale Mono" font-size="40.0" fill="#4E7927" transform="matrix(1.00, 0.00, -0.00, -1.00, 95.7, 496.2)">o</text><text xml:space="preserve" font-family="AndaleMono,Andale Mono" font-size="40.0" fill="#4E7927" transform="matrix(1.00, 0.00, -0.00, -1.00, 116.3, 496.2)">u</text><text xml:space="preserve" font-family="AndaleMono,Andale Mono" font-size="40.0" fill="#4E7927" transform="matrix(1.00, 0.00, -0.00, -1.00, 136.9, 496.2)"> </text><text xml:space="preserve" font-family="AndaleMono,Andale Mono" font-size="40.0" fill="#4E7927" transform="matrix(1.00, 0.00, -0.00, -1.00, 157.5, 496.2)">c</text><text xml:space="preserve" font-family="AndaleMono,Andale Mono" font-size="40.0" fill="#4E7927" transform="matrix(1.00, 0.00, -0.00, -1.00, 178.0, 496.2)">o</text><text xml:space="preserve" font-family="AndaleMono,Andale Mono" font-size="40.0" fill="#4E7927" transform="matrix(1.00, 0.00, -0.00, -1.00, 198.6, 496.2)">u</text><text xml:space="preserve" font-family="AndaleMono,Andale Mono" font-size="40.0" fill="#4E7927" transform="matrix(1.00, 0.00, -0.00, -1.00, 219.2, 496.2)">l</text><text xml:space="preserve" font-family="AndaleMono,Andale Mono" font-size="40.0" fill="#4E7927" transform="matrix(1.00, 0.00, -0.00, -1.00, 239.7, 496.2)">d</text><text xml:space="preserve" font-family="AndaleMono,Andale Mono" font-size="40.0" fill="#4E7927" transform="matrix(1.00, 0.00, -0.00, -1.00, 260.3, 496.2)"> </text><text xml:space="preserve" font-family="AndaleMono,Andale Mono" font-size="40.0" fill="#4E7927" transform="matrix(1.00, 0.00, -0.00, -1.00, 280.9, 496.2)">d</text><text xml:space="preserve" font-family="AndaleMono,Andale Mono" font-size="40.0" fill="#4E7927" transform="matrix(1.00, 0.00, -0.00, -1.00, 301.5, 496.2)">o</text><text xml:space="preserve" font-family="AndaleMono,Andale Mono" font-size="40.0" fill="#4E7927" transform="matrix(1.00, 0.00, -0.00, -1.00, 322.0, 496.2)"> </text><text xml:space="preserve" font-family="AndaleMono,Andale Mono" font-size="40.0" fill="#4E7927" transform="matrix(1.00, 0.00, -0.00, -1.00, 342.6, 496.2)">t</text><text xml:space="preserve" font-family="AndaleMono,Andale Mono" font-size="40.0" fill="#4E7927" transform="matrix(1.00, 0.00, -0.00, -1.00, 363.2, 496.2)">h</text><text xml:space="preserve" font-family="AndaleMono,Andale Mono" font-size="40.0" fill="#4E7927" transform="matrix(1.00, 0.00, -0.00, -1.00, 383.7, 496.2)">i</text><text xml:space="preserve" font-family="AndaleMono,Andale Mono" font-size="40.0" fill="#4E7927" transform="matrix(1.00, 0.00, -0.00, -1.00, 404.3, 496.2)">s</text><text xml:space="preserve" font-family="AndaleMono,Andale Mono" font-size="40.0" fill="#304864" transform="matrix(1.00, 0.00, -0.00, -1.00, 424.8, 496.2)"> </text><text xml:space="preserve" font-family="AndaleMono,Andale Mono" font-size="40.0" fill="#304864" transform="matrix(1.00, 0.00, -0.00, -1.00, 13.4, 433.2)">t</text><text xml:space="preserve" font-family="AndaleMono,Andale Mono" font-size="40.0" fill="#304864" transform="matrix(1.00, 0.00, -0.00, -1.00, 34.0, 433.2)">u</text><text xml:space="preserve" font-family="AndaleMono,Andale Mono" font-size="40.0" fill="#304864" transform="matrix(1.00, 0.00, -0.00, -1.00, 54.6, 433.2)">r</text><text xml:space="preserve" font-family="AndaleMono,Andale Mono" font-size="40.0" fill="#304864" transform="matrix(1.00, 0.00, -0.00, -1.00, 75.2, 433.2)">n</text><text xml:space="preserve" font-family="AndaleMono,Andale Mono" font-size="40.0" fill="#304864" transform="matrix(1.00, 0.00, -0.00, -1.00, 95.7, 433.2)">s</text><text xml:space="preserve" font-family="AndaleMono,Andale Mono" font-size="40.0" fill="#304864" transform="matrix(1.00, 0.00, -0.00, -1.00, 116.3, 433.2)">t</text><text xml:space="preserve" font-family="AndaleMono,Andale Mono" font-size="40.0" fill="#304864" transform="matrix(1.00, 0.00, -0.00, -1.00, 136.9, 433.2)">i</text><text xml:space="preserve" font-family="AndaleMono,Andale Mono" font-size="40.0" fill="#304864" transform="matrix(1.00, 0.00, -0.00, -1.00, 157.5, 433.2)">l</text><text xml:space="preserve" font-family="AndaleMono,Andale Mono" font-size="40.0" fill="#304864" transform="matrix(1.00, 0.00, -0.00, -1.00, 178.0, 433.2)">e</text><text xml:space="preserve" font-family="AndaleMono,Andale Mono" font-size="40.0" fill="#304864" transform="matrix(1.00, 0.00, -0.00, -1.00, 198.6, 433.2)">.</text><text xml:space="preserve" font-family="AndaleMono,Andale Mono" font-size="40.0" fill="#304864" transform="matrix(1.00, 0.00, -0.00, -1.00, 219.2, 433.2)">h</text><text xml:space="preserve" font-family="AndaleMono,Andale Mono" font-size="40.0" fill="#304864" transform="matrix(1.00, 0.00, -0.00, -1.00, 239.7, 433.2)">a</text><text xml:space="preserve" font-family="AndaleMono,Andale Mono" font-size="40.0" fill="#304864" transform="matrix(1.00, 0.00, -0.00, -1.00, 260.3, 433.2)">n</text><text xml:space="preserve" font-family="AndaleMono,Andale Mono" font-size="40.0" fill="#304864" transform="matrix(1.00, 0.00, -0.00, -1.00, 280.9, 433.2)">d</text><text xml:space="preserve" font-family="AndaleMono,Andale Mono" font-size="40.0" fill="#304864" transform="matrix(1.00, 0.00, -0.00, -1.00, 301.5, 433.2)">l</text><text xml:space="preserve" font-family="AndaleMono,Andale Mono" font-size="40.0" fill="#304864" transform="matrix(1.00, 0.00, -0.00, -1.00, 322.0, 433.2)">e</text><text xml:space="preserve" font-family="AndaleMono,Andale Mono" font-size="40.0" fill="#304864" transform="matrix(1.00, 0.00, -0.00, -1.00, 342.6, 433.2)">(</text><text xml:space="preserve" font-family="AndaleMono,Andale Mono" font-size="40.0" fill="#304864" transform="matrix(1.00, 0.00, -0.00, -1.00, 363.2, 433.2)">“</text><text xml:space="preserve" font-family="AndaleMono,Andale Mono" font-size="40.0" fill="#E22400" transform="matrix(1.00, 0.00, -0.00, -1.00, 383.6, 433.2)">p</text><text xml:space="preserve" font-family="AndaleMono,Andale Mono" font-size="40.0" fill="#E22400" transform="matrix(1.00, 0.00, -0.00, -1.00, 404.2, 433.2)">u</text><text xml:space="preserve" font-family="AndaleMono,Andale Mono" font-size="40.0" fill="#E22400" transform="matrix(1.00, 0.00, -0.00, -1.00, 424.8, 433.2)">s</text><text xml:space="preserve" font-family="AndaleMono,Andale Mono" font-size="40.0" fill="#E22400" transform="matrix(1.00, 0.00, -0.00, -1.00, 445.4, 433.2)">h</text><text xml:space="preserve" font-family="AndaleMono,Andale Mono" font-size="40.0" fill="#304864" transform="matrix(1.00, 0.00, -0.00, -1.00, 465.9, 433.2)">”</text><text xml:space="preserve" font-family="AndaleMono,Andale Mono" font-size="40.0" fill="#304864" transform="matrix(1.00, 0.00, -0.00, -1.00, 486.5, 433.2)">)</text><text xml:space="preserve" font-family="AndaleMono,Andale Mono" font-size="40.0" fill="#304863" transform="matrix(1.00, 0.00, -0.00, -1.00, 507.0, 433.2)">;</text><text xml:space="preserve" font-family="AndaleMono,Andale Mono" font-size="40.0" fill="#304863" transform="matrix(1.00, 0.00, -0.00, -1.00, 527.6, 433.2)"> </text><text xml:space="preserve" font-family="AndaleMono,Andale Mono" font-size="40.0" fill="#4E7927" transform="matrix(1.00, 0.00, -0.00, -1.00, 548.2, 433.2)">/</text><text xml:space="preserve" font-family="AndaleMono,Andale Mono" font-size="40.0" fill="#4E7927" transform="matrix(1.00, 0.00, -0.00, -1.00, 568.7, 433.2)">/</text><text xml:space="preserve" font-family="AndaleMono,Andale Mono" font-size="40.0" fill="#4E7927" transform="matrix(1.00, 0.00, -0.00, -1.00, 589.3, 433.2)">s</text><text xml:space="preserve" font-family="AndaleMono,Andale Mono" font-size="40.0" fill="#4E7927" transform="matrix(1.00, 0.00, -0.00, -1.00, 609.9, 433.2)">o</text><text xml:space="preserve" font-family="AndaleMono,Andale Mono" font-size="40.0" fill="#4E7927" transform="matrix(1.00, 0.00, -0.00, -1.00, 630.5, 433.2)">r</text><text xml:space="preserve" font-family="AndaleMono,Andale Mono" font-size="40.0" fill="#4E7927" transform="matrix(1.00, 0.00, -0.00, -1.00, 651.0, 433.2)">r</text><text xml:space="preserve" font-family="AndaleMono,Andale Mono" font-size="40.0" fill="#4E7927" transform="matrix(1.00, 0.00, -0.00, -1.00, 671.6, 433.2)">y</text><text xml:space="preserve" font-family="AndaleMono,Andale Mono" font-size="40.0" fill="#4E7927" transform="matrix(1.00, 0.00, -0.00, -1.00, 692.2, 433.2)">,</text><text xml:space="preserve" font-family="AndaleMono,Andale Mono" font-size="40.0" fill="#4E7927" transform="matrix(1.00, 0.00, -0.00, -1.00, 712.7, 433.2)"> </text><text xml:space="preserve" font-family="AndaleMono,Andale Mono" font-size="40.0" fill="#4E7927" transform="matrix(1.00, 0.00, -0.00, -1.00, 733.3, 433.2)">n</text><text xml:space="preserve" font-family="AndaleMono,Andale Mono" font-size="40.0" fill="#4E7927" transform="matrix(1.00, 0.00, -0.00, -1.00, 753.9, 433.2)">o</text><text xml:space="preserve" font-family="AndaleMono,Andale Mono" font-size="40.0" fill="#4E7927" transform="matrix(1.00, 0.00, -0.00, -1.00, 774.5, 433.2)">t</text><text xml:space="preserve" font-family="AndaleMono,Andale Mono" font-size="40.0" fill="#4E7927" transform="matrix(1.00, 0.00, -0.00, -1.00, 795.0, 433.2)"> </text><text xml:space="preserve" font-family="AndaleMono,Andale Mono" font-size="40.0" fill="#4E7927" transform="matrix(1.00, 0.00, -0.00, -1.00, 815.6, 433.2)">s</text><text xml:space="preserve" font-family="AndaleMono,Andale Mono" font-size="40.0" fill="#4E7927" transform="matrix(1.00, 0.00, -0.00, -1.00, 836.2, 433.2)">o</text><text xml:space="preserve" font-family="AndaleMono,Andale Mono" font-size="40.0" fill="#4E7927" transform="matrix(1.00, 0.00, -0.00, -1.00, 856.8, 433.2)"> </text><text xml:space="preserve" font-family="AndaleMono,Andale Mono" font-size="40.0" fill="#4E7927" transform="matrix(1.00, 0.00, -0.00, -1.00, 877.3, 433.2)">m</text><text xml:space="preserve" font-family="AndaleMono,Andale Mono" font-size="40.0" fill="#4E7927" transform="matrix(1.00, 0.00, -0.00, -1.00, 897.9, 433.2)">u</text><text xml:space="preserve" font-family="AndaleMono,Andale Mono" font-size="40.0" fill="#4E7927" transform="matrix(1.00, 0.00, -0.00, -1.00, 918.5, 433.2)">c</text><text xml:space="preserve" font-family="AndaleMono,Andale Mono" font-size="40.0" fill="#4E7927" transform="matrix(1.00, 0.00, -0.00, -1.00, 939.0, 433.2)">h</text><text xml:space="preserve" font-family="AndaleMono,Andale Mono" font-size="40.0" fill="#304863" transform="matrix(1.00, 0.00, -0.00, -1.00, 959.5, 433.2)"> </text><text xml:space="preserve" font-family="AndaleMono,Andale Mono" font-size="40.0" fill="#304864" transform="matrix(1.00, 0.00, -0.00, -1.00, 13.4, 370.2)">t</text><text xml:space="preserve" font-family="AndaleMono,Andale Mono" font-size="40.0" fill="#304864" transform="matrix(1.00, 0.00, -0.00, -1.00, 34.0, 370.2)">u</text><text xml:space="preserve" font-family="AndaleMono,Andale Mono" font-size="40.0" fill="#304864" transform="matrix(1.00, 0.00, -0.00, -1.00, 54.6, 370.2)">r</text><text xml:space="preserve" font-family="AndaleMono,Andale Mono" font-size="40.0" fill="#304864" transform="matrix(1.00, 0.00, -0.00, -1.00, 75.2, 370.2)">n</text><text xml:space="preserve" font-family="AndaleMono,Andale Mono" font-size="40.0" fill="#304864" transform="matrix(1.00, 0.00, -0.00, -1.00, 95.7, 370.2)">s</text><text xml:space="preserve" font-family="AndaleMono,Andale Mono" font-size="40.0" fill="#304864" transform="matrix(1.00, 0.00, -0.00, -1.00, 116.3, 370.2)">t</text><text xml:space="preserve" font-family="AndaleMono,Andale Mono" font-size="40.0" fill="#304864" transform="matrix(1.00, 0.00, -0.00, -1.00, 136.9, 370.2)">i</text><text xml:space="preserve" font-family="AndaleMono,Andale Mono" font-size="40.0" fill="#304864" transform="matrix(1.00, 0.00, -0.00, -1.00, 157.5, 370.2)">l</text><text xml:space="preserve" font-family="AndaleMono,Andale Mono" font-size="40.0" fill="#304864" transform="matrix(1.00, 0.00, -0.00, -1.00, 178.0, 370.2)">e</text><text xml:space="preserve" font-family="AndaleMono,Andale Mono" font-size="40.0" fill="#304863" transform="matrix(1.00, 0.00, -0.00, -1.00, 198.5, 370.2)">.</text><text xml:space="preserve" font-family="AndaleMono,Andale Mono" font-size="40.0" fill="#304863" transform="matrix(1.00, 0.00, -0.00, -1.00, 219.1, 370.2)">h</text><text xml:space="preserve" font-family="AndaleMono,Andale Mono" font-size="40.0" fill="#304863" transform="matrix(1.00, 0.00, -0.00, -1.00, 239.7, 370.2)">a</text><text xml:space="preserve" font-family="AndaleMono,Andale Mono" font-size="40.0" fill="#304863" transform="matrix(1.00, 0.00, -0.00, -1.00, 260.3, 370.2)">n</text><text xml:space="preserve" font-family="AndaleMono,Andale Mono" font-size="40.0" fill="#304863" transform="matrix(1.00, 0.00, -0.00, -1.00, 280.8, 370.2)">d</text><text xml:space="preserve" font-family="AndaleMono,Andale Mono" font-size="40.0" fill="#304863" transform="matrix(1.00, 0.00, -0.00, -1.00, 301.4, 370.2)">l</text><text xml:space="preserve" font-family="AndaleMono,Andale Mono" font-size="40.0" fill="#304863" transform="matrix(1.00, 0.00, -0.00, -1.00, 322.0, 370.2)">e</text><text xml:space="preserve" font-family="AndaleMono,Andale Mono" font-size="40.0" fill="#304863" transform="matrix(1.00, 0.00, -0.00, -1.00, 342.5, 370.2)">(</text><text xml:space="preserve" font-family="AndaleMono,Andale Mono" font-size="40.0" fill="#304863" transform="matrix(1.00, 0.00, -0.00, -1.00, 363.1, 370.2)">“</text><text xml:space="preserve" font-family="AndaleMono,Andale Mono" font-size="40.0" fill="#E22400" transform="matrix(1.00, 0.00, -0.00, -1.00, 383.6, 370.2)">p</text><text xml:space="preserve" font-family="AndaleMono,Andale Mono" font-size="40.0" fill="#E22400" transform="matrix(1.00, 0.00, -0.00, -1.00, 404.2, 370.2)">a</text><text xml:space="preserve" font-family="AndaleMono,Andale Mono" font-size="40.0" fill="#E22400" transform="matrix(1.00, 0.00, -0.00, -1.00, 424.8, 370.2)">y</text><text xml:space="preserve" font-family="AndaleMono,Andale Mono" font-size="40.0" fill="#E22400" transform="matrix(1.00, 0.00, -0.00, -1.00, 445.4, 370.2)">m</text><text xml:space="preserve" font-family="AndaleMono,Andale Mono" font-size="40.0" fill="#E22400" transform="matrix(1.00, 0.00, -0.00, -1.00, 465.9, 370.2)">e</text><text xml:space="preserve" font-family="AndaleMono,Andale Mono" font-size="40.0" fill="#E22400" transform="matrix(1.00, 0.00, -0.00, -1.00, 486.5, 370.2)">n</text><text xml:space="preserve" font-family="AndaleMono,Andale Mono" font-size="40.0" fill="#E22400" transform="matrix(1.00, 0.00, -0.00, -1.00, 507.1, 370.2)">t</text><text xml:space="preserve" font-family="AndaleMono,Andale Mono" font-size="40.0" fill="#304863" transform="matrix(1.00, 0.00, -0.00, -1.00, 527.6, 370.2)">”</text><text xml:space="preserve" font-family="AndaleMono,Andale Mono" font-size="40.0" fill="#304863" transform="matrix(1.00, 0.00, -0.00, -1.00, 548.2, 370.2)">)</text><text xml:space="preserve" font-family="AndaleMono,Andale Mono" font-size="40.0" fill="#304863" transform="matrix(1.00, 0.00, -0.00, -1.00, 568.8, 370.2)">;</text><text xml:space="preserve" font-family="AndaleMono,Andale Mono" font-size="40.0" fill="#304863" transform="matrix(1.00, 0.00, -0.00, -1.00, 589.3, 370.2)"> </text><text xml:space="preserve" font-family="AndaleMono,Andale Mono" font-size="40.0" fill="#4E7927" transform="matrix(1.00, 0.00, -0.00, -1.00, 609.9, 370.2)">/</text><text xml:space="preserve" font-family="AndaleMono,Andale Mono" font-size="40.0" fill="#4E7927" transform="matrix(1.00, 0.00, -0.00, -1.00, 630.4, 370.2)">/</text><text xml:space="preserve" font-family="AndaleMono,Andale Mono" font-size="40.0" fill="#4E7927" transform="matrix(1.00, 0.00, -0.00, -1.00, 651.0, 370.2)">t</text><text xml:space="preserve" font-family="AndaleMono,Andale Mono" font-size="40.0" fill="#4E7927" transform="matrix(1.00, 0.00, -0.00, -1.00, 671.6, 370.2)">r</text><text xml:space="preserve" font-family="AndaleMono,Andale Mono" font-size="40.0" fill="#4E7927" transform="matrix(1.00, 0.00, -0.00, -1.00, 692.2, 370.2)">a</text><text xml:space="preserve" font-family="AndaleMono,Andale Mono" font-size="40.0" fill="#4E7927" transform="matrix(1.00, 0.00, -0.00, -1.00, 712.7, 370.2)">n</text><text xml:space="preserve" font-family="AndaleMono,Andale Mono" font-size="40.0" fill="#4E7927" transform="matrix(1.00, 0.00, -0.00, -1.00, 733.3, 370.2)">s</text><text xml:space="preserve" font-family="AndaleMono,Andale Mono" font-size="40.0" fill="#4E7927" transform="matrix(1.00, 0.00, -0.00, -1.00, 753.9, 370.2)">.</text><text xml:space="preserve" font-family="AndaleMono,Andale Mono" font-size="40.0" fill="#4E7927" transform="matrix(1.00, 0.00, -0.00, -1.00, 774.4, 370.2)">-</text><text xml:space="preserve" font-family="AndaleMono,Andale Mono" font-size="40.0" fill="#4E7927" transform="matrix(1.00, 0.00, -0.00, -1.00, 795.0, 370.2)">&gt;</text><text xml:space="preserve" font-family="AndaleMono,Andale Mono" font-size="40.0" fill="#4E7927" transform="matrix(1.00, 0.00, -0.00, -1.00, 815.6, 370.2)"> </text><text xml:space="preserve" font-family="AndaleMono,Andale Mono" font-size="40.0" fill="#4E7927" transform="matrix(1.00, 0.00, -0.00, -1.00, 836.2, 370.2)">u</text><text xml:space="preserve" font-family="AndaleMono,Andale Mono" font-size="40.0" fill="#4E7927" transform="matrix(1.00, 0.00, -0.00, -1.00, 856.7, 370.2)">n</text><text xml:space="preserve" font-family="AndaleMono,Andale Mono" font-size="40.0" fill="#4E7927" transform="matrix(1.00, 0.00, -0.00, -1.00, 877.3, 370.2)">l</text><text xml:space="preserve" font-family="AndaleMono,Andale Mono" font-size="40.0" fill="#4E7927" transform="matrix(1.00, 0.00, -0.00, -1.00, 897.9, 370.2)">o</text><text xml:space="preserve" font-family="AndaleMono,Andale Mono" font-size="40.0" fill="#4E7927" transform="matrix(1.00, 0.00, -0.00, -1.00, 918.5, 370.2)">c</text><text xml:space="preserve" font-family="AndaleMono,Andale Mono" font-size="40.0" fill="#4E7927" transform="matrix(1.00, 0.00, -0.00, -1.00, 939.0, 370.2)">k</text><text xml:space="preserve" font-family="AndaleMono,Andale Mono" font-size="40.0" fill="#4E7927" transform="matrix(1.00, 0.00, -0.00, -1.00, 959.6, 370.2)">e</text><text xml:space="preserve" font-family="AndaleMono,Andale Mono" font-size="40.0" fill="#4E7927" transform="matrix(1.00, 0.00, -0.00, -1.00, 980.2, 370.2)">d</text><text xml:space="preserve" font-family="AndaleMono,Andale Mono" font-size="40.0" fill="#304863" transform="matrix(1.00, 0.00, -0.00, -1.00, 1000.6, 370.2)"> </text><text xml:space="preserve" font-family="AndaleMono,Andale Mono" font-size="40.0" fill="#304864" transform="matrix(1.00, 0.00, -0.00, -1.00, 13.4, 307.2)">t</text><text xml:space="preserve" font-family="AndaleMono,Andale Mono" font-size="40.0" fill="#304864" transform="matrix(1.00, 0.00, -0.00, -1.00, 34.0, 307.2)">u</text><text xml:space="preserve" font-family="AndaleMono,Andale Mono" font-size="40.0" fill="#304864" transform="matrix(1.00, 0.00, -0.00, -1.00, 54.6, 307.2)">r</text><text xml:space="preserve" font-family="AndaleMono,Andale Mono" font-size="40.0" fill="#304864" transform="matrix(1.00, 0.00, -0.00, -1.00, 75.2, 307.2)">n</text><text xml:space="preserve" font-family="AndaleMono,Andale Mono" font-size="40.0" fill="#304864" transform="matrix(1.00, 0.00, -0.00, -1.00, 95.7, 307.2)">s</text><text xml:space="preserve" font-family="AndaleMono,Andale Mono" font-size="40.0" fill="#304864" transform="matrix(1.00, 0.00, -0.00, -1.00, 116.3, 307.2)">t</text><text xml:space="preserve" font-family="AndaleMono,Andale Mono" font-size="40.0" fill="#304864" transform="matrix(1.00, 0.00, -0.00, -1.00, 136.9, 307.2)">i</text><text xml:space="preserve" font-family="AndaleMono,Andale Mono" font-size="40.0" fill="#304864" transform="matrix(1.00, 0.00, -0.00, -1.00, 157.5, 307.2)">l</text><text xml:space="preserve" font-family="AndaleMono,Andale Mono" font-size="40.0" fill="#304864" transform="matrix(1.00, 0.00, -0.00, -1.00, 178.0, 307.2)">e</text><text xml:space="preserve" font-family="AndaleMono,Andale Mono" font-size="40.0" fill="#304863" transform="matrix(1.00, 0.00, -0.00, -1.00, 198.5, 307.2)">.</text><text xml:space="preserve" font-family="AndaleMono,Andale Mono" font-size="40.0" fill="#304863" transform="matrix(1.00, 0.00, -0.00, -1.00, 219.1, 307.2)">h</text><text xml:space="preserve" font-family="AndaleMono,Andale Mono" font-size="40.0" fill="#304863" transform="matrix(1.00, 0.00, -0.00, -1.00, 239.7, 307.2)">a</text><text xml:space="preserve" font-family="AndaleMono,Andale Mono" font-size="40.0" fill="#304863" transform="matrix(1.00, 0.00, -0.00, -1.00, 260.3, 307.2)">n</text><text xml:space="preserve" font-family="AndaleMono,Andale Mono" font-size="40.0" fill="#304863" transform="matrix(1.00, 0.00, -0.00, -1.00, 280.8, 307.2)">d</text><text xml:space="preserve" font-family="AndaleMono,Andale Mono" font-size="40.0" fill="#304863" transform="matrix(1.00, 0.00, -0.00, -1.00, 301.4, 307.2)">l</text><text xml:space="preserve" font-family="AndaleMono,Andale Mono" font-size="40.0" fill="#304863" transform="matrix(1.00, 0.00, -0.00, -1.00, 322.0, 307.2)">e</text><text xml:space="preserve" font-family="AndaleMono,Andale Mono" font-size="40.0" fill="#304863" transform="matrix(1.00, 0.00, -0.00, -1.00, 342.5, 307.2)">(</text><text xml:space="preserve" font-family="AndaleMono,Andale Mono" font-size="40.0" fill="#304863" transform="matrix(1.00, 0.00, -0.00, -1.00, 363.1, 307.2)">“</text><text xml:space="preserve" font-family="AndaleMono,Andale Mono" font-size="40.0" fill="#E22400" transform="matrix(1.00, 0.00, -0.00, -1.00, 383.6, 307.2)">p</text><text xml:space="preserve" font-family="AndaleMono,Andale Mono" font-size="40.0" fill="#E22400" transform="matrix(1.00, 0.00, -0.00, -1.00, 404.2, 307.2)">a</text><text xml:space="preserve" font-family="AndaleMono,Andale Mono" font-size="40.0" fill="#E22400" transform="matrix(1.00, 0.00, -0.00, -1.00, 424.8, 307.2)">y</text><text xml:space="preserve" font-family="AndaleMono,Andale Mono" font-size="40.0" fill="#E22400" transform="matrix(1.00, 0.00, -0.00, -1.00, 445.4, 307.2)">m</text><text xml:space="preserve" font-family="AndaleMono,Andale Mono" font-size="40.0" fill="#E22400" transform="matrix(1.00, 0.00, -0.00, -1.00, 465.9, 307.2)">e</text><text xml:space="preserve" font-family="AndaleMono,Andale Mono" font-size="40.0" fill="#E22400" transform="matrix(1.00, 0.00, -0.00, -1.00, 486.5, 307.2)">n</text><text xml:space="preserve" font-family="AndaleMono,Andale Mono" font-size="40.0" fill="#E22400" transform="matrix(1.00, 0.00, -0.00, -1.00, 507.1, 307.2)">t</text><text xml:space="preserve" font-family="AndaleMono,Andale Mono" font-size="40.0" fill="#304863" transform="matrix(1.00, 0.00, -0.00, -1.00, 527.6, 307.2)">”</text><text xml:space="preserve" font-family="AndaleMono,Andale Mono" font-size="40.0" fill="#304863" transform="matrix(1.00, 0.00, -0.00, -1.00, 548.2, 307.2)">)</text><text xml:space="preserve" font-family="AndaleMono,Andale Mono" font-size="40.0" fill="#304863" transform="matrix(1.00, 0.00, -0.00, -1.00, 568.8, 307.2)">;</text><text xml:space="preserve" font-family="AndaleMono,Andale Mono" font-size="40.0" fill="#304863" transform="matrix(1.00, 0.00, -0.00, -1.00, 589.3, 307.2)"> </text><text xml:space="preserve" font-family="AndaleMono,Andale Mono" font-size="40.0" fill="#4E7927" transform="matrix(1.00, 0.00, -0.00, -1.00, 609.9, 307.2)">/</text><text xml:space="preserve" font-family="AndaleMono,Andale Mono" font-size="40.0" fill="#4E7927" transform="matrix(1.00, 0.00, -0.00, -1.00, 630.4, 307.2)">/</text><text xml:space="preserve" font-family="AndaleMono,Andale Mono" font-size="40.0" fill="#4E7927" transform="matrix(1.00, 0.00, -0.00, -1.00, 651.0, 307.2)">o</text><text xml:space="preserve" font-family="AndaleMono,Andale Mono" font-size="40.0" fill="#4E7927" transform="matrix(1.00, 0.00, -0.00, -1.00, 671.6, 307.2)">o</text><text xml:space="preserve" font-family="AndaleMono,Andale Mono" font-size="40.0" fill="#4E7927" transform="matrix(1.00, 0.00, -0.00, -1.00, 692.2, 307.2)">p</text><text xml:space="preserve" font-family="AndaleMono,Andale Mono" font-size="40.0" fill="#4E7927" transform="matrix(1.00, 0.00, -0.00, -1.00, 712.7, 307.2)">s</text><text xml:space="preserve" font-family="AndaleMono,Andale Mono" font-size="40.0" fill="#4E7927" transform="matrix(1.00, 0.00, -0.00, -1.00, 733.3, 307.2)">,</text><text xml:space="preserve" font-family="AndaleMono,Andale Mono" font-size="40.0" fill="#4E7927" transform="matrix(1.00, 0.00, -0.00, -1.00, 753.9, 307.2)"> </text><text xml:space="preserve" font-family="AndaleMono,Andale Mono" font-size="40.0" fill="#4E7927" transform="matrix(1.00, 0.00, -0.00, -1.00, 774.4, 307.2)">w</text><text xml:space="preserve" font-family="AndaleMono,Andale Mono" font-size="40.0" fill="#4E7927" transform="matrix(1.00, 0.00, -0.00, -1.00, 795.0, 307.2)">a</text><text xml:space="preserve" font-family="AndaleMono,Andale Mono" font-size="40.0" fill="#4E7927" transform="matrix(1.00, 0.00, -0.00, -1.00, 815.6, 307.2)">s</text><text xml:space="preserve" font-family="AndaleMono,Andale Mono" font-size="40.0" fill="#4E7927" transform="matrix(1.00, 0.00, -0.00, -1.00, 836.2, 307.2)">t</text><text xml:space="preserve" font-family="AndaleMono,Andale Mono" font-size="40.0" fill="#4E7927" transform="matrix(1.00, 0.00, -0.00, -1.00, 856.7, 307.2)">e</text><text xml:space="preserve" font-family="AndaleMono,Andale Mono" font-size="40.0" fill="#4E7927" transform="matrix(1.00, 0.00, -0.00, -1.00, 877.3, 307.2)">d</text><text xml:space="preserve" font-family="AndaleMono,Andale Mono" font-size="40.0" fill="#4E7927" transform="matrix(1.00, 0.00, -0.00, -1.00, 897.9, 307.2)"> </text><text xml:space="preserve" font-family="AndaleMono,Andale Mono" font-size="40.0" fill="#4E7927" transform="matrix(1.00, 0.00, -0.00, -1.00, 918.5, 307.2)">$</text><text xml:space="preserve" font-family="AndaleMono,Andale Mono" font-size="40.0" fill="#4E7927" transform="matrix(1.00, 0.00, -0.00, -1.00, 939.0, 307.2)">$</text><text xml:space="preserve" font-family="AndaleMono,Andale Mono" font-size="40.0" fill="#304863" transform="matrix(1.00, 0.00, -0.00, -1.00, 959.5, 307.2)"> </text><text xml:space="preserve" font-family="AndaleMono,Andale Mono" font-size="40.0" fill="#304864" transform="matrix(1.00, 0.00, -0.00, -1.00, 13.4, 244.2)">t</text><text xml:space="preserve" font-family="AndaleMono,Andale Mono" font-size="40.0" fill="#304864" transform="matrix(1.00, 0.00, -0.00, -1.00, 34.0, 244.2)">u</text><text xml:space="preserve" font-family="AndaleMono,Andale Mono" font-size="40.0" fill="#304864" transform="matrix(1.00, 0.00, -0.00, -1.00, 54.6, 244.2)">r</text><text xml:space="preserve" font-family="AndaleMono,Andale Mono" font-size="40.0" fill="#304864" transform="matrix(1.00, 0.00, -0.00, -1.00, 75.2, 244.2)">n</text><text xml:space="preserve" font-family="AndaleMono,Andale Mono" font-size="40.0" fill="#304864" transform="matrix(1.00, 0.00, -0.00, -1.00, 95.7, 244.2)">s</text><text xml:space="preserve" font-family="AndaleMono,Andale Mono" font-size="40.0" fill="#304864" transform="matrix(1.00, 0.00, -0.00, -1.00, 116.3, 244.2)">t</text><text xml:space="preserve" font-family="AndaleMono,Andale Mono" font-size="40.0" fill="#304864" transform="matrix(1.00, 0.00, -0.00, -1.00, 136.9, 244.2)">i</text><text xml:space="preserve" font-family="AndaleMono,Andale Mono" font-size="40.0" fill="#304864" transform="matrix(1.00, 0.00, -0.00, -1.00, 157.5, 244.2)">l</text><text xml:space="preserve" font-family="AndaleMono,Andale Mono" font-size="40.0" fill="#304864" transform="matrix(1.00, 0.00, -0.00, -1.00, 178.0, 244.2)">e</text><text xml:space="preserve" font-family="AndaleMono,Andale Mono" font-size="40.0" fill="#304863" transform="matrix(1.00, 0.00, -0.00, -1.00, 198.5, 244.2)">.</text><text xml:space="preserve" font-family="AndaleMono,Andale Mono" font-size="40.0" fill="#304863" transform="matrix(1.00, 0.00, -0.00, -1.00, 219.1, 244.2)">h</text><text xml:space="preserve" font-family="AndaleMono,Andale Mono" font-size="40.0" fill="#304863" transform="matrix(1.00, 0.00, -0.00, -1.00, 239.7, 244.2)">a</text><text xml:space="preserve" font-family="AndaleMono,Andale Mono" font-size="40.0" fill="#304863" transform="matrix(1.00, 0.00, -0.00, -1.00, 260.3, 244.2)">n</text><text xml:space="preserve" font-family="AndaleMono,Andale Mono" font-size="40.0" fill="#304863" transform="matrix(1.00, 0.00, -0.00, -1.00, 280.8, 244.2)">d</text><text xml:space="preserve" font-family="AndaleMono,Andale Mono" font-size="40.0" fill="#304863" transform="matrix(1.00, 0.00, -0.00, -1.00, 301.4, 244.2)">l</text><text xml:space="preserve" font-family="AndaleMono,Andale Mono" font-size="40.0" fill="#304863" transform="matrix(1.00, 0.00, -0.00, -1.00, 322.0, 244.2)">e</text><text xml:space="preserve" font-family="AndaleMono,Andale Mono" font-size="40.0" fill="#304863" transform="matrix(1.00, 0.00, -0.00, -1.00, 342.5, 244.2)">(</text><text xml:space="preserve" font-family="AndaleMono,Andale Mono" font-size="40.0" fill="#304863" transform="matrix(1.00, 0.00, -0.00, -1.00, 363.1, 244.2)">“</text><text xml:space="preserve" font-family="AndaleMono,Andale Mono" font-size="40.0" fill="#E22400" transform="matrix(1.00, 0.00, -0.00, -1.00, 383.6, 244.2)">p</text><text xml:space="preserve" font-family="AndaleMono,Andale Mono" font-size="40.0" fill="#E22400" transform="matrix(1.00, 0.00, -0.00, -1.00, 404.2, 244.2)">u</text><text xml:space="preserve" font-family="AndaleMono,Andale Mono" font-size="40.0" fill="#E22400" transform="matrix(1.00, 0.00, -0.00, -1.00, 424.8, 244.2)">s</text><text xml:space="preserve" font-family="AndaleMono,Andale Mono" font-size="40.0" fill="#E22400" transform="matrix(1.00, 0.00, -0.00, -1.00, 445.4, 244.2)">h</text><text xml:space="preserve" font-family="AndaleMono,Andale Mono" font-size="40.0" fill="#304863" transform="matrix(1.00, 0.00, -0.00, -1.00, 465.9, 244.2)">”</text><text xml:space="preserve" font-family="AndaleMono,Andale Mono" font-size="40.0" fill="#304863" transform="matrix(1.00, 0.00, -0.00, -1.00, 486.5, 244.2)">)</text><text xml:space="preserve" font-family="AndaleMono,Andale Mono" font-size="40.0" fill="#304863" transform="matrix(1.00, 0.00, -0.00, -1.00, 507.1, 244.2)">;</text><text xml:space="preserve" font-family="AndaleMono,Andale Mono" font-size="40.0" fill="#304863" transform="matrix(1.00, 0.00, -0.00, -1.00, 527.6, 244.2)"> </text><text xml:space="preserve" font-family="AndaleMono,Andale Mono" font-size="40.0" fill="#4E7927" transform="matrix(1.00, 0.00, -0.00, -1.00, 548.2, 244.2)">/</text><text xml:space="preserve" font-family="AndaleMono,Andale Mono" font-size="40.0" fill="#4E7927" transform="matrix(1.00, 0.00, -0.00, -1.00, 568.7, 244.2)">/</text><text xml:space="preserve" font-family="AndaleMono,Andale Mono" font-size="40.0" fill="#4E7927" transform="matrix(1.00, 0.00, -0.00, -1.00, 589.3, 244.2)">y</text><text xml:space="preserve" font-family="AndaleMono,Andale Mono" font-size="40.0" fill="#4E7927" transform="matrix(1.00, 0.00, -0.00, -1.00, 609.9, 244.2)">a</text><text xml:space="preserve" font-family="AndaleMono,Andale Mono" font-size="40.0" fill="#4E7927" transform="matrix(1.00, 0.00, -0.00, -1.00, 630.5, 244.2)">y</text><text xml:space="preserve" font-family="AndaleMono,Andale Mono" font-size="40.0" fill="#4E7927" transform="matrix(1.00, 0.00, -0.00, -1.00, 651.0, 244.2)">,</text><text xml:space="preserve" font-family="AndaleMono,Andale Mono" font-size="40.0" fill="#4E7927" transform="matrix(1.00, 0.00, -0.00, -1.00, 671.6, 244.2)"> </text><text xml:space="preserve" font-family="AndaleMono,Andale Mono" font-size="40.0" fill="#4E7927" transform="matrix(1.00, 0.00, -0.00, -1.00, 692.2, 244.2)">I</text><text xml:space="preserve" font-family="AndaleMono,Andale Mono" font-size="40.0" fill="#4E7927" transform="matrix(1.00, 0.00, -0.00, -1.00, 712.7, 244.2)"> </text><text xml:space="preserve" font-family="AndaleMono,Andale Mono" font-size="40.0" fill="#4E7927" transform="matrix(1.00, 0.00, -0.00, -1.00, 733.3, 244.2)">g</text><text xml:space="preserve" font-family="AndaleMono,Andale Mono" font-size="40.0" fill="#4E7927" transform="matrix(1.00, 0.00, -0.00, -1.00, 753.9, 244.2)">e</text><text xml:space="preserve" font-family="AndaleMono,Andale Mono" font-size="40.0" fill="#4E7927" transform="matrix(1.00, 0.00, -0.00, -1.00, 774.5, 244.2)">t</text><text xml:space="preserve" font-family="AndaleMono,Andale Mono" font-size="40.0" fill="#4E7927" transform="matrix(1.00, 0.00, -0.00, -1.00, 795.0, 244.2)"> </text><text xml:space="preserve" font-family="AndaleMono,Andale Mono" font-size="40.0" fill="#4E7927" transform="matrix(1.00, 0.00, -0.00, -1.00, 815.6, 244.2)">t</text><text xml:space="preserve" font-family="AndaleMono,Andale Mono" font-size="40.0" fill="#4E7927" transform="matrix(1.00, 0.00, -0.00, -1.00, 836.2, 244.2)">h</text><text xml:space="preserve" font-family="AndaleMono,Andale Mono" font-size="40.0" fill="#4E7927" transform="matrix(1.00, 0.00, -0.00, -1.00, 856.8, 244.2)">r</text><text xml:space="preserve" font-family="AndaleMono,Andale Mono" font-size="40.0" fill="#4E7927" transform="matrix(1.00, 0.00, -0.00, -1.00, 877.3, 244.2)">o</text><text xml:space="preserve" font-family="AndaleMono,Andale Mono" font-size="40.0" fill="#4E7927" transform="matrix(1.00, 0.00, -0.00, -1.00, 897.9, 244.2)">u</text><text xml:space="preserve" font-family="AndaleMono,Andale Mono" font-size="40.0" fill="#4E7927" transform="matrix(1.00, 0.00, -0.00, -1.00, 918.5, 244.2)">g</text><text xml:space="preserve" font-family="AndaleMono,Andale Mono" font-size="40.0" fill="#4E7927" transform="matrix(1.00, 0.00, -0.00, -1.00, 939.0, 244.2)">h</text></g></g></g></svg>