<?xml version="1.0" encoding="UTF-8" standalone="no"?><svg xmlns="http://www.w3.org/2000/svg" xmlns:xlink="http://www.w3.org/1999/xlink" clip-rule="evenodd" stroke-miterlimit="10" viewBox="0 0 1024 768"><desc>SVG generated by Keynote</desc><defs></defs><g transform="matrix(1.00, 0.00, -0.00, -1.00, 0.0, 768.0)"><path d="M 0.0 768.0 L 1024.0 768.0 L 1024.0 0.0 L 0.0 0.0 Z M 0.0 768.0 " fill="#FDFEF7"></path><text xml:space="preserve" font-family="BebasNeue,Bebas Neue" font-size="78.0" fill="#5E5E5E" transform="matrix(1.00, 0.00, -0.00, -1.00, 28.0, 670.4)">I</text><text xml:space="preserve" font-family="BebasNeue,Bebas Neue" font-size="78.0" fill="#5E5E5E" transform="matrix(1.00, 0.00, -0.00, -1.00, 44.4, 670.4)">n</text><text xml:space="preserve" font-family="BebasNeue,Bebas Neue" font-size="78.0" fill="#5E5E5E" transform="matrix(1.00, 0.00, -0.00, -1.00, 79.2, 670.4)">i</text><text xml:space="preserve" font-family="BebasNeue,Bebas Neue" font-size="78.0" fill="#5E5E5E" transform="matrix(1.00, 0.00, -0.00, -1.00, 95.6, 670.4)">t</text><text xml:space="preserve" font-family="BebasNeue,Bebas Neue" font-size="78.0" fill="#5E5E5E" transform="matrix(1.00, 0.00, -0.00, -1.00, 125.0, 670.4)">i</text><text xml:space="preserve" font-family="BebasNeue,Bebas Neue" font-size="78.0" fill="#5E5E5E" transform="matrix(1.00, 0.00, -0.00, -1.00, 141.3, 670.4)">a</text><text xml:space="preserve" font-family="BebasNeue,Bebas Neue" font-size="78.0" fill="#5E5E5E" transform="matrix(1.00, 0.00, -0.00, -1.00, 174.6, 670.4)">l</text><text xml:space="preserve" font-family="BebasNeue,Bebas Neue" font-size="78.0" fill="#5E5E5E" transform="matrix(1.00, 0.00, -0.00, -1.00, 202.6, 670.4)">i</text><text xml:space="preserve" font-family="BebasNeue,Bebas Neue" font-size="78.0" fill="#5E5E5E" transform="matrix(1.00, 0.00, -0.00, -1.00, 219.0, 670.4)">z</text><text xml:space="preserve" font-family="BebasNeue,Bebas Neue" font-size="78.0" fill="#5E5E5E" transform="matrix(1.00, 0.00, -0.00, -1.00, 249.4, 670.4)">a</text><text xml:space="preserve" font-family="BebasNeue,Bebas Neue" font-size="78.0" fill="#5E5E5E" transform="matrix(1.00, 0.00, -0.00, -1.00, 279.8, 670.4)">t</text><text xml:space="preserve" font-family="BebasNeue,Bebas Neue" font-size="78.0" fill="#5E5E5E" transform="matrix(1.00, 0.00, -0.00, -1.00, 309.1, 670.4)">i</text><text xml:space="preserve" font-family="BebasNeue,Bebas Neue" font-size="78.0" fill="#5E5E5E" transform="matrix(1.00, 0.00, -0.00, -1.00, 325.5, 670.4)">o</text><text xml:space="preserve" font-family="BebasNeue,Bebas Neue" font-size="78.0" fill="#5E5E5E" transform="matrix(1.00, 0.00, -0.00, -1.00, 357.9, 670.4)">n</text><text xml:space="preserve" font-family="BebasNeue,Bebas Neue" font-size="78.0" fill="#6EB1D8" transform="matrix(1.00, 0.00, -0.00, -1.00, 406.5, 670.4)">S</text><text xml:space="preserve" font-family="BebasNeue,Bebas Neue" font-size="78.0" fill="#6EB1D8" transform="matrix(1.00, 0.00, -0.00, -1.00, 437.2, 670.4)">t</text><text xml:space="preserve" font-family="BebasNeue,Bebas Neue" font-size="78.0" fill="#6EB1D8" transform="matrix(1.00, 0.00, -0.00, -1.00, 463.6, 670.4)">a</text><text xml:space="preserve" font-family="BebasNeue,Bebas Neue" font-size="78.0" fill="#6EB1D8" transform="matrix(1.00, 0.00, -0.00, -1.00, 493.9, 670.4)">t</text><text xml:space="preserve" font-family="BebasNeue,Bebas Neue" font-size="78.0" fill="#6EB1D8" transform="matrix(1.00, 0.00, -0.00, -1.00, 523.2, 670.4)">e</text><text xml:space="preserve" font-family="BebasNeue,Bebas Neue" font-size="78.0" fill="#6EB1D8" transform="matrix(1.00, 0.00, -0.00, -1.00, 567.1, 670.4)">m</text><text xml:space="preserve" font-family="BebasNeue,Bebas Neue" font-size="78.0" fill="#6EB1D8" transform="matrix(1.00, 0.00, -0.00, -1.00, 610.9, 670.4)">a</text><text xml:space="preserve" font-family="BebasNeue,Bebas Neue" font-size="78.0" fill="#6EB1D8" transform="matrix(1.00, 0.00, -0.00, -1.00, 644.1, 670.4)">c</text><text xml:space="preserve" font-family="BebasNeue,Bebas Neue" font-size="78.0" fill="#6EB1D8" transform="matrix(1.00, 0.00, -0.00, -1.00, 675.8, 670.4)">h</text><text xml:space="preserve" font-family="BebasNeue,Bebas Neue" font-size="78.0" fill="#6EB1D8" transform="matrix(1.00, 0.00, -0.00, -1.00, 710.7, 670.4)">i</text><text xml:space="preserve" font-family="BebasNeue,Bebas Neue" font-size="78.0" fill="#6EB1D8" transform="matrix(1.00, 0.00, -0.00, -1.00, 727.0, 670.4)">n</text><text xml:space="preserve" font-family="BebasNeue,Bebas Neue" font-size="78.0" fill="#6EB1D8" transform="matrix(1.00, 0.00, -0.00, -1.00, 761.9, 670.4)">e</text><image xlink:href="../../BF296475-6348-49D8-861E-538BA4C5C59B/assets/8225E7B517204485BCA1ECB176FF84B8.png" width="917.00" height="619.00" transform="matrix(1.00, 0.00, -0.00, -1.00, 57.2, 631.8)" opacity="0.75"></image><image xlink:href="../../BF296475-6348-49D8-861E-538BA4C5C59B/assets/A84335362249F952986C78105F9EAABB.png" width="1194.00" height="768.00" transform="matrix(0.72, 0.00, -0.00, -0.72, 80.0, 615.0)"></image><image xlink:href="../../BF296475-6348-49D8-861E-538BA4C5C59B/assets/20A9459E21310C4587E9CFE903EC412E.png" width="897.00" height="599.00" transform="matrix(1.00, 0.00, -0.00, 1.00, 63.0, 26.9)"></image></g></svg>