<?xml version="1.0" encoding="UTF-8" standalone="no"?><svg xmlns="http://www.w3.org/2000/svg" xmlns:xlink="http://www.w3.org/1999/xlink" clip-rule="evenodd" stroke-miterlimit="10" viewBox="0 0 1024 768"><desc>SVG generated by Keynote</desc><defs></defs><g transform="matrix(1.00, 0.00, -0.00, -1.00, 0.0, 768.0)"><path d="M 0.0 768.0 L 1024.0 768.0 L 1024.0 0.0 L 0.0 0.0 Z M 0.0 768.0 " fill="#FDFEF7"></path><text xml:space="preserve" font-family="BebasNeue,Bebas Neue" font-size="78.0" fill="#5E5E5E" transform="matrix(1.00, 0.00, -0.00, -1.00, 28.0, 670.4)">D</text><text xml:space="preserve" font-family="BebasNeue,Bebas Neue" font-size="78.0" fill="#5E5E5E" transform="matrix(1.00, 0.00, -0.00, -1.00, 61.4, 670.4)">I</text><text xml:space="preserve" font-family="BebasNeue,Bebas Neue" font-size="78.0" fill="#5E5E5E" transform="matrix(1.00, 0.00, -0.00, -1.00, 77.8, 670.4)">S</text><text xml:space="preserve" font-family="BebasNeue,Bebas Neue" font-size="78.0" fill="#5E5E5E" transform="matrix(1.00, 0.00, -0.00, -1.00, 108.5, 670.4)">C</text><text xml:space="preserve" font-family="BebasNeue,Bebas Neue" font-size="78.0" fill="#5E5E5E" transform="matrix(1.00, 0.00, -0.00, -1.00, 140.2, 670.4)">O</text><text xml:space="preserve" font-family="BebasNeue,Bebas Neue" font-size="78.0" fill="#5E5E5E" transform="matrix(1.00, 0.00, -0.00, -1.00, 172.6, 670.4)">N</text><text xml:space="preserve" font-family="BebasNeue,Bebas Neue" font-size="78.0" fill="#5E5E5E" transform="matrix(1.00, 0.00, -0.00, -1.00, 207.5, 670.4)">N</text><text xml:space="preserve" font-family="BebasNeue,Bebas Neue" font-size="78.0" fill="#5E5E5E" transform="matrix(1.00, 0.00, -0.00, -1.00, 242.3, 670.4)">E</text><text xml:space="preserve" font-family="BebasNeue,Bebas Neue" font-size="78.0" fill="#5E5E5E" transform="matrix(1.00, 0.00, -0.00, -1.00, 272.6, 670.4)">C</text><text xml:space="preserve" font-family="BebasNeue,Bebas Neue" font-size="78.0" fill="#5E5E5E" transform="matrix(1.00, 0.00, -0.00, -1.00, 304.3, 670.4)">T</text><text xml:space="preserve" font-family="BebasNeue,Bebas Neue" font-size="78.0" fill="#5E5E5E" transform="matrix(1.00, 0.00, -0.00, -1.00, 333.6, 670.4)">E</text><text xml:space="preserve" font-family="BebasNeue,Bebas Neue" font-size="78.0" fill="#5E5E5E" transform="matrix(1.00, 0.00, -0.00, -1.00, 363.9, 670.4)">D</text><text xml:space="preserve" font-family="BebasNeue,Bebas Neue" font-size="78.0" fill="#5E5E5E" transform="matrix(1.00, 0.00, -0.00, -1.00, 397.3, 670.4)"> </text><text xml:space="preserve" font-family="BebasNeue,Bebas Neue" font-size="78.0" fill="#6EB1D8" transform="matrix(1.00, 0.00, -0.00, -1.00, 410.9, 670.4)">S</text><text xml:space="preserve" font-family="BebasNeue,Bebas Neue" font-size="78.0" fill="#6EB1D8" transform="matrix(1.00, 0.00, -0.00, -1.00, 441.6, 670.4)">t</text><text xml:space="preserve" font-family="BebasNeue,Bebas Neue" font-size="78.0" fill="#6EB1D8" transform="matrix(1.00, 0.00, -0.00, -1.00, 468.0, 670.4)">a</text><text xml:space="preserve" font-family="BebasNeue,Bebas Neue" font-size="78.0" fill="#6EB1D8" transform="matrix(1.00, 0.00, -0.00, -1.00, 498.3, 670.4)">t</text><text xml:space="preserve" font-family="BebasNeue,Bebas Neue" font-size="78.0" fill="#6EB1D8" transform="matrix(1.00, 0.00, -0.00, -1.00, 527.7, 670.4)">e</text><text xml:space="preserve" font-family="BebasNeue,Bebas Neue" font-size="78.0" fill="#6EB1D8" transform="matrix(1.00, 0.00, -0.00, -1.00, 557.9, 670.4)"> </text><text xml:space="preserve" font-family="BebasNeue,Bebas Neue" font-size="78.0" fill="#6EB1D8" transform="matrix(1.00, 0.00, -0.00, -1.00, 571.6, 670.4)">I</text><text xml:space="preserve" font-family="BebasNeue,Bebas Neue" font-size="78.0" fill="#6EB1D8" transform="matrix(1.00, 0.00, -0.00, -1.00, 588.0, 670.4)">n</text><text xml:space="preserve" font-family="BebasNeue,Bebas Neue" font-size="78.0" fill="#6EB1D8" transform="matrix(1.00, 0.00, -0.00, -1.00, 622.8, 670.4)">p</text><text xml:space="preserve" font-family="BebasNeue,Bebas Neue" font-size="78.0" fill="#6EB1D8" transform="matrix(1.00, 0.00, -0.00, -1.00, 653.8, 670.4)">u</text><text xml:space="preserve" font-family="BebasNeue,Bebas Neue" font-size="78.0" fill="#6EB1D8" transform="matrix(1.00, 0.00, -0.00, -1.00, 686.4, 670.4)">t</text><text xml:space="preserve" font-family="BebasNeue,Bebas Neue" font-size="78.0" fill="#6EB1D8" transform="matrix(1.00, 0.00, -0.00, -1.00, 715.7, 670.4)"> </text><text xml:space="preserve" font-family="BebasNeue,Bebas Neue" font-size="78.0" fill="#6EB1D8" transform="matrix(1.00, 0.00, -0.00, -1.00, 729.4, 670.4)">&amp;</text><text xml:space="preserve" font-family="BebasNeue,Bebas Neue" font-size="78.0" fill="#6EB1D8" transform="matrix(1.00, 0.00, -0.00, -1.00, 763.2, 670.4)"> </text><text xml:space="preserve" font-family="BebasNeue,Bebas Neue" font-size="78.0" fill="#6EB1D8" transform="matrix(1.00, 0.00, -0.00, -1.00, 776.9, 670.4)"> </text><text xml:space="preserve" font-family="BebasNeue,Bebas Neue" font-size="78.0" fill="#6EB1D8" transform="matrix(1.00, 0.00, -0.00, -1.00, 28.0, 577.4)">T</text><text xml:space="preserve" font-family="BebasNeue,Bebas Neue" font-size="78.0" fill="#6EB1D8" transform="matrix(1.00, 0.00, -0.00, -1.00, 57.3, 577.4)">r</text><text xml:space="preserve" font-family="BebasNeue,Bebas Neue" font-size="78.0" fill="#6EB1D8" transform="matrix(1.00, 0.00, -0.00, -1.00, 90.2, 577.4)">a</text><text xml:space="preserve" font-family="BebasNeue,Bebas Neue" font-size="78.0" fill="#6EB1D8" transform="matrix(1.00, 0.00, -0.00, -1.00, 123.5, 577.4)">n</text><text xml:space="preserve" font-family="BebasNeue,Bebas Neue" font-size="78.0" fill="#6EB1D8" transform="matrix(1.00, 0.00, -0.00, -1.00, 158.4, 577.4)">s</text><text xml:space="preserve" font-family="BebasNeue,Bebas Neue" font-size="78.0" fill="#6EB1D8" transform="matrix(1.00, 0.00, -0.00, -1.00, 189.1, 577.4)">i</text><text xml:space="preserve" font-family="BebasNeue,Bebas Neue" font-size="78.0" fill="#6EB1D8" transform="matrix(1.00, 0.00, -0.00, -1.00, 205.5, 577.4)">t</text><text xml:space="preserve" font-family="BebasNeue,Bebas Neue" font-size="78.0" fill="#6EB1D8" transform="matrix(1.00, 0.00, -0.00, -1.00, 234.9, 577.4)">i</text><text xml:space="preserve" font-family="BebasNeue,Bebas Neue" font-size="78.0" fill="#6EB1D8" transform="matrix(1.00, 0.00, -0.00, -1.00, 251.2, 577.4)">o</text><text xml:space="preserve" font-family="BebasNeue,Bebas Neue" font-size="78.0" fill="#6EB1D8" transform="matrix(1.00, 0.00, -0.00, -1.00, 283.7, 577.4)">n</text><text xml:space="preserve" font-family="BebasNeue,Bebas Neue" font-size="78.0" fill="#6EB1D8" transform="matrix(1.00, 0.00, -0.00, -1.00, 318.5, 577.4)">s</text><g><clipPath id="clip0x7fd9eae23370"><path d="M 9.5 485.5 L 1013.5 485.5 L 1013.5 178.5 L 9.5 178.5 Z M 9.5 485.5 "></path></clipPath><g clip-path="url(#clip0x7fd9eae23370)"><g><clipPath id="clip0x7fd9eae23ac0"><path d="M 10.5 399.2 L 211.2 399.2 L 211.2 484.5 L 10.5 484.5 Z M 10.5 399.2 "></path></clipPath><g clip-path="url(#clip0x7fd9eae23ac0)"><text xml:space="preserve" font-family="HelveticaNeue-Bold,Helvetica Neue" font-weight="bold" font-size="30.0" fill="#304863" transform="matrix(1.00, 0.00, -0.00, -1.00, 73.3, 430.9)">S</text><text xml:space="preserve" font-family="HelveticaNeue-Bold,Helvetica Neue" font-weight="bold" font-size="30.0" fill="#304863" transform="matrix(1.00, 0.00, -0.00, -1.00, 92.8, 430.9)">t</text><text xml:space="preserve" font-family="HelveticaNeue-Bold,Helvetica Neue" font-weight="bold" font-size="30.0" fill="#304863" transform="matrix(1.00, 0.00, -0.00, -1.00, 103.4, 430.9)">a</text><text xml:space="preserve" font-family="HelveticaNeue-Bold,Helvetica Neue" font-weight="bold" font-size="30.0" fill="#304863" transform="matrix(1.00, 0.00, -0.00, -1.00, 120.6, 430.9)">t</text><text xml:space="preserve" font-family="HelveticaNeue-Bold,Helvetica Neue" font-weight="bold" font-size="30.0" fill="#304863" transform="matrix(1.00, 0.00, -0.00, -1.00, 131.1, 430.9)">e</text></g></g></g></g><g><clipPath id="clip0x7fd9eae275e0"><path d="M 9.5 485.5 L 1013.5 485.5 L 1013.5 178.5 L 9.5 178.5 Z M 9.5 485.5 "></path></clipPath><g clip-path="url(#clip0x7fd9eae275e0)"><g><clipPath id="clip0x7fd9eae27d40"><path d="M 212.2 399.2 L 439.3 399.2 L 439.3 484.5 L 212.2 484.5 Z M 212.2 399.2 "></path></clipPath><g clip-path="url(#clip0x7fd9eae27d40)"><text xml:space="preserve" font-family="HelveticaNeue-Bold,Helvetica Neue" font-weight="bold" font-size="30.0" fill="#304863" transform="matrix(1.00, 0.00, -0.00, -1.00, 289.1, 430.9)">I</text><text xml:space="preserve" font-family="HelveticaNeue-Bold,Helvetica Neue" font-weight="bold" font-size="30.0" fill="#304863" transform="matrix(1.00, 0.00, -0.00, -1.00, 297.9, 430.9)">n</text><text xml:space="preserve" font-family="HelveticaNeue-Bold,Helvetica Neue" font-weight="bold" font-size="30.0" fill="#304863" transform="matrix(1.00, 0.00, -0.00, -1.00, 315.7, 430.9)">p</text><text xml:space="preserve" font-family="HelveticaNeue-Bold,Helvetica Neue" font-weight="bold" font-size="30.0" fill="#304863" transform="matrix(1.00, 0.00, -0.00, -1.00, 334.1, 430.9)">u</text><text xml:space="preserve" font-family="HelveticaNeue-Bold,Helvetica Neue" font-weight="bold" font-size="30.0" fill="#304863" transform="matrix(1.00, 0.00, -0.00, -1.00, 351.9, 430.9)">t</text></g></g></g></g><g><clipPath id="clip0x7fd9eae2aa80"><path d="M 9.5 485.5 L 1013.5 485.5 L 1013.5 178.5 L 9.5 178.5 Z M 9.5 485.5 "></path></clipPath><g clip-path="url(#clip0x7fd9eae2aa80)"><g><clipPath id="clip0x7fd9eae2b2c0"><path d="M 440.3 399.2 L 639.8 399.2 L 639.8 484.5 L 440.3 484.5 Z M 440.3 399.2 "></path></clipPath><g clip-path="url(#clip0x7fd9eae2b2c0)"><text xml:space="preserve" font-family="HelveticaNeue-Bold,Helvetica Neue" font-weight="bold" font-size="30.0" fill="#304863" transform="matrix(1.00, 0.00, -0.00, -1.00, 465.3, 430.9)">N</text><text xml:space="preserve" font-family="HelveticaNeue-Bold,Helvetica Neue" font-weight="bold" font-size="30.0" fill="#304863" transform="matrix(1.00, 0.00, -0.00, -1.00, 487.5, 430.9)">e</text><text xml:space="preserve" font-family="HelveticaNeue-Bold,Helvetica Neue" font-weight="bold" font-size="30.0" fill="#304863" transform="matrix(1.00, 0.00, -0.00, -1.00, 504.8, 430.9)">x</text><text xml:space="preserve" font-family="HelveticaNeue-Bold,Helvetica Neue" font-weight="bold" font-size="30.0" fill="#304863" transform="matrix(1.00, 0.00, -0.00, -1.00, 520.9, 430.9)">t</text><text xml:space="preserve" font-family="HelveticaNeue-Bold,Helvetica Neue" font-weight="bold" font-size="30.0" fill="#304863" transform="matrix(1.00, 0.00, -0.00, -1.00, 531.4, 430.9)"> </text><text xml:space="preserve" font-family="HelveticaNeue-Bold,Helvetica Neue" font-weight="bold" font-size="30.0" fill="#304863" transform="matrix(1.00, 0.00, -0.00, -1.00, 539.8, 430.9)">S</text><text xml:space="preserve" font-family="HelveticaNeue-Bold,Helvetica Neue" font-weight="bold" font-size="30.0" fill="#304863" transform="matrix(1.00, 0.00, -0.00, -1.00, 559.2, 430.9)">t</text><text xml:space="preserve" font-family="HelveticaNeue-Bold,Helvetica Neue" font-weight="bold" font-size="30.0" fill="#304863" transform="matrix(1.00, 0.00, -0.00, -1.00, 569.8, 430.9)">a</text><text xml:space="preserve" font-family="HelveticaNeue-Bold,Helvetica Neue" font-weight="bold" font-size="30.0" fill="#304863" transform="matrix(1.00, 0.00, -0.00, -1.00, 587.0, 430.9)">t</text><text xml:space="preserve" font-family="HelveticaNeue-Bold,Helvetica Neue" font-weight="bold" font-size="30.0" fill="#304863" transform="matrix(1.00, 0.00, -0.00, -1.00, 597.6, 430.9)">e</text></g></g></g></g><g><clipPath id="clip0x7fd9eae30080"><path d="M 9.5 485.5 L 1013.5 485.5 L 1013.5 178.5 L 9.5 178.5 Z M 9.5 485.5 "></path></clipPath><g clip-path="url(#clip0x7fd9eae30080)"><g><clipPath id="clip0x7fd9eae307e0"><path d="M 640.8 399.2 L 1012.5 399.2 L 1012.5 484.5 L 640.8 484.5 Z M 640.8 399.2 "></path></clipPath><g clip-path="url(#clip0x7fd9eae307e0)"><text xml:space="preserve" font-family="HelveticaNeue-Bold,Helvetica Neue" font-weight="bold" font-size="30.0" fill="#304863" transform="matrix(1.00, 0.00, -0.00, -1.00, 777.5, 430.9)">O</text><text xml:space="preserve" font-family="HelveticaNeue-Bold,Helvetica Neue" font-weight="bold" font-size="30.0" fill="#304863" transform="matrix(1.00, 0.00, -0.00, -1.00, 800.8, 430.9)">u</text><text xml:space="preserve" font-family="HelveticaNeue-Bold,Helvetica Neue" font-weight="bold" font-size="30.0" fill="#304863" transform="matrix(1.00, 0.00, -0.00, -1.00, 818.6, 430.9)">t</text><text xml:space="preserve" font-family="HelveticaNeue-Bold,Helvetica Neue" font-weight="bold" font-size="30.0" fill="#304863" transform="matrix(1.00, 0.00, -0.00, -1.00, 829.2, 430.9)">p</text><text xml:space="preserve" font-family="HelveticaNeue-Bold,Helvetica Neue" font-weight="bold" font-size="30.0" fill="#304863" transform="matrix(1.00, 0.00, -0.00, -1.00, 847.5, 430.9)">u</text><text xml:space="preserve" font-family="HelveticaNeue-Bold,Helvetica Neue" font-weight="bold" font-size="30.0" fill="#304863" transform="matrix(1.00, 0.00, -0.00, -1.00, 865.3, 430.9)">t</text></g></g></g></g><g><clipPath id="clip0x7fd9eae33bb0"><path d="M 9.5 485.5 L 1013.5 485.5 L 1013.5 178.5 L 9.5 178.5 Z M 9.5 485.5 "></path></clipPath><g clip-path="url(#clip0x7fd9eae33bb0)"><g><clipPath id="clip0x7fd9eae34310"><path d="M 10.5 179.5 L 211.2 179.5 L 211.2 398.2 L 10.5 398.2 Z M 10.5 179.5 "></path></clipPath><g clip-path="url(#clip0x7fd9eae34310)"><text xml:space="preserve" font-family="HelveticaNeue,Helvetica Neue" font-size="30.0" fill="#304863" transform="matrix(1.00, 0.00, -0.00, -1.00, 18.3, 277.4)">D</text><text xml:space="preserve" font-family="HelveticaNeue,Helvetica Neue" font-size="30.0" fill="#304863" transform="matrix(1.00, 0.00, -0.00, -1.00, 39.4, 277.4)">i</text><text xml:space="preserve" font-family="HelveticaNeue,Helvetica Neue" font-size="30.0" fill="#304863" transform="matrix(1.00, 0.00, -0.00, -1.00, 46.1, 277.4)">s</text><text xml:space="preserve" font-family="HelveticaNeue,Helvetica Neue" font-size="30.0" fill="#304863" transform="matrix(1.00, 0.00, -0.00, -1.00, 61.1, 277.4)">c</text><text xml:space="preserve" font-family="HelveticaNeue,Helvetica Neue" font-size="30.0" fill="#304863" transform="matrix(1.00, 0.00, -0.00, -1.00, 77.2, 277.4)">o</text><text xml:space="preserve" font-family="HelveticaNeue,Helvetica Neue" font-size="30.0" fill="#304863" transform="matrix(1.00, 0.00, -0.00, -1.00, 94.4, 277.4)">n</text><text xml:space="preserve" font-family="HelveticaNeue,Helvetica Neue" font-size="30.0" fill="#304863" transform="matrix(1.00, 0.00, -0.00, -1.00, 111.1, 277.4)">n</text><text xml:space="preserve" font-family="HelveticaNeue,Helvetica Neue" font-size="30.0" fill="#304863" transform="matrix(1.00, 0.00, -0.00, -1.00, 127.8, 277.4)">e</text><text xml:space="preserve" font-family="HelveticaNeue,Helvetica Neue" font-size="30.0" fill="#304863" transform="matrix(1.00, 0.00, -0.00, -1.00, 143.9, 277.4)">c</text><text xml:space="preserve" font-family="HelveticaNeue,Helvetica Neue" font-size="30.0" fill="#304863" transform="matrix(1.00, 0.00, -0.00, -1.00, 160.0, 277.4)">t</text><text xml:space="preserve" font-family="HelveticaNeue,Helvetica Neue" font-size="30.0" fill="#304863" transform="matrix(1.00, 0.00, -0.00, -1.00, 169.5, 277.4)">e</text><text xml:space="preserve" font-family="HelveticaNeue,Helvetica Neue" font-size="30.0" fill="#304863" transform="matrix(1.00, 0.00, -0.00, -1.00, 185.6, 277.4)">d</text></g></g></g></g><g><clipPath id="clip0x7fd9eae3a7b0"><path d="M 9.5 485.5 L 1013.5 485.5 L 1013.5 178.5 L 9.5 178.5 Z M 9.5 485.5 "></path></clipPath><g clip-path="url(#clip0x7fd9eae3a7b0)"><g><clipPath id="clip0x7fd9eae3af10"><path d="M 212.2 353.4 L 439.3 353.4 L 439.3 398.2 L 212.2 398.2 Z M 212.2 353.4 "></path></clipPath><g clip-path="url(#clip0x7fd9eae3af10)"><text xml:space="preserve" font-family="HelveticaNeue,Helvetica Neue" font-size="30.0" fill="#304863" transform="matrix(1.00, 0.00, -0.00, -1.00, 264.4, 364.4)">g</text><text xml:space="preserve" font-family="HelveticaNeue,Helvetica Neue" font-size="30.0" fill="#304863" transform="matrix(1.00, 0.00, -0.00, -1.00, 281.6, 364.4)">o</text><text xml:space="preserve" font-family="HelveticaNeue,Helvetica Neue" font-size="30.0" fill="#304863" transform="matrix(1.00, 0.00, -0.00, -1.00, 298.8, 364.4)">.</text><text xml:space="preserve" font-family="HelveticaNeue,Helvetica Neue" font-size="30.0" fill="#304863" transform="matrix(1.00, 0.00, -0.00, -1.00, 307.1, 364.4)">o</text><text xml:space="preserve" font-family="HelveticaNeue,Helvetica Neue" font-size="30.0" fill="#304863" transform="matrix(1.00, 0.00, -0.00, -1.00, 324.4, 364.4)">n</text><text xml:space="preserve" font-family="HelveticaNeue,Helvetica Neue" font-size="30.0" fill="#304863" transform="matrix(1.00, 0.00, -0.00, -1.00, 341.0, 364.4)">l</text><text xml:space="preserve" font-family="HelveticaNeue,Helvetica Neue" font-size="30.0" fill="#304863" transform="matrix(1.00, 0.00, -0.00, -1.00, 347.7, 364.4)">i</text><text xml:space="preserve" font-family="HelveticaNeue,Helvetica Neue" font-size="30.0" fill="#304863" transform="matrix(1.00, 0.00, -0.00, -1.00, 354.4, 364.4)">n</text><text xml:space="preserve" font-family="HelveticaNeue,Helvetica Neue" font-size="30.0" fill="#304863" transform="matrix(1.00, 0.00, -0.00, -1.00, 371.0, 364.4)">e</text></g></g></g></g><g><clipPath id="clip0x7fd9eae3f370"><path d="M 9.5 485.5 L 1013.5 485.5 L 1013.5 178.5 L 9.5 178.5 Z M 9.5 485.5 "></path></clipPath><g clip-path="url(#clip0x7fd9eae3f370)"><g><clipPath id="clip0x7fd9eae3fad0"><path d="M 440.3 353.4 L 639.8 353.4 L 639.8 398.2 L 440.3 398.2 Z M 440.3 353.4 "></path></clipPath><g clip-path="url(#clip0x7fd9eae3fad0)"><text xml:space="preserve" font-family="HelveticaNeue,Helvetica Neue" font-size="30.0" fill="#304863" transform="matrix(1.00, 0.00, -0.00, -1.00, 487.8, 364.4)">P</text><text xml:space="preserve" font-family="HelveticaNeue,Helvetica Neue" font-size="30.0" fill="#304863" transform="matrix(1.00, 0.00, -0.00, -1.00, 507.3, 364.4)">r</text><text xml:space="preserve" font-family="HelveticaNeue,Helvetica Neue" font-size="30.0" fill="#304863" transform="matrix(1.00, 0.00, -0.00, -1.00, 516.7, 364.4)">o</text><text xml:space="preserve" font-family="HelveticaNeue,Helvetica Neue" font-size="30.0" fill="#304863" transform="matrix(1.00, 0.00, -0.00, -1.00, 533.9, 364.4)">b</text><text xml:space="preserve" font-family="HelveticaNeue,Helvetica Neue" font-size="30.0" fill="#304863" transform="matrix(1.00, 0.00, -0.00, -1.00, 551.7, 364.4)">i</text><text xml:space="preserve" font-family="HelveticaNeue,Helvetica Neue" font-size="30.0" fill="#304863" transform="matrix(1.00, 0.00, -0.00, -1.00, 558.4, 364.4)">n</text><text xml:space="preserve" font-family="HelveticaNeue,Helvetica Neue" font-size="30.0" fill="#304863" transform="matrix(1.00, 0.00, -0.00, -1.00, 575.1, 364.4)">g</text></g></g></g></g><g><clipPath id="clip0x7fd9eae43340"><path d="M 9.5 485.5 L 1013.5 485.5 L 1013.5 178.5 L 9.5 178.5 Z M 9.5 485.5 "></path></clipPath><g clip-path="url(#clip0x7fd9eae43340)"><g><clipPath id="clip0x7fd9eae43aa0"><path d="M 640.8 353.4 L 1012.5 353.4 L 1012.5 398.2 L 640.8 398.2 Z M 640.8 353.4 "></path></clipPath><g clip-path="url(#clip0x7fd9eae43aa0)"><text xml:space="preserve" font-family="HelveticaNeue,Helvetica Neue" font-size="30.0" fill="#304863" transform="matrix(1.00, 0.00, -0.00, -1.00, 686.1, 364.4)">E</text><text xml:space="preserve" font-family="HelveticaNeue,Helvetica Neue" font-size="30.0" fill="#304863" transform="matrix(1.00, 0.00, -0.00, -1.00, 704.4, 364.4)">m</text><text xml:space="preserve" font-family="HelveticaNeue,Helvetica Neue" font-size="30.0" fill="#304863" transform="matrix(1.00, 0.00, -0.00, -1.00, 730.0, 364.4)">i</text><text xml:space="preserve" font-family="HelveticaNeue,Helvetica Neue" font-size="30.0" fill="#304863" transform="matrix(1.00, 0.00, -0.00, -1.00, 736.6, 364.4)">t</text><text xml:space="preserve" font-family="HelveticaNeue,Helvetica Neue" font-size="30.0" fill="#304863" transform="matrix(1.00, 0.00, -0.00, -1.00, 746.1, 364.4)"> </text><text xml:space="preserve" font-family="HelveticaNeue,Helvetica Neue" font-size="30.0" fill="#304863" transform="matrix(1.00, 0.00, -0.00, -1.00, 754.4, 364.4)">T</text><text xml:space="preserve" font-family="HelveticaNeue,Helvetica Neue" font-size="30.0" fill="#304863" transform="matrix(1.00, 0.00, -0.00, -1.00, 768.9, 364.4)">r</text><text xml:space="preserve" font-family="HelveticaNeue,Helvetica Neue" font-size="30.0" fill="#304863" transform="matrix(1.00, 0.00, -0.00, -1.00, 778.9, 364.4)">a</text><text xml:space="preserve" font-family="HelveticaNeue,Helvetica Neue" font-size="30.0" fill="#304863" transform="matrix(1.00, 0.00, -0.00, -1.00, 795.0, 364.4)">n</text><text xml:space="preserve" font-family="HelveticaNeue,Helvetica Neue" font-size="30.0" fill="#304863" transform="matrix(1.00, 0.00, -0.00, -1.00, 811.7, 364.4)">s</text><text xml:space="preserve" font-family="HelveticaNeue,Helvetica Neue" font-size="30.0" fill="#304863" transform="matrix(1.00, 0.00, -0.00, -1.00, 826.7, 364.4)">i</text><text xml:space="preserve" font-family="HelveticaNeue,Helvetica Neue" font-size="30.0" fill="#304863" transform="matrix(1.00, 0.00, -0.00, -1.00, 833.3, 364.4)">t</text><text xml:space="preserve" font-family="HelveticaNeue,Helvetica Neue" font-size="30.0" fill="#304863" transform="matrix(1.00, 0.00, -0.00, -1.00, 842.8, 364.4)">i</text><text xml:space="preserve" font-family="HelveticaNeue,Helvetica Neue" font-size="30.0" fill="#304863" transform="matrix(1.00, 0.00, -0.00, -1.00, 849.4, 364.4)">o</text><text xml:space="preserve" font-family="HelveticaNeue,Helvetica Neue" font-size="30.0" fill="#304863" transform="matrix(1.00, 0.00, -0.00, -1.00, 866.7, 364.4)">n</text><text xml:space="preserve" font-family="HelveticaNeue,Helvetica Neue" font-size="30.0" fill="#304863" transform="matrix(1.00, 0.00, -0.00, -1.00, 883.3, 364.4)"> </text><text xml:space="preserve" font-family="HelveticaNeue,Helvetica Neue" font-size="30.0" fill="#304863" transform="matrix(1.00, 0.00, -0.00, -1.00, 891.7, 364.4)">E</text><text xml:space="preserve" font-family="HelveticaNeue,Helvetica Neue" font-size="30.0" fill="#304863" transform="matrix(1.00, 0.00, -0.00, -1.00, 910.0, 364.4)">v</text><text xml:space="preserve" font-family="HelveticaNeue,Helvetica Neue" font-size="30.0" fill="#304863" transform="matrix(1.00, 0.00, -0.00, -1.00, 925.0, 364.4)">e</text><text xml:space="preserve" font-family="HelveticaNeue,Helvetica Neue" font-size="30.0" fill="#304863" transform="matrix(1.00, 0.00, -0.00, -1.00, 941.1, 364.4)">n</text><text xml:space="preserve" font-family="HelveticaNeue,Helvetica Neue" font-size="30.0" fill="#304863" transform="matrix(1.00, 0.00, -0.00, -1.00, 957.8, 364.4)">t</text></g></g></g></g><g><clipPath id="clip0x7fd9eae4c9e0"><path d="M 9.5 485.5 L 1013.5 485.5 L 1013.5 178.5 L 9.5 178.5 Z M 9.5 485.5 "></path></clipPath><g clip-path="url(#clip0x7fd9eae4c9e0)"><g><clipPath id="clip0x7fd9eae4d0e0"><path d="M 212.2 307.7 L 439.3 307.7 L 439.3 352.4 L 212.2 352.4 Z M 212.2 307.7 "></path></clipPath><g clip-path="url(#clip0x7fd9eae4d0e0)"><text xml:space="preserve" font-family="HelveticaNeue,Helvetica Neue" font-size="30.0" fill="#304863" transform="matrix(1.00, 0.00, -0.00, -1.00, 264.0, 318.7)">g</text><text xml:space="preserve" font-family="HelveticaNeue,Helvetica Neue" font-size="30.0" fill="#304863" transform="matrix(1.00, 0.00, -0.00, -1.00, 281.3, 318.7)">o</text><text xml:space="preserve" font-family="HelveticaNeue,Helvetica Neue" font-size="30.0" fill="#304863" transform="matrix(1.00, 0.00, -0.00, -1.00, 298.5, 318.7)">.</text><text xml:space="preserve" font-family="HelveticaNeue,Helvetica Neue" font-size="30.0" fill="#304863" transform="matrix(1.00, 0.00, -0.00, -1.00, 306.8, 318.7)">o</text><text xml:space="preserve" font-family="HelveticaNeue,Helvetica Neue" font-size="30.0" fill="#304863" transform="matrix(1.00, 0.00, -0.00, -1.00, 324.0, 318.7)">ﬄ</text><text xml:space="preserve" font-family="HelveticaNeue,Helvetica Neue" font-size="30.0" fill="#304863" transform="matrix(1.00, 0.00, -0.00, -1.00, 348.0, 318.7)">i</text><text xml:space="preserve" font-family="HelveticaNeue,Helvetica Neue" font-size="30.0" fill="#304863" transform="matrix(1.00, 0.00, -0.00, -1.00, 354.7, 318.7)">n</text><text xml:space="preserve" font-family="HelveticaNeue,Helvetica Neue" font-size="30.0" fill="#304863" transform="matrix(1.00, 0.00, -0.00, -1.00, 371.4, 318.7)">e</text></g></g></g></g><g><clipPath id="clip0x7fd9eae51cd0"><path d="M 9.5 485.5 L 1013.5 485.5 L 1013.5 178.5 L 9.5 178.5 Z M 9.5 485.5 "></path></clipPath><g clip-path="url(#clip0x7fd9eae51cd0)"><g><clipPath id="clip0x7fd9eae52430"><path d="M 440.3 307.7 L 639.8 307.7 L 639.8 352.4 L 440.3 352.4 Z M 440.3 307.7 "></path></clipPath><g clip-path="url(#clip0x7fd9eae52430)"><text xml:space="preserve" font-family="HelveticaNeue,Helvetica Neue" font-size="30.0" fill="#304863" transform="matrix(1.00, 0.00, -0.00, -1.00, 497.0, 318.7)">O</text><text xml:space="preserve" font-family="HelveticaNeue,Helvetica Neue" font-size="30.0" fill="#304863" transform="matrix(1.00, 0.00, -0.00, -1.00, 519.8, 318.7)">ﬄ</text><text xml:space="preserve" font-family="HelveticaNeue,Helvetica Neue" font-size="30.0" fill="#304863" transform="matrix(1.00, 0.00, -0.00, -1.00, 543.7, 318.7)">i</text><text xml:space="preserve" font-family="HelveticaNeue,Helvetica Neue" font-size="30.0" fill="#304863" transform="matrix(1.00, 0.00, -0.00, -1.00, 550.4, 318.7)">n</text><text xml:space="preserve" font-family="HelveticaNeue,Helvetica Neue" font-size="30.0" fill="#304863" transform="matrix(1.00, 0.00, -0.00, -1.00, 567.1, 318.7)">e</text></g></g></g></g><g><clipPath id="clip0x7fd9eae55980"><path d="M 9.5 485.5 L 1013.5 485.5 L 1013.5 178.5 L 9.5 178.5 Z M 9.5 485.5 "></path></clipPath><g clip-path="url(#clip0x7fd9eae55980)"><g><clipPath id="clip0x7fd9eae560e0"><path d="M 640.8 307.7 L 1012.5 307.7 L 1012.5 352.4 L 640.8 352.4 Z M 640.8 307.7 "></path></clipPath><g clip-path="url(#clip0x7fd9eae560e0)"><text xml:space="preserve" font-family="HelveticaNeue,Helvetica Neue" font-size="30.0" fill="#304863" transform="matrix(1.00, 0.00, -0.00, -1.00, 686.1, 318.7)">E</text><text xml:space="preserve" font-family="HelveticaNeue,Helvetica Neue" font-size="30.0" fill="#304863" transform="matrix(1.00, 0.00, -0.00, -1.00, 704.4, 318.7)">m</text><text xml:space="preserve" font-family="HelveticaNeue,Helvetica Neue" font-size="30.0" fill="#304863" transform="matrix(1.00, 0.00, -0.00, -1.00, 730.0, 318.7)">i</text><text xml:space="preserve" font-family="HelveticaNeue,Helvetica Neue" font-size="30.0" fill="#304863" transform="matrix(1.00, 0.00, -0.00, -1.00, 736.6, 318.7)">t</text><text xml:space="preserve" font-family="HelveticaNeue,Helvetica Neue" font-size="30.0" fill="#304863" transform="matrix(1.00, 0.00, -0.00, -1.00, 746.1, 318.7)"> </text><text xml:space="preserve" font-family="HelveticaNeue,Helvetica Neue" font-size="30.0" fill="#304863" transform="matrix(1.00, 0.00, -0.00, -1.00, 754.4, 318.7)">T</text><text xml:space="preserve" font-family="HelveticaNeue,Helvetica Neue" font-size="30.0" fill="#304863" transform="matrix(1.00, 0.00, -0.00, -1.00, 768.9, 318.7)">r</text><text xml:space="preserve" font-family="HelveticaNeue,Helvetica Neue" font-size="30.0" fill="#304863" transform="matrix(1.00, 0.00, -0.00, -1.00, 778.9, 318.7)">a</text><text xml:space="preserve" font-family="HelveticaNeue,Helvetica Neue" font-size="30.0" fill="#304863" transform="matrix(1.00, 0.00, -0.00, -1.00, 795.0, 318.7)">n</text><text xml:space="preserve" font-family="HelveticaNeue,Helvetica Neue" font-size="30.0" fill="#304863" transform="matrix(1.00, 0.00, -0.00, -1.00, 811.7, 318.7)">s</text><text xml:space="preserve" font-family="HelveticaNeue,Helvetica Neue" font-size="30.0" fill="#304863" transform="matrix(1.00, 0.00, -0.00, -1.00, 826.7, 318.7)">i</text><text xml:space="preserve" font-family="HelveticaNeue,Helvetica Neue" font-size="30.0" fill="#304863" transform="matrix(1.00, 0.00, -0.00, -1.00, 833.3, 318.7)">t</text><text xml:space="preserve" font-family="HelveticaNeue,Helvetica Neue" font-size="30.0" fill="#304863" transform="matrix(1.00, 0.00, -0.00, -1.00, 842.8, 318.7)">i</text><text xml:space="preserve" font-family="HelveticaNeue,Helvetica Neue" font-size="30.0" fill="#304863" transform="matrix(1.00, 0.00, -0.00, -1.00, 849.4, 318.7)">o</text><text xml:space="preserve" font-family="HelveticaNeue,Helvetica Neue" font-size="30.0" fill="#304863" transform="matrix(1.00, 0.00, -0.00, -1.00, 866.7, 318.7)">n</text><text xml:space="preserve" font-family="HelveticaNeue,Helvetica Neue" font-size="30.0" fill="#304863" transform="matrix(1.00, 0.00, -0.00, -1.00, 883.3, 318.7)"> </text><text xml:space="preserve" font-family="HelveticaNeue,Helvetica Neue" font-size="30.0" fill="#304863" transform="matrix(1.00, 0.00, -0.00, -1.00, 891.7, 318.7)">E</text><text xml:space="preserve" font-family="HelveticaNeue,Helvetica Neue" font-size="30.0" fill="#304863" transform="matrix(1.00, 0.00, -0.00, -1.00, 910.0, 318.7)">v</text><text xml:space="preserve" font-family="HelveticaNeue,Helvetica Neue" font-size="30.0" fill="#304863" transform="matrix(1.00, 0.00, -0.00, -1.00, 925.0, 318.7)">e</text><text xml:space="preserve" font-family="HelveticaNeue,Helvetica Neue" font-size="30.0" fill="#304863" transform="matrix(1.00, 0.00, -0.00, -1.00, 941.1, 318.7)">n</text><text xml:space="preserve" font-family="HelveticaNeue,Helvetica Neue" font-size="30.0" fill="#304863" transform="matrix(1.00, 0.00, -0.00, -1.00, 957.8, 318.7)">t</text></g></g></g></g><g><clipPath id="clip0x7fd9eae5efb0"><path d="M 9.5 485.5 L 1013.5 485.5 L 1013.5 178.5 L 9.5 178.5 Z M 9.5 485.5 "></path></clipPath><g clip-path="url(#clip0x7fd9eae5efb0)"><g><clipPath id="clip0x7fd9eae5f710"><path d="M 212.2 258.6 L 439.3 258.6 L 439.3 306.7 L 212.2 306.7 Z M 212.2 258.6 "></path></clipPath><g clip-path="url(#clip0x7fd9eae5f710)"><text xml:space="preserve" font-family="HelveticaNeue,Helvetica Neue" font-size="30.0" fill="#304863" transform="matrix(1.00, 0.00, -0.00, -1.00, 230.5, 271.9)">w</text><text xml:space="preserve" font-family="HelveticaNeue,Helvetica Neue" font-size="30.0" fill="#304863" transform="matrix(1.00, 0.00, -0.00, -1.00, 253.2, 271.9)">i</text><text xml:space="preserve" font-family="HelveticaNeue,Helvetica Neue" font-size="30.0" fill="#304863" transform="matrix(1.00, 0.00, -0.00, -1.00, 259.9, 271.9)">n</text><text xml:space="preserve" font-family="HelveticaNeue,Helvetica Neue" font-size="30.0" fill="#304863" transform="matrix(1.00, 0.00, -0.00, -1.00, 276.6, 271.9)">d</text><text xml:space="preserve" font-family="HelveticaNeue,Helvetica Neue" font-size="30.0" fill="#304863" transform="matrix(1.00, 0.00, -0.00, -1.00, 294.4, 271.9)">o</text><text xml:space="preserve" font-family="HelveticaNeue,Helvetica Neue" font-size="30.0" fill="#304863" transform="matrix(1.00, 0.00, -0.00, -1.00, 311.6, 271.9)">w</text><text xml:space="preserve" font-family="HelveticaNeue,Helvetica Neue" font-size="30.0" fill="#304863" transform="matrix(1.00, 0.00, -0.00, -1.00, 332.7, 271.9)">.</text><text xml:space="preserve" font-family="HelveticaNeue,Helvetica Neue" font-size="30.0" fill="#304863" transform="matrix(1.00, 0.00, -0.00, -1.00, 341.0, 271.9)">o</text><text xml:space="preserve" font-family="HelveticaNeue,Helvetica Neue" font-size="30.0" fill="#304863" transform="matrix(1.00, 0.00, -0.00, -1.00, 358.2, 271.9)">n</text><text xml:space="preserve" font-family="HelveticaNeue,Helvetica Neue" font-size="30.0" fill="#304863" transform="matrix(1.00, 0.00, -0.00, -1.00, 374.9, 271.9)">l</text><text xml:space="preserve" font-family="HelveticaNeue,Helvetica Neue" font-size="30.0" fill="#304863" transform="matrix(1.00, 0.00, -0.00, -1.00, 381.6, 271.9)">i</text><text xml:space="preserve" font-family="HelveticaNeue,Helvetica Neue" font-size="30.0" fill="#304863" transform="matrix(1.00, 0.00, -0.00, -1.00, 388.2, 271.9)">n</text><text xml:space="preserve" font-family="HelveticaNeue,Helvetica Neue" font-size="30.0" fill="#304863" transform="matrix(1.00, 0.00, -0.00, -1.00, 404.9, 271.9)">e</text></g></g></g></g><g><clipPath id="clip0x7fd9eae65460"><path d="M 9.5 485.5 L 1013.5 485.5 L 1013.5 178.5 L 9.5 178.5 Z M 9.5 485.5 "></path></clipPath><g clip-path="url(#clip0x7fd9eae65460)"><g><clipPath id="clip0x7fd9eae65bc0"><path d="M 440.3 258.6 L 639.8 258.6 L 639.8 306.7 L 440.3 306.7 Z M 440.3 258.6 "></path></clipPath><g clip-path="url(#clip0x7fd9eae65bc0)"><text xml:space="preserve" font-family="HelveticaNeue,Helvetica Neue" font-size="30.0" fill="#304863" transform="matrix(1.00, 0.00, -0.00, -1.00, 487.8, 271.9)">P</text><text xml:space="preserve" font-family="HelveticaNeue,Helvetica Neue" font-size="30.0" fill="#304863" transform="matrix(1.00, 0.00, -0.00, -1.00, 507.3, 271.9)">r</text><text xml:space="preserve" font-family="HelveticaNeue,Helvetica Neue" font-size="30.0" fill="#304863" transform="matrix(1.00, 0.00, -0.00, -1.00, 516.7, 271.9)">o</text><text xml:space="preserve" font-family="HelveticaNeue,Helvetica Neue" font-size="30.0" fill="#304863" transform="matrix(1.00, 0.00, -0.00, -1.00, 533.9, 271.9)">b</text><text xml:space="preserve" font-family="HelveticaNeue,Helvetica Neue" font-size="30.0" fill="#304863" transform="matrix(1.00, 0.00, -0.00, -1.00, 551.7, 271.9)">i</text><text xml:space="preserve" font-family="HelveticaNeue,Helvetica Neue" font-size="30.0" fill="#304863" transform="matrix(1.00, 0.00, -0.00, -1.00, 558.4, 271.9)">n</text><text xml:space="preserve" font-family="HelveticaNeue,Helvetica Neue" font-size="30.0" fill="#304863" transform="matrix(1.00, 0.00, -0.00, -1.00, 575.1, 271.9)">g</text></g></g></g></g><g><clipPath id="clip0x7fd9eae694b0"><path d="M 9.5 485.5 L 1013.5 485.5 L 1013.5 178.5 L 9.5 178.5 Z M 9.5 485.5 "></path></clipPath><g clip-path="url(#clip0x7fd9eae694b0)"><g><clipPath id="clip0x7fd9eae69c10"><path d="M 640.8 258.6 L 1012.5 258.6 L 1012.5 306.7 L 640.8 306.7 Z M 640.8 258.6 "></path></clipPath><g clip-path="url(#clip0x7fd9eae69c10)"><text xml:space="preserve" font-family="HelveticaNeue,Helvetica Neue" font-size="30.0" fill="#304863" transform="matrix(1.00, 0.00, -0.00, -1.00, 686.1, 271.9)">E</text><text xml:space="preserve" font-family="HelveticaNeue,Helvetica Neue" font-size="30.0" fill="#304863" transform="matrix(1.00, 0.00, -0.00, -1.00, 704.4, 271.9)">m</text><text xml:space="preserve" font-family="HelveticaNeue,Helvetica Neue" font-size="30.0" fill="#304863" transform="matrix(1.00, 0.00, -0.00, -1.00, 730.0, 271.9)">i</text><text xml:space="preserve" font-family="HelveticaNeue,Helvetica Neue" font-size="30.0" fill="#304863" transform="matrix(1.00, 0.00, -0.00, -1.00, 736.6, 271.9)">t</text><text xml:space="preserve" font-family="HelveticaNeue,Helvetica Neue" font-size="30.0" fill="#304863" transform="matrix(1.00, 0.00, -0.00, -1.00, 746.1, 271.9)"> </text><text xml:space="preserve" font-family="HelveticaNeue,Helvetica Neue" font-size="30.0" fill="#304863" transform="matrix(1.00, 0.00, -0.00, -1.00, 754.4, 271.9)">T</text><text xml:space="preserve" font-family="HelveticaNeue,Helvetica Neue" font-size="30.0" fill="#304863" transform="matrix(1.00, 0.00, -0.00, -1.00, 768.9, 271.9)">r</text><text xml:space="preserve" font-family="HelveticaNeue,Helvetica Neue" font-size="30.0" fill="#304863" transform="matrix(1.00, 0.00, -0.00, -1.00, 778.9, 271.9)">a</text><text xml:space="preserve" font-family="HelveticaNeue,Helvetica Neue" font-size="30.0" fill="#304863" transform="matrix(1.00, 0.00, -0.00, -1.00, 795.0, 271.9)">n</text><text xml:space="preserve" font-family="HelveticaNeue,Helvetica Neue" font-size="30.0" fill="#304863" transform="matrix(1.00, 0.00, -0.00, -1.00, 811.7, 271.9)">s</text><text xml:space="preserve" font-family="HelveticaNeue,Helvetica Neue" font-size="30.0" fill="#304863" transform="matrix(1.00, 0.00, -0.00, -1.00, 826.7, 271.9)">i</text><text xml:space="preserve" font-family="HelveticaNeue,Helvetica Neue" font-size="30.0" fill="#304863" transform="matrix(1.00, 0.00, -0.00, -1.00, 833.3, 271.9)">t</text><text xml:space="preserve" font-family="HelveticaNeue,Helvetica Neue" font-size="30.0" fill="#304863" transform="matrix(1.00, 0.00, -0.00, -1.00, 842.8, 271.9)">i</text><text xml:space="preserve" font-family="HelveticaNeue,Helvetica Neue" font-size="30.0" fill="#304863" transform="matrix(1.00, 0.00, -0.00, -1.00, 849.4, 271.9)">o</text><text xml:space="preserve" font-family="HelveticaNeue,Helvetica Neue" font-size="30.0" fill="#304863" transform="matrix(1.00, 0.00, -0.00, -1.00, 866.7, 271.9)">n</text><text xml:space="preserve" font-family="HelveticaNeue,Helvetica Neue" font-size="30.0" fill="#304863" transform="matrix(1.00, 0.00, -0.00, -1.00, 883.3, 271.9)"> </text><text xml:space="preserve" font-family="HelveticaNeue,Helvetica Neue" font-size="30.0" fill="#304863" transform="matrix(1.00, 0.00, -0.00, -1.00, 891.7, 271.9)">E</text><text xml:space="preserve" font-family="HelveticaNeue,Helvetica Neue" font-size="30.0" fill="#304863" transform="matrix(1.00, 0.00, -0.00, -1.00, 910.0, 271.9)">v</text><text xml:space="preserve" font-family="HelveticaNeue,Helvetica Neue" font-size="30.0" fill="#304863" transform="matrix(1.00, 0.00, -0.00, -1.00, 925.0, 271.9)">e</text><text xml:space="preserve" font-family="HelveticaNeue,Helvetica Neue" font-size="30.0" fill="#304863" transform="matrix(1.00, 0.00, -0.00, -1.00, 941.1, 271.9)">n</text><text xml:space="preserve" font-family="HelveticaNeue,Helvetica Neue" font-size="30.0" fill="#304863" transform="matrix(1.00, 0.00, -0.00, -1.00, 957.8, 271.9)">t</text></g></g></g></g><g><clipPath id="clip0x7fd9eae72b00"><path d="M 9.5 485.5 L 1013.5 485.5 L 1013.5 178.5 L 9.5 178.5 Z M 9.5 485.5 "></path></clipPath><g clip-path="url(#clip0x7fd9eae72b00)"><g><clipPath id="clip0x7fd9eae73260"><path d="M 212.2 179.5 L 439.3 179.5 L 439.3 257.6 L 212.2 257.6 Z M 212.2 179.5 "></path></clipPath><g clip-path="url(#clip0x7fd9eae73260)"><text xml:space="preserve" font-family="HelveticaNeue,Helvetica Neue" font-size="30.0" fill="#304863" transform="matrix(1.00, 0.00, -0.00, -1.00, 252.4, 223.8)">a</text><text xml:space="preserve" font-family="HelveticaNeue,Helvetica Neue" font-size="30.0" fill="#304863" transform="matrix(1.00, 0.00, -0.00, -1.00, 268.5, 223.8)">p</text><text xml:space="preserve" font-family="HelveticaNeue,Helvetica Neue" font-size="30.0" fill="#304863" transform="matrix(1.00, 0.00, -0.00, -1.00, 286.3, 223.8)">p</text><text xml:space="preserve" font-family="HelveticaNeue,Helvetica Neue" font-size="30.0" fill="#304863" transform="matrix(1.00, 0.00, -0.00, -1.00, 304.1, 223.8)">C</text><text xml:space="preserve" font-family="HelveticaNeue,Helvetica Neue" font-size="30.0" fill="#304863" transform="matrix(1.00, 0.00, -0.00, -1.00, 325.8, 223.8)">a</text><text xml:space="preserve" font-family="HelveticaNeue,Helvetica Neue" font-size="30.0" fill="#304863" transform="matrix(1.00, 0.00, -0.00, -1.00, 341.9, 223.8)">c</text><text xml:space="preserve" font-family="HelveticaNeue,Helvetica Neue" font-size="30.0" fill="#304863" transform="matrix(1.00, 0.00, -0.00, -1.00, 358.0, 223.8)">h</text><text xml:space="preserve" font-family="HelveticaNeue,Helvetica Neue" font-size="30.0" fill="#304863" transform="matrix(1.00, 0.00, -0.00, -1.00, 374.7, 223.8)">e</text><text xml:space="preserve" font-family="HelveticaNeue,Helvetica Neue" font-size="30.0" fill="#304863" transform="matrix(1.00, 0.00, -0.00, -1.00, 390.8, 223.8)">.</text><text xml:space="preserve" font-family="HelveticaNeue,Helvetica Neue" font-size="30.0" fill="#304863" transform="matrix(1.00, 0.00, -0.00, -1.00, 399.1, 223.8)">
</text><text xml:space="preserve" font-family="HelveticaNeue,Helvetica Neue" font-size="30.0" fill="#304863" transform="matrix(1.00, 0.00, -0.00, -1.00, 239.4, 187.8)">d</text><text xml:space="preserve" font-family="HelveticaNeue,Helvetica Neue" font-size="30.0" fill="#304863" transform="matrix(1.00, 0.00, -0.00, -1.00, 257.2, 187.8)">o</text><text xml:space="preserve" font-family="HelveticaNeue,Helvetica Neue" font-size="30.0" fill="#304863" transform="matrix(1.00, 0.00, -0.00, -1.00, 274.4, 187.8)">w</text><text xml:space="preserve" font-family="HelveticaNeue,Helvetica Neue" font-size="30.0" fill="#304863" transform="matrix(1.00, 0.00, -0.00, -1.00, 297.1, 187.8)">n</text><text xml:space="preserve" font-family="HelveticaNeue,Helvetica Neue" font-size="30.0" fill="#304863" transform="matrix(1.00, 0.00, -0.00, -1.00, 313.8, 187.8)">l</text><text xml:space="preserve" font-family="HelveticaNeue,Helvetica Neue" font-size="30.0" fill="#304863" transform="matrix(1.00, 0.00, -0.00, -1.00, 320.5, 187.8)">o</text><text xml:space="preserve" font-family="HelveticaNeue,Helvetica Neue" font-size="30.0" fill="#304863" transform="matrix(1.00, 0.00, -0.00, -1.00, 337.7, 187.8)">a</text><text xml:space="preserve" font-family="HelveticaNeue,Helvetica Neue" font-size="30.0" fill="#304863" transform="matrix(1.00, 0.00, -0.00, -1.00, 353.8, 187.8)">d</text><text xml:space="preserve" font-family="HelveticaNeue,Helvetica Neue" font-size="30.0" fill="#304863" transform="matrix(1.00, 0.00, -0.00, -1.00, 371.6, 187.8)">i</text><text xml:space="preserve" font-family="HelveticaNeue,Helvetica Neue" font-size="30.0" fill="#304863" transform="matrix(1.00, 0.00, -0.00, -1.00, 378.2, 187.8)">n</text><text xml:space="preserve" font-family="HelveticaNeue,Helvetica Neue" font-size="30.0" fill="#304863" transform="matrix(1.00, 0.00, -0.00, -1.00, 394.9, 187.8)">g</text></g></g></g></g><g><clipPath id="clip0x7fd9eae7d690"><path d="M 9.5 485.5 L 1013.5 485.5 L 1013.5 178.5 L 9.5 178.5 Z M 9.5 485.5 "></path></clipPath><g clip-path="url(#clip0x7fd9eae7d690)"><g><clipPath id="clip0x7fd9eae7ddf0"><path d="M 440.3 179.5 L 639.8 179.5 L 639.8 257.6 L 440.3 257.6 Z M 440.3 179.5 "></path></clipPath><g clip-path="url(#clip0x7fd9eae7ddf0)"><text xml:space="preserve" font-family="HelveticaNeue,Helvetica Neue" font-size="30.0" fill="#304863" transform="matrix(1.00, 0.00, -0.00, -1.00, 487.8, 207.8)">P</text><text xml:space="preserve" font-family="HelveticaNeue,Helvetica Neue" font-size="30.0" fill="#304863" transform="matrix(1.00, 0.00, -0.00, -1.00, 507.3, 207.8)">r</text><text xml:space="preserve" font-family="HelveticaNeue,Helvetica Neue" font-size="30.0" fill="#304863" transform="matrix(1.00, 0.00, -0.00, -1.00, 516.7, 207.8)">o</text><text xml:space="preserve" font-family="HelveticaNeue,Helvetica Neue" font-size="30.0" fill="#304863" transform="matrix(1.00, 0.00, -0.00, -1.00, 533.9, 207.8)">b</text><text xml:space="preserve" font-family="HelveticaNeue,Helvetica Neue" font-size="30.0" fill="#304863" transform="matrix(1.00, 0.00, -0.00, -1.00, 551.7, 207.8)">i</text><text xml:space="preserve" font-family="HelveticaNeue,Helvetica Neue" font-size="30.0" fill="#304863" transform="matrix(1.00, 0.00, -0.00, -1.00, 558.4, 207.8)">n</text><text xml:space="preserve" font-family="HelveticaNeue,Helvetica Neue" font-size="30.0" fill="#304863" transform="matrix(1.00, 0.00, -0.00, -1.00, 575.1, 207.8)">g</text></g></g></g></g><g><clipPath id="clip0x7fd9eae81660"><path d="M 9.5 485.5 L 1013.5 485.5 L 1013.5 178.5 L 9.5 178.5 Z M 9.5 485.5 "></path></clipPath><g clip-path="url(#clip0x7fd9eae81660)"><g><clipPath id="clip0x7fd9eae81dc0"><path d="M 640.8 179.5 L 1012.5 179.5 L 1012.5 257.6 L 640.8 257.6 Z M 640.8 179.5 "></path></clipPath><g clip-path="url(#clip0x7fd9eae81dc0)"><text xml:space="preserve" font-family="HelveticaNeue,Helvetica Neue" font-size="30.0" fill="#304863" transform="matrix(1.00, 0.00, -0.00, -1.00, 686.1, 207.8)">E</text><text xml:space="preserve" font-family="HelveticaNeue,Helvetica Neue" font-size="30.0" fill="#304863" transform="matrix(1.00, 0.00, -0.00, -1.00, 704.4, 207.8)">m</text><text xml:space="preserve" font-family="HelveticaNeue,Helvetica Neue" font-size="30.0" fill="#304863" transform="matrix(1.00, 0.00, -0.00, -1.00, 730.0, 207.8)">i</text><text xml:space="preserve" font-family="HelveticaNeue,Helvetica Neue" font-size="30.0" fill="#304863" transform="matrix(1.00, 0.00, -0.00, -1.00, 736.6, 207.8)">t</text><text xml:space="preserve" font-family="HelveticaNeue,Helvetica Neue" font-size="30.0" fill="#304863" transform="matrix(1.00, 0.00, -0.00, -1.00, 746.1, 207.8)"> </text><text xml:space="preserve" font-family="HelveticaNeue,Helvetica Neue" font-size="30.0" fill="#304863" transform="matrix(1.00, 0.00, -0.00, -1.00, 754.4, 207.8)">T</text><text xml:space="preserve" font-family="HelveticaNeue,Helvetica Neue" font-size="30.0" fill="#304863" transform="matrix(1.00, 0.00, -0.00, -1.00, 768.9, 207.8)">r</text><text xml:space="preserve" font-family="HelveticaNeue,Helvetica Neue" font-size="30.0" fill="#304863" transform="matrix(1.00, 0.00, -0.00, -1.00, 778.9, 207.8)">a</text><text xml:space="preserve" font-family="HelveticaNeue,Helvetica Neue" font-size="30.0" fill="#304863" transform="matrix(1.00, 0.00, -0.00, -1.00, 795.0, 207.8)">n</text><text xml:space="preserve" font-family="HelveticaNeue,Helvetica Neue" font-size="30.0" fill="#304863" transform="matrix(1.00, 0.00, -0.00, -1.00, 811.7, 207.8)">s</text><text xml:space="preserve" font-family="HelveticaNeue,Helvetica Neue" font-size="30.0" fill="#304863" transform="matrix(1.00, 0.00, -0.00, -1.00, 826.7, 207.8)">i</text><text xml:space="preserve" font-family="HelveticaNeue,Helvetica Neue" font-size="30.0" fill="#304863" transform="matrix(1.00, 0.00, -0.00, -1.00, 833.3, 207.8)">t</text><text xml:space="preserve" font-family="HelveticaNeue,Helvetica Neue" font-size="30.0" fill="#304863" transform="matrix(1.00, 0.00, -0.00, -1.00, 842.8, 207.8)">i</text><text xml:space="preserve" font-family="HelveticaNeue,Helvetica Neue" font-size="30.0" fill="#304863" transform="matrix(1.00, 0.00, -0.00, -1.00, 849.4, 207.8)">o</text><text xml:space="preserve" font-family="HelveticaNeue,Helvetica Neue" font-size="30.0" fill="#304863" transform="matrix(1.00, 0.00, -0.00, -1.00, 866.7, 207.8)">n</text><text xml:space="preserve" font-family="HelveticaNeue,Helvetica Neue" font-size="30.0" fill="#304863" transform="matrix(1.00, 0.00, -0.00, -1.00, 883.3, 207.8)"> </text><text xml:space="preserve" font-family="HelveticaNeue,Helvetica Neue" font-size="30.0" fill="#304863" transform="matrix(1.00, 0.00, -0.00, -1.00, 891.7, 207.8)">E</text><text xml:space="preserve" font-family="HelveticaNeue,Helvetica Neue" font-size="30.0" fill="#304863" transform="matrix(1.00, 0.00, -0.00, -1.00, 910.0, 207.8)">v</text><text xml:space="preserve" font-family="HelveticaNeue,Helvetica Neue" font-size="30.0" fill="#304863" transform="matrix(1.00, 0.00, -0.00, -1.00, 925.0, 207.8)">e</text><text xml:space="preserve" font-family="HelveticaNeue,Helvetica Neue" font-size="30.0" fill="#304863" transform="matrix(1.00, 0.00, -0.00, -1.00, 941.1, 207.8)">n</text><text xml:space="preserve" font-family="HelveticaNeue,Helvetica Neue" font-size="30.0" fill="#304863" transform="matrix(1.00, 0.00, -0.00, -1.00, 957.8, 207.8)">t</text></g></g></g></g><g><clipPath id="clip0x7fd9eae8acb0"><path d="M 9.5 485.5 L 1013.5 485.5 L 1013.5 178.5 L 9.5 178.5 Z M 9.5 485.5 "></path></clipPath><g clip-path="url(#clip0x7fd9eae8acb0)"><path d="M 203.7 1.5 L 203.7 308.5 " fill="none" stroke="#C0C0C0" stroke-width="1.00" transform="matrix(1.00, 0.00, 0.00, -1.00, 8.0, 487.0)"></path><path d="M 431.8 1.5 L 431.8 308.5 " fill="none" stroke="#C0C0C0" stroke-width="1.00" transform="matrix(1.00, 0.00, 0.00, -1.00, 8.0, 487.0)"></path><path d="M 632.3 1.5 L 632.3 308.5 " fill="none" stroke="#C0C0C0" stroke-width="1.00" transform="matrix(1.00, 0.00, 0.00, -1.00, 8.0, 487.0)"></path><path d="M 1.5 88.3 L 1005.5 88.3 " fill="none" stroke="#C0C0C0" stroke-width="1.00" transform="matrix(1.00, 0.00, 0.00, -1.00, 8.0, 487.0)"></path><path d="M 203.2 134.1 L 1005.5 134.1 " fill="none" stroke="#C0C0C0" stroke-width="1.00" transform="matrix(1.00, 0.00, 0.00, -1.00, 8.0, 487.0)"></path><path d="M 203.2 179.8 L 1005.5 179.8 " fill="none" stroke="#C0C0C0" stroke-width="1.00" transform="matrix(1.00, 0.00, 0.00, -1.00, 8.0, 487.0)"></path><path d="M 203.2 228.9 L 1005.5 228.9 " fill="none" stroke="#C0C0C0" stroke-width="1.00" transform="matrix(1.00, 0.00, 0.00, -1.00, 8.0, 487.0)"></path><path d="M 2.0 1.5 L 2.0 308.5 " fill="none" stroke="#C0C0C0" stroke-width="1.00" transform="matrix(1.00, 0.00, 0.00, -1.00, 8.0, 487.0)"></path><path d="M 1005.0 1.5 L 1005.0 308.5 " fill="none" stroke="#C0C0C0" stroke-width="1.00" transform="matrix(1.00, 0.00, 0.00, -1.00, 8.0, 487.0)"></path><path d="M 1.5 2.0 L 1005.5 2.0 " fill="none" stroke="#C0C0C0" stroke-width="1.00" transform="matrix(1.00, 0.00, 0.00, -1.00, 8.0, 487.0)"></path><path d="M 1.5 308.0 L 1005.5 308.0 " fill="none" stroke="#C0C0C0" stroke-width="1.00" transform="matrix(1.00, 0.00, 0.00, -1.00, 8.0, 487.0)"></path></g></g></g></svg>