<?xml version="1.0" encoding="UTF-8" standalone="no"?><svg xmlns="http://www.w3.org/2000/svg" xmlns:xlink="http://www.w3.org/1999/xlink" clip-rule="evenodd" stroke-miterlimit="10" viewBox="0 0 942 239"><desc>SVG generated by Keynote</desc><defs></defs><g transform="matrix(1.00, 0.00, -0.00, -1.00, 0.0, 239.0)"><text xml:space="preserve" font-family="HelveticaNeue,Helvetica Neue" font-size="60.0" fill="#797979" transform="matrix(1.00, 0.00, -0.00, -1.00, 0.0, 180.8)">•</text><text xml:space="preserve" font-family="HelveticaNeue,Helvetica Neue" font-size="48.0" fill="#797979" transform="matrix(1.00, 0.00, -0.00, -1.00, 31.0, 185.6)">T</text><text xml:space="preserve" font-family="HelveticaNeue,Helvetica Neue" font-size="48.0" fill="#797979" transform="matrix(1.00, 0.00, -0.00, -1.00, 58.6, 185.6)">h</text><text xml:space="preserve" font-family="HelveticaNeue,Helvetica Neue" font-size="48.0" fill="#797979" transform="matrix(1.00, 0.00, -0.00, -1.00, 85.2, 185.6)">i</text><text xml:space="preserve" font-family="HelveticaNeue,Helvetica Neue" font-size="48.0" fill="#797979" transform="matrix(1.00, 0.00, -0.00, -1.00, 95.9, 185.6)">s</text><text xml:space="preserve" font-family="HelveticaNeue,Helvetica Neue" font-size="48.0" fill="#797979" transform="matrix(1.00, 0.00, -0.00, -1.00, 119.9, 185.6)"> </text><text xml:space="preserve" font-family="HelveticaNeue,Helvetica Neue" font-size="48.0" fill="#797979" transform="matrix(1.00, 0.00, -0.00, -1.00, 133.2, 185.6)">p</text><text xml:space="preserve" font-family="HelveticaNeue,Helvetica Neue" font-size="48.0" fill="#797979" transform="matrix(1.00, 0.00, -0.00, -1.00, 161.7, 185.6)">a</text><text xml:space="preserve" font-family="HelveticaNeue,Helvetica Neue" font-size="48.0" fill="#797979" transform="matrix(1.00, 0.00, -0.00, -1.00, 187.5, 185.6)">t</text><text xml:space="preserve" font-family="HelveticaNeue,Helvetica Neue" font-size="48.0" fill="#797979" transform="matrix(1.00, 0.00, -0.00, -1.00, 202.6, 185.6)">t</text><text xml:space="preserve" font-family="HelveticaNeue,Helvetica Neue" font-size="48.0" fill="#797979" transform="matrix(1.00, 0.00, -0.00, -1.00, 217.7, 185.6)">e</text><text xml:space="preserve" font-family="HelveticaNeue,Helvetica Neue" font-size="48.0" fill="#797979" transform="matrix(1.00, 0.00, -0.00, -1.00, 243.5, 185.6)">r</text><text xml:space="preserve" font-family="HelveticaNeue,Helvetica Neue" font-size="48.0" fill="#797979" transform="matrix(1.00, 0.00, -0.00, -1.00, 260.3, 185.6)">n</text><text xml:space="preserve" font-family="HelveticaNeue,Helvetica Neue" font-size="48.0" fill="#797979" transform="matrix(1.00, 0.00, -0.00, -1.00, 287.0, 185.6)"> </text><text xml:space="preserve" font-family="HelveticaNeue,Helvetica Neue" font-size="48.0" fill="#797979" transform="matrix(1.00, 0.00, -0.00, -1.00, 300.4, 185.6)">c</text><text xml:space="preserve" font-family="HelveticaNeue,Helvetica Neue" font-size="48.0" fill="#797979" transform="matrix(1.00, 0.00, -0.00, -1.00, 326.2, 185.6)">a</text><text xml:space="preserve" font-family="HelveticaNeue,Helvetica Neue" font-size="48.0" fill="#797979" transform="matrix(1.00, 0.00, -0.00, -1.00, 351.9, 185.6)">n</text><text xml:space="preserve" font-family="HelveticaNeue,Helvetica Neue" font-size="48.0" fill="#797979" transform="matrix(1.00, 0.00, -0.00, -1.00, 378.6, 185.6)"> </text><text xml:space="preserve" font-family="HelveticaNeue,Helvetica Neue" font-size="48.0" fill="#797979" transform="matrix(1.00, 0.00, -0.00, -1.00, 392.0, 185.6)">b</text><text xml:space="preserve" font-family="HelveticaNeue,Helvetica Neue" font-size="48.0" fill="#797979" transform="matrix(1.00, 0.00, -0.00, -1.00, 420.4, 185.6)">e</text><text xml:space="preserve" font-family="HelveticaNeue,Helvetica Neue" font-size="48.0" fill="#797979" transform="matrix(1.00, 0.00, -0.00, -1.00, 446.2, 185.6)"> </text><text xml:space="preserve" font-family="HelveticaNeue,Helvetica Neue" font-size="48.0" fill="#797979" transform="matrix(1.00, 0.00, -0.00, -1.00, 459.5, 185.6)">u</text><text xml:space="preserve" font-family="HelveticaNeue,Helvetica Neue" font-size="48.0" fill="#797979" transform="matrix(1.00, 0.00, -0.00, -1.00, 486.2, 185.6)">s</text><text xml:space="preserve" font-family="HelveticaNeue,Helvetica Neue" font-size="48.0" fill="#797979" transform="matrix(1.00, 0.00, -0.00, -1.00, 510.2, 185.6)">e</text><text xml:space="preserve" font-family="HelveticaNeue,Helvetica Neue" font-size="48.0" fill="#797979" transform="matrix(1.00, 0.00, -0.00, -1.00, 536.0, 185.6)">f</text><text xml:space="preserve" font-family="HelveticaNeue,Helvetica Neue" font-size="48.0" fill="#797979" transform="matrix(1.00, 0.00, -0.00, -1.00, 550.2, 185.6)">u</text><text xml:space="preserve" font-family="HelveticaNeue,Helvetica Neue" font-size="48.0" fill="#797979" transform="matrix(1.00, 0.00, -0.00, -1.00, 576.9, 185.6)">l</text><text xml:space="preserve" font-family="HelveticaNeue,Helvetica Neue" font-size="48.0" fill="#797979" transform="matrix(1.00, 0.00, -0.00, -1.00, 587.6, 185.6)"> </text><text xml:space="preserve" font-family="HelveticaNeue,Helvetica Neue" font-size="48.0" fill="#797979" transform="matrix(1.00, 0.00, -0.00, -1.00, 600.9, 185.6)">f</text><text xml:space="preserve" font-family="HelveticaNeue,Helvetica Neue" font-size="48.0" fill="#797979" transform="matrix(1.00, 0.00, -0.00, -1.00, 615.1, 185.6)">o</text><text xml:space="preserve" font-family="HelveticaNeue,Helvetica Neue" font-size="48.0" fill="#797979" transform="matrix(1.00, 0.00, -0.00, -1.00, 642.7, 185.6)">r</text><text xml:space="preserve" font-family="HelveticaNeue,Helvetica Neue" font-size="48.0" fill="#797979" transform="matrix(1.00, 0.00, -0.00, -1.00, 658.6, 185.6)"> </text><text xml:space="preserve" font-family="HelveticaNeue,Helvetica Neue" font-size="48.0" fill="#797979" transform="matrix(1.00, 0.00, -0.00, -1.00, 672.0, 185.6)">o</text><text xml:space="preserve" font-family="HelveticaNeue,Helvetica Neue" font-size="48.0" fill="#797979" transform="matrix(1.00, 0.00, -0.00, -1.00, 699.5, 185.6)">t</text><text xml:space="preserve" font-family="HelveticaNeue,Helvetica Neue" font-size="48.0" fill="#797979" transform="matrix(1.00, 0.00, -0.00, -1.00, 714.7, 185.6)">h</text><text xml:space="preserve" font-family="HelveticaNeue,Helvetica Neue" font-size="48.0" fill="#797979" transform="matrix(1.00, 0.00, -0.00, -1.00, 741.4, 185.6)">e</text><text xml:space="preserve" font-family="HelveticaNeue,Helvetica Neue" font-size="48.0" fill="#797979" transform="matrix(1.00, 0.00, -0.00, -1.00, 767.1, 185.6)">r</text><text xml:space="preserve" font-family="HelveticaNeue,Helvetica Neue" font-size="48.0" fill="#797979" transform="matrix(1.00, 0.00, -0.00, -1.00, 783.1, 185.6)"> </text><text xml:space="preserve" font-family="HelveticaNeue,Helvetica Neue" font-size="48.0" fill="#797979" transform="matrix(1.00, 0.00, -0.00, -1.00, 796.5, 185.6)">t</text><text xml:space="preserve" font-family="HelveticaNeue,Helvetica Neue" font-size="48.0" fill="#797979" transform="matrix(1.00, 0.00, -0.00, -1.00, 811.6, 185.6)">h</text><text xml:space="preserve" font-family="HelveticaNeue,Helvetica Neue" font-size="48.0" fill="#797979" transform="matrix(1.00, 0.00, -0.00, -1.00, 838.3, 185.6)">i</text><text xml:space="preserve" font-family="HelveticaNeue,Helvetica Neue" font-size="48.0" fill="#797979" transform="matrix(1.00, 0.00, -0.00, -1.00, 848.9, 185.6)">n</text><text xml:space="preserve" font-family="HelveticaNeue,Helvetica Neue" font-size="48.0" fill="#797979" transform="matrix(1.00, 0.00, -0.00, -1.00, 875.6, 185.6)">g</text><text xml:space="preserve" font-family="HelveticaNeue,Helvetica Neue" font-size="48.0" fill="#797979" transform="matrix(1.00, 0.00, -0.00, -1.00, 903.2, 185.6)">s</text><text xml:space="preserve" font-family="HelveticaNeue,Helvetica Neue" font-size="48.0" fill="#797979" transform="matrix(1.00, 0.00, -0.00, -1.00, 927.2, 185.6)">:</text><text xml:space="preserve" font-family="HelveticaNeue,Helvetica Neue" font-size="48.0" fill="#797979" transform="matrix(1.00, 0.00, -0.00, -1.00, 940.5, 185.6)">
</text><text xml:space="preserve" font-family="HelveticaNeue,Helvetica Neue" font-size="60.0" fill="#787878" transform="matrix(1.00, 0.00, -0.00, -1.00, 33.0, 96.8)">•</text><text xml:space="preserve" font-family="HelveticaNeue,Helvetica Neue" font-size="48.0" fill="#787878" transform="matrix(1.00, 0.00, -0.00, -1.00, 64.0, 101.6)">H</text><text xml:space="preserve" font-family="HelveticaNeue,Helvetica Neue" font-size="48.0" fill="#787878" transform="matrix(1.00, 0.00, -0.00, -1.00, 98.7, 101.6)">a</text><text xml:space="preserve" font-family="HelveticaNeue,Helvetica Neue" font-size="48.0" fill="#787878" transform="matrix(1.00, 0.00, -0.00, -1.00, 124.4, 101.6)">n</text><text xml:space="preserve" font-family="HelveticaNeue,Helvetica Neue" font-size="48.0" fill="#787878" transform="matrix(1.00, 0.00, -0.00, -1.00, 151.1, 101.6)">d</text><text xml:space="preserve" font-family="HelveticaNeue,Helvetica Neue" font-size="48.0" fill="#787878" transform="matrix(1.00, 0.00, -0.00, -1.00, 179.6, 101.6)">l</text><text xml:space="preserve" font-family="HelveticaNeue,Helvetica Neue" font-size="48.0" fill="#787878" transform="matrix(1.00, 0.00, -0.00, -1.00, 190.2, 101.6)">i</text><text xml:space="preserve" font-family="HelveticaNeue,Helvetica Neue" font-size="48.0" fill="#787878" transform="matrix(1.00, 0.00, -0.00, -1.00, 200.9, 101.6)">n</text><text xml:space="preserve" font-family="HelveticaNeue,Helvetica Neue" font-size="48.0" fill="#787878" transform="matrix(1.00, 0.00, -0.00, -1.00, 227.6, 101.6)">g</text><text xml:space="preserve" font-family="HelveticaNeue,Helvetica Neue" font-size="48.0" fill="#787878" transform="matrix(1.00, 0.00, -0.00, -1.00, 255.1, 101.6)"> </text><text xml:space="preserve" font-family="HelveticaNeue,Helvetica Neue" font-size="48.0" fill="#787878" transform="matrix(1.00, 0.00, -0.00, -1.00, 268.5, 101.6)">c</text><text xml:space="preserve" font-family="HelveticaNeue,Helvetica Neue" font-size="48.0" fill="#787878" transform="matrix(1.00, 0.00, -0.00, -1.00, 294.3, 101.6)">o</text><text xml:space="preserve" font-family="HelveticaNeue,Helvetica Neue" font-size="48.0" fill="#787878" transform="matrix(1.00, 0.00, -0.00, -1.00, 321.8, 101.6)">m</text><text xml:space="preserve" font-family="HelveticaNeue,Helvetica Neue" font-size="48.0" fill="#787878" transform="matrix(1.00, 0.00, -0.00, -1.00, 362.8, 101.6)">p</text><text xml:space="preserve" font-family="HelveticaNeue,Helvetica Neue" font-size="48.0" fill="#787878" transform="matrix(1.00, 0.00, -0.00, -1.00, 391.2, 101.6)">l</text><text xml:space="preserve" font-family="HelveticaNeue,Helvetica Neue" font-size="48.0" fill="#787878" transform="matrix(1.00, 0.00, -0.00, -1.00, 401.9, 101.6)">e</text><text xml:space="preserve" font-family="HelveticaNeue,Helvetica Neue" font-size="48.0" fill="#787878" transform="matrix(1.00, 0.00, -0.00, -1.00, 427.6, 101.6)">x</text><text xml:space="preserve" font-family="HelveticaNeue,Helvetica Neue" font-size="48.0" fill="#787878" transform="matrix(1.00, 0.00, -0.00, -1.00, 452.5, 101.6)"> </text><text xml:space="preserve" font-family="HelveticaNeue,Helvetica Neue" font-size="48.0" fill="#787878" transform="matrix(1.00, 0.00, -0.00, -1.00, 465.9, 101.6)">U</text><text xml:space="preserve" font-family="HelveticaNeue,Helvetica Neue" font-size="48.0" fill="#787878" transform="matrix(1.00, 0.00, -0.00, -1.00, 500.5, 101.6)">I</text><text xml:space="preserve" font-family="HelveticaNeue,Helvetica Neue" font-size="48.0" fill="#787878" transform="matrix(1.00, 0.00, -0.00, -1.00, 512.9, 101.6)"> </text><text xml:space="preserve" font-family="HelveticaNeue,Helvetica Neue" font-size="48.0" fill="#787878" transform="matrix(1.00, 0.00, -0.00, -1.00, 526.3, 101.6)">w</text><text xml:space="preserve" font-family="HelveticaNeue,Helvetica Neue" font-size="48.0" fill="#787878" transform="matrix(1.00, 0.00, -0.00, -1.00, 562.7, 101.6)">o</text><text xml:space="preserve" font-family="HelveticaNeue,Helvetica Neue" font-size="48.0" fill="#787878" transform="matrix(1.00, 0.00, -0.00, -1.00, 590.2, 101.6)">r</text><text xml:space="preserve" font-family="HelveticaNeue,Helvetica Neue" font-size="48.0" fill="#787878" transform="matrix(1.00, 0.00, -0.00, -1.00, 606.2, 101.6)">k</text><text xml:space="preserve" font-family="HelveticaNeue,Helvetica Neue" font-size="48.0" fill="#787878" transform="matrix(1.00, 0.00, -0.00, -1.00, 631.1, 101.6)">ﬂ</text><text xml:space="preserve" font-family="HelveticaNeue,Helvetica Neue" font-size="48.0" fill="#787878" transform="matrix(1.00, 0.00, -0.00, -1.00, 656.0, 101.6)">o</text><text xml:space="preserve" font-family="HelveticaNeue,Helvetica Neue" font-size="48.0" fill="#787878" transform="matrix(1.00, 0.00, -0.00, -1.00, 683.5, 101.6)">w</text><text xml:space="preserve" font-family="HelveticaNeue,Helvetica Neue" font-size="48.0" fill="#787878" transform="matrix(1.00, 0.00, -0.00, -1.00, 719.9, 101.6)">
</text><text xml:space="preserve" font-family="HelveticaNeue,Helvetica Neue" font-size="60.0" fill="#787878" transform="matrix(1.00, 0.00, -0.00, -1.00, 33.0, 12.8)">•</text><text xml:space="preserve" font-family="HelveticaNeue,Helvetica Neue" font-size="48.0" fill="#787878" transform="matrix(1.00, 0.00, -0.00, -1.00, 64.0, 17.6)">I</text><text xml:space="preserve" font-family="HelveticaNeue,Helvetica Neue" font-size="48.0" fill="#787878" transform="matrix(1.00, 0.00, -0.00, -1.00, 76.4, 17.6)">n</text><text xml:space="preserve" font-family="HelveticaNeue,Helvetica Neue" font-size="48.0" fill="#787878" transform="matrix(1.00, 0.00, -0.00, -1.00, 103.1, 17.6)">i</text><text xml:space="preserve" font-family="HelveticaNeue,Helvetica Neue" font-size="48.0" fill="#787878" transform="matrix(1.00, 0.00, -0.00, -1.00, 113.8, 17.6)">t</text><text xml:space="preserve" font-family="HelveticaNeue,Helvetica Neue" font-size="48.0" fill="#787878" transform="matrix(1.00, 0.00, -0.00, -1.00, 128.9, 17.6)">i</text><text xml:space="preserve" font-family="HelveticaNeue,Helvetica Neue" font-size="48.0" fill="#787878" transform="matrix(1.00, 0.00, -0.00, -1.00, 139.6, 17.6)">a</text><text xml:space="preserve" font-family="HelveticaNeue,Helvetica Neue" font-size="48.0" fill="#787878" transform="matrix(1.00, 0.00, -0.00, -1.00, 165.3, 17.6)">l</text><text xml:space="preserve" font-family="HelveticaNeue,Helvetica Neue" font-size="48.0" fill="#787878" transform="matrix(1.00, 0.00, -0.00, -1.00, 176.0, 17.6)">i</text><text xml:space="preserve" font-family="HelveticaNeue,Helvetica Neue" font-size="48.0" fill="#787878" transform="matrix(1.00, 0.00, -0.00, -1.00, 186.6, 17.6)">z</text><text xml:space="preserve" font-family="HelveticaNeue,Helvetica Neue" font-size="48.0" fill="#787878" transform="matrix(1.00, 0.00, -0.00, -1.00, 209.7, 17.6)">a</text><text xml:space="preserve" font-family="HelveticaNeue,Helvetica Neue" font-size="48.0" fill="#787878" transform="matrix(1.00, 0.00, -0.00, -1.00, 235.5, 17.6)">t</text><text xml:space="preserve" font-family="HelveticaNeue,Helvetica Neue" font-size="48.0" fill="#787878" transform="matrix(1.00, 0.00, -0.00, -1.00, 250.6, 17.6)">i</text><text xml:space="preserve" font-family="HelveticaNeue,Helvetica Neue" font-size="48.0" fill="#787878" transform="matrix(1.00, 0.00, -0.00, -1.00, 261.2, 17.6)">o</text><text xml:space="preserve" font-family="HelveticaNeue,Helvetica Neue" font-size="48.0" fill="#787878" transform="matrix(1.00, 0.00, -0.00, -1.00, 288.8, 17.6)">n</text></g></svg>