<?xml version="1.0" encoding="UTF-8" standalone="no"?><svg xmlns="http://www.w3.org/2000/svg" xmlns:xlink="http://www.w3.org/1999/xlink" clip-rule="evenodd" stroke-miterlimit="10" viewBox="0 0 1024 768"><desc>SVG generated by Keynote</desc><defs></defs><g transform="matrix(1.00, 0.00, -0.00, -1.00, 0.0, 768.0)"><path d="M 0.0 768.0 L 1024.0 768.0 L 1024.0 0.0 L 0.0 0.0 Z M 0.0 768.0 " fill="#FDFEF7"></path><text xml:space="preserve" font-family="BebasNeue,Bebas Neue" font-size="144.0" fill="#5E5E5E" transform="matrix(1.00, 0.00, -0.00, -1.00, 188.8, 341.2)">S</text><text xml:space="preserve" font-family="BebasNeue,Bebas Neue" font-size="144.0" fill="#5E5E5E" transform="matrix(1.00, 0.00, -0.00, -1.00, 245.5, 341.2)">t</text><text xml:space="preserve" font-family="BebasNeue,Bebas Neue" font-size="144.0" fill="#5E5E5E" transform="matrix(1.00, 0.00, -0.00, -1.00, 299.7, 341.2)">i</text><text xml:space="preserve" font-family="BebasNeue,Bebas Neue" font-size="144.0" fill="#5E5E5E" transform="matrix(1.00, 0.00, -0.00, -1.00, 329.9, 341.2)">l</text><text xml:space="preserve" font-family="BebasNeue,Bebas Neue" font-size="144.0" fill="#5E5E5E" transform="matrix(1.00, 0.00, -0.00, -1.00, 381.6, 341.2)">l</text><text xml:space="preserve" font-family="BebasNeue,Bebas Neue" font-size="144.0" fill="#6EB1D8" transform="matrix(1.00, 0.00, -0.00, -1.00, 458.5, 341.2)">A</text><text xml:space="preserve" font-family="BebasNeue,Bebas Neue" font-size="144.0" fill="#6EB1D8" transform="matrix(1.00, 0.00, -0.00, -1.00, 517.8, 341.2)">W</text><text xml:space="preserve" font-family="BebasNeue,Bebas Neue" font-size="144.0" fill="#6EB1D8" transform="matrix(1.00, 0.00, -0.00, -1.00, 599.6, 341.2)">A</text><text xml:space="preserve" font-family="BebasNeue,Bebas Neue" font-size="144.0" fill="#6EB1D8" transform="matrix(1.00, 0.00, -0.00, -1.00, 661.1, 341.2)">K</text><text xml:space="preserve" font-family="BebasNeue,Bebas Neue" font-size="144.0" fill="#6EB1D8" transform="matrix(1.00, 0.00, -0.00, -1.00, 723.6, 341.2)">E</text><text xml:space="preserve" font-family="BebasNeue,Bebas Neue" font-size="144.0" fill="#6EB1D8" transform="matrix(1.00, 0.00, -0.00, -1.00, 779.5, 341.2)">?</text></g></svg>