<?xml version="1.0" encoding="UTF-8" standalone="no"?><svg xmlns="http://www.w3.org/2000/svg" xmlns:xlink="http://www.w3.org/1999/xlink" clip-rule="evenodd" stroke-miterlimit="10" viewBox="0 0 1024 768"><desc>SVG generated by Keynote</desc><defs></defs><g transform="matrix(1.00, 0.00, -0.00, -1.00, 0.0, 768.0)"><path d="M 0.0 768.0 L 1024.0 768.0 L 1024.0 0.0 L 0.0 0.0 Z M 0.0 768.0 " fill="#FDFEF7"></path><text xml:space="preserve" font-family="HelveticaNeue,Helvetica Neue" font-size="96.0" fill="#304863" transform="matrix(1.00, 0.00, -0.00, -1.00, 182.9, 463.8)">W</text><text xml:space="preserve" font-family="HelveticaNeue,Helvetica Neue" font-size="96.0" fill="#304863" transform="matrix(1.00, 0.00, -0.00, -1.00, 266.4, 463.8)">e</text><text xml:space="preserve" font-family="HelveticaNeue,Helvetica Neue" font-size="96.0" fill="#304863" transform="matrix(1.00, 0.00, -0.00, -1.00, 317.9, 463.8)"> </text><text xml:space="preserve" font-family="HelveticaNeue,Helvetica Neue" font-size="96.0" fill="#304863" transform="matrix(1.00, 0.00, -0.00, -1.00, 344.6, 463.8)">h</text><text xml:space="preserve" font-family="HelveticaNeue,Helvetica Neue" font-size="96.0" fill="#304863" transform="matrix(1.00, 0.00, -0.00, -1.00, 398.0, 463.8)">a</text><text xml:space="preserve" font-family="HelveticaNeue,Helvetica Neue" font-size="96.0" fill="#304863" transform="matrix(1.00, 0.00, -0.00, -1.00, 449.5, 463.8)">v</text><text xml:space="preserve" font-family="HelveticaNeue,Helvetica Neue" font-size="96.0" fill="#304863" transform="matrix(1.00, 0.00, -0.00, -1.00, 497.5, 463.8)">e</text><text xml:space="preserve" font-family="HelveticaNeue,Helvetica Neue" font-size="96.0" fill="#304863" transform="matrix(1.00, 0.00, -0.00, -1.00, 549.1, 463.8)"> </text><text xml:space="preserve" font-family="HelveticaNeue,Helvetica Neue" font-size="96.0" fill="#304863" transform="matrix(1.00, 0.00, -0.00, -1.00, 575.8, 463.8)">l</text><text xml:space="preserve" font-family="HelveticaNeue,Helvetica Neue" font-size="96.0" fill="#304863" transform="matrix(1.00, 0.00, -0.00, -1.00, 597.1, 463.8)">o</text><text xml:space="preserve" font-family="HelveticaNeue,Helvetica Neue" font-size="96.0" fill="#304863" transform="matrix(1.00, 0.00, -0.00, -1.00, 652.2, 463.8)">t</text><text xml:space="preserve" font-family="HelveticaNeue,Helvetica Neue" font-size="96.0" fill="#304863" transform="matrix(1.00, 0.00, -0.00, -1.00, 682.4, 463.8)">s</text><text xml:space="preserve" font-family="HelveticaNeue,Helvetica Neue" font-size="96.0" fill="#304863" transform="matrix(1.00, 0.00, -0.00, -1.00, 730.4, 463.8)"> </text><text xml:space="preserve" font-family="HelveticaNeue,Helvetica Neue" font-size="96.0" fill="#304863" transform="matrix(1.00, 0.00, -0.00, -1.00, 757.1, 463.8)">o</text><text xml:space="preserve" font-family="HelveticaNeue,Helvetica Neue" font-size="96.0" fill="#304863" transform="matrix(1.00, 0.00, -0.00, -1.00, 812.2, 463.8)">f</text><text xml:space="preserve" font-family="HelveticaNeue,Helvetica Neue" font-size="96.0" fill="#304863" transform="matrix(1.00, 0.00, -0.00, -1.00, 840.6, 463.8)"> </text><text xml:space="preserve" font-family="HelveticaNeue,Helvetica Neue" font-size="96.0" fill="#304863" transform="matrix(1.00, 0.00, -0.00, -1.00, 58.2, 349.8)">d</text><text xml:space="preserve" font-family="HelveticaNeue,Helvetica Neue" font-size="96.0" fill="#304863" transform="matrix(1.00, 0.00, -0.00, -1.00, 115.2, 349.8)">i</text><text xml:space="preserve" font-family="HelveticaNeue,Helvetica Neue" font-size="96.0" fill="#304863" transform="matrix(1.00, 0.00, -0.00, -1.00, 136.5, 349.8)">ﬀ</text><text xml:space="preserve" font-family="HelveticaNeue,Helvetica Neue" font-size="96.0" fill="#304863" transform="matrix(1.00, 0.00, -0.00, -1.00, 191.9, 349.8)">e</text><text xml:space="preserve" font-family="HelveticaNeue,Helvetica Neue" font-size="96.0" fill="#304863" transform="matrix(1.00, 0.00, -0.00, -1.00, 243.4, 349.8)">r</text><text xml:space="preserve" font-family="HelveticaNeue,Helvetica Neue" font-size="96.0" fill="#304863" transform="matrix(1.00, 0.00, -0.00, -1.00, 273.7, 349.8)">e</text><text xml:space="preserve" font-family="HelveticaNeue,Helvetica Neue" font-size="96.0" fill="#304863" transform="matrix(1.00, 0.00, -0.00, -1.00, 325.2, 349.8)">n</text><text xml:space="preserve" font-family="HelveticaNeue,Helvetica Neue" font-size="96.0" fill="#304863" transform="matrix(1.00, 0.00, -0.00, -1.00, 378.6, 349.8)">t</text><text xml:space="preserve" font-family="HelveticaNeue,Helvetica Neue" font-size="96.0" fill="#304863" transform="matrix(1.00, 0.00, -0.00, -1.00, 408.8, 349.8)"> </text><text xml:space="preserve" font-family="HelveticaNeue,Helvetica Neue" font-size="96.0" fill="#304863" transform="matrix(1.00, 0.00, -0.00, -1.00, 435.5, 349.8)">a</text><text xml:space="preserve" font-family="HelveticaNeue,Helvetica Neue" font-size="96.0" fill="#304863" transform="matrix(1.00, 0.00, -0.00, -1.00, 487.1, 349.8)">b</text><text xml:space="preserve" font-family="HelveticaNeue,Helvetica Neue" font-size="96.0" fill="#304863" transform="matrix(1.00, 0.00, -0.00, -1.00, 544.0, 349.8)">s</text><text xml:space="preserve" font-family="HelveticaNeue,Helvetica Neue" font-size="96.0" fill="#304863" transform="matrix(1.00, 0.00, -0.00, -1.00, 592.0, 349.8)">t</text><text xml:space="preserve" font-family="HelveticaNeue,Helvetica Neue" font-size="96.0" fill="#304863" transform="matrix(1.00, 0.00, -0.00, -1.00, 622.2, 349.8)">r</text><text xml:space="preserve" font-family="HelveticaNeue,Helvetica Neue" font-size="96.0" fill="#304863" transform="matrix(1.00, 0.00, -0.00, -1.00, 654.2, 349.8)">a</text><text xml:space="preserve" font-family="HelveticaNeue,Helvetica Neue" font-size="96.0" fill="#304863" transform="matrix(1.00, 0.00, -0.00, -1.00, 705.8, 349.8)">c</text><text xml:space="preserve" font-family="HelveticaNeue,Helvetica Neue" font-size="96.0" fill="#304863" transform="matrix(1.00, 0.00, -0.00, -1.00, 757.3, 349.8)">t</text><text xml:space="preserve" font-family="HelveticaNeue,Helvetica Neue" font-size="96.0" fill="#304863" transform="matrix(1.00, 0.00, -0.00, -1.00, 787.6, 349.8)">i</text><text xml:space="preserve" font-family="HelveticaNeue,Helvetica Neue" font-size="96.0" fill="#304863" transform="matrix(1.00, 0.00, -0.00, -1.00, 808.9, 349.8)">o</text><text xml:space="preserve" font-family="HelveticaNeue,Helvetica Neue" font-size="96.0" fill="#304863" transform="matrix(1.00, 0.00, -0.00, -1.00, 864.0, 349.8)">n</text><text xml:space="preserve" font-family="HelveticaNeue,Helvetica Neue" font-size="96.0" fill="#304863" transform="matrix(1.00, 0.00, -0.00, -1.00, 917.3, 349.8)">s</text><text xml:space="preserve" font-family="HelveticaNeue,Helvetica Neue" font-size="96.0" fill="#304863" transform="matrix(1.00, 0.00, -0.00, -1.00, 965.3, 349.8)"> </text><text xml:space="preserve" font-family="HelveticaNeue,Helvetica Neue" font-size="96.0" fill="#304863" transform="matrix(1.00, 0.00, -0.00, -1.00, 149.1, 234.8)">f</text><text xml:space="preserve" font-family="HelveticaNeue,Helvetica Neue" font-size="96.0" fill="#304863" transform="matrix(1.00, 0.00, -0.00, -1.00, 177.5, 234.8)">o</text><text xml:space="preserve" font-family="HelveticaNeue,Helvetica Neue" font-size="96.0" fill="#304863" transform="matrix(1.00, 0.00, -0.00, -1.00, 232.6, 234.8)">r</text><text xml:space="preserve" font-family="HelveticaNeue,Helvetica Neue" font-size="96.0" fill="#304863" transform="matrix(1.00, 0.00, -0.00, -1.00, 264.6, 234.8)"> </text><text xml:space="preserve" font-family="HelveticaNeue,Helvetica Neue" font-size="96.0" fill="#304863" transform="matrix(1.00, 0.00, -0.00, -1.00, 291.3, 234.8)">*</text><text xml:space="preserve" font-family="HelveticaNeue-Italic,Helvetica Neue" font-style="italic" font-size="96.0" fill="#304863" transform="matrix(1.00, 0.00, -0.00, -1.00, 325.1, 234.8)">s</text><text xml:space="preserve" font-family="HelveticaNeue-Italic,Helvetica Neue" font-style="italic" font-size="96.0" fill="#304863" transform="matrix(1.00, 0.00, -0.00, -1.00, 371.2, 234.8)">i</text><text xml:space="preserve" font-family="HelveticaNeue-Italic,Helvetica Neue" font-style="italic" font-size="96.0" fill="#304863" transform="matrix(1.00, 0.00, -0.00, -1.00, 392.6, 234.8)">m</text><text xml:space="preserve" font-family="HelveticaNeue-Italic,Helvetica Neue" font-style="italic" font-size="96.0" fill="#304863" transform="matrix(1.00, 0.00, -0.00, -1.00, 474.4, 234.8)">i</text><text xml:space="preserve" font-family="HelveticaNeue-Italic,Helvetica Neue" font-style="italic" font-size="96.0" fill="#304863" transform="matrix(1.00, 0.00, -0.00, -1.00, 495.7, 234.8)">l</text><text xml:space="preserve" font-family="HelveticaNeue-Italic,Helvetica Neue" font-style="italic" font-size="96.0" fill="#304863" transform="matrix(1.00, 0.00, -0.00, -1.00, 517.0, 234.8)">a</text><text xml:space="preserve" font-family="HelveticaNeue-Italic,Helvetica Neue" font-style="italic" font-size="96.0" fill="#304863" transform="matrix(1.00, 0.00, -0.00, -1.00, 566.8, 234.8)">r</text><text xml:space="preserve" font-family="HelveticaNeue,Helvetica Neue" font-size="96.0" fill="#304863" transform="matrix(1.00, 0.00, -0.00, -1.00, 598.8, 234.8)">*</text><text xml:space="preserve" font-family="HelveticaNeue,Helvetica Neue" font-size="96.0" fill="#304863" transform="matrix(1.00, 0.00, -0.00, -1.00, 632.6, 234.8)"> </text><text xml:space="preserve" font-family="HelveticaNeue,Helvetica Neue" font-size="96.0" fill="#304863" transform="matrix(1.00, 0.00, -0.00, -1.00, 659.2, 234.8)">i</text><text xml:space="preserve" font-family="HelveticaNeue,Helvetica Neue" font-size="96.0" fill="#304863" transform="matrix(1.00, 0.00, -0.00, -1.00, 680.6, 234.8)">n</text><text xml:space="preserve" font-family="HelveticaNeue,Helvetica Neue" font-size="96.0" fill="#304863" transform="matrix(1.00, 0.00, -0.00, -1.00, 733.9, 234.8)">p</text><text xml:space="preserve" font-family="HelveticaNeue,Helvetica Neue" font-size="96.0" fill="#304863" transform="matrix(1.00, 0.00, -0.00, -1.00, 790.9, 234.8)">u</text><text xml:space="preserve" font-family="HelveticaNeue,Helvetica Neue" font-size="96.0" fill="#304863" transform="matrix(1.00, 0.00, -0.00, -1.00, 844.2, 234.8)">t</text></g></svg>