<?xml version="1.0" encoding="UTF-8" standalone="no"?><svg xmlns="http://www.w3.org/2000/svg" xmlns:xlink="http://www.w3.org/1999/xlink" clip-rule="evenodd" stroke-miterlimit="10" viewBox="0 0 298 261"><desc>SVG generated by Keynote</desc><defs></defs><g transform="matrix(1.00, 0.00, -0.00, -1.00, 0.0, 261.0)"><image xlink:href="F2BF47E7200E5AA82DD24822ED36F9CE.png" width="286.00" height="249.00" transform="matrix(1.00, 0.00, -0.00, -1.00, 10.2, 250.8)" opacity="0.75"></image><path d="M 142.5 244.0 C 73.2 244.0 17.0 193.2 17.0 130.5 C 17.0 67.8 73.2 17.0 142.5 17.0 C 180.0 17.0 213.5 31.9 236.5 55.5 L 281.3 38.1 L 249.4 71.2 C 261.1 88.5 268.0 108.8 268.0 130.5 C 268.0 193.2 211.8 244.0 142.5 244.0 Z M 142.5 244.0 " fill="#FEFFFF"></path><path d="M 125.5 0.0 C 56.2 0.0 0.0 50.8 0.0 113.5 C 0.0 176.2 56.2 227.0 125.5 227.0 C 163.0 227.0 196.5 212.1 219.5 188.5 L 264.3 205.9 L 232.4 172.8 C 244.1 155.5 251.0 135.2 251.0 113.5 C 251.0 50.8 194.8 0.0 125.5 0.0 Z M 125.5 0.0 " fill="none" stroke="#000000" stroke-width="2.00" transform="matrix(1.00, 0.00, 0.00, -1.00, 17.0, 244.0)"></path><g><clipPath id="clip0x7fda07dbab60"><path d="M 17.0 2.4 L 268.0 2.4 L 268.0 258.2 L 17.0 258.2 Z M 17.0 2.4 "></path></clipPath><g clip-path="url(#clip0x7fda07dbab60)"><text xml:space="preserve" font-family="HelveticaNeue,Helvetica Neue" font-size="144.0" fill="#000000" transform="matrix(1.00, 0.00, -0.00, -1.00, 102.5, 79.0)">?</text></g></g></g></svg>