<?xml version="1.0" encoding="UTF-8" standalone="no"?><svg xmlns="http://www.w3.org/2000/svg" xmlns:xlink="http://www.w3.org/1999/xlink" clip-rule="evenodd" stroke-miterlimit="10" viewBox="0 0 1024 768"><desc>SVG generated by Keynote</desc><defs></defs><g transform="matrix(1.00, 0.00, -0.00, -1.00, 0.0, 768.0)"><path d="M 0.0 768.0 L 1024.0 768.0 L 1024.0 0.0 L 0.0 0.0 Z M 0.0 768.0 " fill="#FDFEF7"></path><text xml:space="preserve" font-family="BebasNeue,Bebas Neue" font-size="144.0" fill="#5E5E5E" transform="matrix(1.00, 0.00, -0.00, -1.00, 220.0, 427.1)">f</text><text xml:space="preserve" font-family="BebasNeue,Bebas Neue" font-size="144.0" fill="#5E5E5E" transform="matrix(1.00, 0.00, -0.00, -1.00, 272.5, 427.1)">i</text><text xml:space="preserve" font-family="BebasNeue,Bebas Neue" font-size="144.0" fill="#5E5E5E" transform="matrix(1.00, 0.00, -0.00, -1.00, 302.7, 427.1)">n</text><text xml:space="preserve" font-family="BebasNeue,Bebas Neue" font-size="144.0" fill="#5E5E5E" transform="matrix(1.00, 0.00, -0.00, -1.00, 367.1, 427.1)">i</text><text xml:space="preserve" font-family="BebasNeue,Bebas Neue" font-size="144.0" fill="#5E5E5E" transform="matrix(1.00, 0.00, -0.00, -1.00, 397.3, 427.1)">t</text><text xml:space="preserve" font-family="BebasNeue,Bebas Neue" font-size="144.0" fill="#5E5E5E" transform="matrix(1.00, 0.00, -0.00, -1.00, 451.4, 427.1)">e</text><text xml:space="preserve" font-family="BebasNeue,Bebas Neue" font-size="144.0" fill="#5E5E5E" transform="matrix(1.00, 0.00, -0.00, -1.00, 532.5, 427.1)">s</text><text xml:space="preserve" font-family="BebasNeue,Bebas Neue" font-size="144.0" fill="#5E5E5E" transform="matrix(1.00, 0.00, -0.00, -1.00, 589.3, 427.1)">t</text><text xml:space="preserve" font-family="BebasNeue,Bebas Neue" font-size="144.0" fill="#5E5E5E" transform="matrix(1.00, 0.00, -0.00, -1.00, 637.9, 427.1)">a</text><text xml:space="preserve" font-family="BebasNeue,Bebas Neue" font-size="144.0" fill="#5E5E5E" transform="matrix(1.00, 0.00, -0.00, -1.00, 693.9, 427.1)">t</text><text xml:space="preserve" font-family="BebasNeue,Bebas Neue" font-size="144.0" fill="#5E5E5E" transform="matrix(1.00, 0.00, -0.00, -1.00, 748.1, 427.1)">e</text><text xml:space="preserve" font-family="BebasNeue,Bebas Neue" font-size="144.0" fill="#6EB1D8" transform="matrix(1.00, 0.00, -0.00, -1.00, 304.3, 254.1)">m</text><text xml:space="preserve" font-family="BebasNeue,Bebas Neue" font-size="144.0" fill="#6EB1D8" transform="matrix(1.00, 0.00, -0.00, -1.00, 385.1, 254.1)">a</text><text xml:space="preserve" font-family="BebasNeue,Bebas Neue" font-size="144.0" fill="#6EB1D8" transform="matrix(1.00, 0.00, -0.00, -1.00, 446.4, 254.1)">c</text><text xml:space="preserve" font-family="BebasNeue,Bebas Neue" font-size="144.0" fill="#6EB1D8" transform="matrix(1.00, 0.00, -0.00, -1.00, 504.9, 254.1)">h</text><text xml:space="preserve" font-family="BebasNeue,Bebas Neue" font-size="144.0" fill="#6EB1D8" transform="matrix(1.00, 0.00, -0.00, -1.00, 569.2, 254.1)">i</text><text xml:space="preserve" font-family="BebasNeue,Bebas Neue" font-size="144.0" fill="#6EB1D8" transform="matrix(1.00, 0.00, -0.00, -1.00, 599.5, 254.1)">n</text><text xml:space="preserve" font-family="BebasNeue,Bebas Neue" font-size="144.0" fill="#6EB1D8" transform="matrix(1.00, 0.00, -0.00, -1.00, 663.8, 254.1)">e</text><image xlink:href="../../7BE3E1BB-6D86-4F22-BEB6-F5518719D1C1/assets/16B32C32D1E7774F1E901346799C6B0B.jpeg" width="450.00" height="333.00" transform="matrix(1.58, 0.00, -0.00, -1.58, 156.0, 648.0)"></image><image xlink:href="../../7BE3E1BB-6D86-4F22-BEB6-F5518719D1C1/assets/F2BF47E7200E5AA82DD24822ED36F9CE.png" width="286.00" height="249.00" transform="matrix(1.00, 0.00, -0.00, -1.00, 211.2, 706.8)" opacity="0.75"></image><path d="M 343.5 700.0 C 274.2 700.0 218.0 649.2 218.0 586.5 C 218.0 523.8 274.2 473.0 343.5 473.0 C 381.0 473.0 414.5 487.9 437.5 511.5 L 482.3 494.1 L 450.4 527.2 C 462.1 544.5 469.0 564.8 469.0 586.5 C 469.0 649.2 412.8 700.0 343.5 700.0 Z M 343.5 700.0 " fill="#FEFFFF"></path><path d="M 125.5 0.0 C 56.2 0.0 0.0 50.8 0.0 113.5 C 0.0 176.2 56.2 227.0 125.5 227.0 C 163.0 227.0 196.5 212.1 219.5 188.5 L 264.3 205.9 L 232.4 172.8 C 244.1 155.5 251.0 135.2 251.0 113.5 C 251.0 50.8 194.8 0.0 125.5 0.0 Z M 125.5 0.0 " fill="none" stroke="#000000" stroke-width="2.00" transform="matrix(1.00, 0.00, 0.00, -1.00, 218.0, 700.0)"></path><g><clipPath id="clip0x7fda07f14ef0"><path d="M 218.0 458.4 L 469.0 458.4 L 469.0 714.2 L 218.0 714.2 Z M 218.0 458.4 "></path></clipPath><g clip-path="url(#clip0x7fda07f14ef0)"><text xml:space="preserve" font-family="HelveticaNeue,Helvetica Neue" font-size="144.0" fill="#000000" transform="matrix(1.00, 0.00, -0.00, -1.00, 303.5, 535.0)">?</text></g></g></g></svg>