<?xml version="1.0" encoding="UTF-8" standalone="no"?><svg xmlns="http://www.w3.org/2000/svg" xmlns:xlink="http://www.w3.org/1999/xlink" clip-rule="evenodd" stroke-miterlimit="10" viewBox="0 0 248 72"><desc>SVG generated by Keynote</desc><defs></defs><g transform="matrix(1.00, 0.00, -0.00, -1.00, 0.0, 72.0)"><text xml:space="preserve" font-family="HelveticaNeue,Helvetica Neue" font-size="36.0" fill="#304863" transform="matrix(1.00, 0.00, -0.00, -1.00, 1.3, 44.7)">T</text><text xml:space="preserve" font-family="HelveticaNeue,Helvetica Neue" font-size="36.0" fill="#304863" transform="matrix(1.00, 0.00, -0.00, -1.00, 18.7, 44.7)">r</text><text xml:space="preserve" font-family="HelveticaNeue,Helvetica Neue" font-size="36.0" fill="#304863" transform="matrix(1.00, 0.00, -0.00, -1.00, 30.7, 44.7)">a</text><text xml:space="preserve" font-family="HelveticaNeue,Helvetica Neue" font-size="36.0" fill="#304863" transform="matrix(1.00, 0.00, -0.00, -1.00, 50.0, 44.7)">n</text><text xml:space="preserve" font-family="HelveticaNeue,Helvetica Neue" font-size="36.0" fill="#304863" transform="matrix(1.00, 0.00, -0.00, -1.00, 70.0, 44.7)">s</text><text xml:space="preserve" font-family="HelveticaNeue,Helvetica Neue" font-size="36.0" fill="#304863" transform="matrix(1.00, 0.00, -0.00, -1.00, 88.0, 44.7)">i</text><text xml:space="preserve" font-family="HelveticaNeue,Helvetica Neue" font-size="36.0" fill="#304863" transform="matrix(1.00, 0.00, -0.00, -1.00, 96.0, 44.7)">t</text><text xml:space="preserve" font-family="HelveticaNeue,Helvetica Neue" font-size="36.0" fill="#304863" transform="matrix(1.00, 0.00, -0.00, -1.00, 107.3, 44.7)">i</text><text xml:space="preserve" font-family="HelveticaNeue,Helvetica Neue" font-size="36.0" fill="#304863" transform="matrix(1.00, 0.00, -0.00, -1.00, 115.3, 44.7)">o</text><text xml:space="preserve" font-family="HelveticaNeue,Helvetica Neue" font-size="36.0" fill="#304863" transform="matrix(1.00, 0.00, -0.00, -1.00, 136.0, 44.7)">n</text><text xml:space="preserve" font-family="HelveticaNeue,Helvetica Neue" font-size="36.0" fill="#304863" transform="matrix(1.00, 0.00, -0.00, -1.00, 156.0, 44.7)">i</text><text xml:space="preserve" font-family="HelveticaNeue,Helvetica Neue" font-size="36.0" fill="#304863" transform="matrix(1.00, 0.00, -0.00, -1.00, 164.0, 44.7)">n</text><text xml:space="preserve" font-family="HelveticaNeue,Helvetica Neue" font-size="36.0" fill="#304863" transform="matrix(1.00, 0.00, -0.00, -1.00, 184.0, 44.7)">g</text><text xml:space="preserve" font-family="HelveticaNeue,Helvetica Neue" font-size="36.0" fill="#304863" transform="matrix(1.00, 0.00, -0.00, -1.00, 204.7, 44.7)"> </text><text xml:space="preserve" font-family="HelveticaNeue,Helvetica Neue" font-size="36.0" fill="#304863" transform="matrix(1.00, 0.00, -0.00, -1.00, 214.7, 44.7)">t</text><text xml:space="preserve" font-family="HelveticaNeue,Helvetica Neue" font-size="36.0" fill="#304863" transform="matrix(1.00, 0.00, -0.00, -1.00, 226.0, 44.7)">o</text><text xml:space="preserve" font-family="HelveticaNeue,Helvetica Neue" font-size="36.0" fill="#304863" transform="matrix(1.00, 0.00, -0.00, -1.00, 246.7, 44.7)"> </text><text xml:space="preserve" font-family="HelveticaNeue,Helvetica Neue" font-size="36.0" fill="#304863" transform="matrix(1.00, 0.00, -0.00, -1.00, 22.3, 1.7)">O</text><text xml:space="preserve" font-family="HelveticaNeue,Helvetica Neue" font-size="36.0" fill="#304863" transform="matrix(1.00, 0.00, -0.00, -1.00, 49.7, 1.7)">n</text><text xml:space="preserve" font-family="HelveticaNeue,Helvetica Neue" font-size="36.0" fill="#304863" transform="matrix(1.00, 0.00, -0.00, -1.00, 69.7, 1.7)">l</text><text xml:space="preserve" font-family="HelveticaNeue,Helvetica Neue" font-size="36.0" fill="#304863" transform="matrix(1.00, 0.00, -0.00, -1.00, 77.7, 1.7)">i</text><text xml:space="preserve" font-family="HelveticaNeue,Helvetica Neue" font-size="36.0" fill="#304863" transform="matrix(1.00, 0.00, -0.00, -1.00, 85.7, 1.7)">n</text><text xml:space="preserve" font-family="HelveticaNeue,Helvetica Neue" font-size="36.0" fill="#304863" transform="matrix(1.00, 0.00, -0.00, -1.00, 105.7, 1.7)">e</text><text xml:space="preserve" font-family="HelveticaNeue,Helvetica Neue" font-size="36.0" fill="#304863" transform="matrix(1.00, 0.00, -0.00, -1.00, 125.0, 1.7)"> </text><text xml:space="preserve" font-family="HelveticaNeue,Helvetica Neue" font-size="36.0" fill="#304863" transform="matrix(1.00, 0.00, -0.00, -1.00, 135.0, 1.7)">E</text><text xml:space="preserve" font-family="HelveticaNeue,Helvetica Neue" font-size="36.0" fill="#304863" transform="matrix(1.00, 0.00, -0.00, -1.00, 157.0, 1.7)">v</text><text xml:space="preserve" font-family="HelveticaNeue,Helvetica Neue" font-size="36.0" fill="#304863" transform="matrix(1.00, 0.00, -0.00, -1.00, 175.0, 1.7)">e</text><text xml:space="preserve" font-family="HelveticaNeue,Helvetica Neue" font-size="36.0" fill="#304863" transform="matrix(1.00, 0.00, -0.00, -1.00, 194.3, 1.7)">n</text><text xml:space="preserve" font-family="HelveticaNeue,Helvetica Neue" font-size="36.0" fill="#304863" transform="matrix(1.00, 0.00, -0.00, -1.00, 214.4, 1.7)">t</text></g></svg>