<?xml version="1.0" encoding="UTF-8" standalone="no"?><svg xmlns="http://www.w3.org/2000/svg" xmlns:xlink="http://www.w3.org/1999/xlink" clip-rule="evenodd" stroke-miterlimit="10" viewBox="0 0 235 211"><desc>SVG generated by Keynote</desc><defs></defs><g transform="matrix(1.00, 0.00, -0.00, -1.00, 0.0, 211.0)"><image xlink:href="5173ED1B551AD57013205FF286D605B8.png" width="223.00" height="199.00" transform="matrix(1.00, 0.00, -0.00, -1.00, 10.2, 200.9)" opacity="0.75"></image><path d="M 32.8 192.1 L 24.4 158.5 C 19.9 154.8 17.0 149.3 17.0 143.0 L 17.0 37.0 C 17.0 26.0 26.0 17.0 37.0 17.0 L 198.0 17.0 C 209.0 17.0 218.0 26.0 218.0 37.0 L 218.0 143.0 C 218.0 154.0 209.0 163.0 198.0 163.0 L 45.6 163.0 L 32.8 192.1 Z M 32.8 192.1 " fill="#FEFFFF"></path><path d="M 15.8 -29.1 L 7.4 4.5 C 2.9 8.2 0.0 13.7 0.0 20.0 L 0.0 126.0 C 0.0 137.0 9.0 146.0 20.0 146.0 L 181.0 146.0 C 192.0 146.0 201.0 137.0 201.0 126.0 L 201.0 20.0 C 201.0 9.0 192.0 0.0 181.0 0.0 L 28.6 0.0 L 15.8 -29.1 Z M 15.8 -29.1 " fill="none" stroke="#000000" stroke-width="2.00" transform="matrix(1.00, 0.00, 0.00, -1.00, 17.0, 163.0)"></path><g><clipPath id="clip0x7fd9ebcdb7d0"><path d="M 12.5 17.0 L 222.5 17.0 L 222.5 163.0 L 12.5 163.0 Z M 12.5 17.0 "></path></clipPath><g clip-path="url(#clip0x7fd9ebcdb7d0)"><text xml:space="preserve" font-family="HelveticaNeue,Helvetica Neue" font-size="36.0" fill="#000000" transform="matrix(1.00, 0.00, -0.00, -1.00, 73.1, 98.4)">I</text><text xml:space="preserve" font-family="HelveticaNeue,Helvetica Neue" font-size="36.0" fill="#000000" transform="matrix(1.00, 0.00, -0.00, -1.00, 82.5, 98.4)"> </text><text xml:space="preserve" font-family="HelveticaNeue,Helvetica Neue" font-size="36.0" fill="#000000" transform="matrix(1.00, 0.00, -0.00, -1.00, 92.5, 98.4)">e</text><text xml:space="preserve" font-family="HelveticaNeue,Helvetica Neue" font-size="36.0" fill="#000000" transform="matrix(1.00, 0.00, -0.00, -1.00, 111.8, 98.4)">m</text><text xml:space="preserve" font-family="HelveticaNeue,Helvetica Neue" font-size="36.0" fill="#000000" transform="matrix(1.00, 0.00, -0.00, -1.00, 142.5, 98.4)">i</text><text xml:space="preserve" font-family="HelveticaNeue,Helvetica Neue" font-size="36.0" fill="#000000" transform="matrix(1.00, 0.00, -0.00, -1.00, 150.5, 98.4)">t</text><text xml:space="preserve" font-family="HelveticaNeue,Helvetica Neue" font-size="36.0" fill="#000000" transform="matrix(1.00, 0.00, -0.00, -1.00, 161.9, 98.4)"> </text><text xml:space="preserve" font-family="HelveticaNeue,Helvetica Neue" font-size="36.0" fill="#000000" transform="matrix(1.00, 0.00, -0.00, -1.00, 64.5, 55.4)">e</text><text xml:space="preserve" font-family="HelveticaNeue,Helvetica Neue" font-size="36.0" fill="#000000" transform="matrix(1.00, 0.00, -0.00, -1.00, 83.8, 55.4)">v</text><text xml:space="preserve" font-family="HelveticaNeue,Helvetica Neue" font-size="36.0" fill="#000000" transform="matrix(1.00, 0.00, -0.00, -1.00, 101.8, 55.4)">e</text><text xml:space="preserve" font-family="HelveticaNeue,Helvetica Neue" font-size="36.0" fill="#000000" transform="matrix(1.00, 0.00, -0.00, -1.00, 121.2, 55.4)">n</text><text xml:space="preserve" font-family="HelveticaNeue,Helvetica Neue" font-size="36.0" fill="#000000" transform="matrix(1.00, 0.00, -0.00, -1.00, 141.2, 55.4)">t</text><text xml:space="preserve" font-family="HelveticaNeue,Helvetica Neue" font-size="36.0" fill="#000000" transform="matrix(1.00, 0.00, -0.00, -1.00, 152.5, 55.4)">s</text></g></g></g></svg>