<?xml version="1.0" encoding="UTF-8" standalone="no"?><svg xmlns="http://www.w3.org/2000/svg" xmlns:xlink="http://www.w3.org/1999/xlink" clip-rule="evenodd" stroke-miterlimit="10" viewBox="0 0 1024 768"><desc>SVG generated by Keynote</desc><defs></defs><g transform="matrix(1.00, 0.00, -0.00, -1.00, 0.0, 768.0)"><path d="M 0.0 768.0 L 1024.0 768.0 L 1024.0 0.0 L 0.0 0.0 Z M 0.0 768.0 " fill="#FDFEF7"></path><text xml:space="preserve" font-family="BebasNeue,Bebas Neue" font-size="96.0" fill="#5E5E5E" transform="matrix(1.00, 0.00, -0.00, -1.00, 107.6, 471.2)">F</text><text xml:space="preserve" font-family="BebasNeue,Bebas Neue" font-size="96.0" fill="#5E5E5E" transform="matrix(1.00, 0.00, -0.00, -1.00, 142.6, 471.2)">S</text><text xml:space="preserve" font-family="BebasNeue,Bebas Neue" font-size="96.0" fill="#5E5E5E" transform="matrix(1.00, 0.00, -0.00, -1.00, 180.4, 471.2)">M</text><text xml:space="preserve" font-family="BebasNeue,Bebas Neue" font-size="96.0" fill="#5E5E5E" transform="matrix(1.00, 0.00, -0.00, -1.00, 234.3, 471.2)">S</text><text xml:space="preserve" font-family="BebasNeue,Bebas Neue" font-size="96.0" fill="#5E5E5E" transform="matrix(1.00, 0.00, -0.00, -1.00, 272.1, 471.2)"> </text><text xml:space="preserve" font-family="BebasNeue,Bebas Neue" font-size="96.0" fill="#6EB1D8" transform="matrix(1.00, 0.00, -0.00, -1.00, 288.9, 471.2)">W</text><text xml:space="preserve" font-family="BebasNeue,Bebas Neue" font-size="96.0" fill="#6EB1D8" transform="matrix(1.00, 0.00, -0.00, -1.00, 344.8, 471.2)">o</text><text xml:space="preserve" font-family="BebasNeue,Bebas Neue" font-size="96.0" fill="#6EB1D8" transform="matrix(1.00, 0.00, -0.00, -1.00, 384.8, 471.2)">r</text><text xml:space="preserve" font-family="BebasNeue,Bebas Neue" font-size="96.0" fill="#6EB1D8" transform="matrix(1.00, 0.00, -0.00, -1.00, 425.3, 471.2)">k</text><text xml:space="preserve" font-family="BebasNeue,Bebas Neue" font-size="96.0" fill="#6EB1D8" transform="matrix(1.00, 0.00, -0.00, -1.00, 467.0, 471.2)">i</text><text xml:space="preserve" font-family="BebasNeue,Bebas Neue" font-size="96.0" fill="#6EB1D8" transform="matrix(1.00, 0.00, -0.00, -1.00, 487.1, 471.2)">n</text><text xml:space="preserve" font-family="BebasNeue,Bebas Neue" font-size="96.0" fill="#6EB1D8" transform="matrix(1.00, 0.00, -0.00, -1.00, 530.0, 471.2)">g</text><text xml:space="preserve" font-family="BebasNeue,Bebas Neue" font-size="96.0" fill="#6EB1D8" transform="matrix(1.00, 0.00, -0.00, -1.00, 569.4, 471.2)"> </text><text xml:space="preserve" font-family="BebasNeue,Bebas Neue" font-size="96.0" fill="#5E5E5E" transform="matrix(1.00, 0.00, -0.00, -1.00, 586.2, 471.2)">T</text><text xml:space="preserve" font-family="BebasNeue,Bebas Neue" font-size="96.0" fill="#5E5E5E" transform="matrix(1.00, 0.00, -0.00, -1.00, 622.3, 471.2)">o</text><text xml:space="preserve" font-family="BebasNeue,Bebas Neue" font-size="96.0" fill="#5E5E5E" transform="matrix(1.00, 0.00, -0.00, -1.00, 662.2, 471.2)">g</text><text xml:space="preserve" font-family="BebasNeue,Bebas Neue" font-size="96.0" fill="#5E5E5E" transform="matrix(1.00, 0.00, -0.00, -1.00, 701.6, 471.2)">e</text><text xml:space="preserve" font-family="BebasNeue,Bebas Neue" font-size="96.0" fill="#5E5E5E" transform="matrix(1.00, 0.00, -0.00, -1.00, 738.8, 471.2)">t</text><text xml:space="preserve" font-family="BebasNeue,Bebas Neue" font-size="96.0" fill="#5E5E5E" transform="matrix(1.00, 0.00, -0.00, -1.00, 774.9, 471.2)">h</text><text xml:space="preserve" font-family="BebasNeue,Bebas Neue" font-size="96.0" fill="#5E5E5E" transform="matrix(1.00, 0.00, -0.00, -1.00, 817.8, 471.2)">e</text><text xml:space="preserve" font-family="BebasNeue,Bebas Neue" font-size="96.0" fill="#5E5E5E" transform="matrix(1.00, 0.00, -0.00, -1.00, 855.1, 471.2)">r</text><text xml:space="preserve" font-family="BebasNeue,Bebas Neue" font-size="96.0" fill="#6EB1D8" transform="matrix(1.00, 0.00, -0.00, -1.00, 895.6, 471.2)">:</text><text xml:space="preserve" font-family="BebasNeue,Bebas Neue" font-size="96.0" fill="#6EB1D8" transform="matrix(1.00, 0.00, -0.00, -1.00, 915.4, 471.2)"> </text><text xml:space="preserve" font-family="BebasNeue,Bebas Neue" font-size="96.0" fill="#6EB1D8" transform="matrix(1.00, 0.00, -0.00, -1.00, 932.2, 471.2)"> </text><text xml:space="preserve" font-family="BebasNeue,Bebas Neue" font-size="96.0" fill="#6EB1D8" transform="matrix(1.00, 0.00, -0.00, -1.00, 94.6, 356.2)">p</text><text xml:space="preserve" font-family="BebasNeue,Bebas Neue" font-size="96.0" fill="#6EB1D8" transform="matrix(1.00, 0.00, -0.00, -1.00, 132.7, 356.2)">o</text><text xml:space="preserve" font-family="BebasNeue,Bebas Neue" font-size="96.0" fill="#6EB1D8" transform="matrix(1.00, 0.00, -0.00, -1.00, 172.7, 356.2)">w</text><text xml:space="preserve" font-family="BebasNeue,Bebas Neue" font-size="96.0" fill="#6EB1D8" transform="matrix(1.00, 0.00, -0.00, -1.00, 228.6, 356.2)">e</text><text xml:space="preserve" font-family="BebasNeue,Bebas Neue" font-size="96.0" fill="#6EB1D8" transform="matrix(1.00, 0.00, -0.00, -1.00, 265.9, 356.2)">r</text><text xml:space="preserve" font-family="BebasNeue,Bebas Neue" font-size="96.0" fill="#6EB1D8" transform="matrix(1.00, 0.00, -0.00, -1.00, 306.4, 356.2)">f</text><text xml:space="preserve" font-family="BebasNeue,Bebas Neue" font-size="96.0" fill="#6EB1D8" transform="matrix(1.00, 0.00, -0.00, -1.00, 341.3, 356.2)">u</text><text xml:space="preserve" font-family="BebasNeue,Bebas Neue" font-size="96.0" fill="#6EB1D8" transform="matrix(1.00, 0.00, -0.00, -1.00, 381.5, 356.2)">l</text><text xml:space="preserve" font-family="BebasNeue,Bebas Neue" font-size="96.0" fill="#6EB1D8" transform="matrix(1.00, 0.00, -0.00, -1.00, 415.9, 356.2)"> </text><text xml:space="preserve" font-family="BebasNeue,Bebas Neue" font-size="96.0" fill="#6EB1D8" transform="matrix(1.00, 0.00, -0.00, -1.00, 432.7, 356.2)">w</text><text xml:space="preserve" font-family="BebasNeue,Bebas Neue" font-size="96.0" fill="#6EB1D8" transform="matrix(1.00, 0.00, -0.00, -1.00, 487.3, 356.2)">a</text><text xml:space="preserve" font-family="BebasNeue,Bebas Neue" font-size="96.0" fill="#6EB1D8" transform="matrix(1.00, 0.00, -0.00, -1.00, 523.5, 356.2)">y</text><text xml:space="preserve" font-family="BebasNeue,Bebas Neue" font-size="96.0" fill="#6EB1D8" transform="matrix(1.00, 0.00, -0.00, -1.00, 563.5, 356.2)"> </text><text xml:space="preserve" font-family="BebasNeue,Bebas Neue" font-size="96.0" fill="#6EB1D8" transform="matrix(1.00, 0.00, -0.00, -1.00, 580.3, 356.2)">t</text><text xml:space="preserve" font-family="BebasNeue,Bebas Neue" font-size="96.0" fill="#6EB1D8" transform="matrix(1.00, 0.00, -0.00, -1.00, 616.4, 356.2)">o</text><text xml:space="preserve" font-family="BebasNeue,Bebas Neue" font-size="96.0" fill="#6EB1D8" transform="matrix(1.00, 0.00, -0.00, -1.00, 656.3, 356.2)"> </text><text xml:space="preserve" font-family="BebasNeue,Bebas Neue" font-size="96.0" fill="#6EB1D8" transform="matrix(1.00, 0.00, -0.00, -1.00, 673.1, 356.2)">m</text><text xml:space="preserve" font-family="BebasNeue,Bebas Neue" font-size="96.0" fill="#6EB1D8" transform="matrix(1.00, 0.00, -0.00, -1.00, 727.0, 356.2)">a</text><text xml:space="preserve" font-family="BebasNeue,Bebas Neue" font-size="96.0" fill="#6EB1D8" transform="matrix(1.00, 0.00, -0.00, -1.00, 768.0, 356.2)">n</text><text xml:space="preserve" font-family="BebasNeue,Bebas Neue" font-size="96.0" fill="#6EB1D8" transform="matrix(1.00, 0.00, -0.00, -1.00, 810.9, 356.2)">a</text><text xml:space="preserve" font-family="BebasNeue,Bebas Neue" font-size="96.0" fill="#6EB1D8" transform="matrix(1.00, 0.00, -0.00, -1.00, 851.8, 356.2)">g</text><text xml:space="preserve" font-family="BebasNeue,Bebas Neue" font-size="96.0" fill="#6EB1D8" transform="matrix(1.00, 0.00, -0.00, -1.00, 891.1, 356.2)">e</text><text xml:space="preserve" font-family="BebasNeue,Bebas Neue" font-size="96.0" fill="#6EB1D8" transform="matrix(1.00, 0.00, -0.00, -1.00, 928.4, 356.2)"> </text><text xml:space="preserve" font-family="BebasNeue,Bebas Neue" font-size="96.0" fill="#6EB1D8" transform="matrix(1.00, 0.00, -0.00, -1.00, 161.3, 241.2)">&amp;</text><text xml:space="preserve" font-family="BebasNeue,Bebas Neue" font-size="96.0" fill="#6EB1D8" transform="matrix(1.00, 0.00, -0.00, -1.00, 203.0, 241.2)"> </text><text xml:space="preserve" font-family="BebasNeue,Bebas Neue" font-size="96.0" fill="#6EB1D8" transform="matrix(1.00, 0.00, -0.00, -1.00, 219.8, 241.2)">i</text><text xml:space="preserve" font-family="BebasNeue,Bebas Neue" font-size="96.0" fill="#6EB1D8" transform="matrix(1.00, 0.00, -0.00, -1.00, 240.0, 241.2)">s</text><text xml:space="preserve" font-family="BebasNeue,Bebas Neue" font-size="96.0" fill="#6EB1D8" transform="matrix(1.00, 0.00, -0.00, -1.00, 277.8, 241.2)">o</text><text xml:space="preserve" font-family="BebasNeue,Bebas Neue" font-size="96.0" fill="#6EB1D8" transform="matrix(1.00, 0.00, -0.00, -1.00, 317.7, 241.2)">l</text><text xml:space="preserve" font-family="BebasNeue,Bebas Neue" font-size="96.0" fill="#6EB1D8" transform="matrix(1.00, 0.00, -0.00, -1.00, 352.2, 241.2)">a</text><text xml:space="preserve" font-family="BebasNeue,Bebas Neue" font-size="96.0" fill="#6EB1D8" transform="matrix(1.00, 0.00, -0.00, -1.00, 389.5, 241.2)">t</text><text xml:space="preserve" font-family="BebasNeue,Bebas Neue" font-size="96.0" fill="#6EB1D8" transform="matrix(1.00, 0.00, -0.00, -1.00, 425.6, 241.2)">e</text><text xml:space="preserve" font-family="BebasNeue,Bebas Neue" font-size="96.0" fill="#6EB1D8" transform="matrix(1.00, 0.00, -0.00, -1.00, 462.9, 241.2)"> </text><text xml:space="preserve" font-family="BebasNeue,Bebas Neue" font-size="96.0" fill="#6EB1D8" transform="matrix(1.00, 0.00, -0.00, -1.00, 479.7, 241.2)">c</text><text xml:space="preserve" font-family="BebasNeue,Bebas Neue" font-size="96.0" fill="#6EB1D8" transform="matrix(1.00, 0.00, -0.00, -1.00, 518.7, 241.2)">o</text><text xml:space="preserve" font-family="BebasNeue,Bebas Neue" font-size="96.0" fill="#6EB1D8" transform="matrix(1.00, 0.00, -0.00, -1.00, 558.6, 241.2)">m</text><text xml:space="preserve" font-family="BebasNeue,Bebas Neue" font-size="96.0" fill="#6EB1D8" transform="matrix(1.00, 0.00, -0.00, -1.00, 612.4, 241.2)">p</text><text xml:space="preserve" font-family="BebasNeue,Bebas Neue" font-size="96.0" fill="#6EB1D8" transform="matrix(1.00, 0.00, -0.00, -1.00, 650.6, 241.2)">l</text><text xml:space="preserve" font-family="BebasNeue,Bebas Neue" font-size="96.0" fill="#6EB1D8" transform="matrix(1.00, 0.00, -0.00, -1.00, 685.0, 241.2)">e</text><text xml:space="preserve" font-family="BebasNeue,Bebas Neue" font-size="96.0" fill="#6EB1D8" transform="matrix(1.00, 0.00, -0.00, -1.00, 722.3, 241.2)">x</text><text xml:space="preserve" font-family="BebasNeue,Bebas Neue" font-size="96.0" fill="#6EB1D8" transform="matrix(1.00, 0.00, -0.00, -1.00, 765.5, 241.2)">i</text><text xml:space="preserve" font-family="BebasNeue,Bebas Neue" font-size="96.0" fill="#6EB1D8" transform="matrix(1.00, 0.00, -0.00, -1.00, 785.6, 241.2)">t</text><text xml:space="preserve" font-family="BebasNeue,Bebas Neue" font-size="96.0" fill="#6EB1D8" transform="matrix(1.00, 0.00, -0.00, -1.00, 821.7, 241.2)">y</text></g></svg>