<?xml version="1.0" encoding="UTF-8" standalone="no"?><svg xmlns="http://www.w3.org/2000/svg" xmlns:xlink="http://www.w3.org/1999/xlink" clip-rule="evenodd" stroke-miterlimit="10" viewBox="0 0 303 36"><desc>SVG generated by Keynote</desc><defs></defs><g transform="matrix(1.00, 0.00, -0.00, -1.00, 0.0, 36.0)"><text xml:space="preserve" font-family="HelveticaNeue,Helvetica Neue" font-size="36.0" fill="#000000" transform="matrix(1.00, 0.00, -0.00, -1.00, 0.8, 8.7)">S</text><text xml:space="preserve" font-family="HelveticaNeue,Helvetica Neue" font-size="36.0" fill="#000000" transform="matrix(1.00, 0.00, -0.00, -1.00, 24.2, 8.7)">t</text><text xml:space="preserve" font-family="HelveticaNeue,Helvetica Neue" font-size="36.0" fill="#000000" transform="matrix(1.00, 0.00, -0.00, -1.00, 35.5, 8.7)">a</text><text xml:space="preserve" font-family="HelveticaNeue,Helvetica Neue" font-size="36.0" fill="#000000" transform="matrix(1.00, 0.00, -0.00, -1.00, 54.8, 8.7)">t</text><text xml:space="preserve" font-family="HelveticaNeue,Helvetica Neue" font-size="36.0" fill="#000000" transform="matrix(1.00, 0.00, -0.00, -1.00, 66.2, 8.7)">e</text><text xml:space="preserve" font-family="HelveticaNeue,Helvetica Neue" font-size="36.0" fill="#000000" transform="matrix(1.00, 0.00, -0.00, -1.00, 85.5, 8.7)">:</text><text xml:space="preserve" font-family="HelveticaNeue,Helvetica Neue" font-size="36.0" fill="#000000" transform="matrix(1.00, 0.00, -0.00, -1.00, 95.5, 8.7)"> </text><text xml:space="preserve" font-family="HelveticaNeue,Helvetica Neue" font-size="36.0" fill="#000000" transform="matrix(1.00, 0.00, -0.00, -1.00, 105.5, 8.7)">T</text><text xml:space="preserve" font-family="HelveticaNeue,Helvetica Neue" font-size="36.0" fill="#000000" transform="matrix(1.00, 0.00, -0.00, -1.00, 122.9, 8.7)">r</text><text xml:space="preserve" font-family="HelveticaNeue,Helvetica Neue" font-size="36.0" fill="#000000" transform="matrix(1.00, 0.00, -0.00, -1.00, 134.9, 8.7)">a</text><text xml:space="preserve" font-family="HelveticaNeue,Helvetica Neue" font-size="36.0" fill="#000000" transform="matrix(1.00, 0.00, -0.00, -1.00, 154.2, 8.7)">n</text><text xml:space="preserve" font-family="HelveticaNeue,Helvetica Neue" font-size="36.0" fill="#000000" transform="matrix(1.00, 0.00, -0.00, -1.00, 174.2, 8.7)">s</text><text xml:space="preserve" font-family="HelveticaNeue,Helvetica Neue" font-size="36.0" fill="#000000" transform="matrix(1.00, 0.00, -0.00, -1.00, 192.2, 8.7)">m</text><text xml:space="preserve" font-family="HelveticaNeue,Helvetica Neue" font-size="36.0" fill="#000000" transform="matrix(1.00, 0.00, -0.00, -1.00, 222.9, 8.7)">i</text><text xml:space="preserve" font-family="HelveticaNeue,Helvetica Neue" font-size="36.0" fill="#000000" transform="matrix(1.00, 0.00, -0.00, -1.00, 230.9, 8.7)">t</text><text xml:space="preserve" font-family="HelveticaNeue,Helvetica Neue" font-size="36.0" fill="#000000" transform="matrix(1.00, 0.00, -0.00, -1.00, 242.2, 8.7)">t</text><text xml:space="preserve" font-family="HelveticaNeue,Helvetica Neue" font-size="36.0" fill="#000000" transform="matrix(1.00, 0.00, -0.00, -1.00, 253.6, 8.7)">i</text><text xml:space="preserve" font-family="HelveticaNeue,Helvetica Neue" font-size="36.0" fill="#000000" transform="matrix(1.00, 0.00, -0.00, -1.00, 261.6, 8.7)">n</text><text xml:space="preserve" font-family="HelveticaNeue,Helvetica Neue" font-size="36.0" fill="#000000" transform="matrix(1.00, 0.00, -0.00, -1.00, 281.6, 8.7)">g</text></g></svg>