<?xml version="1.0" encoding="UTF-8" standalone="no"?><svg xmlns="http://www.w3.org/2000/svg" xmlns:xlink="http://www.w3.org/1999/xlink" clip-rule="evenodd" stroke-miterlimit="10" viewBox="0 0 379 191"><desc>SVG generated by Keynote</desc><defs></defs><g transform="matrix(1.00, 0.00, -0.00, -1.00, 0.0, 191.0)"><image xlink:href="../../FBBD21B1-79EF-4A38-A9E2-218B1681F6F1/assets/3EAB0CF880CB48FA2A16E454F569CF67.png" width="367.00" height="179.00" transform="matrix(1.00, 0.00, -0.00, -1.00, 10.2, 180.8)" opacity="0.75"></image><path d="M 17.0 32.0 L 17.0 159.0 C 17.0 167.3 23.7 174.0 32.0 174.0 L 347.0 174.0 C 355.3 174.0 362.0 167.3 362.0 159.0 L 362.0 32.0 C 362.0 23.7 355.3 17.0 347.0 17.0 L 32.0 17.0 C 23.7 17.0 17.0 23.7 17.0 32.0 Z M 17.0 32.0 " fill="#20AE87"></path><path d="M 0.0 142.0 L 0.0 15.0 C 0.0 6.7 6.7 0.0 15.0 0.0 L 330.0 0.0 C 338.3 0.0 345.0 6.7 345.0 15.0 L 345.0 142.0 C 345.0 150.3 338.3 157.0 330.0 157.0 L 15.0 157.0 C 6.7 157.0 0.0 150.3 0.0 142.0 Z M 0.0 142.0 " fill="none" stroke="#000000" stroke-width="2.00" transform="matrix(1.00, 0.00, 0.00, -1.00, 17.0, 174.0)"></path><g><clipPath id="clip0x7fd9ebccf0c0"><path d="M 12.5 17.0 L 366.5 17.0 L 366.5 178.5 L 12.5 178.5 Z M 12.5 17.0 "></path></clipPath><g clip-path="url(#clip0x7fd9ebccf0c0)"><text xml:space="preserve" font-family="HelveticaNeue,Helvetica Neue" font-size="36.0" fill="#FEFFFE" transform="matrix(1.00, 0.00, -0.00, -1.00, 53.1, 133.7)">C</text><text xml:space="preserve" font-family="HelveticaNeue,Helvetica Neue" font-size="36.0" fill="#FEFFFE" transform="matrix(1.00, 0.00, -0.00, -1.00, 79.1, 133.7)">o</text><text xml:space="preserve" font-family="HelveticaNeue,Helvetica Neue" font-size="36.0" fill="#FEFFFE" transform="matrix(1.00, 0.00, -0.00, -1.00, 99.8, 133.7)">m</text><text xml:space="preserve" font-family="HelveticaNeue,Helvetica Neue" font-size="36.0" fill="#FEFFFE" transform="matrix(1.00, 0.00, -0.00, -1.00, 130.5, 133.7)">m</text><text xml:space="preserve" font-family="HelveticaNeue,Helvetica Neue" font-size="36.0" fill="#FEFFFE" transform="matrix(1.00, 0.00, -0.00, -1.00, 161.2, 133.7)">u</text><text xml:space="preserve" font-family="HelveticaNeue,Helvetica Neue" font-size="36.0" fill="#FEFFFE" transform="matrix(1.00, 0.00, -0.00, -1.00, 181.2, 133.7)">n</text><text xml:space="preserve" font-family="HelveticaNeue,Helvetica Neue" font-size="36.0" fill="#FEFFFE" transform="matrix(1.00, 0.00, -0.00, -1.00, 201.2, 133.7)">i</text><text xml:space="preserve" font-family="HelveticaNeue,Helvetica Neue" font-size="36.0" fill="#FEFFFE" transform="matrix(1.00, 0.00, -0.00, -1.00, 209.2, 133.7)">c</text><text xml:space="preserve" font-family="HelveticaNeue,Helvetica Neue" font-size="36.0" fill="#FEFFFE" transform="matrix(1.00, 0.00, -0.00, -1.00, 228.5, 133.7)">a</text><text xml:space="preserve" font-family="HelveticaNeue,Helvetica Neue" font-size="36.0" fill="#FEFFFE" transform="matrix(1.00, 0.00, -0.00, -1.00, 247.9, 133.7)">t</text><text xml:space="preserve" font-family="HelveticaNeue,Helvetica Neue" font-size="36.0" fill="#FEFFFE" transform="matrix(1.00, 0.00, -0.00, -1.00, 259.2, 133.7)">i</text><text xml:space="preserve" font-family="HelveticaNeue,Helvetica Neue" font-size="36.0" fill="#FEFFFE" transform="matrix(1.00, 0.00, -0.00, -1.00, 267.2, 133.7)">o</text><text xml:space="preserve" font-family="HelveticaNeue,Helvetica Neue" font-size="36.0" fill="#FEFFFE" transform="matrix(1.00, 0.00, -0.00, -1.00, 287.9, 133.7)">n</text><text xml:space="preserve" font-family="HelveticaNeue,Helvetica Neue" font-size="36.0" fill="#FEFFFE" transform="matrix(1.00, 0.00, -0.00, -1.00, 307.9, 133.7)">s</text><text xml:space="preserve" font-family="HelveticaNeue,Helvetica Neue" font-size="36.0" fill="#FEFFFE" transform="matrix(1.00, 0.00, -0.00, -1.00, 325.9, 133.7)"> </text><text xml:space="preserve" font-family="HelveticaNeue,Helvetica Neue" font-size="36.0" fill="#FEFFFE" transform="matrix(1.00, 0.00, -0.00, -1.00, 151.8, 90.7)">F</text><text xml:space="preserve" font-family="HelveticaNeue,Helvetica Neue" font-size="36.0" fill="#FEFFFE" transform="matrix(1.00, 0.00, -0.00, -1.00, 172.5, 90.7)">S</text><text xml:space="preserve" font-family="HelveticaNeue,Helvetica Neue" font-size="36.0" fill="#FEFFFE" transform="matrix(1.00, 0.00, -0.00, -1.00, 195.8, 90.7)">M</text><text xml:space="preserve" font-family="HelveticaNeue,Helvetica Neue" font-size="36.0" fill="#FEFFFE" transform="matrix(1.00, 0.00, -0.00, -1.00, 227.2, 90.7)">
</text></g></g></g></svg>