<?xml version="1.0" encoding="UTF-8" standalone="no"?><svg xmlns="http://www.w3.org/2000/svg" xmlns:xlink="http://www.w3.org/1999/xlink" clip-rule="evenodd" stroke-miterlimit="10" viewBox="0 0 1024 768"><desc>SVG generated by Keynote</desc><defs></defs><g transform="matrix(1.00, 0.00, -0.00, -1.00, 0.0, 768.0)"><path d="M 0.0 768.0 L 1024.0 768.0 L 1024.0 0.0 L 0.0 0.0 Z M 0.0 768.0 " fill="#FDFEF7"></path><text xml:space="preserve" font-family="BebasNeue,Bebas Neue" font-size="78.0" fill="#6EB1D8" transform="matrix(1.00, 0.00, -0.00, -1.00, 408.0, 648.4)">m</text><text xml:space="preserve" font-family="BebasNeue,Bebas Neue" font-size="78.0" fill="#6EB1D8" transform="matrix(1.00, 0.00, -0.00, -1.00, 451.8, 648.4)">a</text><text xml:space="preserve" font-family="BebasNeue,Bebas Neue" font-size="78.0" fill="#6EB1D8" transform="matrix(1.00, 0.00, -0.00, -1.00, 485.1, 648.4)">k</text><text xml:space="preserve" font-family="BebasNeue,Bebas Neue" font-size="78.0" fill="#6EB1D8" transform="matrix(1.00, 0.00, -0.00, -1.00, 518.9, 648.4)">e</text><text xml:space="preserve" font-family="BebasNeue,Bebas Neue" font-size="78.0" fill="#6EB1D8" transform="matrix(1.00, 0.00, -0.00, -1.00, 562.8, 648.4)">t</text><text xml:space="preserve" font-family="BebasNeue,Bebas Neue" font-size="78.0" fill="#6EB1D8" transform="matrix(1.00, 0.00, -0.00, -1.00, 592.2, 648.4)">h</text><text xml:space="preserve" font-family="BebasNeue,Bebas Neue" font-size="78.0" fill="#6EB1D8" transform="matrix(1.00, 0.00, -0.00, -1.00, 627.0, 648.4)">i</text><text xml:space="preserve" font-family="BebasNeue,Bebas Neue" font-size="78.0" fill="#6EB1D8" transform="matrix(1.00, 0.00, -0.00, -1.00, 643.4, 648.4)">s</text><text xml:space="preserve" font-family="BebasNeue,Bebas Neue" font-size="78.0" fill="#6EB1D8" transform="matrix(1.00, 0.00, -0.00, -1.00, 687.8, 648.4)">e</text><text xml:space="preserve" font-family="BebasNeue,Bebas Neue" font-size="78.0" fill="#6EB1D8" transform="matrix(1.00, 0.00, -0.00, -1.00, 718.0, 648.4)">a</text><text xml:space="preserve" font-family="BebasNeue,Bebas Neue" font-size="78.0" fill="#6EB1D8" transform="matrix(1.00, 0.00, -0.00, -1.00, 751.4, 648.4)">s</text><text xml:space="preserve" font-family="BebasNeue,Bebas Neue" font-size="78.0" fill="#6EB1D8" transform="matrix(1.00, 0.00, -0.00, -1.00, 781.5, 648.4)">y</text><text xml:space="preserve" font-family="BebasNeue,Bebas Neue" font-size="78.0" fill="#6EB1D8" transform="matrix(1.00, 0.00, -0.00, -1.00, 807.8, 648.4)">.</text><text xml:space="preserve" font-family="BebasNeue,Bebas Neue" font-size="78.0" fill="#6EB1D8" transform="matrix(1.00, 0.00, -0.00, -1.00, 823.8, 648.4)">.</text><text xml:space="preserve" font-family="BebasNeue,Bebas Neue" font-size="78.0" fill="#6EB1D8" transform="matrix(1.00, 0.00, -0.00, -1.00, 839.9, 648.4)">.</text><g><clipPath id="clip0x7fda03ca7810"><path d="M 9.5 521.5 L 1013.5 521.5 L 1013.5 66.1 L 9.5 66.1 Z M 9.5 521.5 "></path></clipPath><g clip-path="url(#clip0x7fda03ca7810)"><g><g><clipPath id="clip0x7fda03ca9170"><path d="M 9.0 66.0 L 1014.0 66.0 L 1014.0 522.0 L 9.0 522.0 Z M 9.0 66.0 "></path></clipPath><g clip-path="url(#clip0x7fda03ca9170)"><path d="M 10.0 521.0 L 280.8 521.0 L 280.8 418.5 L 10.0 418.5 Z M 10.0 521.0 " fill="#EAEAEA"></path><path d="M 280.8 521.0 L 618.6 521.0 L 618.6 418.5 L 280.8 418.5 Z M 280.8 521.0 " fill="#EAEAEA"></path><path d="M 618.6 521.0 L 1013.0 521.0 L 1013.0 418.5 L 618.6 418.5 Z M 618.6 521.0 " fill="#EAEAEA"></path></g></g></g></g></g><g><clipPath id="clip0x7fda03ca87b0"><path d="M 9.5 521.5 L 1013.5 521.5 L 1013.5 66.1 L 9.5 66.1 Z M 9.5 521.5 "></path></clipPath><g clip-path="url(#clip0x7fda03ca87b0)"><g><clipPath id="clip0x7fda03caa980"><path d="M 10.5 419.0 L 280.3 419.0 L 280.3 520.5 L 10.5 520.5 Z M 10.5 419.0 "></path></clipPath><g clip-path="url(#clip0x7fda03caa980)"><text xml:space="preserve" font-family="HelveticaNeue-Bold,Helvetica Neue" font-weight="bold" font-size="36.0" fill="#304863" transform="matrix(1.00, 0.00, -0.00, -1.00, 32.4, 455.4)">W</text><text xml:space="preserve" font-family="HelveticaNeue-Bold,Helvetica Neue" font-weight="bold" font-size="36.0" fill="#304863" transform="matrix(1.00, 0.00, -0.00, -1.00, 66.4, 455.4)">h</text><text xml:space="preserve" font-family="HelveticaNeue-Bold,Helvetica Neue" font-weight="bold" font-size="36.0" fill="#304863" transform="matrix(1.00, 0.00, -0.00, -1.00, 87.8, 455.4)">i</text><text xml:space="preserve" font-family="HelveticaNeue-Bold,Helvetica Neue" font-weight="bold" font-size="36.0" fill="#304863" transform="matrix(1.00, 0.00, -0.00, -1.00, 97.1, 455.4)">l</text><text xml:space="preserve" font-family="HelveticaNeue-Bold,Helvetica Neue" font-weight="bold" font-size="36.0" fill="#304863" transform="matrix(1.00, 0.00, -0.00, -1.00, 106.4, 455.4)">e</text><text xml:space="preserve" font-family="HelveticaNeue-Bold,Helvetica Neue" font-weight="bold" font-size="36.0" fill="#304863" transform="matrix(1.00, 0.00, -0.00, -1.00, 127.0, 455.4)"> </text><text xml:space="preserve" font-family="HelveticaNeue-Bold,Helvetica Neue" font-weight="bold" font-size="36.0" fill="#304863" transform="matrix(1.00, 0.00, -0.00, -1.00, 137.0, 455.4)">W</text><text xml:space="preserve" font-family="HelveticaNeue-Bold,Helvetica Neue" font-weight="bold" font-size="36.0" fill="#304863" transform="matrix(1.00, 0.00, -0.00, -1.00, 169.0, 455.4)">e</text><text xml:space="preserve" font-family="HelveticaNeue-Bold,Helvetica Neue" font-weight="bold" font-size="36.0" fill="#304863" transform="matrix(1.00, 0.00, -0.00, -1.00, 189.6, 455.4)"> </text><text xml:space="preserve" font-family="HelveticaNeue-Bold,Helvetica Neue" font-weight="bold" font-size="36.0" fill="#304863" transform="matrix(1.00, 0.00, -0.00, -1.00, 199.6, 455.4)">A</text><text xml:space="preserve" font-family="HelveticaNeue-Bold,Helvetica Neue" font-weight="bold" font-size="36.0" fill="#304863" transform="matrix(1.00, 0.00, -0.00, -1.00, 224.3, 455.4)">r</text><text xml:space="preserve" font-family="HelveticaNeue-Bold,Helvetica Neue" font-weight="bold" font-size="36.0" fill="#304863" transform="matrix(1.00, 0.00, -0.00, -1.00, 237.6, 455.4)">e</text></g></g></g></g><g><clipPath id="clip0x7fda03cb1c70"><path d="M 9.5 521.5 L 1013.5 521.5 L 1013.5 66.1 L 9.5 66.1 Z M 9.5 521.5 "></path></clipPath><g clip-path="url(#clip0x7fda03cb1c70)"><g><clipPath id="clip0x7fda03cb23f0"><path d="M 281.3 419.0 L 618.1 419.0 L 618.1 520.5 L 281.3 520.5 Z M 281.3 419.0 "></path></clipPath><g clip-path="url(#clip0x7fda03cb23f0)"><text xml:space="preserve" font-family="HelveticaNeue-Bold,Helvetica Neue" font-weight="bold" font-size="36.0" fill="#304863" transform="matrix(1.00, 0.00, -0.00, -1.00, 293.4, 455.4)">A</text><text xml:space="preserve" font-family="HelveticaNeue-Bold,Helvetica Neue" font-weight="bold" font-size="36.0" fill="#304863" transform="matrix(1.00, 0.00, -0.00, -1.00, 318.0, 455.4)">n</text><text xml:space="preserve" font-family="HelveticaNeue-Bold,Helvetica Neue" font-weight="bold" font-size="36.0" fill="#304863" transform="matrix(1.00, 0.00, -0.00, -1.00, 339.4, 455.4)">d</text><text xml:space="preserve" font-family="HelveticaNeue-Bold,Helvetica Neue" font-weight="bold" font-size="36.0" fill="#304863" transform="matrix(1.00, 0.00, -0.00, -1.00, 361.4, 455.4)"> </text><text xml:space="preserve" font-family="HelveticaNeue-Bold,Helvetica Neue" font-weight="bold" font-size="36.0" fill="#304863" transform="matrix(1.00, 0.00, -0.00, -1.00, 371.4, 455.4)">T</text><text xml:space="preserve" font-family="HelveticaNeue-Bold,Helvetica Neue" font-weight="bold" font-size="36.0" fill="#304863" transform="matrix(1.00, 0.00, -0.00, -1.00, 393.4, 455.4)">h</text><text xml:space="preserve" font-family="HelveticaNeue-Bold,Helvetica Neue" font-weight="bold" font-size="36.0" fill="#304863" transform="matrix(1.00, 0.00, -0.00, -1.00, 414.7, 455.4)">i</text><text xml:space="preserve" font-family="HelveticaNeue-Bold,Helvetica Neue" font-weight="bold" font-size="36.0" fill="#304863" transform="matrix(1.00, 0.00, -0.00, -1.00, 424.0, 455.4)">s</text><text xml:space="preserve" font-family="HelveticaNeue-Bold,Helvetica Neue" font-weight="bold" font-size="36.0" fill="#304863" transform="matrix(1.00, 0.00, -0.00, -1.00, 443.3, 455.4)"> </text><text xml:space="preserve" font-family="HelveticaNeue-Bold,Helvetica Neue" font-weight="bold" font-size="36.0" fill="#304863" transform="matrix(1.00, 0.00, -0.00, -1.00, 453.3, 455.4)">H</text><text xml:space="preserve" font-family="HelveticaNeue-Bold,Helvetica Neue" font-weight="bold" font-size="36.0" fill="#304863" transform="matrix(1.00, 0.00, -0.00, -1.00, 480.0, 455.4)">a</text><text xml:space="preserve" font-family="HelveticaNeue-Bold,Helvetica Neue" font-weight="bold" font-size="36.0" fill="#304863" transform="matrix(1.00, 0.00, -0.00, -1.00, 500.7, 455.4)">p</text><text xml:space="preserve" font-family="HelveticaNeue-Bold,Helvetica Neue" font-weight="bold" font-size="36.0" fill="#304863" transform="matrix(1.00, 0.00, -0.00, -1.00, 522.7, 455.4)">p</text><text xml:space="preserve" font-family="HelveticaNeue-Bold,Helvetica Neue" font-weight="bold" font-size="36.0" fill="#304863" transform="matrix(1.00, 0.00, -0.00, -1.00, 544.7, 455.4)">e</text><text xml:space="preserve" font-family="HelveticaNeue-Bold,Helvetica Neue" font-weight="bold" font-size="36.0" fill="#304863" transform="matrix(1.00, 0.00, -0.00, -1.00, 565.3, 455.4)">n</text><text xml:space="preserve" font-family="HelveticaNeue-Bold,Helvetica Neue" font-weight="bold" font-size="36.0" fill="#304863" transform="matrix(1.00, 0.00, -0.00, -1.00, 586.7, 455.4)">s</text></g></g></g></g><g><clipPath id="clip0x7fda03cb9690"><path d="M 9.5 521.5 L 1013.5 521.5 L 1013.5 66.1 L 9.5 66.1 Z M 9.5 521.5 "></path></clipPath><g clip-path="url(#clip0x7fda03cb9690)"><g><clipPath id="clip0x7fda03ca8b50"><path d="M 619.1 419.0 L 1012.5 419.0 L 1012.5 520.5 L 619.1 520.5 Z M 619.1 419.0 "></path></clipPath><g clip-path="url(#clip0x7fda03ca8b50)"><text xml:space="preserve" font-family="HelveticaNeue-Bold,Helvetica Neue" font-weight="bold" font-size="36.0" fill="#304863" transform="matrix(1.00, 0.00, -0.00, -1.00, 704.8, 455.4)">L</text><text xml:space="preserve" font-family="HelveticaNeue-Bold,Helvetica Neue" font-weight="bold" font-size="36.0" fill="#304863" transform="matrix(1.00, 0.00, -0.00, -1.00, 726.2, 455.4)">e</text><text xml:space="preserve" font-family="HelveticaNeue-Bold,Helvetica Neue" font-weight="bold" font-size="36.0" fill="#304863" transform="matrix(1.00, 0.00, -0.00, -1.00, 746.8, 455.4)">t</text><text xml:space="preserve" font-family="HelveticaNeue-Bold,Helvetica Neue" font-weight="bold" font-size="36.0" fill="#304863" transform="matrix(1.00, 0.00, -0.00, -1.00, 759.5, 455.4)">’</text><text xml:space="preserve" font-family="HelveticaNeue-Bold,Helvetica Neue" font-weight="bold" font-size="36.0" fill="#304863" transform="matrix(1.00, 0.00, -0.00, -1.00, 766.8, 455.4)">s</text><text xml:space="preserve" font-family="HelveticaNeue-Bold,Helvetica Neue" font-weight="bold" font-size="36.0" fill="#304863" transform="matrix(1.00, 0.00, -0.00, -1.00, 786.2, 455.4)"> </text><text xml:space="preserve" font-family="HelveticaNeue-Bold,Helvetica Neue" font-weight="bold" font-size="36.0" fill="#304863" transform="matrix(1.00, 0.00, -0.00, -1.00, 796.2, 455.4)">D</text><text xml:space="preserve" font-family="HelveticaNeue-Bold,Helvetica Neue" font-weight="bold" font-size="36.0" fill="#304863" transform="matrix(1.00, 0.00, -0.00, -1.00, 822.9, 455.4)">o</text><text xml:space="preserve" font-family="HelveticaNeue-Bold,Helvetica Neue" font-weight="bold" font-size="36.0" fill="#304863" transform="matrix(1.00, 0.00, -0.00, -1.00, 844.8, 455.4)"> </text><text xml:space="preserve" font-family="HelveticaNeue-Bold,Helvetica Neue" font-weight="bold" font-size="36.0" fill="#304863" transform="matrix(1.00, 0.00, -0.00, -1.00, 854.9, 455.4)">T</text><text xml:space="preserve" font-family="HelveticaNeue-Bold,Helvetica Neue" font-weight="bold" font-size="36.0" fill="#304863" transform="matrix(1.00, 0.00, -0.00, -1.00, 876.9, 455.4)">h</text><text xml:space="preserve" font-family="HelveticaNeue-Bold,Helvetica Neue" font-weight="bold" font-size="36.0" fill="#304863" transform="matrix(1.00, 0.00, -0.00, -1.00, 898.2, 455.4)">i</text><text xml:space="preserve" font-family="HelveticaNeue-Bold,Helvetica Neue" font-weight="bold" font-size="36.0" fill="#304863" transform="matrix(1.00, 0.00, -0.00, -1.00, 907.5, 455.4)">s</text></g></g></g></g><g><clipPath id="clip0x7fda07d4ae40"><path d="M 9.5 521.5 L 1013.5 521.5 L 1013.5 66.1 L 9.5 66.1 Z M 9.5 521.5 "></path></clipPath><g clip-path="url(#clip0x7fda07d4ae40)"><g><clipPath id="clip0x7fda07d4b5c0"><path d="M 10.5 247.5 L 280.3 247.5 L 280.3 418.0 L 10.5 418.0 Z M 10.5 247.5 "></path></clipPath><g clip-path="url(#clip0x7fda07d4b5c0)"><text xml:space="preserve" font-family="HelveticaNeue,Helvetica Neue" font-size="36.0" fill="#304863" transform="matrix(1.00, 0.00, -0.00, -1.00, 94.0, 319.6)">O</text><text xml:space="preserve" font-family="HelveticaNeue,Helvetica Neue" font-size="36.0" fill="#304863" transform="matrix(1.00, 0.00, -0.00, -1.00, 121.4, 319.6)">n</text><text xml:space="preserve" font-family="HelveticaNeue,Helvetica Neue" font-size="36.0" fill="#304863" transform="matrix(1.00, 0.00, -0.00, -1.00, 141.4, 319.6)">l</text><text xml:space="preserve" font-family="HelveticaNeue,Helvetica Neue" font-size="36.0" fill="#304863" transform="matrix(1.00, 0.00, -0.00, -1.00, 149.4, 319.6)">i</text><text xml:space="preserve" font-family="HelveticaNeue,Helvetica Neue" font-size="36.0" fill="#304863" transform="matrix(1.00, 0.00, -0.00, -1.00, 157.4, 319.6)">n</text><text xml:space="preserve" font-family="HelveticaNeue,Helvetica Neue" font-size="36.0" fill="#304863" transform="matrix(1.00, 0.00, -0.00, -1.00, 177.4, 319.6)">e</text></g></g></g></g><g><clipPath id="clip0x7fda07d4f4d0"><path d="M 9.5 521.5 L 1013.5 521.5 L 1013.5 66.1 L 9.5 66.1 Z M 9.5 521.5 "></path></clipPath><g clip-path="url(#clip0x7fda07d4f4d0)"><g><clipPath id="clip0x7fda07d4fc30"><path d="M 281.3 339.5 L 618.1 339.5 L 618.1 418.0 L 281.3 418.0 Z M 281.3 339.5 "></path></clipPath><g clip-path="url(#clip0x7fda07d4fc30)"><text xml:space="preserve" font-family="HelveticaNeue,Helvetica Neue" font-size="36.0" fill="#304863" transform="matrix(1.00, 0.00, -0.00, -1.00, 352.3, 365.6)">h</text><text xml:space="preserve" font-family="HelveticaNeue,Helvetica Neue" font-size="36.0" fill="#304863" transform="matrix(1.00, 0.00, -0.00, -1.00, 372.3, 365.6)">t</text><text xml:space="preserve" font-family="HelveticaNeue,Helvetica Neue" font-size="36.0" fill="#304863" transform="matrix(1.00, 0.00, -0.00, -1.00, 383.7, 365.6)">t</text><text xml:space="preserve" font-family="HelveticaNeue,Helvetica Neue" font-size="36.0" fill="#304863" transform="matrix(1.00, 0.00, -0.00, -1.00, 395.0, 365.6)">p</text><text xml:space="preserve" font-family="HelveticaNeue,Helvetica Neue" font-size="36.0" fill="#304863" transform="matrix(1.00, 0.00, -0.00, -1.00, 416.4, 365.6)"> </text><text xml:space="preserve" font-family="HelveticaNeue,Helvetica Neue" font-size="36.0" fill="#304863" transform="matrix(1.00, 0.00, -0.00, -1.00, 426.4, 365.6)">r</text><text xml:space="preserve" font-family="HelveticaNeue,Helvetica Neue" font-size="36.0" fill="#304863" transform="matrix(1.00, 0.00, -0.00, -1.00, 437.7, 365.6)">e</text><text xml:space="preserve" font-family="HelveticaNeue,Helvetica Neue" font-size="36.0" fill="#304863" transform="matrix(1.00, 0.00, -0.00, -1.00, 457.0, 365.6)">q</text><text xml:space="preserve" font-family="HelveticaNeue,Helvetica Neue" font-size="36.0" fill="#304863" transform="matrix(1.00, 0.00, -0.00, -1.00, 478.4, 365.6)">u</text><text xml:space="preserve" font-family="HelveticaNeue,Helvetica Neue" font-size="36.0" fill="#304863" transform="matrix(1.00, 0.00, -0.00, -1.00, 498.4, 365.6)">e</text><text xml:space="preserve" font-family="HelveticaNeue,Helvetica Neue" font-size="36.0" fill="#304863" transform="matrix(1.00, 0.00, -0.00, -1.00, 517.7, 365.6)">s</text><text xml:space="preserve" font-family="HelveticaNeue,Helvetica Neue" font-size="36.0" fill="#304863" transform="matrix(1.00, 0.00, -0.00, -1.00, 535.7, 365.6)">t</text></g></g></g></g><g><clipPath id="clip0x7fda07d551f0"><path d="M 9.5 521.5 L 1013.5 521.5 L 1013.5 66.1 L 9.5 66.1 Z M 9.5 521.5 "></path></clipPath><g clip-path="url(#clip0x7fda07d551f0)"><g><clipPath id="clip0x7fda07d55a40"><path d="M 619.1 339.5 L 1012.5 339.5 L 1012.5 418.0 L 619.1 418.0 Z M 619.1 339.5 "></path></clipPath><g clip-path="url(#clip0x7fda07d55a40)"><text xml:space="preserve" font-family="HelveticaNeue,Helvetica Neue" font-size="36.0" fill="#304863" transform="matrix(1.00, 0.00, -0.00, -1.00, 635.8, 365.6)">s</text><text xml:space="preserve" font-family="HelveticaNeue,Helvetica Neue" font-size="36.0" fill="#304863" transform="matrix(1.00, 0.00, -0.00, -1.00, 653.8, 365.6)">e</text><text xml:space="preserve" font-family="HelveticaNeue,Helvetica Neue" font-size="36.0" fill="#304863" transform="matrix(1.00, 0.00, -0.00, -1.00, 673.1, 365.6)">n</text><text xml:space="preserve" font-family="HelveticaNeue,Helvetica Neue" font-size="36.0" fill="#304863" transform="matrix(1.00, 0.00, -0.00, -1.00, 693.1, 365.6)">d</text><text xml:space="preserve" font-family="HelveticaNeue,Helvetica Neue" font-size="36.0" fill="#304863" transform="matrix(1.00, 0.00, -0.00, -1.00, 714.5, 365.6)"> </text><text xml:space="preserve" font-family="HelveticaNeue,Helvetica Neue" font-size="36.0" fill="#304863" transform="matrix(1.00, 0.00, -0.00, -1.00, 724.5, 365.6)">r</text><text xml:space="preserve" font-family="HelveticaNeue,Helvetica Neue" font-size="36.0" fill="#304863" transform="matrix(1.00, 0.00, -0.00, -1.00, 735.8, 365.6)">e</text><text xml:space="preserve" font-family="HelveticaNeue,Helvetica Neue" font-size="36.0" fill="#304863" transform="matrix(1.00, 0.00, -0.00, -1.00, 755.2, 365.6)">q</text><text xml:space="preserve" font-family="HelveticaNeue,Helvetica Neue" font-size="36.0" fill="#304863" transform="matrix(1.00, 0.00, -0.00, -1.00, 776.5, 365.6)">u</text><text xml:space="preserve" font-family="HelveticaNeue,Helvetica Neue" font-size="36.0" fill="#304863" transform="matrix(1.00, 0.00, -0.00, -1.00, 796.5, 365.6)">e</text><text xml:space="preserve" font-family="HelveticaNeue,Helvetica Neue" font-size="36.0" fill="#304863" transform="matrix(1.00, 0.00, -0.00, -1.00, 815.8, 365.6)">s</text><text xml:space="preserve" font-family="HelveticaNeue,Helvetica Neue" font-size="36.0" fill="#304863" transform="matrix(1.00, 0.00, -0.00, -1.00, 833.8, 365.6)">t</text><text xml:space="preserve" font-family="HelveticaNeue,Helvetica Neue" font-size="36.0" fill="#304863" transform="matrix(1.00, 0.00, -0.00, -1.00, 845.2, 365.6)"> </text><text xml:space="preserve" font-family="HelveticaNeue,Helvetica Neue" font-size="36.0" fill="#304863" transform="matrix(1.00, 0.00, -0.00, -1.00, 855.2, 365.6)">t</text><text xml:space="preserve" font-family="HelveticaNeue,Helvetica Neue" font-size="36.0" fill="#304863" transform="matrix(1.00, 0.00, -0.00, -1.00, 866.5, 365.6)">o</text><text xml:space="preserve" font-family="HelveticaNeue,Helvetica Neue" font-size="36.0" fill="#304863" transform="matrix(1.00, 0.00, -0.00, -1.00, 887.2, 365.6)"> </text><text xml:space="preserve" font-family="HelveticaNeue,Helvetica Neue" font-size="36.0" fill="#304863" transform="matrix(1.00, 0.00, -0.00, -1.00, 897.2, 365.6)">s</text><text xml:space="preserve" font-family="HelveticaNeue,Helvetica Neue" font-size="36.0" fill="#304863" transform="matrix(1.00, 0.00, -0.00, -1.00, 915.2, 365.6)">e</text><text xml:space="preserve" font-family="HelveticaNeue,Helvetica Neue" font-size="36.0" fill="#304863" transform="matrix(1.00, 0.00, -0.00, -1.00, 934.5, 365.6)">r</text><text xml:space="preserve" font-family="HelveticaNeue,Helvetica Neue" font-size="36.0" fill="#304863" transform="matrix(1.00, 0.00, -0.00, -1.00, 946.5, 365.6)">v</text><text xml:space="preserve" font-family="HelveticaNeue,Helvetica Neue" font-size="36.0" fill="#304863" transform="matrix(1.00, 0.00, -0.00, -1.00, 964.5, 365.6)">e</text><text xml:space="preserve" font-family="HelveticaNeue,Helvetica Neue" font-size="36.0" fill="#304863" transform="matrix(1.00, 0.00, -0.00, -1.00, 983.9, 365.6)">r</text></g></g></g></g><g><clipPath id="clip0x7fda07d5eca0"><path d="M 9.5 521.5 L 1013.5 521.5 L 1013.5 66.1 L 9.5 66.1 Z M 9.5 521.5 "></path></clipPath><g clip-path="url(#clip0x7fda07d5eca0)"><g><clipPath id="clip0x7fda07d5f400"><path d="M 281.3 247.5 L 618.1 247.5 L 618.1 338.5 L 281.3 338.5 Z M 281.3 247.5 "></path></clipPath><g clip-path="url(#clip0x7fda07d5f400)"><text xml:space="preserve" font-family="HelveticaNeue,Helvetica Neue" font-size="36.0" fill="#304863" transform="matrix(1.00, 0.00, -0.00, -1.00, 335.0, 279.2)">w</text><text xml:space="preserve" font-family="HelveticaNeue,Helvetica Neue" font-size="36.0" fill="#304863" transform="matrix(1.00, 0.00, -0.00, -1.00, 362.3, 279.2)">i</text><text xml:space="preserve" font-family="HelveticaNeue,Helvetica Neue" font-size="36.0" fill="#304863" transform="matrix(1.00, 0.00, -0.00, -1.00, 370.3, 279.2)">n</text><text xml:space="preserve" font-family="HelveticaNeue,Helvetica Neue" font-size="36.0" fill="#304863" transform="matrix(1.00, 0.00, -0.00, -1.00, 390.3, 279.2)">d</text><text xml:space="preserve" font-family="HelveticaNeue,Helvetica Neue" font-size="36.0" fill="#304863" transform="matrix(1.00, 0.00, -0.00, -1.00, 411.6, 279.2)">o</text><text xml:space="preserve" font-family="HelveticaNeue,Helvetica Neue" font-size="36.0" fill="#304863" transform="matrix(1.00, 0.00, -0.00, -1.00, 432.3, 279.2)">w</text><text xml:space="preserve" font-family="HelveticaNeue,Helvetica Neue" font-size="36.0" fill="#304863" transform="matrix(1.00, 0.00, -0.00, -1.00, 457.6, 279.2)">.</text><text xml:space="preserve" font-family="HelveticaNeue,Helvetica Neue" font-size="36.0" fill="#304863" transform="matrix(1.00, 0.00, -0.00, -1.00, 467.6, 279.2)">o</text><text xml:space="preserve" font-family="HelveticaNeue,Helvetica Neue" font-size="36.0" fill="#304863" transform="matrix(1.00, 0.00, -0.00, -1.00, 488.3, 279.2)">ﬄ</text><text xml:space="preserve" font-family="HelveticaNeue,Helvetica Neue" font-size="36.0" fill="#304863" transform="matrix(1.00, 0.00, -0.00, -1.00, 517.0, 279.2)">i</text><text xml:space="preserve" font-family="HelveticaNeue,Helvetica Neue" font-size="36.0" fill="#304863" transform="matrix(1.00, 0.00, -0.00, -1.00, 525.0, 279.2)">n</text><text xml:space="preserve" font-family="HelveticaNeue,Helvetica Neue" font-size="36.0" fill="#304863" transform="matrix(1.00, 0.00, -0.00, -1.00, 545.1, 279.2)">e</text></g></g></g></g><g><clipPath id="clip0x7fda07d65590"><path d="M 9.5 521.5 L 1013.5 521.5 L 1013.5 66.1 L 9.5 66.1 Z M 9.5 521.5 "></path></clipPath><g clip-path="url(#clip0x7fda07d65590)"><g><clipPath id="clip0x7fda07d65d10"><path d="M 619.1 247.5 L 1012.5 247.5 L 1012.5 338.5 L 619.1 338.5 Z M 619.1 247.5 "></path></clipPath><g clip-path="url(#clip0x7fda07d65d10)"><text xml:space="preserve" font-family="HelveticaNeue,Helvetica Neue" font-size="36.0" fill="#304863" transform="matrix(1.00, 0.00, -0.00, -1.00, 681.1, 279.2)">s</text><text xml:space="preserve" font-family="HelveticaNeue,Helvetica Neue" font-size="36.0" fill="#304863" transform="matrix(1.00, 0.00, -0.00, -1.00, 699.1, 279.2)">e</text><text xml:space="preserve" font-family="HelveticaNeue,Helvetica Neue" font-size="36.0" fill="#304863" transform="matrix(1.00, 0.00, -0.00, -1.00, 718.4, 279.2)">t</text><text xml:space="preserve" font-family="HelveticaNeue,Helvetica Neue" font-size="36.0" fill="#304863" transform="matrix(1.00, 0.00, -0.00, -1.00, 729.7, 279.2)"> </text><text xml:space="preserve" font-family="HelveticaNeue,Helvetica Neue" font-size="36.0" fill="#304863" transform="matrix(1.00, 0.00, -0.00, -1.00, 739.7, 279.2)">a</text><text xml:space="preserve" font-family="HelveticaNeue,Helvetica Neue" font-size="36.0" fill="#304863" transform="matrix(1.00, 0.00, -0.00, -1.00, 759.1, 279.2)">p</text><text xml:space="preserve" font-family="HelveticaNeue,Helvetica Neue" font-size="36.0" fill="#304863" transform="matrix(1.00, 0.00, -0.00, -1.00, 780.4, 279.2)">p</text><text xml:space="preserve" font-family="HelveticaNeue,Helvetica Neue" font-size="36.0" fill="#304863" transform="matrix(1.00, 0.00, -0.00, -1.00, 801.8, 279.2)"> </text><text xml:space="preserve" font-family="HelveticaNeue,Helvetica Neue" font-size="36.0" fill="#304863" transform="matrix(1.00, 0.00, -0.00, -1.00, 811.8, 279.2)">t</text><text xml:space="preserve" font-family="HelveticaNeue,Helvetica Neue" font-size="36.0" fill="#304863" transform="matrix(1.00, 0.00, -0.00, -1.00, 823.1, 279.2)">o</text><text xml:space="preserve" font-family="HelveticaNeue,Helvetica Neue" font-size="36.0" fill="#304863" transform="matrix(1.00, 0.00, -0.00, -1.00, 843.8, 279.2)"> </text><text xml:space="preserve" font-family="HelveticaNeue,Helvetica Neue" font-size="36.0" fill="#304863" transform="matrix(1.00, 0.00, -0.00, -1.00, 853.8, 279.2)">o</text><text xml:space="preserve" font-family="HelveticaNeue,Helvetica Neue" font-size="36.0" fill="#304863" transform="matrix(1.00, 0.00, -0.00, -1.00, 874.5, 279.2)">ﬄ</text><text xml:space="preserve" font-family="HelveticaNeue,Helvetica Neue" font-size="36.0" fill="#304863" transform="matrix(1.00, 0.00, -0.00, -1.00, 903.2, 279.2)">i</text><text xml:space="preserve" font-family="HelveticaNeue,Helvetica Neue" font-size="36.0" fill="#304863" transform="matrix(1.00, 0.00, -0.00, -1.00, 911.2, 279.2)">n</text><text xml:space="preserve" font-family="HelveticaNeue,Helvetica Neue" font-size="36.0" fill="#304863" transform="matrix(1.00, 0.00, -0.00, -1.00, 931.2, 279.2)">e</text></g></g></g></g><g><clipPath id="clip0x7fda07d6d2f0"><path d="M 9.5 521.5 L 1013.5 521.5 L 1013.5 66.1 L 9.5 66.1 Z M 9.5 521.5 "></path></clipPath><g clip-path="url(#clip0x7fda07d6d2f0)"><g><clipPath id="clip0x7fda07d6da50"><path d="M 10.5 67.1 L 280.3 67.1 L 280.3 246.5 L 10.5 246.5 Z M 10.5 67.1 "></path></clipPath><g clip-path="url(#clip0x7fda07d6da50)"><text xml:space="preserve" font-family="HelveticaNeue,Helvetica Neue" font-size="36.0" fill="#304863" transform="matrix(1.00, 0.00, -0.00, -1.00, 93.6, 143.2)">O</text><text xml:space="preserve" font-family="HelveticaNeue,Helvetica Neue" font-size="36.0" fill="#304863" transform="matrix(1.00, 0.00, -0.00, -1.00, 121.0, 143.2)">ﬄ</text><text xml:space="preserve" font-family="HelveticaNeue,Helvetica Neue" font-size="36.0" fill="#304863" transform="matrix(1.00, 0.00, -0.00, -1.00, 149.8, 143.2)">i</text><text xml:space="preserve" font-family="HelveticaNeue,Helvetica Neue" font-size="36.0" fill="#304863" transform="matrix(1.00, 0.00, -0.00, -1.00, 157.8, 143.2)">n</text><text xml:space="preserve" font-family="HelveticaNeue,Helvetica Neue" font-size="36.0" fill="#304863" transform="matrix(1.00, 0.00, -0.00, -1.00, 177.8, 143.2)">e</text></g></g></g></g><g><clipPath id="clip0x7fda07d70da0"><path d="M 9.5 521.5 L 1013.5 521.5 L 1013.5 66.1 L 9.5 66.1 Z M 9.5 521.5 "></path></clipPath><g clip-path="url(#clip0x7fda07d70da0)"><g><clipPath id="clip0x7fda07d71650"><path d="M 281.3 159.7 L 618.1 159.7 L 618.1 246.5 L 281.3 246.5 Z M 281.3 159.7 "></path></clipPath><g clip-path="url(#clip0x7fda07d71650)"><text xml:space="preserve" font-family="HelveticaNeue,Helvetica Neue" font-size="36.0" fill="#304863" transform="matrix(1.00, 0.00, -0.00, -1.00, 352.3, 189.2)">h</text><text xml:space="preserve" font-family="HelveticaNeue,Helvetica Neue" font-size="36.0" fill="#304863" transform="matrix(1.00, 0.00, -0.00, -1.00, 372.3, 189.2)">t</text><text xml:space="preserve" font-family="HelveticaNeue,Helvetica Neue" font-size="36.0" fill="#304863" transform="matrix(1.00, 0.00, -0.00, -1.00, 383.7, 189.2)">t</text><text xml:space="preserve" font-family="HelveticaNeue,Helvetica Neue" font-size="36.0" fill="#304863" transform="matrix(1.00, 0.00, -0.00, -1.00, 395.0, 189.2)">p</text><text xml:space="preserve" font-family="HelveticaNeue,Helvetica Neue" font-size="36.0" fill="#304863" transform="matrix(1.00, 0.00, -0.00, -1.00, 416.4, 189.2)"> </text><text xml:space="preserve" font-family="HelveticaNeue,Helvetica Neue" font-size="36.0" fill="#304863" transform="matrix(1.00, 0.00, -0.00, -1.00, 426.4, 189.2)">r</text><text xml:space="preserve" font-family="HelveticaNeue,Helvetica Neue" font-size="36.0" fill="#304863" transform="matrix(1.00, 0.00, -0.00, -1.00, 437.7, 189.2)">e</text><text xml:space="preserve" font-family="HelveticaNeue,Helvetica Neue" font-size="36.0" fill="#304863" transform="matrix(1.00, 0.00, -0.00, -1.00, 457.0, 189.2)">q</text><text xml:space="preserve" font-family="HelveticaNeue,Helvetica Neue" font-size="36.0" fill="#304863" transform="matrix(1.00, 0.00, -0.00, -1.00, 478.4, 189.2)">u</text><text xml:space="preserve" font-family="HelveticaNeue,Helvetica Neue" font-size="36.0" fill="#304863" transform="matrix(1.00, 0.00, -0.00, -1.00, 498.4, 189.2)">e</text><text xml:space="preserve" font-family="HelveticaNeue,Helvetica Neue" font-size="36.0" fill="#304863" transform="matrix(1.00, 0.00, -0.00, -1.00, 517.7, 189.2)">s</text><text xml:space="preserve" font-family="HelveticaNeue,Helvetica Neue" font-size="36.0" fill="#304863" transform="matrix(1.00, 0.00, -0.00, -1.00, 535.7, 189.2)">t</text></g></g></g></g><g><clipPath id="clip0x7fda07d76c10"><path d="M 9.5 521.5 L 1013.5 521.5 L 1013.5 66.1 L 9.5 66.1 Z M 9.5 521.5 "></path></clipPath><g clip-path="url(#clip0x7fda07d76c10)"><g><clipPath id="clip0x7fda07d556c0"><path d="M 619.1 159.7 L 1012.5 159.7 L 1012.5 246.5 L 619.1 246.5 Z M 619.1 159.7 "></path></clipPath><g clip-path="url(#clip0x7fda07d556c0)"><text xml:space="preserve" font-family="HelveticaNeue,Helvetica Neue" font-size="36.0" fill="#304863" transform="matrix(1.00, 0.00, -0.00, -1.00, 674.7, 189.2)">q</text><text xml:space="preserve" font-family="HelveticaNeue,Helvetica Neue" font-size="36.0" fill="#304863" transform="matrix(1.00, 0.00, -0.00, -1.00, 696.1, 189.2)">u</text><text xml:space="preserve" font-family="HelveticaNeue,Helvetica Neue" font-size="36.0" fill="#304863" transform="matrix(1.00, 0.00, -0.00, -1.00, 716.1, 189.2)">e</text><text xml:space="preserve" font-family="HelveticaNeue,Helvetica Neue" font-size="36.0" fill="#304863" transform="matrix(1.00, 0.00, -0.00, -1.00, 735.4, 189.2)">u</text><text xml:space="preserve" font-family="HelveticaNeue,Helvetica Neue" font-size="36.0" fill="#304863" transform="matrix(1.00, 0.00, -0.00, -1.00, 755.5, 189.2)">e</text><text xml:space="preserve" font-family="HelveticaNeue,Helvetica Neue" font-size="36.0" fill="#304863" transform="matrix(1.00, 0.00, -0.00, -1.00, 774.8, 189.2)"> </text><text xml:space="preserve" font-family="HelveticaNeue,Helvetica Neue" font-size="36.0" fill="#304863" transform="matrix(1.00, 0.00, -0.00, -1.00, 784.8, 189.2)">r</text><text xml:space="preserve" font-family="HelveticaNeue,Helvetica Neue" font-size="36.0" fill="#304863" transform="matrix(1.00, 0.00, -0.00, -1.00, 796.1, 189.2)">e</text><text xml:space="preserve" font-family="HelveticaNeue,Helvetica Neue" font-size="36.0" fill="#304863" transform="matrix(1.00, 0.00, -0.00, -1.00, 815.5, 189.2)">q</text><text xml:space="preserve" font-family="HelveticaNeue,Helvetica Neue" font-size="36.0" fill="#304863" transform="matrix(1.00, 0.00, -0.00, -1.00, 836.8, 189.2)">u</text><text xml:space="preserve" font-family="HelveticaNeue,Helvetica Neue" font-size="36.0" fill="#304863" transform="matrix(1.00, 0.00, -0.00, -1.00, 856.8, 189.2)">e</text><text xml:space="preserve" font-family="HelveticaNeue,Helvetica Neue" font-size="36.0" fill="#304863" transform="matrix(1.00, 0.00, -0.00, -1.00, 876.2, 189.2)">s</text><text xml:space="preserve" font-family="HelveticaNeue,Helvetica Neue" font-size="36.0" fill="#304863" transform="matrix(1.00, 0.00, -0.00, -1.00, 894.2, 189.2)">t</text><text xml:space="preserve" font-family="HelveticaNeue,Helvetica Neue" font-size="36.0" fill="#304863" transform="matrix(1.00, 0.00, -0.00, -1.00, 905.5, 189.2)"> </text><text xml:space="preserve" font-family="HelveticaNeue,Helvetica Neue" font-size="36.0" fill="#304863" transform="matrix(1.00, 0.00, -0.00, -1.00, 915.5, 189.2)">u</text><text xml:space="preserve" font-family="HelveticaNeue,Helvetica Neue" font-size="36.0" fill="#304863" transform="matrix(1.00, 0.00, -0.00, -1.00, 935.5, 189.2)">p</text></g></g></g></g><g><clipPath id="clip0x7fda07d7e1b0"><path d="M 9.5 521.5 L 1013.5 521.5 L 1013.5 66.1 L 9.5 66.1 Z M 9.5 521.5 "></path></clipPath><g clip-path="url(#clip0x7fda07d7e1b0)"><g><clipPath id="clip0x7fda07d7e910"><path d="M 281.3 67.1 L 618.1 67.1 L 618.1 158.7 L 281.3 158.7 Z M 281.3 67.1 "></path></clipPath><g clip-path="url(#clip0x7fda07d7e910)"><text xml:space="preserve" font-family="HelveticaNeue,Helvetica Neue" font-size="36.0" fill="#304863" transform="matrix(1.00, 0.00, -0.00, -1.00, 335.4, 99.4)">w</text><text xml:space="preserve" font-family="HelveticaNeue,Helvetica Neue" font-size="36.0" fill="#304863" transform="matrix(1.00, 0.00, -0.00, -1.00, 362.7, 99.4)">i</text><text xml:space="preserve" font-family="HelveticaNeue,Helvetica Neue" font-size="36.0" fill="#304863" transform="matrix(1.00, 0.00, -0.00, -1.00, 370.7, 99.4)">n</text><text xml:space="preserve" font-family="HelveticaNeue,Helvetica Neue" font-size="36.0" fill="#304863" transform="matrix(1.00, 0.00, -0.00, -1.00, 390.7, 99.4)">d</text><text xml:space="preserve" font-family="HelveticaNeue,Helvetica Neue" font-size="36.0" fill="#304863" transform="matrix(1.00, 0.00, -0.00, -1.00, 412.0, 99.4)">o</text><text xml:space="preserve" font-family="HelveticaNeue,Helvetica Neue" font-size="36.0" fill="#304863" transform="matrix(1.00, 0.00, -0.00, -1.00, 432.7, 99.4)">w</text><text xml:space="preserve" font-family="HelveticaNeue,Helvetica Neue" font-size="36.0" fill="#304863" transform="matrix(1.00, 0.00, -0.00, -1.00, 458.0, 99.4)">.</text><text xml:space="preserve" font-family="HelveticaNeue,Helvetica Neue" font-size="36.0" fill="#304863" transform="matrix(1.00, 0.00, -0.00, -1.00, 468.0, 99.4)">o</text><text xml:space="preserve" font-family="HelveticaNeue,Helvetica Neue" font-size="36.0" fill="#304863" transform="matrix(1.00, 0.00, -0.00, -1.00, 488.7, 99.4)">n</text><text xml:space="preserve" font-family="HelveticaNeue,Helvetica Neue" font-size="36.0" fill="#304863" transform="matrix(1.00, 0.00, -0.00, -1.00, 508.7, 99.4)">l</text><text xml:space="preserve" font-family="HelveticaNeue,Helvetica Neue" font-size="36.0" fill="#304863" transform="matrix(1.00, 0.00, -0.00, -1.00, 516.7, 99.4)">i</text><text xml:space="preserve" font-family="HelveticaNeue,Helvetica Neue" font-size="36.0" fill="#304863" transform="matrix(1.00, 0.00, -0.00, -1.00, 524.7, 99.4)">n</text><text xml:space="preserve" font-family="HelveticaNeue,Helvetica Neue" font-size="36.0" fill="#304863" transform="matrix(1.00, 0.00, -0.00, -1.00, 544.7, 99.4)">e</text></g></g></g></g><g><clipPath id="clip0x7fda07d844b0"><path d="M 9.5 521.5 L 1013.5 521.5 L 1013.5 66.1 L 9.5 66.1 Z M 9.5 521.5 "></path></clipPath><g clip-path="url(#clip0x7fda07d844b0)"><g><clipPath id="clip0x7fda07d84c10"><path d="M 619.1 67.1 L 1012.5 67.1 L 1012.5 158.7 L 619.1 158.7 Z M 619.1 67.1 "></path></clipPath><g clip-path="url(#clip0x7fda07d84c10)"><text xml:space="preserve" font-family="HelveticaNeue,Helvetica Neue" font-size="36.0" fill="#304863" transform="matrix(1.00, 0.00, -0.00, -1.00, 681.4, 99.4)">s</text><text xml:space="preserve" font-family="HelveticaNeue,Helvetica Neue" font-size="36.0" fill="#304863" transform="matrix(1.00, 0.00, -0.00, -1.00, 699.4, 99.4)">e</text><text xml:space="preserve" font-family="HelveticaNeue,Helvetica Neue" font-size="36.0" fill="#304863" transform="matrix(1.00, 0.00, -0.00, -1.00, 718.8, 99.4)">t</text><text xml:space="preserve" font-family="HelveticaNeue,Helvetica Neue" font-size="36.0" fill="#304863" transform="matrix(1.00, 0.00, -0.00, -1.00, 730.1, 99.4)"> </text><text xml:space="preserve" font-family="HelveticaNeue,Helvetica Neue" font-size="36.0" fill="#304863" transform="matrix(1.00, 0.00, -0.00, -1.00, 740.1, 99.4)">a</text><text xml:space="preserve" font-family="HelveticaNeue,Helvetica Neue" font-size="36.0" fill="#304863" transform="matrix(1.00, 0.00, -0.00, -1.00, 759.5, 99.4)">p</text><text xml:space="preserve" font-family="HelveticaNeue,Helvetica Neue" font-size="36.0" fill="#304863" transform="matrix(1.00, 0.00, -0.00, -1.00, 780.8, 99.4)">p</text><text xml:space="preserve" font-family="HelveticaNeue,Helvetica Neue" font-size="36.0" fill="#304863" transform="matrix(1.00, 0.00, -0.00, -1.00, 802.2, 99.4)"> </text><text xml:space="preserve" font-family="HelveticaNeue,Helvetica Neue" font-size="36.0" fill="#304863" transform="matrix(1.00, 0.00, -0.00, -1.00, 812.2, 99.4)">t</text><text xml:space="preserve" font-family="HelveticaNeue,Helvetica Neue" font-size="36.0" fill="#304863" transform="matrix(1.00, 0.00, -0.00, -1.00, 823.5, 99.4)">o</text><text xml:space="preserve" font-family="HelveticaNeue,Helvetica Neue" font-size="36.0" fill="#304863" transform="matrix(1.00, 0.00, -0.00, -1.00, 844.2, 99.4)"> </text><text xml:space="preserve" font-family="HelveticaNeue,Helvetica Neue" font-size="36.0" fill="#304863" transform="matrix(1.00, 0.00, -0.00, -1.00, 854.2, 99.4)">o</text><text xml:space="preserve" font-family="HelveticaNeue,Helvetica Neue" font-size="36.0" fill="#304863" transform="matrix(1.00, 0.00, -0.00, -1.00, 874.8, 99.4)">n</text><text xml:space="preserve" font-family="HelveticaNeue,Helvetica Neue" font-size="36.0" fill="#304863" transform="matrix(1.00, 0.00, -0.00, -1.00, 894.9, 99.4)">l</text><text xml:space="preserve" font-family="HelveticaNeue,Helvetica Neue" font-size="36.0" fill="#304863" transform="matrix(1.00, 0.00, -0.00, -1.00, 902.8, 99.4)">i</text><text xml:space="preserve" font-family="HelveticaNeue,Helvetica Neue" font-size="36.0" fill="#304863" transform="matrix(1.00, 0.00, -0.00, -1.00, 910.8, 99.4)">n</text><text xml:space="preserve" font-family="HelveticaNeue,Helvetica Neue" font-size="36.0" fill="#304863" transform="matrix(1.00, 0.00, -0.00, -1.00, 930.9, 99.4)">e</text></g></g></g></g><g><clipPath id="clip0x7fda07d8bfb0"><path d="M 9.5 521.5 L 1013.5 521.5 L 1013.5 66.1 L 9.5 66.1 Z M 9.5 521.5 "></path></clipPath><g clip-path="url(#clip0x7fda07d8bfb0)"><path d="M 272.8 1.5 L 272.8 456.9 " fill="none" stroke="#7695B5" stroke-width="1.00" transform="matrix(1.00, 0.00, 0.00, -1.00, 8.0, 523.0)"></path><path d="M 610.6 1.5 L 610.6 456.9 " fill="none" stroke="#7695B5" stroke-width="1.00" transform="matrix(1.00, 0.00, 0.00, -1.00, 8.0, 523.0)"></path><path d="M 1.5 104.5 L 1005.5 104.5 " fill="none" stroke="#7695B5" stroke-width="1.00" transform="matrix(1.00, 0.00, 0.00, -1.00, 8.0, 523.0)"></path><path d="M 272.3 184.0 L 1005.5 184.0 " fill="none" stroke="#7695B5" stroke-width="1.00" transform="matrix(1.00, 0.00, 0.00, -1.00, 8.0, 523.0)"></path><path d="M 1.5 276.0 L 1005.5 276.0 " fill="none" stroke="#7695B5" stroke-width="1.00" transform="matrix(1.00, 0.00, 0.00, -1.00, 8.0, 523.0)"></path><path d="M 272.3 363.8 L 1005.5 363.8 " fill="none" stroke="#7494B3" stroke-width="1.00" transform="matrix(1.00, 0.00, 0.00, -1.00, 8.0, 523.0)"></path><path d="M 2.0 1.5 L 2.0 456.9 " fill="none" stroke="#000000" stroke-width="1.00" transform="matrix(1.00, 0.00, 0.00, -1.00, 8.0, 523.0)"></path><path d="M 1005.0 1.5 L 1005.0 456.9 " fill="none" stroke="#000000" stroke-width="1.00" transform="matrix(1.00, 0.00, 0.00, -1.00, 8.0, 523.0)"></path><path d="M 1.5 2.0 L 1005.5 2.0 " fill="none" stroke="#000000" stroke-width="1.00" transform="matrix(1.00, 0.00, 0.00, -1.00, 8.0, 523.0)"></path><path d="M 1.5 456.4 L 1005.5 456.4 " fill="none" stroke="#000000" stroke-width="1.00" transform="matrix(1.00, 0.00, 0.00, -1.00, 8.0, 523.0)"></path></g></g><image xlink:href="../../AAC7335D-ACA8-4CD0-A874-E18A9D917A19/assets/C4116851A9993E3DB47F28402742CA52.png" width="275.00" height="194.00" transform="matrix(1.00, 0.00, -0.00, -1.00, 7.0, 768.0)"></image></g></svg>