<?xml version="1.0" encoding="UTF-8" standalone="no"?><svg xmlns="http://www.w3.org/2000/svg" xmlns:xlink="http://www.w3.org/1999/xlink" clip-rule="evenodd" stroke-miterlimit="10" viewBox="0 0 854 341"><desc>SVG generated by Keynote</desc><defs></defs><g transform="matrix(1.00, 0.00, -0.00, -1.00, 0.0, 341.0)"><text xml:space="preserve" font-family="HelveticaNeue,Helvetica Neue" font-size="96.0" fill="#304863" transform="matrix(1.00, 0.00, -0.00, -1.00, -4.8, 249.3)">R</text><text xml:space="preserve" font-family="HelveticaNeue,Helvetica Neue" font-size="96.0" fill="#304863" transform="matrix(1.00, 0.00, -0.00, -1.00, 60.9, 249.3)">e</text><text xml:space="preserve" font-family="HelveticaNeue,Helvetica Neue" font-size="96.0" fill="#304863" transform="matrix(1.00, 0.00, -0.00, -1.00, 112.5, 249.3)">a</text><text xml:space="preserve" font-family="HelveticaNeue,Helvetica Neue" font-size="96.0" fill="#304863" transform="matrix(1.00, 0.00, -0.00, -1.00, 164.0, 249.3)">c</text><text xml:space="preserve" font-family="HelveticaNeue,Helvetica Neue" font-size="96.0" fill="#304863" transform="matrix(1.00, 0.00, -0.00, -1.00, 215.6, 249.3)">t</text><text xml:space="preserve" font-family="HelveticaNeue,Helvetica Neue" font-size="96.0" fill="#304863" transform="matrix(1.00, 0.00, -0.00, -1.00, 245.8, 249.3)">s</text><text xml:space="preserve" font-family="HelveticaNeue,Helvetica Neue" font-size="96.0" fill="#304863" transform="matrix(1.00, 0.00, -0.00, -1.00, 293.8, 249.3)"> </text><text xml:space="preserve" font-family="HelveticaNeue,Helvetica Neue" font-size="96.0" fill="#304863" transform="matrix(1.00, 0.00, -0.00, -1.00, 320.5, 249.3)">d</text><text xml:space="preserve" font-family="HelveticaNeue,Helvetica Neue" font-size="96.0" fill="#304863" transform="matrix(1.00, 0.00, -0.00, -1.00, 377.4, 249.3)">i</text><text xml:space="preserve" font-family="HelveticaNeue,Helvetica Neue" font-size="96.0" fill="#304863" transform="matrix(1.00, 0.00, -0.00, -1.00, 398.7, 249.3)">ﬀ</text><text xml:space="preserve" font-family="HelveticaNeue,Helvetica Neue" font-size="96.0" fill="#304863" transform="matrix(1.00, 0.00, -0.00, -1.00, 454.1, 249.3)">e</text><text xml:space="preserve" font-family="HelveticaNeue,Helvetica Neue" font-size="96.0" fill="#304863" transform="matrix(1.00, 0.00, -0.00, -1.00, 505.7, 249.3)">r</text><text xml:space="preserve" font-family="HelveticaNeue,Helvetica Neue" font-size="96.0" fill="#304863" transform="matrix(1.00, 0.00, -0.00, -1.00, 535.9, 249.3)">e</text><text xml:space="preserve" font-family="HelveticaNeue,Helvetica Neue" font-size="96.0" fill="#304863" transform="matrix(1.00, 0.00, -0.00, -1.00, 587.5, 249.3)">n</text><text xml:space="preserve" font-family="HelveticaNeue,Helvetica Neue" font-size="96.0" fill="#304863" transform="matrix(1.00, 0.00, -0.00, -1.00, 640.8, 249.3)">t</text><text xml:space="preserve" font-family="HelveticaNeue,Helvetica Neue" font-size="96.0" fill="#304863" transform="matrix(1.00, 0.00, -0.00, -1.00, 671.1, 249.3)">l</text><text xml:space="preserve" font-family="HelveticaNeue,Helvetica Neue" font-size="96.0" fill="#304863" transform="matrix(1.00, 0.00, -0.00, -1.00, 692.4, 249.3)">y</text><text xml:space="preserve" font-family="HelveticaNeue,Helvetica Neue" font-size="96.0" fill="#304863" transform="matrix(1.00, 0.00, -0.00, -1.00, 740.4, 249.3)"> </text><text xml:space="preserve" font-family="HelveticaNeue,Helvetica Neue" font-size="96.0" fill="#304863" transform="matrix(1.00, 0.00, -0.00, -1.00, 767.1, 249.3)">t</text><text xml:space="preserve" font-family="HelveticaNeue,Helvetica Neue" font-size="96.0" fill="#304863" transform="matrix(1.00, 0.00, -0.00, -1.00, 797.3, 249.3)">o</text><text xml:space="preserve" font-family="HelveticaNeue,Helvetica Neue" font-size="96.0" fill="#304863" transform="matrix(1.00, 0.00, -0.00, -1.00, 852.4, 249.3)"> </text><g><clipPath id="clip0x7fda07587f30"><path d="M 319.5 236.3 L 740.4 236.3 L 740.4 243.1 L 319.5 243.1 Z M 319.5 236.3 "></path></clipPath><g clip-path="url(#clip0x7fda07587f30)"><path d="M 341.7 105.5 L 761.6 105.5 " fill="none" stroke="#304863" stroke-width="4.80" transform="matrix(1.00, 0.00, 0.00, -1.00, -21.2, 345.2)"></path></g></g><text xml:space="preserve" font-family="HelveticaNeue,Helvetica Neue" font-size="96.0" fill="#304863" transform="matrix(1.00, 0.00, -0.00, -1.00, 105.4, 135.3)">t</text><text xml:space="preserve" font-family="HelveticaNeue,Helvetica Neue" font-size="96.0" fill="#304863" transform="matrix(1.00, 0.00, -0.00, -1.00, 135.6, 135.3)">h</text><text xml:space="preserve" font-family="HelveticaNeue,Helvetica Neue" font-size="96.0" fill="#304863" transform="matrix(1.00, 0.00, -0.00, -1.00, 189.0, 135.3)">e</text><text xml:space="preserve" font-family="HelveticaNeue,Helvetica Neue" font-size="96.0" fill="#304863" transform="matrix(1.00, 0.00, -0.00, -1.00, 240.6, 135.3)"> </text><text xml:space="preserve" font-family="HelveticaNeue,Helvetica Neue" font-size="96.0" fill="#304863" transform="matrix(1.00, 0.00, -0.00, -1.00, 267.3, 135.3)">s</text><text xml:space="preserve" font-family="HelveticaNeue,Helvetica Neue" font-size="96.0" fill="#304863" transform="matrix(1.00, 0.00, -0.00, -1.00, 315.3, 135.3)">a</text><text xml:space="preserve" font-family="HelveticaNeue,Helvetica Neue" font-size="96.0" fill="#304863" transform="matrix(1.00, 0.00, -0.00, -1.00, 366.8, 135.3)">m</text><text xml:space="preserve" font-family="HelveticaNeue,Helvetica Neue" font-size="96.0" fill="#304863" transform="matrix(1.00, 0.00, -0.00, -1.00, 448.7, 135.3)">e</text><text xml:space="preserve" font-family="HelveticaNeue,Helvetica Neue" font-size="96.0" fill="#304863" transform="matrix(1.00, 0.00, -0.00, -1.00, 500.3, 135.3)"> </text><text xml:space="preserve" font-family="HelveticaNeue,Helvetica Neue" font-size="96.0" fill="#304863" transform="matrix(1.00, 0.00, -0.00, -1.00, 526.9, 135.3)">i</text><text xml:space="preserve" font-family="HelveticaNeue,Helvetica Neue" font-size="96.0" fill="#304863" transform="matrix(1.00, 0.00, -0.00, -1.00, 548.3, 135.3)">n</text><text xml:space="preserve" font-family="HelveticaNeue,Helvetica Neue" font-size="96.0" fill="#304863" transform="matrix(1.00, 0.00, -0.00, -1.00, 601.6, 135.3)">p</text><text xml:space="preserve" font-family="HelveticaNeue,Helvetica Neue" font-size="96.0" fill="#304863" transform="matrix(1.00, 0.00, -0.00, -1.00, 658.6, 135.3)">u</text><text xml:space="preserve" font-family="HelveticaNeue,Helvetica Neue" font-size="96.0" fill="#304863" transform="matrix(1.00, 0.00, -0.00, -1.00, 711.9, 135.3)">t</text><text xml:space="preserve" font-family="HelveticaNeue,Helvetica Neue" font-size="96.0" fill="#304863" transform="matrix(1.00, 0.00, -0.00, -1.00, 742.2, 135.3)"> </text><g><clipPath id="clip0x7fda0758f8e0"><path d="M 266.3 122.3 L 500.3 122.3 L 500.3 129.1 L 266.3 129.1 Z M 266.3 122.3 "></path></clipPath><g clip-path="url(#clip0x7fda0758f8e0)"><path d="M 288.5 219.5 L 521.5 219.5 " fill="none" stroke="#304863" stroke-width="4.80" transform="matrix(1.00, 0.00, 0.00, -1.00, -21.2, 345.2)"></path></g></g><text xml:space="preserve" font-family="HelveticaNeue,Helvetica Neue" font-size="96.0" fill="#304863" transform="matrix(1.00, 0.00, -0.00, -1.00, 8.5, 21.3)">d</text><text xml:space="preserve" font-family="HelveticaNeue,Helvetica Neue" font-size="96.0" fill="#304863" transform="matrix(1.00, 0.00, -0.00, -1.00, 65.5, 21.3)">e</text><text xml:space="preserve" font-family="HelveticaNeue,Helvetica Neue" font-size="96.0" fill="#304863" transform="matrix(1.00, 0.00, -0.00, -1.00, 117.0, 21.3)">p</text><text xml:space="preserve" font-family="HelveticaNeue,Helvetica Neue" font-size="96.0" fill="#304863" transform="matrix(1.00, 0.00, -0.00, -1.00, 174.0, 21.3)">e</text><text xml:space="preserve" font-family="HelveticaNeue,Helvetica Neue" font-size="96.0" fill="#304863" transform="matrix(1.00, 0.00, -0.00, -1.00, 225.5, 21.3)">n</text><text xml:space="preserve" font-family="HelveticaNeue,Helvetica Neue" font-size="96.0" fill="#304863" transform="matrix(1.00, 0.00, -0.00, -1.00, 278.9, 21.3)">d</text><text xml:space="preserve" font-family="HelveticaNeue,Helvetica Neue" font-size="96.0" fill="#304863" transform="matrix(1.00, 0.00, -0.00, -1.00, 335.8, 21.3)">i</text><text xml:space="preserve" font-family="HelveticaNeue,Helvetica Neue" font-size="96.0" fill="#304863" transform="matrix(1.00, 0.00, -0.00, -1.00, 357.1, 21.3)">n</text><text xml:space="preserve" font-family="HelveticaNeue,Helvetica Neue" font-size="96.0" fill="#304863" transform="matrix(1.00, 0.00, -0.00, -1.00, 410.5, 21.3)">g</text><text xml:space="preserve" font-family="HelveticaNeue,Helvetica Neue" font-size="96.0" fill="#304863" transform="matrix(1.00, 0.00, -0.00, -1.00, 465.6, 21.3)"> </text><text xml:space="preserve" font-family="HelveticaNeue,Helvetica Neue" font-size="96.0" fill="#304863" transform="matrix(1.00, 0.00, -0.00, -1.00, 492.3, 21.3)">o</text><text xml:space="preserve" font-family="HelveticaNeue,Helvetica Neue" font-size="96.0" fill="#304863" transform="matrix(1.00, 0.00, -0.00, -1.00, 547.4, 21.3)">n</text><text xml:space="preserve" font-family="HelveticaNeue,Helvetica Neue" font-size="96.0" fill="#304863" transform="matrix(1.00, 0.00, -0.00, -1.00, 600.8, 21.3)"> </text><text xml:space="preserve" font-family="HelveticaNeue,Helvetica Neue" font-size="96.0" fill="#304863" transform="matrix(1.00, 0.00, -0.00, -1.00, 627.5, 21.3)">s</text><text xml:space="preserve" font-family="HelveticaNeue,Helvetica Neue" font-size="96.0" fill="#304863" transform="matrix(1.00, 0.00, -0.00, -1.00, 675.5, 21.3)">t</text><text xml:space="preserve" font-family="HelveticaNeue,Helvetica Neue" font-size="96.0" fill="#304863" transform="matrix(1.00, 0.00, -0.00, -1.00, 705.7, 21.3)">a</text><text xml:space="preserve" font-family="HelveticaNeue,Helvetica Neue" font-size="96.0" fill="#304863" transform="matrix(1.00, 0.00, -0.00, -1.00, 757.2, 21.3)">t</text><text xml:space="preserve" font-family="HelveticaNeue,Helvetica Neue" font-size="96.0" fill="#304863" transform="matrix(1.00, 0.00, -0.00, -1.00, 787.5, 21.3)">e</text></g></svg>