<?xml version="1.0" encoding="UTF-8" standalone="no"?><svg xmlns="http://www.w3.org/2000/svg" xmlns:xlink="http://www.w3.org/1999/xlink" clip-rule="evenodd" stroke-miterlimit="10" viewBox="0 0 1024 768"><desc>SVG generated by Keynote</desc><defs></defs><g transform="matrix(1.00, 0.00, -0.00, -1.00, 0.0, 768.0)"><path d="M 0.0 768.0 L 1024.0 768.0 L 1024.0 0.0 L 0.0 0.0 Z M 0.0 768.0 " fill="#FDFEF7"></path><text xml:space="preserve" font-family="HelveticaNeue,Helvetica Neue" font-size="80.0" fill="#797979" transform="matrix(1.00, 0.00, -0.00, -1.00, 65.0, 472.1)">•</text><text xml:space="preserve" font-family="HelveticaNeue,Helvetica Neue" font-size="64.0" fill="#797979" transform="matrix(1.00, 0.00, -0.00, -1.00, 95.0, 477.4)">T</text><text xml:space="preserve" font-family="HelveticaNeue,Helvetica Neue" font-size="64.0" fill="#797979" transform="matrix(1.00, 0.00, -0.00, -1.00, 131.7, 477.4)">h</text><text xml:space="preserve" font-family="HelveticaNeue,Helvetica Neue" font-size="64.0" fill="#797979" transform="matrix(1.00, 0.00, -0.00, -1.00, 167.3, 477.4)">e</text><text xml:space="preserve" font-family="HelveticaNeue,Helvetica Neue" font-size="64.0" fill="#797979" transform="matrix(1.00, 0.00, -0.00, -1.00, 219.5, 477.4)">C</text><text xml:space="preserve" font-family="HelveticaNeue,Helvetica Neue" font-size="64.0" fill="#797979" transform="matrix(1.00, 0.00, -0.00, -1.00, 265.7, 477.4)">o</text><text xml:space="preserve" font-family="HelveticaNeue,Helvetica Neue" font-size="64.0" fill="#797979" transform="matrix(1.00, 0.00, -0.00, -1.00, 302.4, 477.4)">m</text><text xml:space="preserve" font-family="HelveticaNeue,Helvetica Neue" font-size="64.0" fill="#797979" transform="matrix(1.00, 0.00, -0.00, -1.00, 357.0, 477.4)">m</text><text xml:space="preserve" font-family="HelveticaNeue,Helvetica Neue" font-size="64.0" fill="#797979" transform="matrix(1.00, 0.00, -0.00, -1.00, 411.6, 477.4)">u</text><text xml:space="preserve" font-family="HelveticaNeue,Helvetica Neue" font-size="64.0" fill="#797979" transform="matrix(1.00, 0.00, -0.00, -1.00, 447.2, 477.4)">t</text><text xml:space="preserve" font-family="HelveticaNeue,Helvetica Neue" font-size="64.0" fill="#797979" transform="matrix(1.00, 0.00, -0.00, -1.00, 467.4, 477.4)">e</text><text xml:space="preserve" font-family="HelveticaNeue,Helvetica Neue" font-size="64.0" fill="#797979" transform="matrix(1.00, 0.00, -0.00, -1.00, 501.7, 477.4)">r</text><text xml:space="preserve" font-family="HelveticaNeue,Helvetica Neue" font-size="64.0" fill="#797979" transform="matrix(1.00, 0.00, -0.00, -1.00, 540.8, 477.4)">P</text><text xml:space="preserve" font-family="HelveticaNeue,Helvetica Neue" font-size="64.0" fill="#797979" transform="matrix(1.00, 0.00, -0.00, -1.00, 582.3, 477.4)">r</text><text xml:space="preserve" font-family="HelveticaNeue,Helvetica Neue" font-size="64.0" fill="#797979" transform="matrix(1.00, 0.00, -0.00, -1.00, 602.5, 477.4)">o</text><text xml:space="preserve" font-family="HelveticaNeue,Helvetica Neue" font-size="64.0" fill="#797979" transform="matrix(1.00, 0.00, -0.00, -1.00, 639.2, 477.4)">b</text><text xml:space="preserve" font-family="HelveticaNeue,Helvetica Neue" font-size="64.0" fill="#797979" transform="matrix(1.00, 0.00, -0.00, -1.00, 677.1, 477.4)">l</text><text xml:space="preserve" font-family="HelveticaNeue,Helvetica Neue" font-size="64.0" fill="#797979" transform="matrix(1.00, 0.00, -0.00, -1.00, 691.4, 477.4)">e</text><text xml:space="preserve" font-family="HelveticaNeue,Helvetica Neue" font-size="64.0" fill="#797979" transform="matrix(1.00, 0.00, -0.00, -1.00, 725.7, 477.4)">m</text><text xml:space="preserve" font-family="HelveticaNeue-Italic,Helvetica Neue" font-style="italic" font-size="64.0" fill="#304863" transform="matrix(1.00, 0.00, -0.00, -1.00, 256.3, 626.5)">B</text><text xml:space="preserve" font-family="HelveticaNeue-Italic,Helvetica Neue" font-style="italic" font-size="64.0" fill="#304863" transform="matrix(1.00, 0.00, -0.00, -1.00, 300.2, 626.5)">u</text><text xml:space="preserve" font-family="HelveticaNeue-Italic,Helvetica Neue" font-style="italic" font-size="64.0" fill="#304863" transform="matrix(1.00, 0.00, -0.00, -1.00, 335.8, 626.5)">t</text><text xml:space="preserve" font-family="HelveticaNeue-Italic,Helvetica Neue" font-style="italic" font-size="64.0" fill="#304863" transform="matrix(1.00, 0.00, -0.00, -1.00, 355.9, 626.5)"> </text><text xml:space="preserve" font-family="HelveticaNeue-Italic,Helvetica Neue" font-style="italic" font-size="64.0" fill="#304863" transform="matrix(1.00, 0.00, -0.00, -1.00, 373.7, 626.5)">W</text><text xml:space="preserve" font-family="HelveticaNeue-Italic,Helvetica Neue" font-style="italic" font-size="64.0" fill="#304863" transform="matrix(1.00, 0.00, -0.00, -1.00, 433.0, 626.5)">h</text><text xml:space="preserve" font-family="HelveticaNeue-Italic,Helvetica Neue" font-style="italic" font-size="64.0" fill="#304863" transform="matrix(1.00, 0.00, -0.00, -1.00, 468.6, 626.5)">a</text><text xml:space="preserve" font-family="HelveticaNeue-Italic,Helvetica Neue" font-style="italic" font-size="64.0" fill="#304863" transform="matrix(1.00, 0.00, -0.00, -1.00, 501.8, 626.5)">t</text><text xml:space="preserve" font-family="HelveticaNeue-Italic,Helvetica Neue" font-style="italic" font-size="64.0" fill="#304863" transform="matrix(1.00, 0.00, -0.00, -1.00, 521.9, 626.5)"> </text><text xml:space="preserve" font-family="HelveticaNeue-Italic,Helvetica Neue" font-style="italic" font-size="64.0" fill="#304863" transform="matrix(1.00, 0.00, -0.00, -1.00, 539.7, 626.5)">A</text><text xml:space="preserve" font-family="HelveticaNeue-Italic,Helvetica Neue" font-style="italic" font-size="64.0" fill="#304863" transform="matrix(1.00, 0.00, -0.00, -1.00, 582.4, 626.5)">b</text><text xml:space="preserve" font-family="HelveticaNeue-Italic,Helvetica Neue" font-style="italic" font-size="64.0" fill="#304863" transform="matrix(1.00, 0.00, -0.00, -1.00, 620.4, 626.5)">o</text><text xml:space="preserve" font-family="HelveticaNeue-Italic,Helvetica Neue" font-style="italic" font-size="64.0" fill="#304863" transform="matrix(1.00, 0.00, -0.00, -1.00, 657.1, 626.5)">u</text><text xml:space="preserve" font-family="HelveticaNeue-Italic,Helvetica Neue" font-style="italic" font-size="64.0" fill="#304863" transform="matrix(1.00, 0.00, -0.00, -1.00, 692.7, 626.5)">t</text><text xml:space="preserve" font-family="HelveticaNeue-Italic,Helvetica Neue" font-style="italic" font-size="64.0" fill="#304863" transform="matrix(1.00, 0.00, -0.00, -1.00, 712.9, 626.5)">.</text><text xml:space="preserve" font-family="HelveticaNeue-Italic,Helvetica Neue" font-style="italic" font-size="64.0" fill="#304863" transform="matrix(1.00, 0.00, -0.00, -1.00, 730.7, 626.5)">.</text><text xml:space="preserve" font-family="HelveticaNeue-Italic,Helvetica Neue" font-style="italic" font-size="64.0" fill="#304863" transform="matrix(1.00, 0.00, -0.00, -1.00, 748.4, 626.5)">.</text></g></svg>