<?xml version="1.0" encoding="UTF-8" standalone="no"?><svg xmlns="http://www.w3.org/2000/svg" xmlns:xlink="http://www.w3.org/1999/xlink" clip-rule="evenodd" stroke-miterlimit="10" viewBox="0 0 1024 768"><desc>SVG generated by Keynote</desc><defs></defs><g transform="matrix(1.00, 0.00, -0.00, -1.00, 0.0, 768.0)"><path d="M 0.0 768.0 L 1024.0 768.0 L 1024.0 0.0 L 0.0 0.0 Z M 0.0 768.0 " fill="#FDFEF7"></path><text xml:space="preserve" font-family="BebasNeue,Bebas Neue" font-size="78.0" fill="#5E5E5E" transform="matrix(1.00, 0.00, -0.00, -1.00, 28.0, 670.4)">O</text><text xml:space="preserve" font-family="BebasNeue,Bebas Neue" font-size="78.0" fill="#5E5E5E" transform="matrix(1.00, 0.00, -0.00, -1.00, 60.4, 670.4)">f</text><text xml:space="preserve" font-family="BebasNeue,Bebas Neue" font-size="78.0" fill="#5E5E5E" transform="matrix(1.00, 0.00, -0.00, -1.00, 88.8, 670.4)">f</text><text xml:space="preserve" font-family="BebasNeue,Bebas Neue" font-size="78.0" fill="#5E5E5E" transform="matrix(1.00, 0.00, -0.00, -1.00, 117.2, 670.4)">l</text><text xml:space="preserve" font-family="BebasNeue,Bebas Neue" font-size="78.0" fill="#5E5E5E" transform="matrix(1.00, 0.00, -0.00, -1.00, 145.2, 670.4)">i</text><text xml:space="preserve" font-family="BebasNeue,Bebas Neue" font-size="78.0" fill="#5E5E5E" transform="matrix(1.00, 0.00, -0.00, -1.00, 161.6, 670.4)">n</text><text xml:space="preserve" font-family="BebasNeue,Bebas Neue" font-size="78.0" fill="#5E5E5E" transform="matrix(1.00, 0.00, -0.00, -1.00, 196.5, 670.4)">e</text><text xml:space="preserve" font-family="BebasNeue,Bebas Neue" font-size="78.0" fill="#5E5E5E" transform="matrix(1.00, 0.00, -0.00, -1.00, 226.7, 670.4)"> </text><text xml:space="preserve" font-family="BebasNeue,Bebas Neue" font-size="78.0" fill="#6EB1D8" transform="matrix(1.00, 0.00, -0.00, -1.00, 240.4, 670.4)">S</text><text xml:space="preserve" font-family="BebasNeue,Bebas Neue" font-size="78.0" fill="#6EB1D8" transform="matrix(1.00, 0.00, -0.00, -1.00, 271.1, 670.4)">t</text><text xml:space="preserve" font-family="BebasNeue,Bebas Neue" font-size="78.0" fill="#6EB1D8" transform="matrix(1.00, 0.00, -0.00, -1.00, 297.5, 670.4)">a</text><text xml:space="preserve" font-family="BebasNeue,Bebas Neue" font-size="78.0" fill="#6EB1D8" transform="matrix(1.00, 0.00, -0.00, -1.00, 327.8, 670.4)">t</text><text xml:space="preserve" font-family="BebasNeue,Bebas Neue" font-size="78.0" fill="#6EB1D8" transform="matrix(1.00, 0.00, -0.00, -1.00, 357.2, 670.4)">e</text><text xml:space="preserve" font-family="BebasNeue,Bebas Neue" font-size="78.0" fill="#6EB1D8" transform="matrix(1.00, 0.00, -0.00, -1.00, 387.4, 670.4)"> </text><text xml:space="preserve" font-family="BebasNeue,Bebas Neue" font-size="78.0" fill="#6EB1D8" transform="matrix(1.00, 0.00, -0.00, -1.00, 401.1, 670.4)">I</text><text xml:space="preserve" font-family="BebasNeue,Bebas Neue" font-size="78.0" fill="#6EB1D8" transform="matrix(1.00, 0.00, -0.00, -1.00, 417.5, 670.4)">n</text><text xml:space="preserve" font-family="BebasNeue,Bebas Neue" font-size="78.0" fill="#6EB1D8" transform="matrix(1.00, 0.00, -0.00, -1.00, 452.3, 670.4)">p</text><text xml:space="preserve" font-family="BebasNeue,Bebas Neue" font-size="78.0" fill="#6EB1D8" transform="matrix(1.00, 0.00, -0.00, -1.00, 483.3, 670.4)">u</text><text xml:space="preserve" font-family="BebasNeue,Bebas Neue" font-size="78.0" fill="#6EB1D8" transform="matrix(1.00, 0.00, -0.00, -1.00, 515.9, 670.4)">t</text><text xml:space="preserve" font-family="BebasNeue,Bebas Neue" font-size="78.0" fill="#6EB1D8" transform="matrix(1.00, 0.00, -0.00, -1.00, 545.2, 670.4)"> </text><text xml:space="preserve" font-family="BebasNeue,Bebas Neue" font-size="78.0" fill="#6EB1D8" transform="matrix(1.00, 0.00, -0.00, -1.00, 558.9, 670.4)">&amp;</text><text xml:space="preserve" font-family="BebasNeue,Bebas Neue" font-size="78.0" fill="#6EB1D8" transform="matrix(1.00, 0.00, -0.00, -1.00, 592.7, 670.4)"> </text><text xml:space="preserve" font-family="BebasNeue,Bebas Neue" font-size="78.0" fill="#6EB1D8" transform="matrix(1.00, 0.00, -0.00, -1.00, 606.4, 670.4)">T</text><text xml:space="preserve" font-family="BebasNeue,Bebas Neue" font-size="78.0" fill="#6EB1D8" transform="matrix(1.00, 0.00, -0.00, -1.00, 635.7, 670.4)">r</text><text xml:space="preserve" font-family="BebasNeue,Bebas Neue" font-size="78.0" fill="#6EB1D8" transform="matrix(1.00, 0.00, -0.00, -1.00, 668.6, 670.4)">a</text><text xml:space="preserve" font-family="BebasNeue,Bebas Neue" font-size="78.0" fill="#6EB1D8" transform="matrix(1.00, 0.00, -0.00, -1.00, 701.9, 670.4)">n</text><text xml:space="preserve" font-family="BebasNeue,Bebas Neue" font-size="78.0" fill="#6EB1D8" transform="matrix(1.00, 0.00, -0.00, -1.00, 736.8, 670.4)">s</text><text xml:space="preserve" font-family="BebasNeue,Bebas Neue" font-size="78.0" fill="#6EB1D8" transform="matrix(1.00, 0.00, -0.00, -1.00, 767.5, 670.4)">i</text><text xml:space="preserve" font-family="BebasNeue,Bebas Neue" font-size="78.0" fill="#6EB1D8" transform="matrix(1.00, 0.00, -0.00, -1.00, 783.9, 670.4)">t</text><text xml:space="preserve" font-family="BebasNeue,Bebas Neue" font-size="78.0" fill="#6EB1D8" transform="matrix(1.00, 0.00, -0.00, -1.00, 813.2, 670.4)">i</text><text xml:space="preserve" font-family="BebasNeue,Bebas Neue" font-size="78.0" fill="#6EB1D8" transform="matrix(1.00, 0.00, -0.00, -1.00, 829.6, 670.4)">o</text><text xml:space="preserve" font-family="BebasNeue,Bebas Neue" font-size="78.0" fill="#6EB1D8" transform="matrix(1.00, 0.00, -0.00, -1.00, 862.1, 670.4)">n</text><text xml:space="preserve" font-family="BebasNeue,Bebas Neue" font-size="78.0" fill="#6EB1D8" transform="matrix(1.00, 0.00, -0.00, -1.00, 896.9, 670.4)">s</text><g><clipPath id="clip0x7fd9eab1e680"><path d="M 32.5 464.5 L 989.5 464.5 L 989.5 323.5 L 32.5 323.5 Z M 32.5 464.5 "></path></clipPath><g clip-path="url(#clip0x7fd9eab1e680)"><g><clipPath id="clip0x7fd9eab1ee20"><path d="M 33.5 374.6 L 224.7 374.6 L 224.7 463.5 L 33.5 463.5 Z M 33.5 374.6 "></path></clipPath><g clip-path="url(#clip0x7fd9eab1ee20)"><text xml:space="preserve" font-family="HelveticaNeue-Bold,Helvetica Neue" font-weight="bold" font-size="30.0" fill="#304863" transform="matrix(1.00, 0.00, -0.00, -1.00, 91.6, 407.9)">S</text><text xml:space="preserve" font-family="HelveticaNeue-Bold,Helvetica Neue" font-weight="bold" font-size="30.0" fill="#304863" transform="matrix(1.00, 0.00, -0.00, -1.00, 111.1, 407.9)">t</text><text xml:space="preserve" font-family="HelveticaNeue-Bold,Helvetica Neue" font-weight="bold" font-size="30.0" fill="#304863" transform="matrix(1.00, 0.00, -0.00, -1.00, 121.6, 407.9)">a</text><text xml:space="preserve" font-family="HelveticaNeue-Bold,Helvetica Neue" font-weight="bold" font-size="30.0" fill="#304863" transform="matrix(1.00, 0.00, -0.00, -1.00, 138.9, 407.9)">t</text><text xml:space="preserve" font-family="HelveticaNeue-Bold,Helvetica Neue" font-weight="bold" font-size="30.0" fill="#304863" transform="matrix(1.00, 0.00, -0.00, -1.00, 149.4, 407.9)">e</text></g></g></g></g><g><clipPath id="clip0x7fd9eab22990"><path d="M 32.5 464.5 L 989.5 464.5 L 989.5 323.5 L 32.5 323.5 Z M 32.5 464.5 "></path></clipPath><g clip-path="url(#clip0x7fd9eab22990)"><g><clipPath id="clip0x7fd9eab230f0"><path d="M 225.7 374.6 L 442.2 374.6 L 442.2 463.5 L 225.7 463.5 Z M 225.7 374.6 "></path></clipPath><g clip-path="url(#clip0x7fd9eab230f0)"><text xml:space="preserve" font-family="HelveticaNeue-Bold,Helvetica Neue" font-weight="bold" font-size="30.0" fill="#304863" transform="matrix(1.00, 0.00, -0.00, -1.00, 297.3, 407.9)">I</text><text xml:space="preserve" font-family="HelveticaNeue-Bold,Helvetica Neue" font-weight="bold" font-size="30.0" fill="#304863" transform="matrix(1.00, 0.00, -0.00, -1.00, 306.2, 407.9)">n</text><text xml:space="preserve" font-family="HelveticaNeue-Bold,Helvetica Neue" font-weight="bold" font-size="30.0" fill="#304863" transform="matrix(1.00, 0.00, -0.00, -1.00, 323.9, 407.9)">p</text><text xml:space="preserve" font-family="HelveticaNeue-Bold,Helvetica Neue" font-weight="bold" font-size="30.0" fill="#304863" transform="matrix(1.00, 0.00, -0.00, -1.00, 342.3, 407.9)">u</text><text xml:space="preserve" font-family="HelveticaNeue-Bold,Helvetica Neue" font-weight="bold" font-size="30.0" fill="#304863" transform="matrix(1.00, 0.00, -0.00, -1.00, 360.1, 407.9)">t</text></g></g></g></g><g><clipPath id="clip0x7fd9eab25e30"><path d="M 32.5 464.5 L 989.5 464.5 L 989.5 323.5 L 32.5 323.5 Z M 32.5 464.5 "></path></clipPath><g clip-path="url(#clip0x7fd9eab25e30)"><g><clipPath id="clip0x7fd9eab26590"><path d="M 443.2 374.6 L 633.3 374.6 L 633.3 463.5 L 443.2 463.5 Z M 443.2 374.6 "></path></clipPath><g clip-path="url(#clip0x7fd9eab26590)"><text xml:space="preserve" font-family="HelveticaNeue-Bold,Helvetica Neue" font-weight="bold" font-size="30.0" fill="#304863" transform="matrix(1.00, 0.00, -0.00, -1.00, 463.5, 407.9)">N</text><text xml:space="preserve" font-family="HelveticaNeue-Bold,Helvetica Neue" font-weight="bold" font-size="30.0" fill="#304863" transform="matrix(1.00, 0.00, -0.00, -1.00, 485.7, 407.9)">e</text><text xml:space="preserve" font-family="HelveticaNeue-Bold,Helvetica Neue" font-weight="bold" font-size="30.0" fill="#304863" transform="matrix(1.00, 0.00, -0.00, -1.00, 502.9, 407.9)">x</text><text xml:space="preserve" font-family="HelveticaNeue-Bold,Helvetica Neue" font-weight="bold" font-size="30.0" fill="#304863" transform="matrix(1.00, 0.00, -0.00, -1.00, 519.0, 407.9)">t</text><text xml:space="preserve" font-family="HelveticaNeue-Bold,Helvetica Neue" font-weight="bold" font-size="30.0" fill="#304863" transform="matrix(1.00, 0.00, -0.00, -1.00, 529.6, 407.9)"> </text><text xml:space="preserve" font-family="HelveticaNeue-Bold,Helvetica Neue" font-weight="bold" font-size="30.0" fill="#304863" transform="matrix(1.00, 0.00, -0.00, -1.00, 537.9, 407.9)">S</text><text xml:space="preserve" font-family="HelveticaNeue-Bold,Helvetica Neue" font-weight="bold" font-size="30.0" fill="#304863" transform="matrix(1.00, 0.00, -0.00, -1.00, 557.4, 407.9)">t</text><text xml:space="preserve" font-family="HelveticaNeue-Bold,Helvetica Neue" font-weight="bold" font-size="30.0" fill="#304863" transform="matrix(1.00, 0.00, -0.00, -1.00, 568.0, 407.9)">a</text><text xml:space="preserve" font-family="HelveticaNeue-Bold,Helvetica Neue" font-weight="bold" font-size="30.0" fill="#304863" transform="matrix(1.00, 0.00, -0.00, -1.00, 585.2, 407.9)">t</text><text xml:space="preserve" font-family="HelveticaNeue-Bold,Helvetica Neue" font-weight="bold" font-size="30.0" fill="#304863" transform="matrix(1.00, 0.00, -0.00, -1.00, 595.8, 407.9)">e</text></g></g></g></g><g><clipPath id="clip0x7fd9eab2b350"><path d="M 32.5 464.5 L 989.5 464.5 L 989.5 323.5 L 32.5 323.5 Z M 32.5 464.5 "></path></clipPath><g clip-path="url(#clip0x7fd9eab2b350)"><g><clipPath id="clip0x7fd9eab2bab0"><path d="M 634.3 374.6 L 988.5 374.6 L 988.5 463.5 L 634.3 463.5 Z M 634.3 374.6 "></path></clipPath><g clip-path="url(#clip0x7fd9eab2bab0)"><text xml:space="preserve" font-family="HelveticaNeue-Bold,Helvetica Neue" font-weight="bold" font-size="30.0" fill="#304863" transform="matrix(1.00, 0.00, -0.00, -1.00, 762.2, 407.9)">O</text><text xml:space="preserve" font-family="HelveticaNeue-Bold,Helvetica Neue" font-weight="bold" font-size="30.0" fill="#304863" transform="matrix(1.00, 0.00, -0.00, -1.00, 785.5, 407.9)">u</text><text xml:space="preserve" font-family="HelveticaNeue-Bold,Helvetica Neue" font-weight="bold" font-size="30.0" fill="#304863" transform="matrix(1.00, 0.00, -0.00, -1.00, 803.3, 407.9)">t</text><text xml:space="preserve" font-family="HelveticaNeue-Bold,Helvetica Neue" font-weight="bold" font-size="30.0" fill="#304863" transform="matrix(1.00, 0.00, -0.00, -1.00, 813.9, 407.9)">p</text><text xml:space="preserve" font-family="HelveticaNeue-Bold,Helvetica Neue" font-weight="bold" font-size="30.0" fill="#304863" transform="matrix(1.00, 0.00, -0.00, -1.00, 832.2, 407.9)">u</text><text xml:space="preserve" font-family="HelveticaNeue-Bold,Helvetica Neue" font-weight="bold" font-size="30.0" fill="#304863" transform="matrix(1.00, 0.00, -0.00, -1.00, 850.0, 407.9)">t</text></g></g></g></g><g><clipPath id="clip0x7fd9eab2ee80"><path d="M 32.5 464.5 L 989.5 464.5 L 989.5 323.5 L 32.5 323.5 Z M 32.5 464.5 "></path></clipPath><g clip-path="url(#clip0x7fd9eab2ee80)"><g><clipPath id="clip0x7fd9eab2f5e0"><path d="M 33.5 324.5 L 224.7 324.5 L 224.7 373.6 L 33.5 373.6 Z M 33.5 324.5 "></path></clipPath><g clip-path="url(#clip0x7fd9eab2f5e0)"><text xml:space="preserve" font-family="HelveticaNeue,Helvetica Neue" font-size="30.0" fill="#304863" transform="matrix(1.00, 0.00, -0.00, -1.00, 86.0, 337.8)">O</text><text xml:space="preserve" font-family="HelveticaNeue,Helvetica Neue" font-size="30.0" fill="#304863" transform="matrix(1.00, 0.00, -0.00, -1.00, 108.8, 337.8)">ﬄ</text><text xml:space="preserve" font-family="HelveticaNeue,Helvetica Neue" font-size="30.0" fill="#304863" transform="matrix(1.00, 0.00, -0.00, -1.00, 132.8, 337.8)">i</text><text xml:space="preserve" font-family="HelveticaNeue,Helvetica Neue" font-size="30.0" fill="#304863" transform="matrix(1.00, 0.00, -0.00, -1.00, 139.4, 337.8)">n</text><text xml:space="preserve" font-family="HelveticaNeue,Helvetica Neue" font-size="30.0" fill="#304863" transform="matrix(1.00, 0.00, -0.00, -1.00, 156.1, 337.8)">e</text></g></g></g></g><g><clipPath id="clip0x7fd9eab33b70"><path d="M 32.5 464.5 L 989.5 464.5 L 989.5 323.5 L 32.5 323.5 Z M 32.5 464.5 "></path></clipPath><g clip-path="url(#clip0x7fd9eab33b70)"><g><clipPath id="clip0x7fd9eab342d0"><path d="M 225.7 324.5 L 442.2 324.5 L 442.2 373.6 L 225.7 373.6 Z M 225.7 324.5 "></path></clipPath><g clip-path="url(#clip0x7fd9eab342d0)"><text xml:space="preserve" font-family="HelveticaNeue,Helvetica Neue" font-size="30.0" fill="#304863" transform="matrix(1.00, 0.00, -0.00, -1.00, 272.6, 337.8)">g</text><text xml:space="preserve" font-family="HelveticaNeue,Helvetica Neue" font-size="30.0" fill="#304863" transform="matrix(1.00, 0.00, -0.00, -1.00, 289.8, 337.8)">o</text><text xml:space="preserve" font-family="HelveticaNeue,Helvetica Neue" font-size="30.0" fill="#304863" transform="matrix(1.00, 0.00, -0.00, -1.00, 307.0, 337.8)">.</text><text xml:space="preserve" font-family="HelveticaNeue,Helvetica Neue" font-size="30.0" fill="#304863" transform="matrix(1.00, 0.00, -0.00, -1.00, 315.3, 337.8)">o</text><text xml:space="preserve" font-family="HelveticaNeue,Helvetica Neue" font-size="30.0" fill="#304863" transform="matrix(1.00, 0.00, -0.00, -1.00, 332.6, 337.8)">n</text><text xml:space="preserve" font-family="HelveticaNeue,Helvetica Neue" font-size="30.0" fill="#304863" transform="matrix(1.00, 0.00, -0.00, -1.00, 349.2, 337.8)">l</text><text xml:space="preserve" font-family="HelveticaNeue,Helvetica Neue" font-size="30.0" fill="#304863" transform="matrix(1.00, 0.00, -0.00, -1.00, 355.9, 337.8)">i</text><text xml:space="preserve" font-family="HelveticaNeue,Helvetica Neue" font-size="30.0" fill="#304863" transform="matrix(1.00, 0.00, -0.00, -1.00, 362.6, 337.8)">n</text><text xml:space="preserve" font-family="HelveticaNeue,Helvetica Neue" font-size="30.0" fill="#304863" transform="matrix(1.00, 0.00, -0.00, -1.00, 379.2, 337.8)">e</text></g></g></g></g><g><clipPath id="clip0x7fd9eab38730"><path d="M 32.5 464.5 L 989.5 464.5 L 989.5 323.5 L 32.5 323.5 Z M 32.5 464.5 "></path></clipPath><g clip-path="url(#clip0x7fd9eab38730)"><g><clipPath id="clip0x7fd9eab38e90"><path d="M 443.2 324.5 L 633.3 324.5 L 633.3 373.6 L 443.2 373.6 Z M 443.2 324.5 "></path></clipPath><g clip-path="url(#clip0x7fd9eab38e90)"><text xml:space="preserve" font-family="HelveticaNeue,Helvetica Neue" font-size="30.0" fill="#304863" transform="matrix(1.00, 0.00, -0.00, -1.00, 486.0, 337.8)">P</text><text xml:space="preserve" font-family="HelveticaNeue,Helvetica Neue" font-size="30.0" fill="#304863" transform="matrix(1.00, 0.00, -0.00, -1.00, 505.4, 337.8)">r</text><text xml:space="preserve" font-family="HelveticaNeue,Helvetica Neue" font-size="30.0" fill="#304863" transform="matrix(1.00, 0.00, -0.00, -1.00, 514.9, 337.8)">o</text><text xml:space="preserve" font-family="HelveticaNeue,Helvetica Neue" font-size="30.0" fill="#304863" transform="matrix(1.00, 0.00, -0.00, -1.00, 532.1, 337.8)">b</text><text xml:space="preserve" font-family="HelveticaNeue,Helvetica Neue" font-size="30.0" fill="#304863" transform="matrix(1.00, 0.00, -0.00, -1.00, 549.9, 337.8)">i</text><text xml:space="preserve" font-family="HelveticaNeue,Helvetica Neue" font-size="30.0" fill="#304863" transform="matrix(1.00, 0.00, -0.00, -1.00, 556.6, 337.8)">n</text><text xml:space="preserve" font-family="HelveticaNeue,Helvetica Neue" font-size="30.0" fill="#304863" transform="matrix(1.00, 0.00, -0.00, -1.00, 573.2, 337.8)">g</text></g></g></g></g><g><clipPath id="clip0x7fd9eab3c700"><path d="M 32.5 464.5 L 989.5 464.5 L 989.5 323.5 L 32.5 323.5 Z M 32.5 464.5 "></path></clipPath><g clip-path="url(#clip0x7fd9eab3c700)"><g><clipPath id="clip0x7fd9eab3ce50"><path d="M 634.3 324.5 L 988.5 324.5 L 988.5 373.6 L 634.3 373.6 Z M 634.3 324.5 "></path></clipPath><g clip-path="url(#clip0x7fd9eab3ce50)"><text xml:space="preserve" font-family="HelveticaNeue,Helvetica Neue" font-size="30.0" fill="#304863" transform="matrix(1.00, 0.00, -0.00, -1.00, 670.8, 337.8)">E</text><text xml:space="preserve" font-family="HelveticaNeue,Helvetica Neue" font-size="30.0" fill="#304863" transform="matrix(1.00, 0.00, -0.00, -1.00, 689.1, 337.8)">m</text><text xml:space="preserve" font-family="HelveticaNeue,Helvetica Neue" font-size="30.0" fill="#304863" transform="matrix(1.00, 0.00, -0.00, -1.00, 714.7, 337.8)">i</text><text xml:space="preserve" font-family="HelveticaNeue,Helvetica Neue" font-size="30.0" fill="#304863" transform="matrix(1.00, 0.00, -0.00, -1.00, 721.4, 337.8)">t</text><text xml:space="preserve" font-family="HelveticaNeue,Helvetica Neue" font-size="30.0" fill="#304863" transform="matrix(1.00, 0.00, -0.00, -1.00, 730.8, 337.8)"> </text><text xml:space="preserve" font-family="HelveticaNeue,Helvetica Neue" font-size="30.0" fill="#304863" transform="matrix(1.00, 0.00, -0.00, -1.00, 739.2, 337.8)">T</text><text xml:space="preserve" font-family="HelveticaNeue,Helvetica Neue" font-size="30.0" fill="#304863" transform="matrix(1.00, 0.00, -0.00, -1.00, 753.6, 337.8)">r</text><text xml:space="preserve" font-family="HelveticaNeue,Helvetica Neue" font-size="30.0" fill="#304863" transform="matrix(1.00, 0.00, -0.00, -1.00, 763.6, 337.8)">a</text><text xml:space="preserve" font-family="HelveticaNeue,Helvetica Neue" font-size="30.0" fill="#304863" transform="matrix(1.00, 0.00, -0.00, -1.00, 779.7, 337.8)">n</text><text xml:space="preserve" font-family="HelveticaNeue,Helvetica Neue" font-size="30.0" fill="#304863" transform="matrix(1.00, 0.00, -0.00, -1.00, 796.4, 337.8)">s</text><text xml:space="preserve" font-family="HelveticaNeue,Helvetica Neue" font-size="30.0" fill="#304863" transform="matrix(1.00, 0.00, -0.00, -1.00, 811.4, 337.8)">i</text><text xml:space="preserve" font-family="HelveticaNeue,Helvetica Neue" font-size="30.0" fill="#304863" transform="matrix(1.00, 0.00, -0.00, -1.00, 818.1, 337.8)">t</text><text xml:space="preserve" font-family="HelveticaNeue,Helvetica Neue" font-size="30.0" fill="#304863" transform="matrix(1.00, 0.00, -0.00, -1.00, 827.5, 337.8)">i</text><text xml:space="preserve" font-family="HelveticaNeue,Helvetica Neue" font-size="30.0" fill="#304863" transform="matrix(1.00, 0.00, -0.00, -1.00, 834.2, 337.8)">o</text><text xml:space="preserve" font-family="HelveticaNeue,Helvetica Neue" font-size="30.0" fill="#304863" transform="matrix(1.00, 0.00, -0.00, -1.00, 851.4, 337.8)">n</text><text xml:space="preserve" font-family="HelveticaNeue,Helvetica Neue" font-size="30.0" fill="#304863" transform="matrix(1.00, 0.00, -0.00, -1.00, 868.1, 337.8)"> </text><text xml:space="preserve" font-family="HelveticaNeue,Helvetica Neue" font-size="30.0" fill="#304863" transform="matrix(1.00, 0.00, -0.00, -1.00, 876.4, 337.8)">E</text><text xml:space="preserve" font-family="HelveticaNeue,Helvetica Neue" font-size="30.0" fill="#304863" transform="matrix(1.00, 0.00, -0.00, -1.00, 894.7, 337.8)">v</text><text xml:space="preserve" font-family="HelveticaNeue,Helvetica Neue" font-size="30.0" fill="#304863" transform="matrix(1.00, 0.00, -0.00, -1.00, 909.7, 337.8)">e</text><text xml:space="preserve" font-family="HelveticaNeue,Helvetica Neue" font-size="30.0" fill="#304863" transform="matrix(1.00, 0.00, -0.00, -1.00, 925.8, 337.8)">n</text><text xml:space="preserve" font-family="HelveticaNeue,Helvetica Neue" font-size="30.0" fill="#304863" transform="matrix(1.00, 0.00, -0.00, -1.00, 942.5, 337.8)">t</text></g></g></g></g><g><clipPath id="clip0x7fd9eab45d70"><path d="M 32.5 464.5 L 989.5 464.5 L 989.5 323.5 L 32.5 323.5 Z M 32.5 464.5 "></path></clipPath><g clip-path="url(#clip0x7fd9eab45d70)"><path d="M 194.2 1.5 L 194.2 142.5 " fill="none" stroke="#C0C0C0" stroke-width="1.00" transform="matrix(1.00, 0.00, 0.00, -1.00, 31.0, 466.0)"></path><path d="M 411.7 1.5 L 411.7 142.5 " fill="none" stroke="#C0C0C0" stroke-width="1.00" transform="matrix(1.00, 0.00, 0.00, -1.00, 31.0, 466.0)"></path><path d="M 602.8 1.5 L 602.8 142.5 " fill="none" stroke="#C0C0C0" stroke-width="1.00" transform="matrix(1.00, 0.00, 0.00, -1.00, 31.0, 466.0)"></path><path d="M 1.5 91.9 L 958.5 91.9 " fill="none" stroke="#C0C0C0" stroke-width="1.00" transform="matrix(1.00, 0.00, 0.00, -1.00, 31.0, 466.0)"></path><path d="M 2.0 1.5 L 2.0 142.5 " fill="none" stroke="#C0C0C0" stroke-width="1.00" transform="matrix(1.00, 0.00, 0.00, -1.00, 31.0, 466.0)"></path><path d="M 958.0 1.5 L 958.0 142.5 " fill="none" stroke="#C0C0C0" stroke-width="1.00" transform="matrix(1.00, 0.00, 0.00, -1.00, 31.0, 466.0)"></path><path d="M 1.5 2.0 L 958.5 2.0 " fill="none" stroke="#C0C0C0" stroke-width="1.00" transform="matrix(1.00, 0.00, 0.00, -1.00, 31.0, 466.0)"></path><path d="M 1.5 142.0 L 958.5 142.0 " fill="none" stroke="#C0C0C0" stroke-width="1.00" transform="matrix(1.00, 0.00, 0.00, -1.00, 31.0, 466.0)"></path></g></g></g></svg>