<?xml version="1.0" encoding="UTF-8" standalone="no"?><svg xmlns="http://www.w3.org/2000/svg" xmlns:xlink="http://www.w3.org/1999/xlink" clip-rule="evenodd" stroke-miterlimit="10" viewBox="0 0 1024 768"><desc>SVG generated by Keynote</desc><defs></defs><g transform="matrix(1.00, 0.00, -0.00, -1.00, 0.0, 768.0)"><path d="M 0.0 768.0 L 1024.0 768.0 L 1024.0 0.0 L 0.0 0.0 Z M 0.0 768.0 " fill="#FDFEF7"></path><text xml:space="preserve" font-family="BebasNeue,Bebas Neue" font-size="78.0" fill="#5E5E5E" transform="matrix(1.00, 0.00, -0.00, -1.00, 28.0, 670.4)">W</text><text xml:space="preserve" font-family="BebasNeue,Bebas Neue" font-size="78.0" fill="#5E5E5E" transform="matrix(1.00, 0.00, -0.00, -1.00, 73.5, 670.4)">h</text><text xml:space="preserve" font-family="BebasNeue,Bebas Neue" font-size="78.0" fill="#5E5E5E" transform="matrix(1.00, 0.00, -0.00, -1.00, 108.3, 670.4)">y</text><text xml:space="preserve" font-family="BebasNeue,Bebas Neue" font-size="78.0" fill="#5E5E5E" transform="matrix(1.00, 0.00, -0.00, -1.00, 140.8, 670.4)"> </text><text xml:space="preserve" font-family="BebasNeue,Bebas Neue" font-size="78.0" fill="#6EB1D8" transform="matrix(1.00, 0.00, -0.00, -1.00, 154.4, 670.4)">A</text><text xml:space="preserve" font-family="BebasNeue,Bebas Neue" font-size="78.0" fill="#6EB1D8" transform="matrix(1.00, 0.00, -0.00, -1.00, 187.7, 670.4)">r</text><text xml:space="preserve" font-family="BebasNeue,Bebas Neue" font-size="78.0" fill="#6EB1D8" transform="matrix(1.00, 0.00, -0.00, -1.00, 220.7, 670.4)">e</text><text xml:space="preserve" font-family="BebasNeue,Bebas Neue" font-size="78.0" fill="#6EB1D8" transform="matrix(1.00, 0.00, -0.00, -1.00, 250.9, 670.4)"> </text><text xml:space="preserve" font-family="BebasNeue,Bebas Neue" font-size="78.0" fill="#6EB1D8" transform="matrix(1.00, 0.00, -0.00, -1.00, 264.6, 670.4)">W</text><text xml:space="preserve" font-family="BebasNeue,Bebas Neue" font-size="78.0" fill="#6EB1D8" transform="matrix(1.00, 0.00, -0.00, -1.00, 310.0, 670.4)">e</text><text xml:space="preserve" font-family="BebasNeue,Bebas Neue" font-size="78.0" fill="#6EB1D8" transform="matrix(1.00, 0.00, -0.00, -1.00, 340.3, 670.4)"> </text><text xml:space="preserve" font-family="BebasNeue,Bebas Neue" font-size="78.0" fill="#6EB1D8" transform="matrix(1.00, 0.00, -0.00, -1.00, 354.0, 670.4)">h</text><text xml:space="preserve" font-family="BebasNeue,Bebas Neue" font-size="78.0" fill="#6EB1D8" transform="matrix(1.00, 0.00, -0.00, -1.00, 388.8, 670.4)">e</text><text xml:space="preserve" font-family="BebasNeue,Bebas Neue" font-size="78.0" fill="#6EB1D8" transform="matrix(1.00, 0.00, -0.00, -1.00, 419.1, 670.4)">r</text><text xml:space="preserve" font-family="BebasNeue,Bebas Neue" font-size="78.0" fill="#6EB1D8" transform="matrix(1.00, 0.00, -0.00, -1.00, 452.0, 670.4)">e</text><text xml:space="preserve" font-family="BebasNeue,Bebas Neue" font-size="78.0" fill="#6EB1D8" transform="matrix(1.00, 0.00, -0.00, -1.00, 482.3, 670.4)">?</text><text xml:space="preserve" font-family="HelveticaNeue,Helvetica Neue" font-size="60.0" fill="#797979" transform="matrix(1.00, 0.00, -0.00, -1.00, 50.0, 562.8)">•</text><text xml:space="preserve" font-family="HelveticaNeue,Helvetica Neue" font-size="48.0" fill="#797979" transform="matrix(1.00, 0.00, -0.00, -1.00, 71.0, 567.6)">M</text><text xml:space="preserve" font-family="HelveticaNeue,Helvetica Neue" font-size="48.0" fill="#797979" transform="matrix(1.00, 0.00, -0.00, -1.00, 112.8, 567.6)">a</text><text xml:space="preserve" font-family="HelveticaNeue,Helvetica Neue" font-size="48.0" fill="#797979" transform="matrix(1.00, 0.00, -0.00, -1.00, 138.6, 567.6)">n</text><text xml:space="preserve" font-family="HelveticaNeue,Helvetica Neue" font-size="48.0" fill="#797979" transform="matrix(1.00, 0.00, -0.00, -1.00, 165.3, 567.6)">a</text><text xml:space="preserve" font-family="HelveticaNeue,Helvetica Neue" font-size="48.0" fill="#797979" transform="matrix(1.00, 0.00, -0.00, -1.00, 191.0, 567.6)">g</text><text xml:space="preserve" font-family="HelveticaNeue,Helvetica Neue" font-size="48.0" fill="#797979" transform="matrix(1.00, 0.00, -0.00, -1.00, 218.6, 567.6)">i</text><text xml:space="preserve" font-family="HelveticaNeue,Helvetica Neue" font-size="48.0" fill="#797979" transform="matrix(1.00, 0.00, -0.00, -1.00, 229.3, 567.6)">n</text><text xml:space="preserve" font-family="HelveticaNeue,Helvetica Neue" font-size="48.0" fill="#797979" transform="matrix(1.00, 0.00, -0.00, -1.00, 255.9, 567.6)">g</text><text xml:space="preserve" font-family="HelveticaNeue,Helvetica Neue" font-size="48.0" fill="#797979" transform="matrix(1.00, 0.00, -0.00, -1.00, 283.5, 567.6)"> </text><text xml:space="preserve" font-family="HelveticaNeue,Helvetica Neue" font-size="48.0" fill="#797979" transform="matrix(1.00, 0.00, -0.00, -1.00, 296.8, 567.6)">o</text><text xml:space="preserve" font-family="HelveticaNeue,Helvetica Neue" font-size="48.0" fill="#797979" transform="matrix(1.00, 0.00, -0.00, -1.00, 324.4, 567.6)">n</text><text xml:space="preserve" font-family="HelveticaNeue,Helvetica Neue" font-size="48.0" fill="#797979" transform="matrix(1.00, 0.00, -0.00, -1.00, 351.1, 567.6)">l</text><text xml:space="preserve" font-family="HelveticaNeue,Helvetica Neue" font-size="48.0" fill="#797979" transform="matrix(1.00, 0.00, -0.00, -1.00, 361.7, 567.6)">i</text><text xml:space="preserve" font-family="HelveticaNeue,Helvetica Neue" font-size="48.0" fill="#797979" transform="matrix(1.00, 0.00, -0.00, -1.00, 372.4, 567.6)">n</text><text xml:space="preserve" font-family="HelveticaNeue,Helvetica Neue" font-size="48.0" fill="#797979" transform="matrix(1.00, 0.00, -0.00, -1.00, 399.1, 567.6)">e</text><text xml:space="preserve" font-family="HelveticaNeue,Helvetica Neue" font-size="48.0" fill="#797979" transform="matrix(1.00, 0.00, -0.00, -1.00, 424.9, 567.6)">/</text><text xml:space="preserve" font-family="HelveticaNeue,Helvetica Neue" font-size="48.0" fill="#797979" transform="matrix(1.00, 0.00, -0.00, -1.00, 440.8, 567.6)">o</text><text xml:space="preserve" font-family="HelveticaNeue,Helvetica Neue" font-size="48.0" fill="#797979" transform="matrix(1.00, 0.00, -0.00, -1.00, 468.4, 567.6)">ﬄ</text><text xml:space="preserve" font-family="HelveticaNeue,Helvetica Neue" font-size="48.0" fill="#797979" transform="matrix(1.00, 0.00, -0.00, -1.00, 506.7, 567.6)">i</text><text xml:space="preserve" font-family="HelveticaNeue,Helvetica Neue" font-size="48.0" fill="#797979" transform="matrix(1.00, 0.00, -0.00, -1.00, 517.4, 567.6)">n</text><text xml:space="preserve" font-family="HelveticaNeue,Helvetica Neue" font-size="48.0" fill="#797979" transform="matrix(1.00, 0.00, -0.00, -1.00, 544.1, 567.6)">e</text><text xml:space="preserve" font-family="HelveticaNeue,Helvetica Neue" font-size="48.0" fill="#797979" transform="matrix(1.00, 0.00, -0.00, -1.00, 569.9, 567.6)"> </text><text xml:space="preserve" font-family="HelveticaNeue,Helvetica Neue" font-size="48.0" fill="#797979" transform="matrix(1.00, 0.00, -0.00, -1.00, 583.2, 567.6)">i</text><text xml:space="preserve" font-family="HelveticaNeue,Helvetica Neue" font-size="48.0" fill="#797979" transform="matrix(1.00, 0.00, -0.00, -1.00, 593.9, 567.6)">n</text><text xml:space="preserve" font-family="HelveticaNeue,Helvetica Neue" font-size="48.0" fill="#797979" transform="matrix(1.00, 0.00, -0.00, -1.00, 620.6, 567.6)"> </text><text xml:space="preserve" font-family="HelveticaNeue,Helvetica Neue" font-size="48.0" fill="#797979" transform="matrix(1.00, 0.00, -0.00, -1.00, 633.9, 567.6)">w</text><text xml:space="preserve" font-family="HelveticaNeue,Helvetica Neue" font-size="48.0" fill="#797979" transform="matrix(1.00, 0.00, -0.00, -1.00, 670.3, 567.6)">e</text><text xml:space="preserve" font-family="HelveticaNeue,Helvetica Neue" font-size="48.0" fill="#797979" transform="matrix(1.00, 0.00, -0.00, -1.00, 696.1, 567.6)">b</text><text xml:space="preserve" font-family="HelveticaNeue,Helvetica Neue" font-size="48.0" fill="#797979" transform="matrix(1.00, 0.00, -0.00, -1.00, 724.5, 567.6)"> </text><text xml:space="preserve" font-family="HelveticaNeue,Helvetica Neue" font-size="48.0" fill="#797979" transform="matrix(1.00, 0.00, -0.00, -1.00, 737.9, 567.6)">&amp;</text><text xml:space="preserve" font-family="HelveticaNeue,Helvetica Neue" font-size="48.0" fill="#797979" transform="matrix(1.00, 0.00, -0.00, -1.00, 768.1, 567.6)"> </text><text xml:space="preserve" font-family="HelveticaNeue,Helvetica Neue" font-size="48.0" fill="#797979" transform="matrix(1.00, 0.00, -0.00, -1.00, 781.4, 567.6)">m</text><text xml:space="preserve" font-family="HelveticaNeue,Helvetica Neue" font-size="48.0" fill="#797979" transform="matrix(1.00, 0.00, -0.00, -1.00, 822.4, 567.6)">o</text><text xml:space="preserve" font-family="HelveticaNeue,Helvetica Neue" font-size="48.0" fill="#797979" transform="matrix(1.00, 0.00, -0.00, -1.00, 849.9, 567.6)">b</text><text xml:space="preserve" font-family="HelveticaNeue,Helvetica Neue" font-size="48.0" fill="#797979" transform="matrix(1.00, 0.00, -0.00, -1.00, 878.4, 567.6)">i</text><text xml:space="preserve" font-family="HelveticaNeue,Helvetica Neue" font-size="48.0" fill="#797979" transform="matrix(1.00, 0.00, -0.00, -1.00, 889.1, 567.6)">l</text><text xml:space="preserve" font-family="HelveticaNeue,Helvetica Neue" font-size="48.0" fill="#797979" transform="matrix(1.00, 0.00, -0.00, -1.00, 899.7, 567.6)">e</text><text xml:space="preserve" font-family="HelveticaNeue,Helvetica Neue" font-size="48.0" fill="#797979" transform="matrix(1.00, 0.00, -0.00, -1.00, 925.5, 567.6)"> </text><text xml:space="preserve" font-family="HelveticaNeue,Helvetica Neue" font-size="48.0" fill="#797979" transform="matrix(1.00, 0.00, -0.00, -1.00, 66.0, 499.4)">a</text><text xml:space="preserve" font-family="HelveticaNeue,Helvetica Neue" font-size="48.0" fill="#797979" transform="matrix(1.00, 0.00, -0.00, -1.00, 91.8, 499.4)">p</text><text xml:space="preserve" font-family="HelveticaNeue,Helvetica Neue" font-size="48.0" fill="#797979" transform="matrix(1.00, 0.00, -0.00, -1.00, 120.2, 499.4)">p</text><text xml:space="preserve" font-family="HelveticaNeue,Helvetica Neue" font-size="48.0" fill="#797979" transform="matrix(1.00, 0.00, -0.00, -1.00, 148.7, 499.4)">s</text><text xml:space="preserve" font-family="HelveticaNeue,Helvetica Neue" font-size="48.0" fill="#797979" transform="matrix(1.00, 0.00, -0.00, -1.00, 172.7, 499.4)"> </text><text xml:space="preserve" font-family="HelveticaNeue,Helvetica Neue" font-size="48.0" fill="#797979" transform="matrix(1.00, 0.00, -0.00, -1.00, 186.0, 499.4)">c</text><text xml:space="preserve" font-family="HelveticaNeue,Helvetica Neue" font-size="48.0" fill="#797979" transform="matrix(1.00, 0.00, -0.00, -1.00, 211.8, 499.4)">a</text><text xml:space="preserve" font-family="HelveticaNeue,Helvetica Neue" font-size="48.0" fill="#797979" transform="matrix(1.00, 0.00, -0.00, -1.00, 237.6, 499.4)">n</text><text xml:space="preserve" font-family="HelveticaNeue,Helvetica Neue" font-size="48.0" fill="#797979" transform="matrix(1.00, 0.00, -0.00, -1.00, 264.3, 499.4)"> </text><text xml:space="preserve" font-family="HelveticaNeue,Helvetica Neue" font-size="48.0" fill="#797979" transform="matrix(1.00, 0.00, -0.00, -1.00, 277.6, 499.4)">b</text><text xml:space="preserve" font-family="HelveticaNeue,Helvetica Neue" font-size="48.0" fill="#797979" transform="matrix(1.00, 0.00, -0.00, -1.00, 306.1, 499.4)">e</text><text xml:space="preserve" font-family="HelveticaNeue,Helvetica Neue" font-size="48.0" fill="#797979" transform="matrix(1.00, 0.00, -0.00, -1.00, 331.9, 499.4)"> </text><text xml:space="preserve" font-family="HelveticaNeue,Helvetica Neue" font-size="48.0" fill="#797979" transform="matrix(1.00, 0.00, -0.00, -1.00, 345.2, 499.4)">d</text><text xml:space="preserve" font-family="HelveticaNeue,Helvetica Neue" font-size="48.0" fill="#797979" transform="matrix(1.00, 0.00, -0.00, -1.00, 373.7, 499.4)">o</text><text xml:space="preserve" font-family="HelveticaNeue,Helvetica Neue" font-size="48.0" fill="#797979" transform="matrix(1.00, 0.00, -0.00, -1.00, 401.2, 499.4)">n</text><text xml:space="preserve" font-family="HelveticaNeue,Helvetica Neue" font-size="48.0" fill="#797979" transform="matrix(1.00, 0.00, -0.00, -1.00, 427.9, 499.4)">e</text><text xml:space="preserve" font-family="HelveticaNeue,Helvetica Neue" font-size="48.0" fill="#797979" transform="matrix(1.00, 0.00, -0.00, -1.00, 453.7, 499.4)"> </text><text xml:space="preserve" font-family="HelveticaNeue,Helvetica Neue" font-size="48.0" fill="#797979" transform="matrix(1.00, 0.00, -0.00, -1.00, 467.0, 499.4)">q</text><text xml:space="preserve" font-family="HelveticaNeue,Helvetica Neue" font-size="48.0" fill="#797979" transform="matrix(1.00, 0.00, -0.00, -1.00, 495.5, 499.4)">u</text><text xml:space="preserve" font-family="HelveticaNeue,Helvetica Neue" font-size="48.0" fill="#797979" transform="matrix(1.00, 0.00, -0.00, -1.00, 522.2, 499.4)">i</text><text xml:space="preserve" font-family="HelveticaNeue,Helvetica Neue" font-size="48.0" fill="#797979" transform="matrix(1.00, 0.00, -0.00, -1.00, 532.8, 499.4)">t</text><text xml:space="preserve" font-family="HelveticaNeue,Helvetica Neue" font-size="48.0" fill="#797979" transform="matrix(1.00, 0.00, -0.00, -1.00, 548.0, 499.4)">e</text><text xml:space="preserve" font-family="HelveticaNeue,Helvetica Neue" font-size="48.0" fill="#797979" transform="matrix(1.00, 0.00, -0.00, -1.00, 573.7, 499.4)"> </text><text xml:space="preserve" font-family="HelveticaNeue,Helvetica Neue" font-size="48.0" fill="#797979" transform="matrix(1.00, 0.00, -0.00, -1.00, 587.1, 499.4)">s</text><text xml:space="preserve" font-family="HelveticaNeue,Helvetica Neue" font-size="48.0" fill="#797979" transform="matrix(1.00, 0.00, -0.00, -1.00, 611.1, 499.4)">i</text><text xml:space="preserve" font-family="HelveticaNeue,Helvetica Neue" font-size="48.0" fill="#797979" transform="matrix(1.00, 0.00, -0.00, -1.00, 621.7, 499.4)">m</text><text xml:space="preserve" font-family="HelveticaNeue,Helvetica Neue" font-size="48.0" fill="#797979" transform="matrix(1.00, 0.00, -0.00, -1.00, 662.7, 499.4)">p</text><text xml:space="preserve" font-family="HelveticaNeue,Helvetica Neue" font-size="48.0" fill="#797979" transform="matrix(1.00, 0.00, -0.00, -1.00, 691.2, 499.4)">l</text><text xml:space="preserve" font-family="HelveticaNeue,Helvetica Neue" font-size="48.0" fill="#797979" transform="matrix(1.00, 0.00, -0.00, -1.00, 701.8, 499.4)">y</text><text xml:space="preserve" font-family="HelveticaNeue,Helvetica Neue" font-size="48.0" fill="#797979" transform="matrix(1.00, 0.00, -0.00, -1.00, 725.8, 499.4)">!</text><text xml:space="preserve" font-family="HelveticaNeue,Helvetica Neue" font-size="48.0" fill="#797979" transform="matrix(1.00, 0.00, -0.00, -1.00, 738.2, 499.4)"> </text><text xml:space="preserve" font-family="HelveticaNeue,Helvetica Neue" font-size="48.0" fill="#797979" transform="matrix(1.00, 0.00, -0.00, -1.00, 751.6, 499.4)">B</text><text xml:space="preserve" font-family="HelveticaNeue,Helvetica Neue" font-size="48.0" fill="#797979" transform="matrix(1.00, 0.00, -0.00, -1.00, 784.5, 499.4)">u</text><text xml:space="preserve" font-family="HelveticaNeue,Helvetica Neue" font-size="48.0" fill="#797979" transform="matrix(1.00, 0.00, -0.00, -1.00, 811.2, 499.4)">t</text><text xml:space="preserve" font-family="HelveticaNeue,Helvetica Neue" font-size="48.0" fill="#797979" transform="matrix(1.00, 0.00, -0.00, -1.00, 826.3, 499.4)"> </text><text xml:space="preserve" font-family="HelveticaNeue,Helvetica Neue" font-size="48.0" fill="#797979" transform="matrix(1.00, 0.00, -0.00, -1.00, 839.6, 499.4)">h</text><text xml:space="preserve" font-family="HelveticaNeue,Helvetica Neue" font-size="48.0" fill="#797979" transform="matrix(1.00, 0.00, -0.00, -1.00, 866.3, 499.4)">o</text><text xml:space="preserve" font-family="HelveticaNeue,Helvetica Neue" font-size="48.0" fill="#797979" transform="matrix(1.00, 0.00, -0.00, -1.00, 893.9, 499.4)">w</text><text xml:space="preserve" font-family="HelveticaNeue,Helvetica Neue" font-size="48.0" fill="#797979" transform="matrix(1.00, 0.00, -0.00, -1.00, 930.2, 499.4)">?</text><text xml:space="preserve" font-family="HelveticaNeue,Helvetica Neue" font-size="48.0" fill="#797979" transform="matrix(1.00, 0.00, -0.00, -1.00, 956.9, 499.4)">
</text><text xml:space="preserve" font-family="HelveticaNeue,Helvetica Neue" font-size="60.0" fill="#797979" transform="matrix(1.00, 0.00, -0.00, -1.00, 50.0, 396.5)">•</text><text xml:space="preserve" font-family="HelveticaNeue,Helvetica Neue" font-size="48.0" fill="#797979" transform="matrix(1.00, 0.00, -0.00, -1.00, 71.0, 401.3)">W</text><text xml:space="preserve" font-family="HelveticaNeue,Helvetica Neue" font-size="48.0" fill="#797979" transform="matrix(1.00, 0.00, -0.00, -1.00, 115.4, 401.3)">h</text><text xml:space="preserve" font-family="HelveticaNeue,Helvetica Neue" font-size="48.0" fill="#797979" transform="matrix(1.00, 0.00, -0.00, -1.00, 142.1, 401.3)">a</text><text xml:space="preserve" font-family="HelveticaNeue,Helvetica Neue" font-size="48.0" fill="#797979" transform="matrix(1.00, 0.00, -0.00, -1.00, 167.9, 401.3)">t</text><text xml:space="preserve" font-family="HelveticaNeue,Helvetica Neue" font-size="48.0" fill="#797979" transform="matrix(1.00, 0.00, -0.00, -1.00, 183.0, 401.3)"> </text><text xml:space="preserve" font-family="HelveticaNeue,Helvetica Neue" font-size="48.0" fill="#797979" transform="matrix(1.00, 0.00, -0.00, -1.00, 196.4, 401.3)">a</text><text xml:space="preserve" font-family="HelveticaNeue,Helvetica Neue" font-size="48.0" fill="#797979" transform="matrix(1.00, 0.00, -0.00, -1.00, 222.2, 401.3)">r</text><text xml:space="preserve" font-family="HelveticaNeue,Helvetica Neue" font-size="48.0" fill="#797979" transform="matrix(1.00, 0.00, -0.00, -1.00, 237.3, 401.3)">e</text><text xml:space="preserve" font-family="HelveticaNeue,Helvetica Neue" font-size="48.0" fill="#797979" transform="matrix(1.00, 0.00, -0.00, -1.00, 263.0, 401.3)"> </text><text xml:space="preserve" font-family="HelveticaNeue,Helvetica Neue" font-size="48.0" fill="#797979" transform="matrix(1.00, 0.00, -0.00, -1.00, 276.4, 401.3)">F</text><text xml:space="preserve" font-family="HelveticaNeue,Helvetica Neue" font-size="48.0" fill="#797979" transform="matrix(1.00, 0.00, -0.00, -1.00, 303.9, 401.3)">i</text><text xml:space="preserve" font-family="HelveticaNeue,Helvetica Neue" font-size="48.0" fill="#797979" transform="matrix(1.00, 0.00, -0.00, -1.00, 314.6, 401.3)">n</text><text xml:space="preserve" font-family="HelveticaNeue,Helvetica Neue" font-size="48.0" fill="#797979" transform="matrix(1.00, 0.00, -0.00, -1.00, 341.3, 401.3)">i</text><text xml:space="preserve" font-family="HelveticaNeue,Helvetica Neue" font-size="48.0" fill="#797979" transform="matrix(1.00, 0.00, -0.00, -1.00, 351.9, 401.3)">t</text><text xml:space="preserve" font-family="HelveticaNeue,Helvetica Neue" font-size="48.0" fill="#797979" transform="matrix(1.00, 0.00, -0.00, -1.00, 367.1, 401.3)">e</text><text xml:space="preserve" font-family="HelveticaNeue,Helvetica Neue" font-size="48.0" fill="#797979" transform="matrix(1.00, 0.00, -0.00, -1.00, 392.8, 401.3)"> </text><text xml:space="preserve" font-family="HelveticaNeue,Helvetica Neue" font-size="48.0" fill="#797979" transform="matrix(1.00, 0.00, -0.00, -1.00, 406.2, 401.3)">S</text><text xml:space="preserve" font-family="HelveticaNeue,Helvetica Neue" font-size="48.0" fill="#797979" transform="matrix(1.00, 0.00, -0.00, -1.00, 437.3, 401.3)">t</text><text xml:space="preserve" font-family="HelveticaNeue,Helvetica Neue" font-size="48.0" fill="#797979" transform="matrix(1.00, 0.00, -0.00, -1.00, 452.4, 401.3)">a</text><text xml:space="preserve" font-family="HelveticaNeue,Helvetica Neue" font-size="48.0" fill="#797979" transform="matrix(1.00, 0.00, -0.00, -1.00, 478.2, 401.3)">t</text><text xml:space="preserve" font-family="HelveticaNeue,Helvetica Neue" font-size="48.0" fill="#797979" transform="matrix(1.00, 0.00, -0.00, -1.00, 493.3, 401.3)">e</text><text xml:space="preserve" font-family="HelveticaNeue,Helvetica Neue" font-size="48.0" fill="#797979" transform="matrix(1.00, 0.00, -0.00, -1.00, 519.1, 401.3)"> </text><text xml:space="preserve" font-family="HelveticaNeue,Helvetica Neue" font-size="48.0" fill="#797979" transform="matrix(1.00, 0.00, -0.00, -1.00, 532.4, 401.3)">M</text><text xml:space="preserve" font-family="HelveticaNeue,Helvetica Neue" font-size="48.0" fill="#797979" transform="matrix(1.00, 0.00, -0.00, -1.00, 574.2, 401.3)">a</text><text xml:space="preserve" font-family="HelveticaNeue,Helvetica Neue" font-size="48.0" fill="#797979" transform="matrix(1.00, 0.00, -0.00, -1.00, 600.0, 401.3)">c</text><text xml:space="preserve" font-family="HelveticaNeue,Helvetica Neue" font-size="48.0" fill="#797979" transform="matrix(1.00, 0.00, -0.00, -1.00, 625.8, 401.3)">h</text><text xml:space="preserve" font-family="HelveticaNeue,Helvetica Neue" font-size="48.0" fill="#797979" transform="matrix(1.00, 0.00, -0.00, -1.00, 652.5, 401.3)">i</text><text xml:space="preserve" font-family="HelveticaNeue,Helvetica Neue" font-size="48.0" fill="#797979" transform="matrix(1.00, 0.00, -0.00, -1.00, 663.1, 401.3)">n</text><text xml:space="preserve" font-family="HelveticaNeue,Helvetica Neue" font-size="48.0" fill="#797979" transform="matrix(1.00, 0.00, -0.00, -1.00, 689.8, 401.3)">e</text><text xml:space="preserve" font-family="HelveticaNeue,Helvetica Neue" font-size="48.0" fill="#797979" transform="matrix(1.00, 0.00, -0.00, -1.00, 715.6, 401.3)">s</text><text xml:space="preserve" font-family="HelveticaNeue,Helvetica Neue" font-size="48.0" fill="#797979" transform="matrix(1.00, 0.00, -0.00, -1.00, 739.6, 401.3)"> </text><text xml:space="preserve" font-family="HelveticaNeue,Helvetica Neue" font-size="48.0" fill="#797979" transform="matrix(1.00, 0.00, -0.00, -1.00, 752.9, 401.3)">&amp;</text><text xml:space="preserve" font-family="HelveticaNeue,Helvetica Neue" font-size="48.0" fill="#797979" transform="matrix(1.00, 0.00, -0.00, -1.00, 783.2, 401.3)"> </text><text xml:space="preserve" font-family="HelveticaNeue,Helvetica Neue" font-size="48.0" fill="#797979" transform="matrix(1.00, 0.00, -0.00, -1.00, 796.5, 401.3)">h</text><text xml:space="preserve" font-family="HelveticaNeue,Helvetica Neue" font-size="48.0" fill="#797979" transform="matrix(1.00, 0.00, -0.00, -1.00, 823.2, 401.3)">o</text><text xml:space="preserve" font-family="HelveticaNeue,Helvetica Neue" font-size="48.0" fill="#797979" transform="matrix(1.00, 0.00, -0.00, -1.00, 850.8, 401.3)">w</text><text xml:space="preserve" font-family="HelveticaNeue,Helvetica Neue" font-size="48.0" fill="#797979" transform="matrix(1.00, 0.00, -0.00, -1.00, 887.1, 401.3)"> </text><text xml:space="preserve" font-family="HelveticaNeue,Helvetica Neue" font-size="48.0" fill="#797979" transform="matrix(1.00, 0.00, -0.00, -1.00, 900.5, 401.3)">d</text><text xml:space="preserve" font-family="HelveticaNeue,Helvetica Neue" font-size="48.0" fill="#797979" transform="matrix(1.00, 0.00, -0.00, -1.00, 929.0, 401.3)">o</text><text xml:space="preserve" font-family="HelveticaNeue,Helvetica Neue" font-size="48.0" fill="#797979" transform="matrix(1.00, 0.00, -0.00, -1.00, 956.5, 401.3)"> </text><text xml:space="preserve" font-family="HelveticaNeue,Helvetica Neue" font-size="48.0" fill="#797979" transform="matrix(1.00, 0.00, -0.00, -1.00, 66.0, 333.2)">t</text><text xml:space="preserve" font-family="HelveticaNeue,Helvetica Neue" font-size="48.0" fill="#797979" transform="matrix(1.00, 0.00, -0.00, -1.00, 81.1, 333.2)">h</text><text xml:space="preserve" font-family="HelveticaNeue,Helvetica Neue" font-size="48.0" fill="#797979" transform="matrix(1.00, 0.00, -0.00, -1.00, 107.8, 333.2)">e</text><text xml:space="preserve" font-family="HelveticaNeue,Helvetica Neue" font-size="48.0" fill="#797979" transform="matrix(1.00, 0.00, -0.00, -1.00, 133.6, 333.2)">y</text><text xml:space="preserve" font-family="HelveticaNeue,Helvetica Neue" font-size="48.0" fill="#797979" transform="matrix(1.00, 0.00, -0.00, -1.00, 157.6, 333.2)"> </text><text xml:space="preserve" font-family="HelveticaNeue,Helvetica Neue" font-size="48.0" fill="#797979" transform="matrix(1.00, 0.00, -0.00, -1.00, 170.9, 333.2)">ﬁ</text><text xml:space="preserve" font-family="HelveticaNeue,Helvetica Neue" font-size="48.0" fill="#797979" transform="matrix(1.00, 0.00, -0.00, -1.00, 195.8, 333.2)">t</text><text xml:space="preserve" font-family="HelveticaNeue,Helvetica Neue" font-size="48.0" fill="#797979" transform="matrix(1.00, 0.00, -0.00, -1.00, 210.9, 333.2)"> </text><text xml:space="preserve" font-family="HelveticaNeue,Helvetica Neue" font-size="48.0" fill="#797979" transform="matrix(1.00, 0.00, -0.00, -1.00, 224.3, 333.2)">i</text><text xml:space="preserve" font-family="HelveticaNeue,Helvetica Neue" font-size="48.0" fill="#797979" transform="matrix(1.00, 0.00, -0.00, -1.00, 234.9, 333.2)">n</text><text xml:space="preserve" font-family="HelveticaNeue,Helvetica Neue" font-size="48.0" fill="#797979" transform="matrix(1.00, 0.00, -0.00, -1.00, 261.6, 333.2)">?</text><text xml:space="preserve" font-family="HelveticaNeue,Helvetica Neue" font-size="48.0" fill="#797979" transform="matrix(1.00, 0.00, -0.00, -1.00, 288.3, 333.2)">
</text><text xml:space="preserve" font-family="HelveticaNeue,Helvetica Neue" font-size="60.0" fill="#797979" transform="matrix(1.00, 0.00, -0.00, -1.00, 50.0, 230.3)">•</text><text xml:space="preserve" font-family="HelveticaNeue,Helvetica Neue" font-size="48.0" fill="#797979" transform="matrix(1.00, 0.00, -0.00, -1.00, 71.0, 235.0)">W</text><text xml:space="preserve" font-family="HelveticaNeue,Helvetica Neue" font-size="48.0" fill="#797979" transform="matrix(1.00, 0.00, -0.00, -1.00, 115.4, 235.0)">h</text><text xml:space="preserve" font-family="HelveticaNeue,Helvetica Neue" font-size="48.0" fill="#797979" transform="matrix(1.00, 0.00, -0.00, -1.00, 142.1, 235.0)">a</text><text xml:space="preserve" font-family="HelveticaNeue,Helvetica Neue" font-size="48.0" fill="#797979" transform="matrix(1.00, 0.00, -0.00, -1.00, 167.9, 235.0)">t</text><text xml:space="preserve" font-family="HelveticaNeue,Helvetica Neue" font-size="48.0" fill="#797979" transform="matrix(1.00, 0.00, -0.00, -1.00, 183.0, 235.0)"> </text><text xml:space="preserve" font-family="HelveticaNeue,Helvetica Neue" font-size="48.0" fill="#797979" transform="matrix(1.00, 0.00, -0.00, -1.00, 196.4, 235.0)">F</text><text xml:space="preserve" font-family="HelveticaNeue,Helvetica Neue" font-size="48.0" fill="#797979" transform="matrix(1.00, 0.00, -0.00, -1.00, 223.9, 235.0)">S</text><text xml:space="preserve" font-family="HelveticaNeue,Helvetica Neue" font-size="48.0" fill="#797979" transform="matrix(1.00, 0.00, -0.00, -1.00, 255.0, 235.0)">M</text><text xml:space="preserve" font-family="HelveticaNeue,Helvetica Neue" font-size="48.0" fill="#797979" transform="matrix(1.00, 0.00, -0.00, -1.00, 296.8, 235.0)"> </text><text xml:space="preserve" font-family="HelveticaNeue,Helvetica Neue" font-size="48.0" fill="#797979" transform="matrix(1.00, 0.00, -0.00, -1.00, 310.2, 235.0)">b</text><text xml:space="preserve" font-family="HelveticaNeue,Helvetica Neue" font-size="48.0" fill="#797979" transform="matrix(1.00, 0.00, -0.00, -1.00, 338.6, 235.0)">e</text><text xml:space="preserve" font-family="HelveticaNeue,Helvetica Neue" font-size="48.0" fill="#797979" transform="matrix(1.00, 0.00, -0.00, -1.00, 364.4, 235.0)">h</text><text xml:space="preserve" font-family="HelveticaNeue,Helvetica Neue" font-size="48.0" fill="#797979" transform="matrix(1.00, 0.00, -0.00, -1.00, 391.1, 235.0)">a</text><text xml:space="preserve" font-family="HelveticaNeue,Helvetica Neue" font-size="48.0" fill="#797979" transform="matrix(1.00, 0.00, -0.00, -1.00, 416.9, 235.0)">v</text><text xml:space="preserve" font-family="HelveticaNeue,Helvetica Neue" font-size="48.0" fill="#797979" transform="matrix(1.00, 0.00, -0.00, -1.00, 440.9, 235.0)">i</text><text xml:space="preserve" font-family="HelveticaNeue,Helvetica Neue" font-size="48.0" fill="#797979" transform="matrix(1.00, 0.00, -0.00, -1.00, 451.5, 235.0)">o</text><text xml:space="preserve" font-family="HelveticaNeue,Helvetica Neue" font-size="48.0" fill="#797979" transform="matrix(1.00, 0.00, -0.00, -1.00, 479.1, 235.0)">r</text><text xml:space="preserve" font-family="HelveticaNeue,Helvetica Neue" font-size="48.0" fill="#797979" transform="matrix(1.00, 0.00, -0.00, -1.00, 495.1, 235.0)">s</text><text xml:space="preserve" font-family="HelveticaNeue,Helvetica Neue" font-size="48.0" fill="#797979" transform="matrix(1.00, 0.00, -0.00, -1.00, 519.1, 235.0)"> </text><text xml:space="preserve" font-family="HelveticaNeue,Helvetica Neue" font-size="48.0" fill="#797979" transform="matrix(1.00, 0.00, -0.00, -1.00, 532.4, 235.0)">a</text><text xml:space="preserve" font-family="HelveticaNeue,Helvetica Neue" font-size="48.0" fill="#797979" transform="matrix(1.00, 0.00, -0.00, -1.00, 558.2, 235.0)">r</text><text xml:space="preserve" font-family="HelveticaNeue,Helvetica Neue" font-size="48.0" fill="#797979" transform="matrix(1.00, 0.00, -0.00, -1.00, 573.3, 235.0)">e</text><text xml:space="preserve" font-family="HelveticaNeue,Helvetica Neue" font-size="48.0" fill="#797979" transform="matrix(1.00, 0.00, -0.00, -1.00, 599.1, 235.0)"> </text><text xml:space="preserve" font-family="HelveticaNeue,Helvetica Neue" font-size="48.0" fill="#797979" transform="matrix(1.00, 0.00, -0.00, -1.00, 612.4, 235.0)">p</text><text xml:space="preserve" font-family="HelveticaNeue,Helvetica Neue" font-size="48.0" fill="#797979" transform="matrix(1.00, 0.00, -0.00, -1.00, 640.9, 235.0)">r</text><text xml:space="preserve" font-family="HelveticaNeue,Helvetica Neue" font-size="48.0" fill="#797979" transform="matrix(1.00, 0.00, -0.00, -1.00, 656.0, 235.0)">o</text><text xml:space="preserve" font-family="HelveticaNeue,Helvetica Neue" font-size="48.0" fill="#797979" transform="matrix(1.00, 0.00, -0.00, -1.00, 683.6, 235.0)">v</text><text xml:space="preserve" font-family="HelveticaNeue,Helvetica Neue" font-size="48.0" fill="#797979" transform="matrix(1.00, 0.00, -0.00, -1.00, 707.6, 235.0)">i</text><text xml:space="preserve" font-family="HelveticaNeue,Helvetica Neue" font-size="48.0" fill="#797979" transform="matrix(1.00, 0.00, -0.00, -1.00, 718.2, 235.0)">d</text><text xml:space="preserve" font-family="HelveticaNeue,Helvetica Neue" font-size="48.0" fill="#797979" transform="matrix(1.00, 0.00, -0.00, -1.00, 746.7, 235.0)">e</text><text xml:space="preserve" font-family="HelveticaNeue,Helvetica Neue" font-size="48.0" fill="#797979" transform="matrix(1.00, 0.00, -0.00, -1.00, 772.5, 235.0)">d</text><text xml:space="preserve" font-family="HelveticaNeue,Helvetica Neue" font-size="48.0" fill="#797979" transform="matrix(1.00, 0.00, -0.00, -1.00, 800.9, 235.0)"> </text><text xml:space="preserve" font-family="HelveticaNeue,Helvetica Neue" font-size="48.0" fill="#797979" transform="matrix(1.00, 0.00, -0.00, -1.00, 814.3, 235.0)">b</text><text xml:space="preserve" font-family="HelveticaNeue,Helvetica Neue" font-size="48.0" fill="#797979" transform="matrix(1.00, 0.00, -0.00, -1.00, 842.7, 235.0)">y</text><text xml:space="preserve" font-family="HelveticaNeue,Helvetica Neue" font-size="48.0" fill="#797979" transform="matrix(1.00, 0.00, -0.00, -1.00, 866.7, 235.0)"> </text><text xml:space="preserve" font-family="HelveticaNeue,Helvetica Neue" font-size="48.0" fill="#797979" transform="matrix(1.00, 0.00, -0.00, -1.00, 66.0, 166.9)">m</text><text xml:space="preserve" font-family="HelveticaNeue,Helvetica Neue" font-size="48.0" fill="#797979" transform="matrix(1.00, 0.00, -0.00, -1.00, 106.9, 166.9)">a</text><text xml:space="preserve" font-family="HelveticaNeue,Helvetica Neue" font-size="48.0" fill="#797979" transform="matrix(1.00, 0.00, -0.00, -1.00, 132.7, 166.9)">c</text><text xml:space="preserve" font-family="HelveticaNeue,Helvetica Neue" font-size="48.0" fill="#797979" transform="matrix(1.00, 0.00, -0.00, -1.00, 158.5, 166.9)">h</text><text xml:space="preserve" font-family="HelveticaNeue,Helvetica Neue" font-size="48.0" fill="#797979" transform="matrix(1.00, 0.00, -0.00, -1.00, 185.2, 166.9)">i</text><text xml:space="preserve" font-family="HelveticaNeue,Helvetica Neue" font-size="48.0" fill="#797979" transform="matrix(1.00, 0.00, -0.00, -1.00, 195.8, 166.9)">n</text><text xml:space="preserve" font-family="HelveticaNeue,Helvetica Neue" font-size="48.0" fill="#797979" transform="matrix(1.00, 0.00, -0.00, -1.00, 222.5, 166.9)">a</text><text xml:space="preserve" font-family="HelveticaNeue,Helvetica Neue" font-size="48.0" fill="#797979" transform="matrix(1.00, 0.00, -0.00, -1.00, 248.3, 166.9)">.</text><text xml:space="preserve" font-family="HelveticaNeue,Helvetica Neue" font-size="48.0" fill="#797979" transform="matrix(1.00, 0.00, -0.00, -1.00, 261.6, 166.9)">j</text><text xml:space="preserve" font-family="HelveticaNeue,Helvetica Neue" font-size="48.0" fill="#797979" transform="matrix(1.00, 0.00, -0.00, -1.00, 272.3, 166.9)">s</text><text xml:space="preserve" font-family="HelveticaNeue,Helvetica Neue" font-size="48.0" fill="#797979" transform="matrix(1.00, 0.00, -0.00, -1.00, 296.3, 166.9)">?</text></g></svg>