<?xml version="1.0" encoding="UTF-8" standalone="no"?><svg xmlns="http://www.w3.org/2000/svg" xmlns:xlink="http://www.w3.org/1999/xlink" clip-rule="evenodd" stroke-miterlimit="10" viewBox="0 0 963 50"><desc>SVG generated by Keynote</desc><defs></defs><g transform="matrix(1.00, 0.00, -0.00, -1.00, 0.0, 50.0)"><text xml:space="preserve" font-family="AndaleMono,Andale Mono" font-size="54.0" fill="#0042A9" transform="matrix(1.00, 0.00, -0.00, -1.00, -2.0, 10.8)">v</text><text xml:space="preserve" font-family="AndaleMono,Andale Mono" font-size="54.0" fill="#0042A9" transform="matrix(1.00, 0.00, -0.00, -1.00, 25.8, 10.8)">a</text><text xml:space="preserve" font-family="AndaleMono,Andale Mono" font-size="54.0" fill="#0042A9" transform="matrix(1.00, 0.00, -0.00, -1.00, 53.5, 10.8)">r</text><text xml:space="preserve" font-family="AndaleMono,Andale Mono" font-size="54.0" fill="#304863" transform="matrix(1.00, 0.00, -0.00, -1.00, 81.3, 10.8)"> </text><text xml:space="preserve" font-family="AndaleMono,Andale Mono" font-size="54.0" fill="#304863" transform="matrix(1.00, 0.00, -0.00, -1.00, 109.1, 10.8)">f</text><text xml:space="preserve" font-family="AndaleMono,Andale Mono" font-size="54.0" fill="#304863" transform="matrix(1.00, 0.00, -0.00, -1.00, 136.8, 10.8)">s</text><text xml:space="preserve" font-family="AndaleMono,Andale Mono" font-size="54.0" fill="#304863" transform="matrix(1.00, 0.00, -0.00, -1.00, 164.6, 10.8)">m</text><text xml:space="preserve" font-family="AndaleMono,Andale Mono" font-size="54.0" fill="#304863" transform="matrix(1.00, 0.00, -0.00, -1.00, 192.4, 10.8)"> </text><text xml:space="preserve" font-family="AndaleMono,Andale Mono" font-size="54.0" fill="#304863" transform="matrix(1.00, 0.00, -0.00, -1.00, 220.2, 10.8)">=</text><text xml:space="preserve" font-family="AndaleMono,Andale Mono" font-size="54.0" fill="#304863" transform="matrix(1.00, 0.00, -0.00, -1.00, 247.9, 10.8)"> </text><text xml:space="preserve" font-family="AndaleMono,Andale Mono" font-size="54.0" fill="#0042A9" transform="matrix(1.00, 0.00, -0.00, -1.00, 275.6, 10.8)">n</text><text xml:space="preserve" font-family="AndaleMono,Andale Mono" font-size="54.0" fill="#0042A9" transform="matrix(1.00, 0.00, -0.00, -1.00, 303.4, 10.8)">e</text><text xml:space="preserve" font-family="AndaleMono,Andale Mono" font-size="54.0" fill="#0042A9" transform="matrix(1.00, 0.00, -0.00, -1.00, 331.2, 10.8)">w</text><text xml:space="preserve" font-family="AndaleMono,Andale Mono" font-size="54.0" fill="#304863" transform="matrix(1.00, 0.00, -0.00, -1.00, 358.9, 10.8)"> </text><text xml:space="preserve" font-family="AndaleMono,Andale Mono" font-size="54.0" fill="#304863" transform="matrix(1.00, 0.00, -0.00, -1.00, 386.7, 10.8)">m</text><text xml:space="preserve" font-family="AndaleMono,Andale Mono" font-size="54.0" fill="#304863" transform="matrix(1.00, 0.00, -0.00, -1.00, 414.5, 10.8)">a</text><text xml:space="preserve" font-family="AndaleMono,Andale Mono" font-size="54.0" fill="#304863" transform="matrix(1.00, 0.00, -0.00, -1.00, 442.3, 10.8)">c</text><text xml:space="preserve" font-family="AndaleMono,Andale Mono" font-size="54.0" fill="#304863" transform="matrix(1.00, 0.00, -0.00, -1.00, 470.0, 10.8)">h</text><text xml:space="preserve" font-family="AndaleMono,Andale Mono" font-size="54.0" fill="#304863" transform="matrix(1.00, 0.00, -0.00, -1.00, 497.8, 10.8)">i</text><text xml:space="preserve" font-family="AndaleMono,Andale Mono" font-size="54.0" fill="#304863" transform="matrix(1.00, 0.00, -0.00, -1.00, 525.6, 10.8)">n</text><text xml:space="preserve" font-family="AndaleMono,Andale Mono" font-size="54.0" fill="#304863" transform="matrix(1.00, 0.00, -0.00, -1.00, 553.3, 10.8)">a</text><text xml:space="preserve" font-family="AndaleMono,Andale Mono" font-size="54.0" fill="#304863" transform="matrix(1.00, 0.00, -0.00, -1.00, 581.1, 10.8)">.</text><text xml:space="preserve" font-family="AndaleMono,Andale Mono" font-size="54.0" fill="#304863" transform="matrix(1.00, 0.00, -0.00, -1.00, 608.9, 10.8)">F</text><text xml:space="preserve" font-family="AndaleMono,Andale Mono" font-size="54.0" fill="#304863" transform="matrix(1.00, 0.00, -0.00, -1.00, 636.7, 10.8)">s</text><text xml:space="preserve" font-family="AndaleMono,Andale Mono" font-size="54.0" fill="#304863" transform="matrix(1.00, 0.00, -0.00, -1.00, 664.4, 10.8)">m</text><text xml:space="preserve" font-family="AndaleMono,Andale Mono" font-size="54.0" fill="#304863" transform="matrix(1.00, 0.00, -0.00, -1.00, 692.2, 10.8)">(</text><text xml:space="preserve" font-family="AndaleMono,Andale Mono" font-size="54.0" fill="#304863" transform="matrix(1.00, 0.00, -0.00, -1.00, 720.0, 10.8)">{</text><text xml:space="preserve" font-family="AndaleMono,Andale Mono" font-size="54.0" fill="#304863" transform="matrix(1.00, 0.00, -0.00, -1.00, 747.7, 10.8)"> </text><text xml:space="preserve" font-family="AndaleMono,Andale Mono" font-size="54.0" fill="#304863" transform="matrix(1.00, 0.00, -0.00, -1.00, 775.5, 10.8)">.</text><text xml:space="preserve" font-family="AndaleMono,Andale Mono" font-size="54.0" fill="#304863" transform="matrix(1.00, 0.00, -0.00, -1.00, 803.3, 10.8)">.</text><text xml:space="preserve" font-family="AndaleMono,Andale Mono" font-size="54.0" fill="#304863" transform="matrix(1.00, 0.00, -0.00, -1.00, 831.1, 10.8)">.</text><text xml:space="preserve" font-family="AndaleMono,Andale Mono" font-size="54.0" fill="#304863" transform="matrix(1.00, 0.00, -0.00, -1.00, 858.8, 10.8)"> </text><text xml:space="preserve" font-family="AndaleMono,Andale Mono" font-size="54.0" fill="#304863" transform="matrix(1.00, 0.00, -0.00, -1.00, 886.6, 10.8)">}</text><text xml:space="preserve" font-family="AndaleMono,Andale Mono" font-size="54.0" fill="#304863" transform="matrix(1.00, 0.00, -0.00, -1.00, 914.4, 10.8)">)</text><text xml:space="preserve" font-family="AndaleMono,Andale Mono" font-size="54.0" fill="#304863" transform="matrix(1.00, 0.00, -0.00, -1.00, 942.2, 10.8)">;</text></g></svg>