<?xml version="1.0" encoding="UTF-8" standalone="no"?><svg xmlns="http://www.w3.org/2000/svg" xmlns:xlink="http://www.w3.org/1999/xlink" clip-rule="evenodd" stroke-miterlimit="10" viewBox="0 0 1024 768"><desc>SVG generated by Keynote</desc><defs></defs><g transform="matrix(1.00, 0.00, -0.00, -1.00, 0.0, 768.0)"><path d="M 0.0 768.0 L 1024.0 768.0 L 1024.0 0.0 L 0.0 0.0 Z M 0.0 768.0 " fill="#5FB3D9"></path><text xml:space="preserve" font-family="BebasNeue,Bebas Neue" font-size="78.0" fill="#FCFEFF" transform="matrix(1.00, 0.00, -0.00, -1.00, 28.0, 670.4)">E</text><text xml:space="preserve" font-family="BebasNeue,Bebas Neue" font-size="78.0" fill="#FCFEFF" transform="matrix(1.00, 0.00, -0.00, -1.00, 58.3, 670.4)">N</text><text xml:space="preserve" font-family="BebasNeue,Bebas Neue" font-size="78.0" fill="#FCFEFF" transform="matrix(1.00, 0.00, -0.00, -1.00, 93.1, 670.4)">T</text><text xml:space="preserve" font-family="BebasNeue,Bebas Neue" font-size="78.0" fill="#FCFEFF" transform="matrix(1.00, 0.00, -0.00, -1.00, 122.5, 670.4)">E</text><text xml:space="preserve" font-family="BebasNeue,Bebas Neue" font-size="78.0" fill="#FCFEFF" transform="matrix(1.00, 0.00, -0.00, -1.00, 152.7, 670.4)">R</text><text xml:space="preserve" font-family="BebasNeue,Bebas Neue" font-size="78.0" fill="#FEFFFF" transform="matrix(1.00, 0.00, -0.00, -1.00, 185.6, 670.4)"> </text><text xml:space="preserve" font-family="BebasNeue,Bebas Neue" font-size="78.0" fill="#FEFBC3" transform="matrix(1.00, 0.00, -0.00, -1.00, 199.3, 670.4)">m</text><text xml:space="preserve" font-family="BebasNeue,Bebas Neue" font-size="78.0" fill="#FEFBC3" transform="matrix(1.00, 0.00, -0.00, -1.00, 243.0, 670.4)">a</text><text xml:space="preserve" font-family="BebasNeue,Bebas Neue" font-size="78.0" fill="#FEFBC3" transform="matrix(1.00, 0.00, -0.00, -1.00, 276.3, 670.4)">c</text><text xml:space="preserve" font-family="BebasNeue,Bebas Neue" font-size="78.0" fill="#FEFBC3" transform="matrix(1.00, 0.00, -0.00, -1.00, 307.9, 670.4)">h</text><text xml:space="preserve" font-family="BebasNeue,Bebas Neue" font-size="78.0" fill="#FEFBC3" transform="matrix(1.00, 0.00, -0.00, -1.00, 342.8, 670.4)">i</text><text xml:space="preserve" font-family="BebasNeue,Bebas Neue" font-size="78.0" fill="#FEFBC3" transform="matrix(1.00, 0.00, -0.00, -1.00, 359.2, 670.4)">n</text><text xml:space="preserve" font-family="BebasNeue,Bebas Neue" font-size="78.0" fill="#FEFBC3" transform="matrix(1.00, 0.00, -0.00, -1.00, 394.1, 670.4)">a</text><text xml:space="preserve" font-family="BebasNeue,Bebas Neue" font-size="78.0" fill="#FEFBC3" transform="matrix(1.00, 0.00, -0.00, -1.00, 427.4, 670.4)">.</text><text xml:space="preserve" font-family="BebasNeue,Bebas Neue" font-size="78.0" fill="#FEFBC3" transform="matrix(1.00, 0.00, -0.00, -1.00, 443.4, 670.4)">j</text><text xml:space="preserve" font-family="BebasNeue,Bebas Neue" font-size="78.0" fill="#FEFBC3" transform="matrix(1.00, 0.00, -0.00, -1.00, 465.0, 670.4)">S</text></g></svg>