<?xml version="1.0" encoding="UTF-8" standalone="no"?><svg xmlns="http://www.w3.org/2000/svg" xmlns:xlink="http://www.w3.org/1999/xlink" clip-rule="evenodd" stroke-miterlimit="10" viewBox="0 0 638 188"><desc>SVG generated by Keynote</desc><defs></defs><g transform="matrix(1.00, 0.00, -0.00, -1.00, 0.0, 188.0)"><text xml:space="preserve" font-family="BebasNeue,Bebas Neue" font-size="96.0" fill="#5E5E5E" transform="matrix(1.00, 0.00, -0.00, -1.00, 31.8, 118.2)">T</text><text xml:space="preserve" font-family="BebasNeue,Bebas Neue" font-size="96.0" fill="#5E5E5E" transform="matrix(1.00, 0.00, -0.00, -1.00, 67.9, 118.2)">H</text><text xml:space="preserve" font-family="BebasNeue,Bebas Neue" font-size="96.0" fill="#5E5E5E" transform="matrix(1.00, 0.00, -0.00, -1.00, 110.8, 118.2)">A</text><text xml:space="preserve" font-family="BebasNeue,Bebas Neue" font-size="96.0" fill="#5E5E5E" transform="matrix(1.00, 0.00, -0.00, -1.00, 148.2, 118.2)">T</text><text xml:space="preserve" font-family="BebasNeue,Bebas Neue" font-size="96.0" fill="#5E5E5E" transform="matrix(1.00, 0.00, -0.00, -1.00, 184.3, 118.2)"> </text><text xml:space="preserve" font-family="BebasNeue,Bebas Neue" font-size="96.0" fill="#6EB1D8" transform="matrix(1.00, 0.00, -0.00, -1.00, 201.1, 118.2)">W</text><text xml:space="preserve" font-family="BebasNeue,Bebas Neue" font-size="96.0" fill="#6EB1D8" transform="matrix(1.00, 0.00, -0.00, -1.00, 255.6, 118.2)">A</text><text xml:space="preserve" font-family="BebasNeue,Bebas Neue" font-size="96.0" fill="#6EB1D8" transform="matrix(1.00, 0.00, -0.00, -1.00, 296.6, 118.2)">S</text><text xml:space="preserve" font-family="BebasNeue,Bebas Neue" font-size="96.0" fill="#6EB1D8" transform="matrix(1.00, 0.00, -0.00, -1.00, 334.4, 118.2)"> </text><text xml:space="preserve" font-family="BebasNeue,Bebas Neue" font-size="96.0" fill="#6EB1D8" transform="matrix(1.00, 0.00, -0.00, -1.00, 351.2, 118.2)">A</text><text xml:space="preserve" font-family="BebasNeue,Bebas Neue" font-size="96.0" fill="#6EB1D8" transform="matrix(1.00, 0.00, -0.00, -1.00, 392.2, 118.2)"> </text><text xml:space="preserve" font-family="BebasNeue,Bebas Neue" font-size="96.0" fill="#6EB1D8" transform="matrix(1.00, 0.00, -0.00, -1.00, 409.0, 118.2)">L</text><text xml:space="preserve" font-family="BebasNeue,Bebas Neue" font-size="96.0" fill="#6EB1D8" transform="matrix(1.00, 0.00, -0.00, -1.00, 443.5, 118.2)">O</text><text xml:space="preserve" font-family="BebasNeue,Bebas Neue" font-size="96.0" fill="#6EB1D8" transform="matrix(1.00, 0.00, -0.00, -1.00, 483.4, 118.2)">T</text><text xml:space="preserve" font-family="BebasNeue,Bebas Neue" font-size="96.0" fill="#6EB1D8" transform="matrix(1.00, 0.00, -0.00, -1.00, 519.5, 118.2)"> </text><text xml:space="preserve" font-family="BebasNeue,Bebas Neue" font-size="96.0" fill="#6EB1D8" transform="matrix(1.00, 0.00, -0.00, -1.00, 536.3, 118.2)">O</text><text xml:space="preserve" font-family="BebasNeue,Bebas Neue" font-size="96.0" fill="#6EB1D8" transform="matrix(1.00, 0.00, -0.00, -1.00, 576.2, 118.2)">F</text><text xml:space="preserve" font-family="BebasNeue,Bebas Neue" font-size="96.0" fill="#6EB1D8" transform="matrix(1.00, 0.00, -0.00, -1.00, 611.2, 118.2)"> </text><text xml:space="preserve" font-family="BebasNeue,Bebas Neue" font-size="96.0" fill="#6EB1D8" transform="matrix(1.00, 0.00, -0.00, -1.00, 1.1, 3.2)">T</text><text xml:space="preserve" font-family="BebasNeue,Bebas Neue" font-size="96.0" fill="#6EB1D8" transform="matrix(1.00, 0.00, -0.00, -1.00, 37.2, 3.2)">E</text><text xml:space="preserve" font-family="BebasNeue,Bebas Neue" font-size="96.0" fill="#6EB1D8" transform="matrix(1.00, 0.00, -0.00, -1.00, 74.5, 3.2)">X</text><text xml:space="preserve" font-family="BebasNeue,Bebas Neue" font-size="96.0" fill="#6EB1D8" transform="matrix(1.00, 0.00, -0.00, -1.00, 117.7, 3.2)">T</text><text xml:space="preserve" font-family="BebasNeue,Bebas Neue" font-size="96.0" fill="#6EB1D8" transform="matrix(1.00, 0.00, -0.00, -1.00, 153.8, 3.2)"> </text><text xml:space="preserve" font-family="BebasNeue,Bebas Neue" font-size="96.0" fill="#6EB1D8" transform="matrix(1.00, 0.00, -0.00, -1.00, 170.6, 3.2)">O</text><text xml:space="preserve" font-family="BebasNeue,Bebas Neue" font-size="96.0" fill="#6EB1D8" transform="matrix(1.00, 0.00, -0.00, -1.00, 210.5, 3.2)">N</text><text xml:space="preserve" font-family="BebasNeue,Bebas Neue" font-size="96.0" fill="#6EB1D8" transform="matrix(1.00, 0.00, -0.00, -1.00, 253.4, 3.2)"> </text><text xml:space="preserve" font-family="BebasNeue,Bebas Neue" font-size="96.0" fill="#5E5E5E" transform="matrix(1.00, 0.00, -0.00, -1.00, 270.2, 3.2)">O</text><text xml:space="preserve" font-family="BebasNeue,Bebas Neue" font-size="96.0" fill="#5E5E5E" transform="matrix(1.00, 0.00, -0.00, -1.00, 310.2, 3.2)">n</text><text xml:space="preserve" font-family="BebasNeue,Bebas Neue" font-size="96.0" fill="#5E5E5E" transform="matrix(1.00, 0.00, -0.00, -1.00, 353.1, 3.2)">e</text><text xml:space="preserve" font-family="BebasNeue,Bebas Neue" font-size="96.0" fill="#6EB1D8" transform="matrix(1.00, 0.00, -0.00, -1.00, 390.3, 3.2)"> </text><text xml:space="preserve" font-family="BebasNeue,Bebas Neue" font-size="96.0" fill="#6EB1D8" transform="matrix(1.00, 0.00, -0.00, -1.00, 407.1, 3.2)">S</text><text xml:space="preserve" font-family="BebasNeue,Bebas Neue" font-size="96.0" fill="#6EB1D8" transform="matrix(1.00, 0.00, -0.00, -1.00, 445.0, 3.2)">C</text><text xml:space="preserve" font-family="BebasNeue,Bebas Neue" font-size="96.0" fill="#6EB1D8" transform="matrix(1.00, 0.00, -0.00, -1.00, 483.9, 3.2)">R</text><text xml:space="preserve" font-family="BebasNeue,Bebas Neue" font-size="96.0" fill="#6EB1D8" transform="matrix(1.00, 0.00, -0.00, -1.00, 524.4, 3.2)">E</text><text xml:space="preserve" font-family="BebasNeue,Bebas Neue" font-size="96.0" fill="#6EB1D8" transform="matrix(1.00, 0.00, -0.00, -1.00, 561.7, 3.2)">E</text><text xml:space="preserve" font-family="BebasNeue,Bebas Neue" font-size="96.0" fill="#6EB1D8" transform="matrix(1.00, 0.00, -0.00, -1.00, 598.9, 3.2)">N</text></g></svg>