<?xml version="1.0" encoding="UTF-8" standalone="no"?><svg xmlns="http://www.w3.org/2000/svg" xmlns:xlink="http://www.w3.org/1999/xlink" clip-rule="evenodd" stroke-miterlimit="10" viewBox="0 0 1024 768"><desc>SVG generated by Keynote</desc><defs></defs><g transform="matrix(1.00, 0.00, -0.00, -1.00, 0.0, 768.0)"><path d="M 0.0 768.0 L 1024.0 768.0 L 1024.0 0.0 L 0.0 0.0 Z M 0.0 768.0 " fill="#FDFEF7"></path><image xlink:href="../../70C079CE-C9B1-4B77-A0E7-34A8F353C923/assets/DBA7B9B7774E504B211C00C4624941FB.png" width="957.00" height="497.00" transform="matrix(1.00, 0.00, -0.00, -1.00, 36.7, 628.8)" opacity="0.75"></image><path d="M 43.5 622.5 L 979.5 622.5 L 979.5 146.5 L 43.5 146.5 Z M 43.0 622.5 " fill="#FFFFFF"></path><path d="M 0.5 0.0 L 936.5 0.0 L 936.5 476.0 L 0.5 476.0 Z M 0.0 0.0 " fill="none" stroke="#000000" stroke-width="1.00" transform="matrix(1.00, 0.00, 0.00, -1.00, 43.0, 622.5)"></path><g><clipPath id="clip0x7fda06b72ef0"><path d="M 43.5 146.5 L 978.5 146.5 L 978.5 622.0 L 43.5 622.0 Z M 43.5 146.5 "></path></clipPath><g clip-path="url(#clip0x7fda06b72ef0)"><text xml:space="preserve" font-family="Consolas,Consolas" font-size="54.0" fill="#323232" transform="matrix(1.00, 0.00, -0.00, -1.00, 65.5, 559.1)">$</text><text xml:space="preserve" font-family="Consolas,Consolas" font-size="54.0" fill="#323232" transform="matrix(1.00, 0.00, -0.00, -1.00, 95.2, 559.1)">(</text><text xml:space="preserve" font-family="Consolas,Consolas" font-size="54.0" fill="#0042A9" transform="matrix(1.00, 0.00, -0.00, -1.00, 124.9, 559.1)">d</text><text xml:space="preserve" font-family="Consolas,Consolas" font-size="54.0" fill="#0042A9" transform="matrix(1.00, 0.00, -0.00, -1.00, 154.6, 559.1)">o</text><text xml:space="preserve" font-family="Consolas,Consolas" font-size="54.0" fill="#0042A9" transform="matrix(1.00, 0.00, -0.00, -1.00, 184.2, 559.1)">c</text><text xml:space="preserve" font-family="Consolas,Consolas" font-size="54.0" fill="#0042A9" transform="matrix(1.00, 0.00, -0.00, -1.00, 213.9, 559.1)">u</text><text xml:space="preserve" font-family="Consolas,Consolas" font-size="54.0" fill="#0042A9" transform="matrix(1.00, 0.00, -0.00, -1.00, 243.6, 559.1)">m</text><text xml:space="preserve" font-family="Consolas,Consolas" font-size="54.0" fill="#0042A9" transform="matrix(1.00, 0.00, -0.00, -1.00, 273.3, 559.1)">e</text><text xml:space="preserve" font-family="Consolas,Consolas" font-size="54.0" fill="#0042A9" transform="matrix(1.00, 0.00, -0.00, -1.00, 303.0, 559.1)">n</text><text xml:space="preserve" font-family="Consolas,Consolas" font-size="54.0" fill="#0042A9" transform="matrix(1.00, 0.00, -0.00, -1.00, 332.6, 559.1)">t</text><text xml:space="preserve" font-family="Consolas,Consolas" font-size="54.0" fill="#323232" transform="matrix(1.00, 0.00, -0.00, -1.00, 362.4, 559.1)">)</text><text xml:space="preserve" font-family="Consolas,Consolas" font-size="54.0" fill="#323232" transform="matrix(1.00, 0.00, -0.00, -1.00, 392.1, 559.1)">.</text><text xml:space="preserve" font-family="Consolas,Consolas" font-size="54.0" fill="#323232" transform="matrix(1.00, 0.00, -0.00, -1.00, 421.8, 559.1)">a</text><text xml:space="preserve" font-family="Consolas,Consolas" font-size="54.0" fill="#323232" transform="matrix(1.00, 0.00, -0.00, -1.00, 451.4, 559.1)">j</text><text xml:space="preserve" font-family="Consolas,Consolas" font-size="54.0" fill="#323232" transform="matrix(1.00, 0.00, -0.00, -1.00, 481.1, 559.1)">a</text><text xml:space="preserve" font-family="Consolas,Consolas" font-size="54.0" fill="#323232" transform="matrix(1.00, 0.00, -0.00, -1.00, 510.8, 559.1)">x</text><text xml:space="preserve" font-family="Consolas,Consolas" font-size="54.0" fill="#323232" transform="matrix(1.00, 0.00, -0.00, -1.00, 540.5, 559.1)">E</text><text xml:space="preserve" font-family="Consolas,Consolas" font-size="54.0" fill="#323232" transform="matrix(1.00, 0.00, -0.00, -1.00, 570.1, 559.1)">r</text><text xml:space="preserve" font-family="Consolas,Consolas" font-size="54.0" fill="#323232" transform="matrix(1.00, 0.00, -0.00, -1.00, 599.8, 559.1)">r</text><text xml:space="preserve" font-family="Consolas,Consolas" font-size="54.0" fill="#323232" transform="matrix(1.00, 0.00, -0.00, -1.00, 629.5, 559.1)">o</text><text xml:space="preserve" font-family="Consolas,Consolas" font-size="54.0" fill="#323232" transform="matrix(1.00, 0.00, -0.00, -1.00, 659.2, 559.1)">r</text><text xml:space="preserve" font-family="Consolas,Consolas" font-size="54.0" fill="#323232" transform="matrix(1.00, 0.00, -0.00, -1.00, 688.9, 559.1)">(</text><text xml:space="preserve" font-family="Consolas,Consolas" font-size="54.0" fill="#323232" transform="matrix(1.00, 0.00, -0.00, -1.00, 718.5, 559.1)">	</text><text xml:space="preserve" font-family="Consolas,Consolas" font-size="54.0" fill="#323232" transform="matrix(1.00, 0.00, -0.00, -1.00, 746.5, 559.1)"></text><text xml:space="preserve" font-family="Consolas,Consolas" font-size="54.0" fill="#323232" transform="matrix(1.00, 0.00, -0.00, -1.00, 746.5, 559.1)"> </text><text xml:space="preserve" font-family="Consolas,Consolas" font-size="54.0" fill="#323232" transform="matrix(1.00, 0.00, -0.00, -1.00, 776.2, 559.1)"> </text><text xml:space="preserve" font-family="Consolas,Consolas" font-size="54.0" fill="#323232" transform="matrix(1.00, 0.00, -0.00, -1.00, 65.5, 496.1)">	</text><text xml:space="preserve" font-family="Consolas,Consolas" font-size="54.0" fill="#323232" transform="matrix(1.00, 0.00, -0.00, -1.00, 93.5, 496.1)"></text><text xml:space="preserve" font-family="Consolas,Consolas" font-size="54.0" fill="#323232" transform="matrix(1.00, 0.00, -0.00, -1.00, 93.5, 496.1)"> </text><text xml:space="preserve" font-family="Consolas,Consolas" font-size="54.0" fill="#323232" transform="matrix(1.00, 0.00, -0.00, -1.00, 123.2, 496.1)"> </text><text xml:space="preserve" font-family="Consolas,Consolas" font-size="54.0" fill="#323232" transform="matrix(1.00, 0.00, -0.00, -1.00, 152.9, 496.1)">	</text><text xml:space="preserve" font-family="Consolas,Consolas" font-size="54.0" fill="#323232" transform="matrix(1.00, 0.00, -0.00, -1.00, 180.9, 496.1)"></text><text xml:space="preserve" font-family="Consolas,Consolas" font-size="54.0" fill="#323232" transform="matrix(1.00, 0.00, -0.00, -1.00, 180.9, 496.1)"> </text><text xml:space="preserve" font-family="Consolas,Consolas" font-size="54.0" fill="#323232" transform="matrix(1.00, 0.00, -0.00, -1.00, 210.5, 496.1)"> </text><text xml:space="preserve" font-family="Consolas-Bold,Consolas" font-weight="bold" font-size="54.0" fill="#440D59" transform="matrix(1.00, 0.00, -0.00, -1.00, 124.9, 496.1)">f</text><text xml:space="preserve" font-family="Consolas-Bold,Consolas" font-weight="bold" font-size="54.0" fill="#440D59" transform="matrix(1.00, 0.00, -0.00, -1.00, 154.6, 496.1)">u</text><text xml:space="preserve" font-family="Consolas-Bold,Consolas" font-weight="bold" font-size="54.0" fill="#440D59" transform="matrix(1.00, 0.00, -0.00, -1.00, 184.2, 496.1)">n</text><text xml:space="preserve" font-family="Consolas-Bold,Consolas" font-weight="bold" font-size="54.0" fill="#440D59" transform="matrix(1.00, 0.00, -0.00, -1.00, 213.9, 496.1)">c</text><text xml:space="preserve" font-family="Consolas-Bold,Consolas" font-weight="bold" font-size="54.0" fill="#440D59" transform="matrix(1.00, 0.00, -0.00, -1.00, 243.6, 496.1)">t</text><text xml:space="preserve" font-family="Consolas-Bold,Consolas" font-weight="bold" font-size="54.0" fill="#440D59" transform="matrix(1.00, 0.00, -0.00, -1.00, 273.3, 496.1)">i</text><text xml:space="preserve" font-family="Consolas-Bold,Consolas" font-weight="bold" font-size="54.0" fill="#440D59" transform="matrix(1.00, 0.00, -0.00, -1.00, 303.0, 496.1)">o</text><text xml:space="preserve" font-family="Consolas-Bold,Consolas" font-weight="bold" font-size="54.0" fill="#440D59" transform="matrix(1.00, 0.00, -0.00, -1.00, 332.6, 496.1)">n</text><text xml:space="preserve" font-family="Consolas,Consolas" font-size="54.0" fill="#323232" transform="matrix(1.00, 0.00, -0.00, -1.00, 362.4, 496.1)">(</text><text xml:space="preserve" font-family="Consolas,Consolas" font-size="54.0" fill="#0042A9" transform="matrix(1.00, 0.00, -0.00, -1.00, 392.1, 496.1)">e</text><text xml:space="preserve" font-family="Consolas,Consolas" font-size="54.0" fill="#0042A9" transform="matrix(1.00, 0.00, -0.00, -1.00, 421.8, 496.1)">v</text><text xml:space="preserve" font-family="Consolas,Consolas" font-size="54.0" fill="#0042A9" transform="matrix(1.00, 0.00, -0.00, -1.00, 451.4, 496.1)">e</text><text xml:space="preserve" font-family="Consolas,Consolas" font-size="54.0" fill="#0042A9" transform="matrix(1.00, 0.00, -0.00, -1.00, 481.1, 496.1)">n</text><text xml:space="preserve" font-family="Consolas,Consolas" font-size="54.0" fill="#0042A9" transform="matrix(1.00, 0.00, -0.00, -1.00, 510.8, 496.1)">t</text><text xml:space="preserve" font-family="Consolas,Consolas" font-size="54.0" fill="#0042A9" transform="matrix(1.00, 0.00, -0.00, -1.00, 540.5, 496.1)">,</text><text xml:space="preserve" font-family="Consolas,Consolas" font-size="54.0" fill="#0042A9" transform="matrix(1.00, 0.00, -0.00, -1.00, 570.2, 496.1)">	</text><text xml:space="preserve" font-family="Consolas,Consolas" font-size="54.0" fill="#0042A9" transform="matrix(1.00, 0.00, -0.00, -1.00, 598.2, 496.1)"></text><text xml:space="preserve" font-family="Consolas,Consolas" font-size="54.0" fill="#0042A9" transform="matrix(1.00, 0.00, -0.00, -1.00, 598.2, 496.1)"> </text><text xml:space="preserve" font-family="Consolas,Consolas" font-size="54.0" fill="#0042A9" transform="matrix(1.00, 0.00, -0.00, -1.00, 627.8, 496.1)"> </text><text xml:space="preserve" font-family="Consolas,Consolas" font-size="54.0" fill="#0042A9" transform="matrix(1.00, 0.00, -0.00, -1.00, 657.5, 496.1)">r</text><text xml:space="preserve" font-family="Consolas,Consolas" font-size="54.0" fill="#0042A9" transform="matrix(1.00, 0.00, -0.00, -1.00, 687.2, 496.1)">e</text><text xml:space="preserve" font-family="Consolas,Consolas" font-size="54.0" fill="#0042A9" transform="matrix(1.00, 0.00, -0.00, -1.00, 716.9, 496.1)">q</text><text xml:space="preserve" font-family="Consolas,Consolas" font-size="54.0" fill="#0042A9" transform="matrix(1.00, 0.00, -0.00, -1.00, 746.5, 496.1)">,</text><text xml:space="preserve" font-family="Consolas,Consolas" font-size="54.0" fill="#0042A9" transform="matrix(1.00, 0.00, -0.00, -1.00, 776.2, 496.1)">	</text><text xml:space="preserve" font-family="Consolas,Consolas" font-size="54.0" fill="#0042A9" transform="matrix(1.00, 0.00, -0.00, -1.00, 804.2, 496.1)"></text><text xml:space="preserve" font-family="Consolas,Consolas" font-size="54.0" fill="#0042A9" transform="matrix(1.00, 0.00, -0.00, -1.00, 804.2, 496.1)"> </text><text xml:space="preserve" font-family="Consolas,Consolas" font-size="54.0" fill="#0042A9" transform="matrix(1.00, 0.00, -0.00, -1.00, 833.9, 496.1)"> </text><text xml:space="preserve" font-family="Consolas,Consolas" font-size="54.0" fill="#0042A9" transform="matrix(1.00, 0.00, -0.00, -1.00, 863.6, 496.1)">o</text><text xml:space="preserve" font-family="Consolas,Consolas" font-size="54.0" fill="#0042A9" transform="matrix(1.00, 0.00, -0.00, -1.00, 893.3, 496.1)">p</text><text xml:space="preserve" font-family="Consolas,Consolas" font-size="54.0" fill="#0042A9" transform="matrix(1.00, 0.00, -0.00, -1.00, 922.9, 496.1)">t</text><text xml:space="preserve" font-family="Consolas,Consolas" font-size="54.0" fill="#323232" transform="matrix(1.00, 0.00, -0.00, -1.00, 837.4, 496.1)">)</text><text xml:space="preserve" font-family="Consolas,Consolas" font-size="54.0" fill="#323232" transform="matrix(1.00, 0.00, -0.00, -1.00, 867.1, 496.1)">	</text><text xml:space="preserve" font-family="Consolas,Consolas" font-size="54.0" fill="#323232" transform="matrix(1.00, 0.00, -0.00, -1.00, 895.1, 496.1)"></text><text xml:space="preserve" font-family="Consolas,Consolas" font-size="54.0" fill="#323232" transform="matrix(1.00, 0.00, -0.00, -1.00, 895.1, 496.1)"> </text><text xml:space="preserve" font-family="Consolas,Consolas" font-size="54.0" fill="#323232" transform="matrix(1.00, 0.00, -0.00, -1.00, 924.8, 496.1)"> </text><text xml:space="preserve" font-family="Consolas,Consolas" font-size="54.0" fill="#323232" transform="matrix(1.00, 0.00, -0.00, -1.00, 954.5, 496.1)">{</text><text xml:space="preserve" font-family="Consolas,Consolas" font-size="54.0" fill="#323232" transform="matrix(1.00, 0.00, -0.00, -1.00, 984.1, 496.1)">	</text><text xml:space="preserve" font-family="Consolas,Consolas" font-size="54.0" fill="#323232" transform="matrix(1.00, 0.00, -0.00, -1.00, 1012.1, 496.1)"></text><text xml:space="preserve" font-family="Consolas,Consolas" font-size="54.0" fill="#323232" transform="matrix(1.00, 0.00, -0.00, -1.00, 1012.1, 496.1)"> </text><text xml:space="preserve" font-family="Consolas,Consolas" font-size="54.0" fill="#323232" transform="matrix(1.00, 0.00, -0.00, -1.00, 1041.8, 496.1)"> </text><text xml:space="preserve" font-family="Consolas,Consolas" font-size="54.0" fill="#323232" transform="matrix(1.00, 0.00, -0.00, -1.00, 65.5, 433.1)">	</text><text xml:space="preserve" font-family="Consolas,Consolas" font-size="54.0" fill="#323232" transform="matrix(1.00, 0.00, -0.00, -1.00, 93.5, 433.1)"></text><text xml:space="preserve" font-family="Consolas,Consolas" font-size="54.0" fill="#323232" transform="matrix(1.00, 0.00, -0.00, -1.00, 93.5, 433.1)"> </text><text xml:space="preserve" font-family="Consolas,Consolas" font-size="54.0" fill="#323232" transform="matrix(1.00, 0.00, -0.00, -1.00, 123.2, 433.1)"> </text><text xml:space="preserve" font-family="Consolas,Consolas" font-size="54.0" fill="#323232" transform="matrix(1.00, 0.00, -0.00, -1.00, 152.9, 433.1)">	</text><text xml:space="preserve" font-family="Consolas,Consolas" font-size="54.0" fill="#323232" transform="matrix(1.00, 0.00, -0.00, -1.00, 180.9, 433.1)"></text><text xml:space="preserve" font-family="Consolas,Consolas" font-size="54.0" fill="#323232" transform="matrix(1.00, 0.00, -0.00, -1.00, 180.9, 433.1)"> </text><text xml:space="preserve" font-family="Consolas,Consolas" font-size="54.0" fill="#323232" transform="matrix(1.00, 0.00, -0.00, -1.00, 210.5, 433.1)"> </text><text xml:space="preserve" font-family="Consolas,Consolas" font-size="54.0" fill="#323232" transform="matrix(1.00, 0.00, -0.00, -1.00, 240.2, 433.1)">	</text><text xml:space="preserve" font-family="Consolas,Consolas" font-size="54.0" fill="#323232" transform="matrix(1.00, 0.00, -0.00, -1.00, 268.2, 433.1)"></text><text xml:space="preserve" font-family="Consolas,Consolas" font-size="54.0" fill="#323232" transform="matrix(1.00, 0.00, -0.00, -1.00, 268.2, 433.1)"> </text><text xml:space="preserve" font-family="Consolas,Consolas" font-size="54.0" fill="#323232" transform="matrix(1.00, 0.00, -0.00, -1.00, 297.9, 433.1)"> </text><text xml:space="preserve" font-family="Consolas,Consolas" font-size="54.0" fill="#323232" transform="matrix(1.00, 0.00, -0.00, -1.00, 327.6, 433.1)">	</text><text xml:space="preserve" font-family="Consolas,Consolas" font-size="54.0" fill="#323232" transform="matrix(1.00, 0.00, -0.00, -1.00, 355.6, 433.1)"></text><text xml:space="preserve" font-family="Consolas,Consolas" font-size="54.0" fill="#323232" transform="matrix(1.00, 0.00, -0.00, -1.00, 355.6, 433.1)"> </text><text xml:space="preserve" font-family="Consolas,Consolas" font-size="54.0" fill="#323232" transform="matrix(1.00, 0.00, -0.00, -1.00, 385.3, 433.1)"> </text><text xml:space="preserve" font-family="Consolas,Consolas" font-size="52.0" fill="#4E7927" transform="matrix(1.00, 0.00, -0.00, -1.00, 184.3, 433.1)">/</text><text xml:space="preserve" font-family="Consolas,Consolas" font-size="52.0" fill="#4E7927" transform="matrix(1.00, 0.00, -0.00, -1.00, 212.8, 433.1)">/</text><text xml:space="preserve" font-family="Consolas,Consolas" font-size="52.0" fill="#4E7927" transform="matrix(1.00, 0.00, -0.00, -1.00, 241.4, 433.1)">W</text><text xml:space="preserve" font-family="Consolas,Consolas" font-size="52.0" fill="#4E7927" transform="matrix(1.00, 0.00, -0.00, -1.00, 270.0, 433.1)">o</text><text xml:space="preserve" font-family="Consolas,Consolas" font-size="52.0" fill="#4E7927" transform="matrix(1.00, 0.00, -0.00, -1.00, 298.6, 433.1)">w</text><text xml:space="preserve" font-family="Consolas,Consolas" font-size="52.0" fill="#4E7927" transform="matrix(1.00, 0.00, -0.00, -1.00, 327.2, 433.1)">-</text><text xml:space="preserve" font-family="Consolas,Consolas" font-size="52.0" fill="#4E7927" transform="matrix(1.00, 0.00, -0.00, -1.00, 355.7, 433.1)">­</text><text xml:space="preserve" font-family="Consolas,Consolas" font-size="52.0" fill="#4E7927" transform="matrix(1.00, 0.00, -0.00, -1.00, 355.7, 433.1)">‐</text><text xml:space="preserve" font-family="Consolas,Consolas" font-size="52.0" fill="#4E7927" transform="matrix(1.00, 0.00, -0.00, -1.00, 384.3, 433.1)">	</text><text xml:space="preserve" font-family="Consolas,Consolas" font-size="52.0" fill="#4E7927" transform="matrix(1.00, 0.00, -0.00, -1.00, 412.3, 433.1)"></text><text xml:space="preserve" font-family="Consolas,Consolas" font-size="52.0" fill="#4E7927" transform="matrix(1.00, 0.00, -0.00, -1.00, 412.3, 433.1)"> </text><text xml:space="preserve" font-family="Consolas,Consolas" font-size="52.0" fill="#4E7927" transform="matrix(1.00, 0.00, -0.00, -1.00, 440.9, 433.1)"> </text><text xml:space="preserve" font-family="Consolas,Consolas" font-size="52.0" fill="#4E7927" transform="matrix(1.00, 0.00, -0.00, -1.00, 469.5, 433.1)">L</text><text xml:space="preserve" font-family="Consolas,Consolas" font-size="52.0" fill="#4E7927" transform="matrix(1.00, 0.00, -0.00, -1.00, 498.0, 433.1)">O</text><text xml:space="preserve" font-family="Consolas,Consolas" font-size="52.0" fill="#4E7927" transform="matrix(1.00, 0.00, -0.00, -1.00, 526.6, 433.1)">T</text><text xml:space="preserve" font-family="Consolas,Consolas" font-size="52.0" fill="#4E7927" transform="matrix(1.00, 0.00, -0.00, -1.00, 555.2, 433.1)">S</text><text xml:space="preserve" font-family="Consolas,Consolas" font-size="52.0" fill="#4E7927" transform="matrix(1.00, 0.00, -0.00, -1.00, 583.8, 433.1)">	</text><text xml:space="preserve" font-family="Consolas,Consolas" font-size="52.0" fill="#4E7927" transform="matrix(1.00, 0.00, -0.00, -1.00, 611.8, 433.1)"></text><text xml:space="preserve" font-family="Consolas,Consolas" font-size="52.0" fill="#4E7927" transform="matrix(1.00, 0.00, -0.00, -1.00, 611.8, 433.1)"> </text><text xml:space="preserve" font-family="Consolas,Consolas" font-size="52.0" fill="#4E7927" transform="matrix(1.00, 0.00, -0.00, -1.00, 640.4, 433.1)"> </text><text xml:space="preserve" font-family="Consolas,Consolas" font-size="52.0" fill="#4E7927" transform="matrix(1.00, 0.00, -0.00, -1.00, 668.9, 433.1)">o</text><text xml:space="preserve" font-family="Consolas,Consolas" font-size="52.0" fill="#4E7927" transform="matrix(1.00, 0.00, -0.00, -1.00, 697.5, 433.1)">f</text><text xml:space="preserve" font-family="Consolas,Consolas" font-size="52.0" fill="#4E7927" transform="matrix(1.00, 0.00, -0.00, -1.00, 726.1, 433.1)">	</text><text xml:space="preserve" font-family="Consolas,Consolas" font-size="52.0" fill="#4E7927" transform="matrix(1.00, 0.00, -0.00, -1.00, 754.1, 433.1)"></text><text xml:space="preserve" font-family="Consolas,Consolas" font-size="52.0" fill="#4E7927" transform="matrix(1.00, 0.00, -0.00, -1.00, 754.1, 433.1)"> </text><text xml:space="preserve" font-family="Consolas,Consolas" font-size="52.0" fill="#4E7927" transform="matrix(1.00, 0.00, -0.00, -1.00, 782.7, 433.1)"> </text><text xml:space="preserve" font-family="Consolas,Consolas" font-size="52.0" fill="#4E7927" transform="matrix(1.00, 0.00, -0.00, -1.00, 811.3, 433.1)">a</text><text xml:space="preserve" font-family="Consolas,Consolas" font-size="52.0" fill="#4E7927" transform="matrix(1.00, 0.00, -0.00, -1.00, 839.8, 433.1)">s</text><text xml:space="preserve" font-family="Consolas,Consolas" font-size="52.0" fill="#4E7927" transform="matrix(1.00, 0.00, -0.00, -1.00, 868.4, 433.1)">s</text><text xml:space="preserve" font-family="Consolas,Consolas" font-size="52.0" fill="#4E7927" transform="matrix(1.00, 0.00, -0.00, -1.00, 897.0, 433.1)">u</text><text xml:space="preserve" font-family="Consolas,Consolas" font-size="52.0" fill="#4E7927" transform="matrix(1.00, 0.00, -0.00, -1.00, 925.6, 433.1)">m</text><text xml:space="preserve" font-family="Consolas,Consolas" font-size="52.0" fill="#4E7927" transform="matrix(1.00, 0.00, -0.00, -1.00, 954.2, 433.1)">p</text><text xml:space="preserve" font-family="Consolas,Consolas" font-size="52.0" fill="#4E7927" transform="matrix(1.00, 0.00, -0.00, -1.00, 982.7, 433.1)">t</text><text xml:space="preserve" font-family="Consolas,Consolas" font-size="52.0" fill="#4E7927" transform="matrix(1.00, 0.00, -0.00, -1.00, 1011.3, 433.1)">i</text><text xml:space="preserve" font-family="Consolas,Consolas" font-size="52.0" fill="#4E7927" transform="matrix(1.00, 0.00, -0.00, -1.00, 1039.9, 433.1)">o</text><text xml:space="preserve" font-family="Consolas,Consolas" font-size="52.0" fill="#4E7927" transform="matrix(1.00, 0.00, -0.00, -1.00, 1068.5, 433.1)">n</text><text xml:space="preserve" font-family="Consolas,Consolas" font-size="52.0" fill="#4E7927" transform="matrix(1.00, 0.00, -0.00, -1.00, 1097.1, 433.1)">s</text><text xml:space="preserve" font-family="Consolas,Consolas" font-size="52.0" fill="#4E7927" transform="matrix(1.00, 0.00, -0.00, -1.00, 1125.6, 433.1)">	</text><text xml:space="preserve" font-family="Consolas,Consolas" font-size="52.0" fill="#4E7927" transform="matrix(1.00, 0.00, -0.00, -1.00, 1153.6, 433.1)"></text><text xml:space="preserve" font-family="Consolas,Consolas" font-size="52.0" fill="#4E7927" transform="matrix(1.00, 0.00, -0.00, -1.00, 1153.6, 433.1)"> </text><text xml:space="preserve" font-family="Consolas,Consolas" font-size="52.0" fill="#4E7927" transform="matrix(1.00, 0.00, -0.00, -1.00, 1182.2, 433.1)"> </text><text xml:space="preserve" font-family="Consolas,Consolas" font-size="52.0" fill="#4E7927" transform="matrix(1.00, 0.00, -0.00, -1.00, 65.5, 371.3)">	</text><text xml:space="preserve" font-family="Consolas,Consolas" font-size="52.0" fill="#4E7927" transform="matrix(1.00, 0.00, -0.00, -1.00, 93.5, 371.3)"></text><text xml:space="preserve" font-family="Consolas,Consolas" font-size="52.0" fill="#4E7927" transform="matrix(1.00, 0.00, -0.00, -1.00, 93.5, 371.3)"> </text><text xml:space="preserve" font-family="Consolas,Consolas" font-size="52.0" fill="#4E7927" transform="matrix(1.00, 0.00, -0.00, -1.00, 122.1, 371.3)"> </text><text xml:space="preserve" font-family="Consolas,Consolas" font-size="52.0" fill="#4E7927" transform="matrix(1.00, 0.00, -0.00, -1.00, 150.7, 371.3)">	</text><text xml:space="preserve" font-family="Consolas,Consolas" font-size="52.0" fill="#4E7927" transform="matrix(1.00, 0.00, -0.00, -1.00, 178.7, 371.3)"></text><text xml:space="preserve" font-family="Consolas,Consolas" font-size="52.0" fill="#4E7927" transform="matrix(1.00, 0.00, -0.00, -1.00, 178.7, 371.3)"> </text><text xml:space="preserve" font-family="Consolas,Consolas" font-size="52.0" fill="#4E7927" transform="matrix(1.00, 0.00, -0.00, -1.00, 207.2, 371.3)"> </text><text xml:space="preserve" font-family="Consolas,Consolas" font-size="52.0" fill="#4E7927" transform="matrix(1.00, 0.00, -0.00, -1.00, 235.8, 371.3)">	</text><text xml:space="preserve" font-family="Consolas,Consolas" font-size="52.0" fill="#4E7927" transform="matrix(1.00, 0.00, -0.00, -1.00, 263.8, 371.3)"></text><text xml:space="preserve" font-family="Consolas,Consolas" font-size="52.0" fill="#4E7927" transform="matrix(1.00, 0.00, -0.00, -1.00, 263.8, 371.3)"> </text><text xml:space="preserve" font-family="Consolas,Consolas" font-size="52.0" fill="#4E7927" transform="matrix(1.00, 0.00, -0.00, -1.00, 292.4, 371.3)"> </text><text xml:space="preserve" font-family="Consolas,Consolas" font-size="52.0" fill="#4E7927" transform="matrix(1.00, 0.00, -0.00, -1.00, 321.0, 371.3)">	</text><text xml:space="preserve" font-family="Consolas,Consolas" font-size="52.0" fill="#4E7927" transform="matrix(1.00, 0.00, -0.00, -1.00, 349.0, 371.3)"></text><text xml:space="preserve" font-family="Consolas,Consolas" font-size="52.0" fill="#4E7927" transform="matrix(1.00, 0.00, -0.00, -1.00, 349.0, 371.3)"> </text><text xml:space="preserve" font-family="Consolas,Consolas" font-size="52.0" fill="#4E7927" transform="matrix(1.00, 0.00, -0.00, -1.00, 377.6, 371.3)"> </text><text xml:space="preserve" font-family="Consolas,Consolas" font-size="52.0" fill="#4E7927" transform="matrix(1.00, 0.00, -0.00, -1.00, 406.1, 371.3)">/</text><text xml:space="preserve" font-family="Consolas,Consolas" font-size="52.0" fill="#4E7927" transform="matrix(1.00, 0.00, -0.00, -1.00, 434.7, 371.3)">/</text><text xml:space="preserve" font-family="Consolas,Consolas" font-size="52.0" fill="#4E7927" transform="matrix(1.00, 0.00, -0.00, -1.00, 463.3, 371.3)">b</text><text xml:space="preserve" font-family="Consolas,Consolas" font-size="52.0" fill="#4E7927" transform="matrix(1.00, 0.00, -0.00, -1.00, 491.9, 371.3)">e</text><text xml:space="preserve" font-family="Consolas,Consolas" font-size="52.0" fill="#4E7927" transform="matrix(1.00, 0.00, -0.00, -1.00, 520.5, 371.3)">i</text><text xml:space="preserve" font-family="Consolas,Consolas" font-size="52.0" fill="#4E7927" transform="matrix(1.00, 0.00, -0.00, -1.00, 549.0, 371.3)">n</text><text xml:space="preserve" font-family="Consolas,Consolas" font-size="52.0" fill="#4E7927" transform="matrix(1.00, 0.00, -0.00, -1.00, 577.6, 371.3)">g</text><text xml:space="preserve" font-family="Consolas,Consolas" font-size="52.0" fill="#4E7927" transform="matrix(1.00, 0.00, -0.00, -1.00, 606.2, 371.3)">	</text><text xml:space="preserve" font-family="Consolas,Consolas" font-size="52.0" fill="#4E7927" transform="matrix(1.00, 0.00, -0.00, -1.00, 634.2, 371.3)"></text><text xml:space="preserve" font-family="Consolas,Consolas" font-size="52.0" fill="#4E7927" transform="matrix(1.00, 0.00, -0.00, -1.00, 634.2, 371.3)"> </text><text xml:space="preserve" font-family="Consolas,Consolas" font-size="52.0" fill="#4E7927" transform="matrix(1.00, 0.00, -0.00, -1.00, 662.8, 371.3)"> </text><text xml:space="preserve" font-family="Consolas,Consolas" font-size="52.0" fill="#4E7927" transform="matrix(1.00, 0.00, -0.00, -1.00, 691.4, 371.3)">m</text><text xml:space="preserve" font-family="Consolas,Consolas" font-size="52.0" fill="#4E7927" transform="matrix(1.00, 0.00, -0.00, -1.00, 719.9, 371.3)">a</text><text xml:space="preserve" font-family="Consolas,Consolas" font-size="52.0" fill="#4E7927" transform="matrix(1.00, 0.00, -0.00, -1.00, 748.5, 371.3)">d</text><text xml:space="preserve" font-family="Consolas,Consolas" font-size="52.0" fill="#4E7927" transform="matrix(1.00, 0.00, -0.00, -1.00, 777.1, 371.3)">e</text><text xml:space="preserve" font-family="Consolas,Consolas" font-size="52.0" fill="#4E7927" transform="matrix(1.00, 0.00, -0.00, -1.00, 805.7, 371.3)">	</text><text xml:space="preserve" font-family="Consolas,Consolas" font-size="52.0" fill="#4E7927" transform="matrix(1.00, 0.00, -0.00, -1.00, 833.7, 371.3)"></text><text xml:space="preserve" font-family="Consolas,Consolas" font-size="52.0" fill="#4E7927" transform="matrix(1.00, 0.00, -0.00, -1.00, 833.7, 371.3)"> </text><text xml:space="preserve" font-family="Consolas,Consolas" font-size="52.0" fill="#4E7927" transform="matrix(1.00, 0.00, -0.00, -1.00, 862.2, 371.3)"> </text><text xml:space="preserve" font-family="Consolas,Consolas" font-size="52.0" fill="#4E7927" transform="matrix(1.00, 0.00, -0.00, -1.00, 890.8, 371.3)">h</text><text xml:space="preserve" font-family="Consolas,Consolas" font-size="52.0" fill="#4E7927" transform="matrix(1.00, 0.00, -0.00, -1.00, 919.4, 371.3)">e</text><text xml:space="preserve" font-family="Consolas,Consolas" font-size="52.0" fill="#4E7927" transform="matrix(1.00, 0.00, -0.00, -1.00, 948.0, 371.3)">r</text><text xml:space="preserve" font-family="Consolas,Consolas" font-size="52.0" fill="#4E7927" transform="matrix(1.00, 0.00, -0.00, -1.00, 976.6, 371.3)">e</text><text xml:space="preserve" font-family="Consolas,Consolas" font-size="52.0" fill="#4E7927" transform="matrix(1.00, 0.00, -0.00, -1.00, 1005.1, 371.3)">.</text><text xml:space="preserve" font-family="Consolas,Consolas" font-size="52.0" fill="#4E7927" transform="matrix(1.00, 0.00, -0.00, -1.00, 1033.7, 371.3)">.</text><text xml:space="preserve" font-family="Consolas,Consolas" font-size="52.0" fill="#4E7927" transform="matrix(1.00, 0.00, -0.00, -1.00, 1062.3, 371.3)">.</text><text xml:space="preserve" font-family="Consolas,Consolas" font-size="54.0" fill="#323232" transform="matrix(1.00, 0.00, -0.00, -1.00, 751.7, 371.3)">	</text><text xml:space="preserve" font-family="Consolas,Consolas" font-size="54.0" fill="#323232" transform="matrix(1.00, 0.00, -0.00, -1.00, 779.7, 371.3)"></text><text xml:space="preserve" font-family="Consolas,Consolas" font-size="54.0" fill="#323232" transform="matrix(1.00, 0.00, -0.00, -1.00, 779.7, 371.3)"> </text><text xml:space="preserve" font-family="Consolas,Consolas" font-size="54.0" fill="#323232" transform="matrix(1.00, 0.00, -0.00, -1.00, 809.3, 371.3)"> </text><text xml:space="preserve" font-family="Consolas,Consolas" font-size="54.0" fill="#323232" transform="matrix(1.00, 0.00, -0.00, -1.00, 65.5, 309.1)">	</text><text xml:space="preserve" font-family="Consolas,Consolas" font-size="54.0" fill="#323232" transform="matrix(1.00, 0.00, -0.00, -1.00, 93.5, 309.1)"></text><text xml:space="preserve" font-family="Consolas,Consolas" font-size="54.0" fill="#323232" transform="matrix(1.00, 0.00, -0.00, -1.00, 93.5, 309.1)"> </text><text xml:space="preserve" font-family="Consolas,Consolas" font-size="54.0" fill="#323232" transform="matrix(1.00, 0.00, -0.00, -1.00, 123.2, 309.1)"> </text><text xml:space="preserve" font-family="Consolas,Consolas" font-size="54.0" fill="#323232" transform="matrix(1.00, 0.00, -0.00, -1.00, 152.9, 309.1)">	</text><text xml:space="preserve" font-family="Consolas,Consolas" font-size="54.0" fill="#323232" transform="matrix(1.00, 0.00, -0.00, -1.00, 180.9, 309.1)"></text><text xml:space="preserve" font-family="Consolas,Consolas" font-size="54.0" fill="#323232" transform="matrix(1.00, 0.00, -0.00, -1.00, 180.9, 309.1)"> </text><text xml:space="preserve" font-family="Consolas,Consolas" font-size="54.0" fill="#323232" transform="matrix(1.00, 0.00, -0.00, -1.00, 210.5, 309.1)"> </text><text xml:space="preserve" font-family="Consolas,Consolas" font-size="54.0" fill="#323232" transform="matrix(1.00, 0.00, -0.00, -1.00, 240.2, 309.1)">	</text><text xml:space="preserve" font-family="Consolas,Consolas" font-size="54.0" fill="#323232" transform="matrix(1.00, 0.00, -0.00, -1.00, 268.2, 309.1)"></text><text xml:space="preserve" font-family="Consolas,Consolas" font-size="54.0" fill="#323232" transform="matrix(1.00, 0.00, -0.00, -1.00, 268.2, 309.1)"> </text><text xml:space="preserve" font-family="Consolas,Consolas" font-size="54.0" fill="#323232" transform="matrix(1.00, 0.00, -0.00, -1.00, 297.9, 309.1)"> </text><text xml:space="preserve" font-family="Consolas,Consolas" font-size="54.0" fill="#323232" transform="matrix(1.00, 0.00, -0.00, -1.00, 327.6, 309.1)">	</text><text xml:space="preserve" font-family="Consolas,Consolas" font-size="54.0" fill="#323232" transform="matrix(1.00, 0.00, -0.00, -1.00, 355.6, 309.1)"></text><text xml:space="preserve" font-family="Consolas,Consolas" font-size="54.0" fill="#323232" transform="matrix(1.00, 0.00, -0.00, -1.00, 355.6, 309.1)"> </text><text xml:space="preserve" font-family="Consolas,Consolas" font-size="54.0" fill="#323232" transform="matrix(1.00, 0.00, -0.00, -1.00, 385.3, 309.1)"> </text><text xml:space="preserve" font-family="Consolas,Consolas" font-size="54.0" fill="#0042A9" transform="matrix(1.00, 0.00, -0.00, -1.00, 184.3, 309.1)">a</text><text xml:space="preserve" font-family="Consolas,Consolas" font-size="54.0" fill="#0042A9" transform="matrix(1.00, 0.00, -0.00, -1.00, 213.9, 309.1)">p</text><text xml:space="preserve" font-family="Consolas,Consolas" font-size="54.0" fill="#0042A9" transform="matrix(1.00, 0.00, -0.00, -1.00, 243.6, 309.1)">p</text><text xml:space="preserve" font-family="Consolas,Consolas" font-size="54.0" fill="#323232" transform="matrix(1.00, 0.00, -0.00, -1.00, 273.3, 309.1)">.</text><text xml:space="preserve" font-family="Consolas,Consolas" font-size="54.0" fill="#323232" transform="matrix(1.00, 0.00, -0.00, -1.00, 303.0, 309.1)">s</text><text xml:space="preserve" font-family="Consolas,Consolas" font-size="54.0" fill="#323232" transform="matrix(1.00, 0.00, -0.00, -1.00, 332.7, 309.1)">e</text><text xml:space="preserve" font-family="Consolas,Consolas" font-size="54.0" fill="#323232" transform="matrix(1.00, 0.00, -0.00, -1.00, 362.4, 309.1)">t</text><text xml:space="preserve" font-family="Consolas,Consolas" font-size="54.0" fill="#323232" transform="matrix(1.00, 0.00, -0.00, -1.00, 392.0, 309.1)">S</text><text xml:space="preserve" font-family="Consolas,Consolas" font-size="54.0" fill="#323232" transform="matrix(1.00, 0.00, -0.00, -1.00, 421.7, 309.1)">t</text><text xml:space="preserve" font-family="Consolas,Consolas" font-size="54.0" fill="#323232" transform="matrix(1.00, 0.00, -0.00, -1.00, 451.4, 309.1)">a</text><text xml:space="preserve" font-family="Consolas,Consolas" font-size="54.0" fill="#323232" transform="matrix(1.00, 0.00, -0.00, -1.00, 481.1, 309.1)">t</text><text xml:space="preserve" font-family="Consolas,Consolas" font-size="54.0" fill="#323232" transform="matrix(1.00, 0.00, -0.00, -1.00, 510.8, 309.1)">u</text><text xml:space="preserve" font-family="Consolas,Consolas" font-size="54.0" fill="#323232" transform="matrix(1.00, 0.00, -0.00, -1.00, 540.4, 309.1)">s</text><text xml:space="preserve" font-family="Consolas,Consolas" font-size="54.0" fill="#323232" transform="matrix(1.00, 0.00, -0.00, -1.00, 570.1, 309.1)">(</text><text xml:space="preserve" font-family="Consolas,Consolas" font-size="54.0" fill="#323232" transform="matrix(1.00, 0.00, -0.00, -1.00, 599.8, 309.1)">“</text><text xml:space="preserve" font-family="Consolas,Consolas" font-size="54.0" fill="#E22400" transform="matrix(1.00, 0.00, -0.00, -1.00, 629.6, 309.1)">o</text><text xml:space="preserve" font-family="Consolas,Consolas" font-size="54.0" fill="#E22400" transform="matrix(1.00, 0.00, -0.00, -1.00, 659.3, 309.1)">f</text><text xml:space="preserve" font-family="Consolas,Consolas" font-size="54.0" fill="#E22400" transform="matrix(1.00, 0.00, -0.00, -1.00, 689.0, 309.1)">f</text><text xml:space="preserve" font-family="Consolas,Consolas" font-size="54.0" fill="#E22400" transform="matrix(1.00, 0.00, -0.00, -1.00, 718.6, 309.1)">l</text><text xml:space="preserve" font-family="Consolas,Consolas" font-size="54.0" fill="#E22400" transform="matrix(1.00, 0.00, -0.00, -1.00, 748.3, 309.1)">i</text><text xml:space="preserve" font-family="Consolas,Consolas" font-size="54.0" fill="#E22400" transform="matrix(1.00, 0.00, -0.00, -1.00, 778.0, 309.1)">n</text><text xml:space="preserve" font-family="Consolas,Consolas" font-size="54.0" fill="#E22400" transform="matrix(1.00, 0.00, -0.00, -1.00, 807.7, 309.1)">e</text><text xml:space="preserve" font-family="Consolas,Consolas" font-size="54.0" fill="#323232" transform="matrix(1.00, 0.00, -0.00, -1.00, 837.4, 309.1)">”</text><text xml:space="preserve" font-family="Consolas,Consolas" font-size="54.0" fill="#323232" transform="matrix(1.00, 0.00, -0.00, -1.00, 867.1, 309.1)">)</text><text xml:space="preserve" font-family="Consolas,Consolas" font-size="54.0" fill="#323232" transform="matrix(1.00, 0.00, -0.00, -1.00, 896.8, 309.1)">;</text><text xml:space="preserve" font-family="Consolas,Consolas" font-size="54.0" fill="#323232" transform="matrix(1.00, 0.00, -0.00, -1.00, 926.5, 309.1)">	</text><text xml:space="preserve" font-family="Consolas,Consolas" font-size="54.0" fill="#323232" transform="matrix(1.00, 0.00, -0.00, -1.00, 954.5, 309.1)"></text><text xml:space="preserve" font-family="Consolas,Consolas" font-size="54.0" fill="#323232" transform="matrix(1.00, 0.00, -0.00, -1.00, 954.5, 309.1)"> </text><text xml:space="preserve" font-family="Consolas,Consolas" font-size="54.0" fill="#323232" transform="matrix(1.00, 0.00, -0.00, -1.00, 984.1, 309.1)"> </text><text xml:space="preserve" font-family="Consolas,Consolas" font-size="54.0" fill="#323232" transform="matrix(1.00, 0.00, -0.00, -1.00, 65.5, 246.1)">	</text><text xml:space="preserve" font-family="Consolas,Consolas" font-size="54.0" fill="#323232" transform="matrix(1.00, 0.00, -0.00, -1.00, 93.5, 246.1)"></text><text xml:space="preserve" font-family="Consolas,Consolas" font-size="54.0" fill="#323232" transform="matrix(1.00, 0.00, -0.00, -1.00, 93.5, 246.1)"> </text><text xml:space="preserve" font-family="Consolas,Consolas" font-size="54.0" fill="#323232" transform="matrix(1.00, 0.00, -0.00, -1.00, 123.2, 246.1)"> </text><text xml:space="preserve" font-family="Consolas,Consolas" font-size="54.0" fill="#323232" transform="matrix(1.00, 0.00, -0.00, -1.00, 152.9, 246.1)">	</text><text xml:space="preserve" font-family="Consolas,Consolas" font-size="54.0" fill="#323232" transform="matrix(1.00, 0.00, -0.00, -1.00, 180.9, 246.1)"></text><text xml:space="preserve" font-family="Consolas,Consolas" font-size="54.0" fill="#323232" transform="matrix(1.00, 0.00, -0.00, -1.00, 180.9, 246.1)"> </text><text xml:space="preserve" font-family="Consolas,Consolas" font-size="54.0" fill="#323232" transform="matrix(1.00, 0.00, -0.00, -1.00, 210.5, 246.1)"> </text><text xml:space="preserve" font-family="Consolas,Consolas" font-size="54.0" fill="#323232" transform="matrix(1.00, 0.00, -0.00, -1.00, 240.2, 246.1)">}</text><text xml:space="preserve" font-family="Consolas,Consolas" font-size="54.0" fill="#323232" transform="matrix(1.00, 0.00, -0.00, -1.00, 269.9, 246.1)">	</text><text xml:space="preserve" font-family="Consolas,Consolas" font-size="54.0" fill="#323232" transform="matrix(1.00, 0.00, -0.00, -1.00, 297.9, 246.1)"></text><text xml:space="preserve" font-family="Consolas,Consolas" font-size="54.0" fill="#323232" transform="matrix(1.00, 0.00, -0.00, -1.00, 297.9, 246.1)"> </text><text xml:space="preserve" font-family="Consolas,Consolas" font-size="54.0" fill="#323232" transform="matrix(1.00, 0.00, -0.00, -1.00, 327.6, 246.1)"> </text><text xml:space="preserve" font-family="Consolas,Consolas" font-size="54.0" fill="#323232" transform="matrix(1.00, 0.00, -0.00, -1.00, 65.5, 183.1)">)</text><text xml:space="preserve" font-family="Consolas,Consolas" font-size="54.0" fill="#323232" transform="matrix(1.00, 0.00, -0.00, -1.00, 95.2, 183.1)">;</text></g></g><text xml:space="preserve" font-family="Palatino-Italic,Palatino" font-style="italic" font-size="28.0" fill="#304863" transform="matrix(1.00, 0.00, -0.00, -1.00, 175.5, 72.3)">Y</text><text xml:space="preserve" font-family="Palatino-Italic,Palatino" font-style="italic" font-size="28.0" fill="#304863" transform="matrix(1.00, 0.00, -0.00, -1.00, 191.0, 72.3)">e</text><text xml:space="preserve" font-family="Palatino-Italic,Palatino" font-style="italic" font-size="28.0" fill="#304863" transform="matrix(1.00, 0.00, -0.00, -1.00, 201.9, 72.3)">s</text><text xml:space="preserve" font-family="Palatino-Italic,Palatino" font-style="italic" font-size="28.0" fill="#304863" transform="matrix(1.00, 0.00, -0.00, -1.00, 212.8, 72.3)"> </text><text xml:space="preserve" font-family="Palatino-Italic,Palatino" font-style="italic" font-size="28.0" fill="#304863" transform="matrix(1.00, 0.00, -0.00, -1.00, 219.8, 72.3)">-</text><text xml:space="preserve" font-family="Palatino-Italic,Palatino" font-style="italic" font-size="28.0" fill="#304863" transform="matrix(1.00, 0.00, -0.00, -1.00, 229.2, 72.3)"> </text><text xml:space="preserve" font-family="Palatino-Italic,Palatino" font-style="italic" font-size="28.0" fill="#304863" transform="matrix(1.00, 0.00, -0.00, -1.00, 236.2, 72.3)">I</text><text xml:space="preserve" font-family="Palatino-Italic,Palatino" font-style="italic" font-size="28.0" fill="#304863" transform="matrix(1.00, 0.00, -0.00, -1.00, 245.5, 72.3)"> </text><text xml:space="preserve" font-family="Palatino-Italic,Palatino" font-style="italic" font-size="28.0" fill="#304863" transform="matrix(1.00, 0.00, -0.00, -1.00, 252.5, 72.3)">k</text><text xml:space="preserve" font-family="Palatino-Italic,Palatino" font-style="italic" font-size="28.0" fill="#304863" transform="matrix(1.00, 0.00, -0.00, -1.00, 264.9, 72.3)">n</text><text xml:space="preserve" font-family="Palatino-Italic,Palatino" font-style="italic" font-size="28.0" fill="#304863" transform="matrix(1.00, 0.00, -0.00, -1.00, 280.5, 72.3)">o</text><text xml:space="preserve" font-family="Palatino-Italic,Palatino" font-style="italic" font-size="28.0" fill="#304863" transform="matrix(1.00, 0.00, -0.00, -1.00, 292.9, 72.3)">w</text><text xml:space="preserve" font-family="Palatino-Italic,Palatino" font-style="italic" font-size="28.0" fill="#304863" transform="matrix(1.00, 0.00, -0.00, -1.00, 313.1, 72.3)"> </text><text xml:space="preserve" font-family="Palatino-Italic,Palatino" font-style="italic" font-size="28.0" fill="#304863" transform="matrix(1.00, 0.00, -0.00, -1.00, 320.1, 72.3)">t</text><text xml:space="preserve" font-family="Palatino-Italic,Palatino" font-style="italic" font-size="28.0" fill="#304863" transform="matrix(1.00, 0.00, -0.00, -1.00, 329.5, 72.3)">h</text><text xml:space="preserve" font-family="Palatino-Italic,Palatino" font-style="italic" font-size="28.0" fill="#304863" transform="matrix(1.00, 0.00, -0.00, -1.00, 343.5, 72.3)">i</text><text xml:space="preserve" font-family="Palatino-Italic,Palatino" font-style="italic" font-size="28.0" fill="#304863" transform="matrix(1.00, 0.00, -0.00, -1.00, 351.2, 72.3)">s</text><text xml:space="preserve" font-family="Palatino-Italic,Palatino" font-style="italic" font-size="28.0" fill="#304863" transform="matrix(1.00, 0.00, -0.00, -1.00, 362.1, 72.3)"> </text><text xml:space="preserve" font-family="Palatino-Italic,Palatino" font-style="italic" font-size="28.0" fill="#304863" transform="matrix(1.00, 0.00, -0.00, -1.00, 369.1, 72.3)">i</text><text xml:space="preserve" font-family="Palatino-Italic,Palatino" font-style="italic" font-size="28.0" fill="#304863" transform="matrix(1.00, 0.00, -0.00, -1.00, 376.9, 72.3)">s</text><text xml:space="preserve" font-family="Palatino-Italic,Palatino" font-style="italic" font-size="28.0" fill="#304863" transform="matrix(1.00, 0.00, -0.00, -1.00, 387.8, 72.3)">n</text><text xml:space="preserve" font-family="Palatino-Italic,Palatino" font-style="italic" font-size="28.0" fill="#304863" transform="matrix(1.00, 0.00, -0.00, -1.00, 403.4, 72.3)">’</text><text xml:space="preserve" font-family="Palatino-Italic,Palatino" font-style="italic" font-size="28.0" fill="#304863" transform="matrix(1.00, 0.00, -0.00, -1.00, 410.1, 72.3)">t</text><text xml:space="preserve" font-family="Palatino-Italic,Palatino" font-style="italic" font-size="28.0" fill="#304863" transform="matrix(1.00, 0.00, -0.00, -1.00, 419.5, 72.3)"> </text><text xml:space="preserve" font-family="Palatino-Italic,Palatino" font-style="italic" font-size="28.0" fill="#304863" transform="matrix(1.00, 0.00, -0.00, -1.00, 426.5, 72.3)">*</text><text xml:space="preserve" font-family="Palatino-Italic,Palatino" font-style="italic" font-size="28.0" fill="#304863" transform="matrix(1.00, 0.00, -0.00, -1.00, 437.4, 72.3)">b</text><text xml:space="preserve" font-family="Palatino-Italic,Palatino" font-style="italic" font-size="28.0" fill="#304863" transform="matrix(1.00, 0.00, -0.00, -1.00, 450.3, 72.3)">r</text><text xml:space="preserve" font-family="Palatino-Italic,Palatino" font-style="italic" font-size="28.0" fill="#304863" transform="matrix(1.00, 0.00, -0.00, -1.00, 460.7, 72.3)">o</text><text xml:space="preserve" font-family="Palatino-Italic,Palatino" font-style="italic" font-size="28.0" fill="#304863" transform="matrix(1.00, 0.00, -0.00, -1.00, 473.2, 72.3)">w</text><text xml:space="preserve" font-family="Palatino-Italic,Palatino" font-style="italic" font-size="28.0" fill="#304863" transform="matrix(1.00, 0.00, -0.00, -1.00, 493.4, 72.3)">s</text><text xml:space="preserve" font-family="Palatino-Italic,Palatino" font-style="italic" font-size="28.0" fill="#304863" transform="matrix(1.00, 0.00, -0.00, -1.00, 504.3, 72.3)">e</text><text xml:space="preserve" font-family="Palatino-Italic,Palatino" font-style="italic" font-size="28.0" fill="#304863" transform="matrix(1.00, 0.00, -0.00, -1.00, 515.2, 72.3)">r</text><text xml:space="preserve" font-family="Palatino-Italic,Palatino" font-style="italic" font-size="28.0" fill="#304863" transform="matrix(1.00, 0.00, -0.00, -1.00, 526.1, 72.3)">-</text><text xml:space="preserve" font-family="Palatino-Italic,Palatino" font-style="italic" font-size="28.0" fill="#304863" transform="matrix(1.00, 0.00, -0.00, -1.00, 535.4, 72.3)">l</text><text xml:space="preserve" font-family="Palatino-Italic,Palatino" font-style="italic" font-size="28.0" fill="#304863" transform="matrix(1.00, 0.00, -0.00, -1.00, 543.2, 72.3)">e</text><text xml:space="preserve" font-family="Palatino-Italic,Palatino" font-style="italic" font-size="28.0" fill="#304863" transform="matrix(1.00, 0.00, -0.00, -1.00, 554.1, 72.3)">v</text><text xml:space="preserve" font-family="Palatino-Italic,Palatino" font-style="italic" font-size="28.0" fill="#304863" transform="matrix(1.00, 0.00, -0.00, -1.00, 568.1, 72.3)">e</text><text xml:space="preserve" font-family="Palatino-Italic,Palatino" font-style="italic" font-size="28.0" fill="#304863" transform="matrix(1.00, 0.00, -0.00, -1.00, 579.0, 72.3)">l</text><text xml:space="preserve" font-family="Palatino-Italic,Palatino" font-style="italic" font-size="28.0" fill="#304863" transform="matrix(1.00, 0.00, -0.00, -1.00, 586.8, 72.3)">*</text><text xml:space="preserve" font-family="Palatino-Italic,Palatino" font-style="italic" font-size="28.0" fill="#304863" transform="matrix(1.00, 0.00, -0.00, -1.00, 597.7, 72.3)">,</text><text xml:space="preserve" font-family="Palatino-Italic,Palatino" font-style="italic" font-size="28.0" fill="#304863" transform="matrix(1.00, 0.00, -0.00, -1.00, 604.7, 72.3)"> </text><text xml:space="preserve" font-family="Palatino-Italic,Palatino" font-style="italic" font-size="28.0" fill="#304863" transform="matrix(1.00, 0.00, -0.00, -1.00, 611.7, 72.3)">h</text><text xml:space="preserve" font-family="Palatino-Italic,Palatino" font-style="italic" font-size="28.0" fill="#304863" transform="matrix(1.00, 0.00, -0.00, -1.00, 625.7, 72.3)">e</text><text xml:space="preserve" font-family="Palatino-Italic,Palatino" font-style="italic" font-size="28.0" fill="#304863" transform="matrix(1.00, 0.00, -0.00, -1.00, 636.6, 72.3)">y</text><text xml:space="preserve" font-family="Palatino-Italic,Palatino" font-style="italic" font-size="28.0" fill="#304863" transform="matrix(1.00, 0.00, -0.00, -1.00, 650.6, 72.3)"> </text><text xml:space="preserve" font-family="Palatino-Italic,Palatino" font-style="italic" font-size="28.0" fill="#304863" transform="matrix(1.00, 0.00, -0.00, -1.00, 657.6, 72.3)">l</text><text xml:space="preserve" font-family="Palatino-Italic,Palatino" font-style="italic" font-size="28.0" fill="#304863" transform="matrix(1.00, 0.00, -0.00, -1.00, 665.4, 72.3)">o</text><text xml:space="preserve" font-family="Palatino-Italic,Palatino" font-style="italic" font-size="28.0" fill="#304863" transform="matrix(1.00, 0.00, -0.00, -1.00, 677.8, 72.3)">o</text><text xml:space="preserve" font-family="Palatino-Italic,Palatino" font-style="italic" font-size="28.0" fill="#304863" transform="matrix(1.00, 0.00, -0.00, -1.00, 690.2, 72.3)">k</text><text xml:space="preserve" font-family="Palatino-Italic,Palatino" font-style="italic" font-size="28.0" fill="#304863" transform="matrix(1.00, 0.00, -0.00, -1.00, 702.6, 72.3)">…</text><text xml:space="preserve" font-family="Palatino-Italic,Palatino" font-style="italic" font-size="28.0" fill="#304863" transform="matrix(1.00, 0.00, -0.00, -1.00, 730.6, 72.3)">a</text><text xml:space="preserve" font-family="Palatino-Italic,Palatino" font-style="italic" font-size="28.0" fill="#304863" transform="matrix(1.00, 0.00, -0.00, -1.00, 743.0, 72.3)"> </text><text xml:space="preserve" font-family="Palatino-Italic,Palatino" font-style="italic" font-size="28.0" fill="#304863" transform="matrix(1.00, 0.00, -0.00, -1.00, 750.0, 72.3)">s</text><text xml:space="preserve" font-family="Palatino-Italic,Palatino" font-style="italic" font-size="28.0" fill="#304863" transform="matrix(1.00, 0.00, -0.00, -1.00, 760.9, 72.3)">q</text><text xml:space="preserve" font-family="Palatino-Italic,Palatino" font-style="italic" font-size="28.0" fill="#304863" transform="matrix(1.00, 0.00, -0.00, -1.00, 773.9, 72.3)">u</text><text xml:space="preserve" font-family="Palatino-Italic,Palatino" font-style="italic" font-size="28.0" fill="#304863" transform="matrix(1.00, 0.00, -0.00, -1.00, 789.5, 72.3)">i</text><text xml:space="preserve" font-family="Palatino-Italic,Palatino" font-style="italic" font-size="28.0" fill="#304863" transform="matrix(1.00, 0.00, -0.00, -1.00, 797.3, 72.3)">r</text><text xml:space="preserve" font-family="Palatino-Italic,Palatino" font-style="italic" font-size="28.0" fill="#304863" transform="matrix(1.00, 0.00, -0.00, -1.00, 808.2, 72.3)">r</text><text xml:space="preserve" font-family="Palatino-Italic,Palatino" font-style="italic" font-size="28.0" fill="#304863" transform="matrix(1.00, 0.00, -0.00, -1.00, 818.6, 72.3)">e</text><text xml:space="preserve" font-family="Palatino-Italic,Palatino" font-style="italic" font-size="28.0" fill="#304863" transform="matrix(1.00, 0.00, -0.00, -1.00, 829.5, 72.3)">l</text><text xml:space="preserve" font-family="Palatino-Italic,Palatino" font-style="italic" font-size="28.0" fill="#304863" transform="matrix(1.00, 0.00, -0.00, -1.00, 837.2, 72.3)">!</text></g></svg>