<?xml version="1.0" encoding="UTF-8" standalone="no"?><svg xmlns="http://www.w3.org/2000/svg" xmlns:xlink="http://www.w3.org/1999/xlink" clip-rule="evenodd" stroke-miterlimit="10" viewBox="0 0 1024 768"><desc>SVG generated by Keynote</desc><defs></defs><g transform="matrix(1.00, 0.00, -0.00, -1.00, 0.0, 768.0)"><path d="M 0.0 768.0 L 1024.0 768.0 L 1024.0 0.0 L 0.0 0.0 Z M 0.0 768.0 " fill="#FDFEF7"></path><text xml:space="preserve" font-family="HelveticaNeue,Helvetica Neue" font-size="75.0" fill="#797979" transform="matrix(1.00, 0.00, -0.00, -1.00, 246.7, 520.6)">Y</text><text xml:space="preserve" font-family="HelveticaNeue,Helvetica Neue" font-size="75.0" fill="#797979" transform="matrix(1.00, 0.00, -0.00, -1.00, 286.9, 520.6)">e</text><text xml:space="preserve" font-family="HelveticaNeue,Helvetica Neue" font-size="75.0" fill="#797979" transform="matrix(1.00, 0.00, -0.00, -1.00, 327.2, 520.6)">p</text><text xml:space="preserve" font-family="HelveticaNeue,Helvetica Neue" font-size="75.0" fill="#797979" transform="matrix(1.00, 0.00, -0.00, -1.00, 371.7, 520.6)"> </text><text xml:space="preserve" font-family="HelveticaNeue,Helvetica Neue" font-size="75.0" fill="#797979" transform="matrix(1.00, 0.00, -0.00, -1.00, 392.5, 520.6)">-</text><text xml:space="preserve" font-family="HelveticaNeue,Helvetica Neue" font-size="75.0" fill="#797979" transform="matrix(1.00, 0.00, -0.00, -1.00, 421.7, 520.6)"> </text><text xml:space="preserve" font-family="HelveticaNeue,Helvetica Neue" font-size="75.0" fill="#797979" transform="matrix(1.00, 0.00, -0.00, -1.00, 442.6, 520.6)">i</text><text xml:space="preserve" font-family="HelveticaNeue,Helvetica Neue" font-size="75.0" fill="#797979" transform="matrix(1.00, 0.00, -0.00, -1.00, 459.2, 520.6)">t</text><text xml:space="preserve" font-family="HelveticaNeue,Helvetica Neue" font-size="75.0" fill="#797979" transform="matrix(1.00, 0.00, -0.00, -1.00, 482.8, 520.6)">’</text><text xml:space="preserve" font-family="HelveticaNeue,Helvetica Neue" font-size="75.0" fill="#797979" transform="matrix(1.00, 0.00, -0.00, -1.00, 498.1, 520.6)">s</text><text xml:space="preserve" font-family="HelveticaNeue,Helvetica Neue" font-size="75.0" fill="#797979" transform="matrix(1.00, 0.00, -0.00, -1.00, 535.6, 520.6)"> </text><text xml:space="preserve" font-family="HelveticaNeue,Helvetica Neue" font-size="75.0" fill="#797979" transform="matrix(1.00, 0.00, -0.00, -1.00, 556.5, 520.6)">u</text><text xml:space="preserve" font-family="HelveticaNeue,Helvetica Neue" font-size="75.0" fill="#797979" transform="matrix(1.00, 0.00, -0.00, -1.00, 598.2, 520.6)">s</text><text xml:space="preserve" font-family="HelveticaNeue,Helvetica Neue" font-size="75.0" fill="#797979" transform="matrix(1.00, 0.00, -0.00, -1.00, 635.7, 520.6)">e</text><text xml:space="preserve" font-family="HelveticaNeue,Helvetica Neue" font-size="75.0" fill="#797979" transform="matrix(1.00, 0.00, -0.00, -1.00, 676.0, 520.6)">f</text><text xml:space="preserve" font-family="HelveticaNeue,Helvetica Neue" font-size="75.0" fill="#797979" transform="matrix(1.00, 0.00, -0.00, -1.00, 698.2, 520.6)">u</text><text xml:space="preserve" font-family="HelveticaNeue,Helvetica Neue" font-size="75.0" fill="#797979" transform="matrix(1.00, 0.00, -0.00, -1.00, 739.9, 520.6)">l</text><text xml:space="preserve" font-family="HelveticaNeue,Helvetica Neue" font-size="75.0" fill="#797979" transform="matrix(1.00, 0.00, -0.00, -1.00, 756.5, 520.6)">.</text><text xml:space="preserve" font-family="HelveticaNeue,Helvetica Neue" font-size="75.0" fill="#797979" transform="matrix(1.00, 0.00, -0.00, -1.00, 777.4, 520.6)">
</text><text xml:space="preserve" font-family="HelveticaNeue,Helvetica Neue" font-size="75.0" fill="#797979" transform="matrix(1.00, 0.00, -0.00, -1.00, 92.4, 384.2)">I</text><text xml:space="preserve" font-family="HelveticaNeue,Helvetica Neue" font-size="75.0" fill="#797979" transform="matrix(1.00, 0.00, -0.00, -1.00, 111.8, 384.2)">t</text><text xml:space="preserve" font-family="HelveticaNeue,Helvetica Neue" font-size="75.0" fill="#797979" transform="matrix(1.00, 0.00, -0.00, -1.00, 135.5, 384.2)">’</text><text xml:space="preserve" font-family="HelveticaNeue,Helvetica Neue" font-size="75.0" fill="#797979" transform="matrix(1.00, 0.00, -0.00, -1.00, 150.8, 384.2)">s</text><text xml:space="preserve" font-family="HelveticaNeue,Helvetica Neue" font-size="75.0" fill="#797979" transform="matrix(1.00, 0.00, -0.00, -1.00, 188.3, 384.2)"> </text><text xml:space="preserve" font-family="HelveticaNeue,Helvetica Neue" font-size="75.0" fill="#797979" transform="matrix(1.00, 0.00, -0.00, -1.00, 209.1, 384.2)">a</text><text xml:space="preserve" font-family="HelveticaNeue,Helvetica Neue" font-size="75.0" fill="#797979" transform="matrix(1.00, 0.00, -0.00, -1.00, 249.4, 384.2)">l</text><text xml:space="preserve" font-family="HelveticaNeue,Helvetica Neue" font-size="75.0" fill="#797979" transform="matrix(1.00, 0.00, -0.00, -1.00, 266.0, 384.2)">s</text><text xml:space="preserve" font-family="HelveticaNeue,Helvetica Neue" font-size="75.0" fill="#797979" transform="matrix(1.00, 0.00, -0.00, -1.00, 303.5, 384.2)">o</text><text xml:space="preserve" font-family="HelveticaNeue,Helvetica Neue" font-size="75.0" fill="#797979" transform="matrix(1.00, 0.00, -0.00, -1.00, 346.6, 384.2)"> </text><text xml:space="preserve" font-family="HelveticaNeue,Helvetica Neue" font-size="75.0" fill="#797979" transform="matrix(1.00, 0.00, -0.00, -1.00, 367.4, 384.2)">b</text><text xml:space="preserve" font-family="HelveticaNeue,Helvetica Neue" font-size="75.0" fill="#797979" transform="matrix(1.00, 0.00, -0.00, -1.00, 411.9, 384.2)">l</text><text xml:space="preserve" font-family="HelveticaNeue,Helvetica Neue" font-size="75.0" fill="#797979" transform="matrix(1.00, 0.00, -0.00, -1.00, 428.6, 384.2)">u</text><text xml:space="preserve" font-family="HelveticaNeue,Helvetica Neue" font-size="75.0" fill="#797979" transform="matrix(1.00, 0.00, -0.00, -1.00, 470.3, 384.2)">n</text><text xml:space="preserve" font-family="HelveticaNeue,Helvetica Neue" font-size="75.0" fill="#797979" transform="matrix(1.00, 0.00, -0.00, -1.00, 512.0, 384.2)">t</text><text xml:space="preserve" font-family="HelveticaNeue,Helvetica Neue" font-size="75.0" fill="#797979" transform="matrix(1.00, 0.00, -0.00, -1.00, 535.6, 384.2)">,</text><text xml:space="preserve" font-family="HelveticaNeue,Helvetica Neue" font-size="75.0" fill="#797979" transform="matrix(1.00, 0.00, -0.00, -1.00, 556.4, 384.2)"> </text><text xml:space="preserve" font-family="HelveticaNeue,Helvetica Neue" font-size="75.0" fill="#797979" transform="matrix(1.00, 0.00, -0.00, -1.00, 577.3, 384.2)">a</text><text xml:space="preserve" font-family="HelveticaNeue,Helvetica Neue" font-size="75.0" fill="#797979" transform="matrix(1.00, 0.00, -0.00, -1.00, 617.6, 384.2)">n</text><text xml:space="preserve" font-family="HelveticaNeue,Helvetica Neue" font-size="75.0" fill="#797979" transform="matrix(1.00, 0.00, -0.00, -1.00, 659.3, 384.2)">d</text><text xml:space="preserve" font-family="HelveticaNeue,Helvetica Neue" font-size="75.0" fill="#797979" transform="matrix(1.00, 0.00, -0.00, -1.00, 703.7, 384.2)"> </text><text xml:space="preserve" font-family="HelveticaNeue,Helvetica Neue" font-size="75.0" fill="#797979" transform="matrix(1.00, 0.00, -0.00, -1.00, 724.6, 384.2)">b</text><text xml:space="preserve" font-family="HelveticaNeue,Helvetica Neue" font-size="75.0" fill="#797979" transform="matrix(1.00, 0.00, -0.00, -1.00, 769.1, 384.2)">a</text><text xml:space="preserve" font-family="HelveticaNeue,Helvetica Neue" font-size="75.0" fill="#797979" transform="matrix(1.00, 0.00, -0.00, -1.00, 809.3, 384.2)">s</text><text xml:space="preserve" font-family="HelveticaNeue,Helvetica Neue" font-size="75.0" fill="#797979" transform="matrix(1.00, 0.00, -0.00, -1.00, 846.8, 384.2)">e</text><text xml:space="preserve" font-family="HelveticaNeue,Helvetica Neue" font-size="75.0" fill="#797979" transform="matrix(1.00, 0.00, -0.00, -1.00, 887.1, 384.2)">d</text><text xml:space="preserve" font-family="HelveticaNeue,Helvetica Neue" font-size="75.0" fill="#797979" transform="matrix(1.00, 0.00, -0.00, -1.00, 931.6, 384.2)"> </text><text xml:space="preserve" font-family="HelveticaNeue,Helvetica Neue" font-size="75.0" fill="#797979" transform="matrix(1.00, 0.00, -0.00, -1.00, 177.9, 277.8)">e</text><text xml:space="preserve" font-family="HelveticaNeue,Helvetica Neue" font-size="75.0" fill="#797979" transform="matrix(1.00, 0.00, -0.00, -1.00, 218.2, 277.8)">n</text><text xml:space="preserve" font-family="HelveticaNeue,Helvetica Neue" font-size="75.0" fill="#797979" transform="matrix(1.00, 0.00, -0.00, -1.00, 259.9, 277.8)">t</text><text xml:space="preserve" font-family="HelveticaNeue,Helvetica Neue" font-size="75.0" fill="#797979" transform="matrix(1.00, 0.00, -0.00, -1.00, 283.5, 277.8)">i</text><text xml:space="preserve" font-family="HelveticaNeue,Helvetica Neue" font-size="75.0" fill="#797979" transform="matrix(1.00, 0.00, -0.00, -1.00, 300.2, 277.8)">r</text><text xml:space="preserve" font-family="HelveticaNeue,Helvetica Neue" font-size="75.0" fill="#797979" transform="matrix(1.00, 0.00, -0.00, -1.00, 323.8, 277.8)">e</text><text xml:space="preserve" font-family="HelveticaNeue,Helvetica Neue" font-size="75.0" fill="#797979" transform="matrix(1.00, 0.00, -0.00, -1.00, 364.1, 277.8)">l</text><text xml:space="preserve" font-family="HelveticaNeue,Helvetica Neue" font-size="75.0" fill="#797979" transform="matrix(1.00, 0.00, -0.00, -1.00, 380.7, 277.8)">y</text><text xml:space="preserve" font-family="HelveticaNeue,Helvetica Neue" font-size="75.0" fill="#797979" transform="matrix(1.00, 0.00, -0.00, -1.00, 418.2, 277.8)"> </text><text xml:space="preserve" font-family="HelveticaNeue,Helvetica Neue" font-size="75.0" fill="#797979" transform="matrix(1.00, 0.00, -0.00, -1.00, 439.1, 277.8)">o</text><text xml:space="preserve" font-family="HelveticaNeue,Helvetica Neue" font-size="75.0" fill="#797979" transform="matrix(1.00, 0.00, -0.00, -1.00, 482.1, 277.8)">n</text><text xml:space="preserve" font-family="HelveticaNeue,Helvetica Neue" font-size="75.0" fill="#797979" transform="matrix(1.00, 0.00, -0.00, -1.00, 523.8, 277.8)"> </text><text xml:space="preserve" font-family="HelveticaNeue,Helvetica Neue" font-size="75.0" fill="#797979" transform="matrix(1.00, 0.00, -0.00, -1.00, 544.7, 277.8)">‘</text><text xml:space="preserve" font-family="HelveticaNeue,Helvetica Neue" font-size="75.0" fill="#797979" transform="matrix(1.00, 0.00, -0.00, -1.00, 565.5, 277.8)">f</text><text xml:space="preserve" font-family="HelveticaNeue,Helvetica Neue" font-size="75.0" fill="#797979" transform="matrix(1.00, 0.00, -0.00, -1.00, 587.7, 277.8)">a</text><text xml:space="preserve" font-family="HelveticaNeue,Helvetica Neue" font-size="75.0" fill="#797979" transform="matrix(1.00, 0.00, -0.00, -1.00, 628.0, 277.8)">i</text><text xml:space="preserve" font-family="HelveticaNeue,Helvetica Neue" font-size="75.0" fill="#797979" transform="matrix(1.00, 0.00, -0.00, -1.00, 644.6, 277.8)">l</text><text xml:space="preserve" font-family="HelveticaNeue,Helvetica Neue" font-size="75.0" fill="#797979" transform="matrix(1.00, 0.00, -0.00, -1.00, 661.3, 277.8)">u</text><text xml:space="preserve" font-family="HelveticaNeue,Helvetica Neue" font-size="75.0" fill="#797979" transform="matrix(1.00, 0.00, -0.00, -1.00, 703.0, 277.8)">r</text><text xml:space="preserve" font-family="HelveticaNeue,Helvetica Neue" font-size="75.0" fill="#797979" transform="matrix(1.00, 0.00, -0.00, -1.00, 726.6, 277.8)">e</text><text xml:space="preserve" font-family="HelveticaNeue,Helvetica Neue" font-size="75.0" fill="#797979" transform="matrix(1.00, 0.00, -0.00, -1.00, 766.9, 277.8)">s</text><text xml:space="preserve" font-family="HelveticaNeue,Helvetica Neue" font-size="75.0" fill="#797979" transform="matrix(1.00, 0.00, -0.00, -1.00, 804.4, 277.8)">’</text><text xml:space="preserve" font-family="HelveticaNeue,Helvetica Neue" font-size="75.0" fill="#797979" transform="matrix(1.00, 0.00, -0.00, -1.00, 825.2, 277.8)">.</text></g></svg>