<?xml version="1.0" encoding="UTF-8" standalone="no"?><svg xmlns="http://www.w3.org/2000/svg" xmlns:xlink="http://www.w3.org/1999/xlink" clip-rule="evenodd" stroke-miterlimit="10" viewBox="0 0 881 378"><desc>SVG generated by Keynote</desc><defs></defs><g transform="matrix(1.00, 0.00, -0.00, -1.00, 0.0, 378.0)"><text xml:space="preserve" font-family="BebasNeue,Bebas Neue" font-size="72.5" fill="#FEFFFF" transform="matrix(1.00, 0.00, -0.00, -1.00, 0.0, 311.8)">•</text><text xml:space="preserve" font-family="BebasNeue,Bebas Neue" font-size="58.0" fill="#FCFBC5" transform="matrix(1.00, 0.00, -0.00, -1.00, 45.0, 316.4)">C</text><text xml:space="preserve" font-family="BebasNeue,Bebas Neue" font-size="58.0" fill="#FCFBC5" transform="matrix(1.00, 0.00, -0.00, -1.00, 68.5, 316.4)">O</text><text xml:space="preserve" font-family="BebasNeue,Bebas Neue" font-size="58.0" fill="#FCFBC5" transform="matrix(1.00, 0.00, -0.00, -1.00, 92.7, 316.4)">N</text><text xml:space="preserve" font-family="BebasNeue,Bebas Neue" font-size="58.0" fill="#FCFBC5" transform="matrix(1.00, 0.00, -0.00, -1.00, 118.6, 316.4)">S</text><text xml:space="preserve" font-family="BebasNeue,Bebas Neue" font-size="58.0" fill="#FCFBC5" transform="matrix(1.00, 0.00, -0.00, -1.00, 141.5, 316.4)"> </text><text xml:space="preserve" font-family="BebasNeue,Bebas Neue" font-size="72.5" fill="#FEFFFF" transform="matrix(1.00, 0.00, -0.00, -1.00, 22.0, 205.5)">•</text><text xml:space="preserve" font-family="BebasNeue,Bebas Neue" font-size="58.0" fill="#FCFBC5" transform="matrix(1.00, 0.00, -0.00, -1.00, 67.0, 210.1)">M</text><text xml:space="preserve" font-family="BebasNeue,Bebas Neue" font-size="58.0" fill="#FCFBC5" transform="matrix(1.00, 0.00, -0.00, -1.00, 99.5, 210.1)">o</text><text xml:space="preserve" font-family="BebasNeue,Bebas Neue" font-size="58.0" fill="#FCFBC5" transform="matrix(1.00, 0.00, -0.00, -1.00, 123.7, 210.1)">d</text><text xml:space="preserve" font-family="BebasNeue,Bebas Neue" font-size="58.0" fill="#FCFBC5" transform="matrix(1.00, 0.00, -0.00, -1.00, 148.5, 210.1)">e</text><text xml:space="preserve" font-family="BebasNeue,Bebas Neue" font-size="58.0" fill="#FCFBC5" transform="matrix(1.00, 0.00, -0.00, -1.00, 171.0, 210.1)">l</text><text xml:space="preserve" font-family="BebasNeue,Bebas Neue" font-size="58.0" fill="#FCFBC5" transform="matrix(1.00, 0.00, -0.00, -1.00, 191.8, 210.1)">i</text><text xml:space="preserve" font-family="BebasNeue,Bebas Neue" font-size="58.0" fill="#FCFBC5" transform="matrix(1.00, 0.00, -0.00, -1.00, 204.0, 210.1)">n</text><text xml:space="preserve" font-family="BebasNeue,Bebas Neue" font-size="58.0" fill="#FCFBC5" transform="matrix(1.00, 0.00, -0.00, -1.00, 229.9, 210.1)">g</text><text xml:space="preserve" font-family="BebasNeue,Bebas Neue" font-size="58.0" fill="#FCFBC5" transform="matrix(1.00, 0.00, -0.00, -1.00, 253.7, 210.1)"> </text><text xml:space="preserve" font-family="BebasNeue,Bebas Neue" font-size="58.0" fill="#FCFBC5" transform="matrix(1.00, 0.00, -0.00, -1.00, 263.9, 210.1)">C</text><text xml:space="preserve" font-family="BebasNeue,Bebas Neue" font-size="58.0" fill="#FCFBC5" transform="matrix(1.00, 0.00, -0.00, -1.00, 287.4, 210.1)">o</text><text xml:space="preserve" font-family="BebasNeue,Bebas Neue" font-size="58.0" fill="#FCFBC5" transform="matrix(1.00, 0.00, -0.00, -1.00, 311.5, 210.1)">m</text><text xml:space="preserve" font-family="BebasNeue,Bebas Neue" font-size="58.0" fill="#FCFBC5" transform="matrix(1.00, 0.00, -0.00, -1.00, 344.1, 210.1)">p</text><text xml:space="preserve" font-family="BebasNeue,Bebas Neue" font-size="58.0" fill="#FCFBC5" transform="matrix(1.00, 0.00, -0.00, -1.00, 367.1, 210.1)">l</text><text xml:space="preserve" font-family="BebasNeue,Bebas Neue" font-size="58.0" fill="#FCFBC5" transform="matrix(1.00, 0.00, -0.00, -1.00, 387.9, 210.1)">e</text><text xml:space="preserve" font-family="BebasNeue,Bebas Neue" font-size="58.0" fill="#FCFBC5" transform="matrix(1.00, 0.00, -0.00, -1.00, 410.4, 210.1)">x</text><text xml:space="preserve" font-family="BebasNeue,Bebas Neue" font-size="58.0" fill="#FCFBC5" transform="matrix(1.00, 0.00, -0.00, -1.00, 436.5, 210.1)">/</text><text xml:space="preserve" font-family="BebasNeue,Bebas Neue" font-size="58.0" fill="#FCFBC5" transform="matrix(1.00, 0.00, -0.00, -1.00, 459.8, 210.1)">H</text><text xml:space="preserve" font-family="BebasNeue,Bebas Neue" font-size="58.0" fill="#FCFBC5" transform="matrix(1.00, 0.00, -0.00, -1.00, 485.7, 210.1)">i</text><text xml:space="preserve" font-family="BebasNeue,Bebas Neue" font-size="58.0" fill="#FCFBC5" transform="matrix(1.00, 0.00, -0.00, -1.00, 497.9, 210.1)">e</text><text xml:space="preserve" font-family="BebasNeue,Bebas Neue" font-size="58.0" fill="#FCFBC5" transform="matrix(1.00, 0.00, -0.00, -1.00, 520.4, 210.1)">r</text><text xml:space="preserve" font-family="BebasNeue,Bebas Neue" font-size="58.0" fill="#FCFBC5" transform="matrix(1.00, 0.00, -0.00, -1.00, 544.9, 210.1)">a</text><text xml:space="preserve" font-family="BebasNeue,Bebas Neue" font-size="58.0" fill="#FCFBC5" transform="matrix(1.00, 0.00, -0.00, -1.00, 569.6, 210.1)">r</text><text xml:space="preserve" font-family="BebasNeue,Bebas Neue" font-size="58.0" fill="#FCFBC5" transform="matrix(1.00, 0.00, -0.00, -1.00, 594.1, 210.1)">c</text><text xml:space="preserve" font-family="BebasNeue,Bebas Neue" font-size="58.0" fill="#FCFBC5" transform="matrix(1.00, 0.00, -0.00, -1.00, 617.7, 210.1)">h</text><text xml:space="preserve" font-family="BebasNeue,Bebas Neue" font-size="58.0" fill="#FCFBC5" transform="matrix(1.00, 0.00, -0.00, -1.00, 643.6, 210.1)">i</text><text xml:space="preserve" font-family="BebasNeue,Bebas Neue" font-size="58.0" fill="#FCFBC5" transform="matrix(1.00, 0.00, -0.00, -1.00, 655.8, 210.1)">c</text><text xml:space="preserve" font-family="BebasNeue,Bebas Neue" font-size="58.0" fill="#FCFBC5" transform="matrix(1.00, 0.00, -0.00, -1.00, 679.3, 210.1)">a</text><text xml:space="preserve" font-family="BebasNeue,Bebas Neue" font-size="58.0" fill="#FCFBC5" transform="matrix(1.00, 0.00, -0.00, -1.00, 704.1, 210.1)">l</text><text xml:space="preserve" font-family="BebasNeue,Bebas Neue" font-size="58.0" fill="#FCFBC5" transform="matrix(1.00, 0.00, -0.00, -1.00, 724.9, 210.1)"> </text><text xml:space="preserve" font-family="BebasNeue,Bebas Neue" font-size="58.0" fill="#FCFBC5" transform="matrix(1.00, 0.00, -0.00, -1.00, 735.0, 210.1)">F</text><text xml:space="preserve" font-family="BebasNeue,Bebas Neue" font-size="58.0" fill="#FCFBC5" transform="matrix(1.00, 0.00, -0.00, -1.00, 756.2, 210.1)">S</text><text xml:space="preserve" font-family="BebasNeue,Bebas Neue" font-size="58.0" fill="#FCFBC5" transform="matrix(1.00, 0.00, -0.00, -1.00, 779.0, 210.1)">M</text><text xml:space="preserve" font-family="BebasNeue,Bebas Neue" font-size="58.0" fill="#FCFBC5" transform="matrix(1.00, 0.00, -0.00, -1.00, 811.5, 210.1)">s</text><text xml:space="preserve" font-family="BebasNeue,Bebas Neue" font-size="58.0" fill="#FCFBC5" transform="matrix(1.00, 0.00, -0.00, -1.00, 834.4, 210.1)"> </text><text xml:space="preserve" font-family="BebasNeue,Bebas Neue" font-size="58.0" fill="#FCFBC5" transform="matrix(1.00, 0.00, -0.00, -1.00, 844.5, 210.1)">i</text><text xml:space="preserve" font-family="BebasNeue,Bebas Neue" font-size="58.0" fill="#FCFBC5" transform="matrix(1.00, 0.00, -0.00, -1.00, 856.7, 210.1)">s</text><text xml:space="preserve" font-family="BebasNeue,Bebas Neue" font-size="58.0" fill="#FCFBC5" transform="matrix(1.00, 0.00, -0.00, -1.00, 879.6, 210.1)"> </text><text xml:space="preserve" font-family="BebasNeue,Bebas Neue" font-size="58.0" fill="#FCFBC5" transform="matrix(1.00, 0.00, -0.00, -1.00, 67.0, 132.8)">“</text><text xml:space="preserve" font-family="BebasNeue,Bebas Neue" font-size="58.0" fill="#FCFBC5" transform="matrix(1.00, 0.00, -0.00, -1.00, 87.4, 132.8)">h</text><text xml:space="preserve" font-family="BebasNeue,Bebas Neue" font-size="58.0" fill="#FCFBC5" transform="matrix(1.00, 0.00, -0.00, -1.00, 113.3, 132.8)">a</text><text xml:space="preserve" font-family="BebasNeue,Bebas Neue" font-size="58.0" fill="#FCFBC5" transform="matrix(1.00, 0.00, -0.00, -1.00, 138.1, 132.8)">r</text><text xml:space="preserve" font-family="BebasNeue,Bebas Neue" font-size="58.0" fill="#FCFBC5" transform="matrix(1.00, 0.00, -0.00, -1.00, 162.6, 132.8)">d</text><text xml:space="preserve" font-family="BebasNeue,Bebas Neue" font-size="58.0" fill="#FCFBC5" transform="matrix(1.00, 0.00, -0.00, -1.00, 186.8, 132.8)">”</text><text xml:space="preserve" font-family="BebasNeue,Bebas Neue" font-size="58.0" fill="#FCFBC5" transform="matrix(1.00, 0.00, -0.00, -1.00, 207.2, 132.8)"> </text><text xml:space="preserve" font-family="BebasNeue,Bebas Neue" font-size="72.5" fill="#FEFFFF" transform="matrix(1.00, 0.00, -0.00, -1.00, 22.0, 21.9)">•</text><text xml:space="preserve" font-family="BebasNeue,Bebas Neue" font-size="58.0" fill="#FCFBC5" transform="matrix(1.00, 0.00, -0.00, -1.00, 67.0, 26.6)">L</text><text xml:space="preserve" font-family="BebasNeue,Bebas Neue" font-size="58.0" fill="#FCFBC5" transform="matrix(1.00, 0.00, -0.00, -1.00, 87.8, 26.6)">e</text><text xml:space="preserve" font-family="BebasNeue,Bebas Neue" font-size="58.0" fill="#FCFBC5" transform="matrix(1.00, 0.00, -0.00, -1.00, 110.3, 26.6)">s</text><text xml:space="preserve" font-family="BebasNeue,Bebas Neue" font-size="58.0" fill="#FCFBC5" transform="matrix(1.00, 0.00, -0.00, -1.00, 133.2, 26.6)">s</text><text xml:space="preserve" font-family="BebasNeue,Bebas Neue" font-size="58.0" fill="#FCFBC5" transform="matrix(1.00, 0.00, -0.00, -1.00, 156.0, 26.6)"> </text><text xml:space="preserve" font-family="BebasNeue,Bebas Neue" font-size="58.0" fill="#FCFBC5" transform="matrix(1.00, 0.00, -0.00, -1.00, 166.2, 26.6)">f</text><text xml:space="preserve" font-family="BebasNeue,Bebas Neue" font-size="58.0" fill="#FCFBC5" transform="matrix(1.00, 0.00, -0.00, -1.00, 186.5, 26.6)">a</text><text xml:space="preserve" font-family="BebasNeue,Bebas Neue" font-size="58.0" fill="#FCFBC5" transform="matrix(1.00, 0.00, -0.00, -1.00, 211.3, 26.6)">m</text><text xml:space="preserve" font-family="BebasNeue,Bebas Neue" font-size="58.0" fill="#FCFBC5" transform="matrix(1.00, 0.00, -0.00, -1.00, 243.8, 26.6)">i</text><text xml:space="preserve" font-family="BebasNeue,Bebas Neue" font-size="58.0" fill="#FCFBC5" transform="matrix(1.00, 0.00, -0.00, -1.00, 256.0, 26.6)">l</text><text xml:space="preserve" font-family="BebasNeue,Bebas Neue" font-size="58.0" fill="#FCFBC5" transform="matrix(1.00, 0.00, -0.00, -1.00, 276.8, 26.6)">i</text><text xml:space="preserve" font-family="BebasNeue,Bebas Neue" font-size="58.0" fill="#FCFBC5" transform="matrix(1.00, 0.00, -0.00, -1.00, 289.0, 26.6)">a</text><text xml:space="preserve" font-family="BebasNeue,Bebas Neue" font-size="58.0" fill="#FCFBC5" transform="matrix(1.00, 0.00, -0.00, -1.00, 313.8, 26.6)">r</text><text xml:space="preserve" font-family="BebasNeue,Bebas Neue" font-size="58.0" fill="#FCFBC5" transform="matrix(1.00, 0.00, -0.00, -1.00, 338.3, 26.6)"> </text><text xml:space="preserve" font-family="BebasNeue,Bebas Neue" font-size="58.0" fill="#FCFBC5" transform="matrix(1.00, 0.00, -0.00, -1.00, 348.4, 26.6)">p</text><text xml:space="preserve" font-family="BebasNeue,Bebas Neue" font-size="58.0" fill="#FCFBC5" transform="matrix(1.00, 0.00, -0.00, -1.00, 370.7, 26.6)">a</text><text xml:space="preserve" font-family="BebasNeue,Bebas Neue" font-size="58.0" fill="#FCFBC5" transform="matrix(1.00, 0.00, -0.00, -1.00, 393.2, 26.6)">t</text><text xml:space="preserve" font-family="BebasNeue,Bebas Neue" font-size="58.0" fill="#FCFBC5" transform="matrix(1.00, 0.00, -0.00, -1.00, 415.1, 26.6)">t</text><text xml:space="preserve" font-family="BebasNeue,Bebas Neue" font-size="58.0" fill="#FCFBC5" transform="matrix(1.00, 0.00, -0.00, -1.00, 436.9, 26.6)">e</text><text xml:space="preserve" font-family="BebasNeue,Bebas Neue" font-size="58.0" fill="#FCFBC5" transform="matrix(1.00, 0.00, -0.00, -1.00, 459.4, 26.6)">r</text><text xml:space="preserve" font-family="BebasNeue,Bebas Neue" font-size="58.0" fill="#FCFBC5" transform="matrix(1.00, 0.00, -0.00, -1.00, 483.8, 26.6)">n</text><text xml:space="preserve" font-family="BebasNeue,Bebas Neue" font-size="58.0" fill="#FCFBC5" transform="matrix(1.00, 0.00, -0.00, -1.00, 509.8, 26.6)"> </text><text xml:space="preserve" font-family="BebasNeue,Bebas Neue" font-size="58.0" fill="#FCFBC5" transform="matrix(1.00, 0.00, -0.00, -1.00, 519.9, 26.6)">(</text><text xml:space="preserve" font-family="BebasNeue,Bebas Neue" font-size="58.0" fill="#FCFBC5" transform="matrix(1.00, 0.00, -0.00, -1.00, 535.6, 26.6)">f</text><text xml:space="preserve" font-family="BebasNeue,Bebas Neue" font-size="58.0" fill="#FCFBC5" transform="matrix(1.00, 0.00, -0.00, -1.00, 556.8, 26.6)">o</text><text xml:space="preserve" font-family="BebasNeue,Bebas Neue" font-size="58.0" fill="#FCFBC5" transform="matrix(1.00, 0.00, -0.00, -1.00, 580.9, 26.6)">r</text><text xml:space="preserve" font-family="BebasNeue,Bebas Neue" font-size="58.0" fill="#FCFBC5" transform="matrix(1.00, 0.00, -0.00, -1.00, 605.4, 26.6)"> </text><text xml:space="preserve" font-family="BebasNeue,Bebas Neue" font-size="58.0" fill="#FCFBC5" transform="matrix(1.00, 0.00, -0.00, -1.00, 615.5, 26.6)">m</text><text xml:space="preserve" font-family="BebasNeue,Bebas Neue" font-size="58.0" fill="#FCFBC5" transform="matrix(1.00, 0.00, -0.00, -1.00, 648.0, 26.6)">a</text><text xml:space="preserve" font-family="BebasNeue,Bebas Neue" font-size="58.0" fill="#FCFBC5" transform="matrix(1.00, 0.00, -0.00, -1.00, 672.8, 26.6)">n</text><text xml:space="preserve" font-family="BebasNeue,Bebas Neue" font-size="58.0" fill="#FCFBC5" transform="matrix(1.00, 0.00, -0.00, -1.00, 698.7, 26.6)">y</text><text xml:space="preserve" font-family="BebasNeue,Bebas Neue" font-size="58.0" fill="#FCFBC5" transform="matrix(1.00, 0.00, -0.00, -1.00, 723.2, 26.6)">)</text></g></svg>