<?xml version="1.0" encoding="UTF-8" standalone="no"?><svg xmlns="http://www.w3.org/2000/svg" xmlns:xlink="http://www.w3.org/1999/xlink" clip-rule="evenodd" stroke-miterlimit="10" viewBox="0 0 1024 768"><desc>SVG generated by Keynote</desc><defs></defs><g transform="matrix(1.00, 0.00, -0.00, -1.00, 0.0, 768.0)"><path d="M 0.0 768.0 L 1024.0 768.0 L 1024.0 0.0 L 0.0 0.0 Z M 0.0 768.0 " fill="#FDFEF7"></path><text xml:space="preserve" font-family="BebasNeue,Bebas Neue" font-size="78.0" fill="#5E5E5E" transform="matrix(1.00, 0.00, -0.00, -1.00, 24.0, 689.4)">A</text><text xml:space="preserve" font-family="BebasNeue,Bebas Neue" font-size="78.0" fill="#5E5E5E" transform="matrix(1.00, 0.00, -0.00, -1.00, 57.3, 689.4)">N</text><text xml:space="preserve" font-family="BebasNeue,Bebas Neue" font-size="78.0" fill="#5E5E5E" transform="matrix(1.00, 0.00, -0.00, -1.00, 92.2, 689.4)">D</text><text xml:space="preserve" font-family="BebasNeue,Bebas Neue" font-size="78.0" fill="#6EB1D8" transform="matrix(1.00, 0.00, -0.00, -1.00, 139.2, 689.4)">M</text><text xml:space="preserve" font-family="BebasNeue,Bebas Neue" font-size="78.0" fill="#6EB1D8" transform="matrix(1.00, 0.00, -0.00, -1.00, 183.0, 689.4)">O</text><text xml:space="preserve" font-family="BebasNeue,Bebas Neue" font-size="78.0" fill="#6EB1D8" transform="matrix(1.00, 0.00, -0.00, -1.00, 215.4, 689.4)">R</text><text xml:space="preserve" font-family="BebasNeue,Bebas Neue" font-size="78.0" fill="#6EB1D8" transform="matrix(1.00, 0.00, -0.00, -1.00, 248.3, 689.4)">E</text><text xml:space="preserve" font-family="BebasNeue,Bebas Neue" font-size="78.0" fill="#6EB1D8" transform="matrix(1.00, 0.00, -0.00, -1.00, 292.2, 689.4)">r</text><text xml:space="preserve" font-family="BebasNeue,Bebas Neue" font-size="78.0" fill="#6EB1D8" transform="matrix(1.00, 0.00, -0.00, -1.00, 325.2, 689.4)">e</text><text xml:space="preserve" font-family="BebasNeue,Bebas Neue" font-size="78.0" fill="#6EB1D8" transform="matrix(1.00, 0.00, -0.00, -1.00, 355.4, 689.4)">f</text><text xml:space="preserve" font-family="BebasNeue,Bebas Neue" font-size="78.0" fill="#6EB1D8" transform="matrix(1.00, 0.00, -0.00, -1.00, 382.8, 689.4)">a</text><text xml:space="preserve" font-family="BebasNeue,Bebas Neue" font-size="78.0" fill="#6EB1D8" transform="matrix(1.00, 0.00, -0.00, -1.00, 416.0, 689.4)">c</text><text xml:space="preserve" font-family="BebasNeue,Bebas Neue" font-size="78.0" fill="#6EB1D8" transform="matrix(1.00, 0.00, -0.00, -1.00, 447.7, 689.4)">t</text><text xml:space="preserve" font-family="BebasNeue,Bebas Neue" font-size="78.0" fill="#6EB1D8" transform="matrix(1.00, 0.00, -0.00, -1.00, 477.0, 689.4)">o</text><text xml:space="preserve" font-family="BebasNeue,Bebas Neue" font-size="78.0" fill="#6EB1D8" transform="matrix(1.00, 0.00, -0.00, -1.00, 509.5, 689.4)">r</text><text xml:space="preserve" font-family="BebasNeue,Bebas Neue" font-size="78.0" fill="#6EB1D8" transform="matrix(1.00, 0.00, -0.00, -1.00, 542.4, 689.4)">i</text><text xml:space="preserve" font-family="BebasNeue,Bebas Neue" font-size="78.0" fill="#6EB1D8" transform="matrix(1.00, 0.00, -0.00, -1.00, 558.8, 689.4)">n</text><text xml:space="preserve" font-family="BebasNeue,Bebas Neue" font-size="78.0" fill="#6EB1D8" transform="matrix(1.00, 0.00, -0.00, -1.00, 593.6, 689.4)">g</text><image xlink:href="27E9DE511805FC565FC41B658420DF34.png" width="987.00" height="589.00" transform="matrix(1.00, 0.00, -0.00, -1.00, 22.2, 641.8)" opacity="0.75"></image><image xlink:href="../../2230518F-5632-4D9D-8279-DC5C16BBD02F/assets/118708A8AA9A722E41073A2803F09570.png" width="640.00" height="360.00" transform="matrix(1.46, 0.00, -0.00, -1.46, 45.0, 625.0)"></image><image xlink:href="../../2230518F-5632-4D9D-8279-DC5C16BBD02F/assets/E5D0D0060BF01A8A066D8B8D22C64963.png" width="967.00" height="569.00" transform="matrix(1.00, 0.00, -0.00, 1.00, 28.0, 67.0)"></image></g></svg>