<?xml version="1.0" encoding="UTF-8" standalone="no"?><svg xmlns="http://www.w3.org/2000/svg" xmlns:xlink="http://www.w3.org/1999/xlink" clip-rule="evenodd" stroke-miterlimit="10" viewBox="0 0 1024 768"><desc>SVG generated by Keynote</desc><defs></defs><g transform="matrix(1.00, 0.00, -0.00, -1.00, 0.0, 768.0)"><path d="M 0.0 768.0 L 1024.0 768.0 L 1024.0 0.0 L 0.0 0.0 Z M 0.0 768.0 " fill="#5FB3D9"></path><text xml:space="preserve" font-family="BebasNeue,Bebas Neue" font-size="78.0" fill="#FCFEFF" transform="matrix(1.00, 0.00, -0.00, -1.00, 28.0, 670.4)">E</text><text xml:space="preserve" font-family="BebasNeue,Bebas Neue" font-size="78.0" fill="#FCFEFF" transform="matrix(1.00, 0.00, -0.00, -1.00, 58.3, 670.4)">N</text><text xml:space="preserve" font-family="BebasNeue,Bebas Neue" font-size="78.0" fill="#FCFEFF" transform="matrix(1.00, 0.00, -0.00, -1.00, 93.1, 670.4)">T</text><text xml:space="preserve" font-family="BebasNeue,Bebas Neue" font-size="78.0" fill="#FCFEFF" transform="matrix(1.00, 0.00, -0.00, -1.00, 122.5, 670.4)">E</text><text xml:space="preserve" font-family="BebasNeue,Bebas Neue" font-size="78.0" fill="#FCFEFF" transform="matrix(1.00, 0.00, -0.00, -1.00, 152.7, 670.4)">R</text><text xml:space="preserve" font-family="BebasNeue,Bebas Neue" font-size="78.0" fill="#FEFFFF" transform="matrix(1.00, 0.00, -0.00, -1.00, 185.6, 670.4)"> </text><text xml:space="preserve" font-family="BebasNeue,Bebas Neue" font-size="78.0" fill="#FEFBC3" transform="matrix(1.00, 0.00, -0.00, -1.00, 199.3, 670.4)">m</text><text xml:space="preserve" font-family="BebasNeue,Bebas Neue" font-size="78.0" fill="#FEFBC3" transform="matrix(1.00, 0.00, -0.00, -1.00, 243.0, 670.4)">a</text><text xml:space="preserve" font-family="BebasNeue,Bebas Neue" font-size="78.0" fill="#FEFBC3" transform="matrix(1.00, 0.00, -0.00, -1.00, 276.3, 670.4)">c</text><text xml:space="preserve" font-family="BebasNeue,Bebas Neue" font-size="78.0" fill="#FEFBC3" transform="matrix(1.00, 0.00, -0.00, -1.00, 307.9, 670.4)">h</text><text xml:space="preserve" font-family="BebasNeue,Bebas Neue" font-size="78.0" fill="#FEFBC3" transform="matrix(1.00, 0.00, -0.00, -1.00, 342.8, 670.4)">i</text><text xml:space="preserve" font-family="BebasNeue,Bebas Neue" font-size="78.0" fill="#FEFBC3" transform="matrix(1.00, 0.00, -0.00, -1.00, 359.2, 670.4)">n</text><text xml:space="preserve" font-family="BebasNeue,Bebas Neue" font-size="78.0" fill="#FEFBC3" transform="matrix(1.00, 0.00, -0.00, -1.00, 394.1, 670.4)">a</text><text xml:space="preserve" font-family="BebasNeue,Bebas Neue" font-size="78.0" fill="#FEFBC3" transform="matrix(1.00, 0.00, -0.00, -1.00, 427.4, 670.4)">.</text><text xml:space="preserve" font-family="BebasNeue,Bebas Neue" font-size="78.0" fill="#FEFBC3" transform="matrix(1.00, 0.00, -0.00, -1.00, 443.4, 670.4)">j</text><text xml:space="preserve" font-family="BebasNeue,Bebas Neue" font-size="78.0" fill="#FEFBC3" transform="matrix(1.00, 0.00, -0.00, -1.00, 465.0, 670.4)">S</text><text xml:space="preserve" font-family="BebasNeue,Bebas Neue" font-size="67.5" fill="#FFFFFF" transform="matrix(1.00, 0.00, -0.00, -1.00, 50.0, 549.2)">•</text><text xml:space="preserve" font-family="BebasNeue,Bebas Neue" font-size="54.0" fill="#FFFFFF" transform="matrix(1.00, 0.00, -0.00, -1.00, 103.0, 553.2)">F</text><text xml:space="preserve" font-family="BebasNeue,Bebas Neue" font-size="54.0" fill="#FFFFFF" transform="matrix(1.00, 0.00, -0.00, -1.00, 122.7, 553.2)">S</text><text xml:space="preserve" font-family="BebasNeue,Bebas Neue" font-size="54.0" fill="#FFFFFF" transform="matrix(1.00, 0.00, -0.00, -1.00, 143.9, 553.2)">M</text><text xml:space="preserve" font-family="BebasNeue,Bebas Neue" font-size="54.0" fill="#FFFFFF" transform="matrix(1.00, 0.00, -0.00, -1.00, 174.2, 553.2)"> </text><text xml:space="preserve" font-family="BebasNeue,Bebas Neue" font-size="54.0" fill="#FFFFFF" transform="matrix(1.00, 0.00, -0.00, -1.00, 183.7, 553.2)">m</text><text xml:space="preserve" font-family="BebasNeue,Bebas Neue" font-size="54.0" fill="#FFFFFF" transform="matrix(1.00, 0.00, -0.00, -1.00, 214.0, 553.2)">a</text><text xml:space="preserve" font-family="BebasNeue,Bebas Neue" font-size="54.0" fill="#FFFFFF" transform="matrix(1.00, 0.00, -0.00, -1.00, 237.0, 553.2)">p</text><text xml:space="preserve" font-family="BebasNeue,Bebas Neue" font-size="54.0" fill="#FFFFFF" transform="matrix(1.00, 0.00, -0.00, -1.00, 258.5, 553.2)">s</text><text xml:space="preserve" font-family="BebasNeue,Bebas Neue" font-size="54.0" fill="#FFFFFF" transform="matrix(1.00, 0.00, -0.00, -1.00, 279.7, 553.2)"> </text><text xml:space="preserve" font-family="BebasNeue,Bebas Neue" font-size="54.0" fill="#FEFDD5" transform="matrix(1.00, 0.00, -0.00, -1.00, 289.2, 553.2)">i</text><text xml:space="preserve" font-family="BebasNeue,Bebas Neue" font-size="54.0" fill="#FEFDD5" transform="matrix(1.00, 0.00, -0.00, -1.00, 300.5, 553.2)">n</text><text xml:space="preserve" font-family="BebasNeue,Bebas Neue" font-size="54.0" fill="#FEFDD5" transform="matrix(1.00, 0.00, -0.00, -1.00, 324.7, 553.2)">p</text><text xml:space="preserve" font-family="BebasNeue,Bebas Neue" font-size="54.0" fill="#FEFDD5" transform="matrix(1.00, 0.00, -0.00, -1.00, 346.1, 553.2)">u</text><text xml:space="preserve" font-family="BebasNeue,Bebas Neue" font-size="54.0" fill="#FEFDD5" transform="matrix(1.00, 0.00, -0.00, -1.00, 368.7, 553.2)">t</text><text xml:space="preserve" font-family="BebasNeue,Bebas Neue" font-size="54.0" fill="#FFFFFF" transform="matrix(1.00, 0.00, -0.00, -1.00, 389.0, 553.2)"> </text><text xml:space="preserve" font-family="BebasNeue,Bebas Neue" font-size="54.0" fill="#FFFFFF" transform="matrix(1.00, 0.00, -0.00, -1.00, 398.4, 553.2)">t</text><text xml:space="preserve" font-family="BebasNeue,Bebas Neue" font-size="54.0" fill="#FFFFFF" transform="matrix(1.00, 0.00, -0.00, -1.00, 418.7, 553.2)">o</text><text xml:space="preserve" font-family="BebasNeue,Bebas Neue" font-size="54.0" fill="#FFFFFF" transform="matrix(1.00, 0.00, -0.00, -1.00, 441.2, 553.2)"> </text><text xml:space="preserve" font-family="BebasNeue,Bebas Neue" font-size="54.0" fill="#FFFFFF" transform="matrix(1.00, 0.00, -0.00, -1.00, 450.7, 553.2)">m</text><text xml:space="preserve" font-family="BebasNeue,Bebas Neue" font-size="54.0" fill="#FFFFFF" transform="matrix(1.00, 0.00, -0.00, -1.00, 480.9, 553.2)">a</text><text xml:space="preserve" font-family="BebasNeue,Bebas Neue" font-size="54.0" fill="#FFFFFF" transform="matrix(1.00, 0.00, -0.00, -1.00, 502.0, 553.2)">t</text><text xml:space="preserve" font-family="BebasNeue,Bebas Neue" font-size="54.0" fill="#FFFFFF" transform="matrix(1.00, 0.00, -0.00, -1.00, 522.3, 553.2)">c</text><text xml:space="preserve" font-family="BebasNeue,Bebas Neue" font-size="54.0" fill="#FFFFFF" transform="matrix(1.00, 0.00, -0.00, -1.00, 544.2, 553.2)">h</text><text xml:space="preserve" font-family="BebasNeue,Bebas Neue" font-size="54.0" fill="#FFFFFF" transform="matrix(1.00, 0.00, -0.00, -1.00, 568.3, 553.2)">i</text><text xml:space="preserve" font-family="BebasNeue,Bebas Neue" font-size="54.0" fill="#FFFFFF" transform="matrix(1.00, 0.00, -0.00, -1.00, 579.7, 553.2)">n</text><text xml:space="preserve" font-family="BebasNeue,Bebas Neue" font-size="54.0" fill="#FFFFFF" transform="matrix(1.00, 0.00, -0.00, -1.00, 603.8, 553.2)">g</text><text xml:space="preserve" font-family="BebasNeue,Bebas Neue" font-size="54.0" fill="#FFFFFF" transform="matrix(1.00, 0.00, -0.00, -1.00, 625.9, 553.2)"> </text><text xml:space="preserve" font-family="BebasNeue,Bebas Neue" font-size="54.0" fill="#FEFDD5" transform="matrix(1.00, 0.00, -0.00, -1.00, 635.4, 553.2)">h</text><text xml:space="preserve" font-family="BebasNeue,Bebas Neue" font-size="54.0" fill="#FEFDD5" transform="matrix(1.00, 0.00, -0.00, -1.00, 659.5, 553.2)">a</text><text xml:space="preserve" font-family="BebasNeue,Bebas Neue" font-size="54.0" fill="#FEFDD5" transform="matrix(1.00, 0.00, -0.00, -1.00, 682.6, 553.2)">n</text><text xml:space="preserve" font-family="BebasNeue,Bebas Neue" font-size="54.0" fill="#FEFDD5" transform="matrix(1.00, 0.00, -0.00, -1.00, 706.7, 553.2)">d</text><text xml:space="preserve" font-family="BebasNeue,Bebas Neue" font-size="54.0" fill="#FEFDD5" transform="matrix(1.00, 0.00, -0.00, -1.00, 729.8, 553.2)">l</text><text xml:space="preserve" font-family="BebasNeue,Bebas Neue" font-size="54.0" fill="#FEFDD5" transform="matrix(1.00, 0.00, -0.00, -1.00, 749.2, 553.2)">e</text><text xml:space="preserve" font-family="BebasNeue,Bebas Neue" font-size="54.0" fill="#FEFDD5" transform="matrix(1.00, 0.00, -0.00, -1.00, 770.2, 553.2)">r</text><text xml:space="preserve" font-family="BebasNeue,Bebas Neue" font-size="54.0" fill="#FFFFFF" transform="matrix(1.00, 0.00, -0.00, -1.00, 793.0, 553.2)"> </text><text xml:space="preserve" font-family="BebasNeue,Bebas Neue" font-size="54.0" fill="#FEFDD5" transform="matrix(1.00, 0.00, -0.00, -1.00, 802.4, 553.2)">n</text><text xml:space="preserve" font-family="BebasNeue,Bebas Neue" font-size="54.0" fill="#FEFDD5" transform="matrix(1.00, 0.00, -0.00, -1.00, 826.5, 553.2)">a</text><text xml:space="preserve" font-family="BebasNeue,Bebas Neue" font-size="54.0" fill="#FEFDD5" transform="matrix(1.00, 0.00, -0.00, -1.00, 849.6, 553.2)">m</text><text xml:space="preserve" font-family="BebasNeue,Bebas Neue" font-size="54.0" fill="#FEFDD5" transform="matrix(1.00, 0.00, -0.00, -1.00, 879.9, 553.2)">e</text><text xml:space="preserve" font-family="BebasNeue,Bebas Neue" font-size="54.0" fill="#FEFDD5" transform="matrix(1.00, 0.00, -0.00, -1.00, 900.8, 553.2)">:</text><text xml:space="preserve" font-family="LucidaGrande,Lucida Grande" font-size="54.0" fill="#FEFDD5" transform="matrix(1.00, 0.00, -0.00, -1.00, 912.0, 553.2)"> </text><text xml:space="preserve" font-family="BebasNeue,Bebas Neue" font-size="54.0" fill="#FFFFFF" transform="matrix(1.00, 0.00, -0.00, -1.00, 103.0, 464.2)">“</text><text xml:space="preserve" font-family="HelveticaNeue,Helvetica Neue" font-size="54.0" fill="#FEFDD5" transform="matrix(1.00, 0.00, -0.00, -1.00, 122.0, 464.2)">h</text><text xml:space="preserve" font-family="HelveticaNeue,Helvetica Neue" font-size="54.0" fill="#FEFDD5" transform="matrix(1.00, 0.00, -0.00, -1.00, 153.1, 464.2)">a</text><text xml:space="preserve" font-family="HelveticaNeue,Helvetica Neue" font-size="54.0" fill="#FEFDD5" transform="matrix(1.00, 0.00, -0.00, -1.00, 183.2, 464.2)">n</text><text xml:space="preserve" font-family="HelveticaNeue,Helvetica Neue" font-size="54.0" fill="#FEFDD5" transform="matrix(1.00, 0.00, -0.00, -1.00, 214.3, 464.2)">d</text><text xml:space="preserve" font-family="HelveticaNeue,Helvetica Neue" font-size="54.0" fill="#FEFDD5" transform="matrix(1.00, 0.00, -0.00, -1.00, 247.4, 464.2)">l</text><text xml:space="preserve" font-family="HelveticaNeue,Helvetica Neue" font-size="54.0" fill="#FEFDD5" transform="matrix(1.00, 0.00, -0.00, -1.00, 260.5, 464.2)">e</text><text xml:space="preserve" font-family="HelveticaNeue,Helvetica Neue" font-size="54.0" fill="#FEFDD5" transform="matrix(1.00, 0.00, -0.00, -1.00, 290.5, 464.2)">(</text><text xml:space="preserve" font-family="HelveticaNeue,Helvetica Neue" font-size="54.0" fill="#FEFDD5" transform="matrix(1.00, 0.00, -0.00, -1.00, 305.6, 464.2)">i</text><text xml:space="preserve" font-family="HelveticaNeue,Helvetica Neue" font-size="54.0" fill="#FEFDD5" transform="matrix(1.00, 0.00, -0.00, -1.00, 318.7, 464.2)">n</text><text xml:space="preserve" font-family="HelveticaNeue,Helvetica Neue" font-size="54.0" fill="#FEFDD5" transform="matrix(1.00, 0.00, -0.00, -1.00, 349.8, 464.2)">p</text><text xml:space="preserve" font-family="HelveticaNeue,Helvetica Neue" font-size="54.0" fill="#FEFDD5" transform="matrix(1.00, 0.00, -0.00, -1.00, 382.9, 464.2)">u</text><text xml:space="preserve" font-family="HelveticaNeue,Helvetica Neue" font-size="54.0" fill="#FEFDD5" transform="matrix(1.00, 0.00, -0.00, -1.00, 414.0, 464.2)">t</text><text xml:space="preserve" font-family="HelveticaNeue,Helvetica Neue" font-size="54.0" fill="#FEFDD5" transform="matrix(1.00, 0.00, -0.00, -1.00, 432.1, 464.2)">N</text><text xml:space="preserve" font-family="HelveticaNeue,Helvetica Neue" font-size="54.0" fill="#FEFDD5" transform="matrix(1.00, 0.00, -0.00, -1.00, 472.1, 464.2)">a</text><text xml:space="preserve" font-family="HelveticaNeue,Helvetica Neue" font-size="54.0" fill="#FEFDD5" transform="matrix(1.00, 0.00, -0.00, -1.00, 502.2, 464.2)">m</text><text xml:space="preserve" font-family="HelveticaNeue,Helvetica Neue" font-size="54.0" fill="#FEFDD5" transform="matrix(1.00, 0.00, -0.00, -1.00, 549.4, 464.2)">e</text><text xml:space="preserve" font-family="HelveticaNeue,Helvetica Neue" font-size="54.0" fill="#FEFDD5" transform="matrix(1.00, 0.00, -0.00, -1.00, 579.4, 464.2)">,</text><text xml:space="preserve" font-family="HelveticaNeue,Helvetica Neue" font-size="54.0" fill="#FEFDD5" transform="matrix(1.00, 0.00, -0.00, -1.00, 595.5, 464.2)"> </text><text xml:space="preserve" font-family="HelveticaNeue,Helvetica Neue" font-size="54.0" fill="#FEFDD5" transform="matrix(1.00, 0.00, -0.00, -1.00, 611.6, 464.2)">a</text><text xml:space="preserve" font-family="HelveticaNeue,Helvetica Neue" font-size="54.0" fill="#FEFDD5" transform="matrix(1.00, 0.00, -0.00, -1.00, 641.7, 464.2)">r</text><text xml:space="preserve" font-family="HelveticaNeue,Helvetica Neue" font-size="54.0" fill="#FEFDD5" transform="matrix(1.00, 0.00, -0.00, -1.00, 659.3, 464.2)">g</text><text xml:space="preserve" font-family="HelveticaNeue,Helvetica Neue" font-size="54.0" fill="#FEFDD5" transform="matrix(1.00, 0.00, -0.00, -1.00, 691.3, 464.2)">s</text><text xml:space="preserve" font-family="HelveticaNeue,Helvetica Neue" font-size="54.0" fill="#FEFDD5" transform="matrix(1.00, 0.00, -0.00, -1.00, 719.4, 464.2)">*</text><text xml:space="preserve" font-family="HelveticaNeue,Helvetica Neue" font-size="54.0" fill="#FEFDD5" transform="matrix(1.00, 0.00, -0.00, -1.00, 739.5, 464.2)">)</text><text xml:space="preserve" font-family="BebasNeue,Bebas Neue" font-size="54.0" fill="#FFFFFF" transform="matrix(1.00, 0.00, -0.00, -1.00, 754.6, 464.2)">”</text></g></svg>