<?xml version="1.0" encoding="UTF-8" standalone="no"?><svg xmlns="http://www.w3.org/2000/svg" xmlns:xlink="http://www.w3.org/1999/xlink" clip-rule="evenodd" stroke-miterlimit="10" viewBox="0 0 1024 768"><desc>SVG generated by Keynote</desc><defs></defs><g transform="matrix(1.00, 0.00, -0.00, -1.00, 0.0, 768.0)"><path d="M 0.0 768.0 L 1024.0 768.0 L 1024.0 0.0 L 0.0 0.0 Z M 0.0 768.0 " fill="#FDFEF7"></path><image xlink:href="EFAED79C7F0958773F4BA407B969A3E8.png" width="719.00" height="729.00" transform="matrix(1.00, 0.00, -0.00, -1.00, 156.2, 733.8)" opacity="0.75"></image><image xlink:href="F2EF2A83EB0B083C8621BBF855FC97FC.png" width="500.00" height="500.00" transform="matrix(1.33, 0.00, -0.00, -1.33, 179.0, 717.0)"></image><image xlink:href="FDFE35CE7F2B6E10C9A046A774FE09D8.png" width="699.00" height="709.00" transform="matrix(1.00, 0.00, -0.00, 1.00, 162.0, 19.0)"></image><text xml:space="preserve" font-family="Chalkduster,Chalkduster" font-size="52.0" fill="#304863" transform="matrix(1.00, 0.00, -0.00, -1.00, 195.2, 75.1)">C</text><text xml:space="preserve" font-family="Chalkduster,Chalkduster" font-size="52.0" fill="#304863" transform="matrix(1.00, 0.00, -0.00, -1.00, 238.9, 75.1)">h</text><text xml:space="preserve" font-family="Chalkduster,Chalkduster" font-size="52.0" fill="#304863" transform="matrix(1.00, 0.00, -0.00, -1.00, 271.9, 75.1)">i</text><text xml:space="preserve" font-family="Chalkduster,Chalkduster" font-size="52.0" fill="#304863" transform="matrix(1.00, 0.00, -0.00, -1.00, 293.0, 75.1)">l</text><text xml:space="preserve" font-family="Chalkduster,Chalkduster" font-size="52.0" fill="#304863" transform="matrix(1.00, 0.00, -0.00, -1.00, 317.4, 75.1)">d</text><text xml:space="preserve" font-family="Chalkduster,Chalkduster" font-size="52.0" fill="#304863" transform="matrix(1.00, 0.00, -0.00, -1.00, 358.0, 75.1)">’</text><text xml:space="preserve" font-family="Chalkduster,Chalkduster" font-size="52.0" fill="#304863" transform="matrix(1.00, 0.00, -0.00, -1.00, 364.5, 75.1)">s</text><text xml:space="preserve" font-family="Chalkduster,Chalkduster" font-size="52.0" fill="#304863" transform="matrix(1.00, 0.00, -0.00, -1.00, 390.8, 75.1)"> </text><text xml:space="preserve" font-family="Chalkduster,Chalkduster" font-size="52.0" fill="#304863" transform="matrix(1.00, 0.00, -0.00, -1.00, 412.3, 75.1)">T</text><text xml:space="preserve" font-family="Chalkduster,Chalkduster" font-size="52.0" fill="#304863" transform="matrix(1.00, 0.00, -0.00, -1.00, 445.4, 75.1)">o</text><text xml:space="preserve" font-family="Chalkduster,Chalkduster" font-size="52.0" fill="#304863" transform="matrix(1.00, 0.00, -0.00, -1.00, 483.6, 75.1)">y</text><text xml:space="preserve" font-family="Chalkduster,Chalkduster" font-size="52.0" fill="#304863" transform="matrix(1.00, 0.00, -0.00, -1.00, 515.3, 75.1)"> </text><text xml:space="preserve" font-family="Chalkduster,Chalkduster" font-size="52.0" fill="#304863" transform="matrix(1.00, 0.00, -0.00, -1.00, 541.2, 75.1)">S</text><text xml:space="preserve" font-family="Chalkduster,Chalkduster" font-size="52.0" fill="#304863" transform="matrix(1.00, 0.00, -0.00, -1.00, 567.0, 75.1)">i</text><text xml:space="preserve" font-family="Chalkduster,Chalkduster" font-size="52.0" fill="#304863" transform="matrix(1.00, 0.00, -0.00, -1.00, 587.6, 75.1)">m</text><text xml:space="preserve" font-family="Chalkduster,Chalkduster" font-size="52.0" fill="#304863" transform="matrix(1.00, 0.00, -0.00, -1.00, 640.2, 75.1)">p</text><text xml:space="preserve" font-family="Chalkduster,Chalkduster" font-size="52.0" fill="#304863" transform="matrix(1.00, 0.00, -0.00, -1.00, 672.3, 75.1)">l</text><text xml:space="preserve" font-family="Chalkduster,Chalkduster" font-size="52.0" fill="#304863" transform="matrix(1.00, 0.00, -0.00, -1.00, 697.3, 75.1)">i</text><text xml:space="preserve" font-family="Chalkduster,Chalkduster" font-size="52.0" fill="#304863" transform="matrix(1.00, 0.00, -0.00, -1.00, 718.3, 75.1)">c</text><text xml:space="preserve" font-family="Chalkduster,Chalkduster" font-size="52.0" fill="#304863" transform="matrix(1.00, 0.00, -0.00, -1.00, 751.0, 75.1)">i</text><text xml:space="preserve" font-family="Chalkduster,Chalkduster" font-size="52.0" fill="#304863" transform="matrix(1.00, 0.00, -0.00, -1.00, 772.1, 75.1)">t</text><text xml:space="preserve" font-family="Chalkduster,Chalkduster" font-size="52.0" fill="#304863" transform="matrix(1.00, 0.00, -0.00, -1.00, 795.9, 75.1)">y</text></g></svg>