<?xml version="1.0" encoding="UTF-8" standalone="no"?><svg xmlns="http://www.w3.org/2000/svg" xmlns:xlink="http://www.w3.org/1999/xlink" clip-rule="evenodd" stroke-miterlimit="10" viewBox="0 0 1024 768"><desc>SVG generated by Keynote</desc><defs></defs><g transform="matrix(1.00, 0.00, -0.00, -1.00, 0.0, 768.0)"><path d="M 0.0 768.0 L 1024.0 768.0 L 1024.0 0.0 L 0.0 0.0 Z M 0.0 768.0 " fill="#5FB3D9"></path><text xml:space="preserve" font-family="BebasNeue,Bebas Neue" font-size="78.0" fill="#FCFEFF" transform="matrix(1.00, 0.00, -0.00, -1.00, 275.0, 361.4)">E</text><text xml:space="preserve" font-family="BebasNeue,Bebas Neue" font-size="78.0" fill="#FCFEFF" transform="matrix(1.00, 0.00, -0.00, -1.00, 305.3, 361.4)">N</text><text xml:space="preserve" font-family="BebasNeue,Bebas Neue" font-size="78.0" fill="#FCFEFF" transform="matrix(1.00, 0.00, -0.00, -1.00, 340.1, 361.4)">T</text><text xml:space="preserve" font-family="BebasNeue,Bebas Neue" font-size="78.0" fill="#FCFEFF" transform="matrix(1.00, 0.00, -0.00, -1.00, 369.5, 361.4)">E</text><text xml:space="preserve" font-family="BebasNeue,Bebas Neue" font-size="78.0" fill="#FCFEFF" transform="matrix(1.00, 0.00, -0.00, -1.00, 399.7, 361.4)">R</text><text xml:space="preserve" font-family="BebasNeue,Bebas Neue" font-size="78.0" fill="#FEFFFF" transform="matrix(1.00, 0.00, -0.00, -1.00, 432.6, 361.4)"> </text><text xml:space="preserve" font-family="BebasNeue,Bebas Neue" font-size="78.0" fill="#FEFBC3" transform="matrix(1.00, 0.00, -0.00, -1.00, 446.3, 361.4)">m</text><text xml:space="preserve" font-family="BebasNeue,Bebas Neue" font-size="78.0" fill="#FEFBC3" transform="matrix(1.00, 0.00, -0.00, -1.00, 490.0, 361.4)">a</text><text xml:space="preserve" font-family="BebasNeue,Bebas Neue" font-size="78.0" fill="#FEFBC3" transform="matrix(1.00, 0.00, -0.00, -1.00, 523.3, 361.4)">c</text><text xml:space="preserve" font-family="BebasNeue,Bebas Neue" font-size="78.0" fill="#FEFBC3" transform="matrix(1.00, 0.00, -0.00, -1.00, 554.9, 361.4)">h</text><text xml:space="preserve" font-family="BebasNeue,Bebas Neue" font-size="78.0" fill="#FEFBC3" transform="matrix(1.00, 0.00, -0.00, -1.00, 589.8, 361.4)">i</text><text xml:space="preserve" font-family="BebasNeue,Bebas Neue" font-size="78.0" fill="#FEFBC3" transform="matrix(1.00, 0.00, -0.00, -1.00, 606.2, 361.4)">n</text><text xml:space="preserve" font-family="BebasNeue,Bebas Neue" font-size="78.0" fill="#FEFBC3" transform="matrix(1.00, 0.00, -0.00, -1.00, 641.1, 361.4)">a</text><text xml:space="preserve" font-family="BebasNeue,Bebas Neue" font-size="78.0" fill="#FEFBC3" transform="matrix(1.00, 0.00, -0.00, -1.00, 674.4, 361.4)">.</text><text xml:space="preserve" font-family="BebasNeue,Bebas Neue" font-size="78.0" fill="#FEFBC3" transform="matrix(1.00, 0.00, -0.00, -1.00, 690.4, 361.4)">j</text><text xml:space="preserve" font-family="BebasNeue,Bebas Neue" font-size="78.0" fill="#FEFBC3" transform="matrix(1.00, 0.00, -0.00, -1.00, 712.0, 361.4)">S</text></g></svg>