<?xml version="1.0" encoding="UTF-8" standalone="no"?><svg xmlns="http://www.w3.org/2000/svg" xmlns:xlink="http://www.w3.org/1999/xlink" clip-rule="evenodd" stroke-miterlimit="10" viewBox="0 0 1024 768"><desc>SVG generated by Keynote</desc><defs></defs><g transform="matrix(1.00, 0.00, -0.00, -1.00, 0.0, 768.0)"><path d="M 0.0 768.0 L 1024.0 768.0 L 1024.0 0.0 L 0.0 0.0 Z M 0.0 768.0 " fill="#FDFEF7"></path><text xml:space="preserve" font-family="BebasNeue,Bebas Neue" font-size="78.0" fill="#5E5E5E" transform="matrix(1.00, 0.00, -0.00, -1.00, 28.0, 670.4)">P</text><text xml:space="preserve" font-family="BebasNeue,Bebas Neue" font-size="78.0" fill="#5E5E5E" transform="matrix(1.00, 0.00, -0.00, -1.00, 59.0, 670.4)">r</text><text xml:space="preserve" font-family="BebasNeue,Bebas Neue" font-size="78.0" fill="#5E5E5E" transform="matrix(1.00, 0.00, -0.00, -1.00, 91.9, 670.4)">o</text><text xml:space="preserve" font-family="BebasNeue,Bebas Neue" font-size="78.0" fill="#5E5E5E" transform="matrix(1.00, 0.00, -0.00, -1.00, 124.3, 670.4)">m</text><text xml:space="preserve" font-family="BebasNeue,Bebas Neue" font-size="78.0" fill="#5E5E5E" transform="matrix(1.00, 0.00, -0.00, -1.00, 168.1, 670.4)">i</text><text xml:space="preserve" font-family="BebasNeue,Bebas Neue" font-size="78.0" fill="#5E5E5E" transform="matrix(1.00, 0.00, -0.00, -1.00, 184.5, 670.4)">s</text><text xml:space="preserve" font-family="BebasNeue,Bebas Neue" font-size="78.0" fill="#5E5E5E" transform="matrix(1.00, 0.00, -0.00, -1.00, 215.2, 670.4)">e</text><text xml:space="preserve" font-family="BebasNeue,Bebas Neue" font-size="78.0" fill="#5E5E5E" transform="matrix(1.00, 0.00, -0.00, -1.00, 245.5, 670.4)">s</text><text xml:space="preserve" font-family="BebasNeue,Bebas Neue" font-size="78.0" fill="#5E5E5E" transform="matrix(1.00, 0.00, -0.00, -1.00, 276.2, 670.4)"> </text><text xml:space="preserve" font-family="BebasNeue,Bebas Neue" font-size="78.0" fill="#6EB1D8" transform="matrix(1.00, 0.00, -0.00, -1.00, 289.8, 670.4)">&amp;</text><text xml:space="preserve" font-family="BebasNeue,Bebas Neue" font-size="78.0" fill="#6EB1D8" transform="matrix(1.00, 0.00, -0.00, -1.00, 323.7, 670.4)"> </text><text xml:space="preserve" font-family="BebasNeue,Bebas Neue" font-size="78.0" fill="#6EB1D8" transform="matrix(1.00, 0.00, -0.00, -1.00, 337.3, 670.4)">F</text><text xml:space="preserve" font-family="BebasNeue,Bebas Neue" font-size="78.0" fill="#6EB1D8" transform="matrix(1.00, 0.00, -0.00, -1.00, 365.7, 670.4)">S</text><text xml:space="preserve" font-family="BebasNeue,Bebas Neue" font-size="78.0" fill="#6EB1D8" transform="matrix(1.00, 0.00, -0.00, -1.00, 396.5, 670.4)">M</text><text xml:space="preserve" font-family="BebasNeue,Bebas Neue" font-size="78.0" fill="#6EB1D8" transform="matrix(1.00, 0.00, -0.00, -1.00, 440.2, 670.4)">s</text><image xlink:href="AA81DB7735C07ECE8D58870693FC8659.png" width="869.00" height="589.00" transform="matrix(1.00, 0.00, -0.00, -1.00, 81.2, 623.5)" opacity="0.75"></image><image xlink:href="D3B5E970C7132EFA7B313A39E8E330D0.jpeg" width="531.00" height="342.00" transform="matrix(1.54, 0.00, -0.00, -1.54, 104.0, 606.7)"></image><image xlink:href="B5588C4D7A8BA033CD9346FDACBBE0F5.png" width="849.00" height="569.00" transform="matrix(1.00, 0.00, -0.00, 1.00, 87.0, 48.7)"></image></g></svg>