<?xml version="1.0" encoding="UTF-8" standalone="no"?><svg xmlns="http://www.w3.org/2000/svg" xmlns:xlink="http://www.w3.org/1999/xlink" clip-rule="evenodd" stroke-miterlimit="10" viewBox="0 0 1024 768"><desc>SVG generated by Keynote</desc><defs></defs><g transform="matrix(1.00, 0.00, -0.00, -1.00, 0.0, 768.0)"><path d="M 0.0 768.0 L 1024.0 768.0 L 1024.0 0.0 L 0.0 0.0 Z M 0.0 768.0 " fill="#0CAE86"></path><text xml:space="preserve" font-family="BebasNeue,Bebas Neue" font-size="104.0" fill="#FCFEFF" transform="matrix(1.00, 0.00, -0.00, -1.00, 126.9, 623.1)">W</text><text xml:space="preserve" font-family="BebasNeue,Bebas Neue" font-size="104.0" fill="#FCFEFF" transform="matrix(1.00, 0.00, -0.00, -1.00, 187.5, 623.1)">H</text><text xml:space="preserve" font-family="BebasNeue,Bebas Neue" font-size="104.0" fill="#FCFEFF" transform="matrix(1.00, 0.00, -0.00, -1.00, 234.0, 623.1)">A</text><text xml:space="preserve" font-family="BebasNeue,Bebas Neue" font-size="104.0" fill="#FCFEFF" transform="matrix(1.00, 0.00, -0.00, -1.00, 274.5, 623.1)">T</text><text xml:space="preserve" font-family="BebasNeue,Bebas Neue" font-size="104.0" fill="#FEFBC3" transform="matrix(1.00, 0.00, -0.00, -1.00, 331.8, 623.1)">I</text><text xml:space="preserve" font-family="BebasNeue,Bebas Neue" font-size="104.0" fill="#FEFBC3" transform="matrix(1.00, 0.00, -0.00, -1.00, 353.6, 623.1)">S</text><text xml:space="preserve" font-family="BebasNeue,Bebas Neue" font-size="104.0" fill="#FEFBC3" transform="matrix(1.00, 0.00, -0.00, -1.00, 412.8, 623.1)">A</text><text xml:space="preserve" font-family="BebasNeue,Bebas Neue" font-size="104.0" fill="#FEFBC3" transform="matrix(1.00, 0.00, -0.00, -1.00, 475.4, 623.1)">F</text><text xml:space="preserve" font-family="BebasNeue,Bebas Neue" font-size="104.0" fill="#FEFBC3" transform="matrix(1.00, 0.00, -0.00, -1.00, 513.2, 623.1)">I</text><text xml:space="preserve" font-family="BebasNeue,Bebas Neue" font-size="104.0" fill="#FEFBC3" transform="matrix(1.00, 0.00, -0.00, -1.00, 535.1, 623.1)">N</text><text xml:space="preserve" font-family="BebasNeue,Bebas Neue" font-size="104.0" fill="#FEFBC3" transform="matrix(1.00, 0.00, -0.00, -1.00, 581.6, 623.1)">I</text><text xml:space="preserve" font-family="BebasNeue,Bebas Neue" font-size="104.0" fill="#FEFBC3" transform="matrix(1.00, 0.00, -0.00, -1.00, 603.4, 623.1)">T</text><text xml:space="preserve" font-family="BebasNeue,Bebas Neue" font-size="104.0" fill="#FEFBC3" transform="matrix(1.00, 0.00, -0.00, -1.00, 642.5, 623.1)">E</text><text xml:space="preserve" font-family="BebasNeue,Bebas Neue" font-size="104.0" fill="#FEFBC3" transform="matrix(1.00, 0.00, -0.00, -1.00, 701.1, 623.1)">S</text><text xml:space="preserve" font-family="BebasNeue,Bebas Neue" font-size="104.0" fill="#FEFBC3" transform="matrix(1.00, 0.00, -0.00, -1.00, 742.0, 623.1)">T</text><text xml:space="preserve" font-family="BebasNeue,Bebas Neue" font-size="104.0" fill="#FEFBC3" transform="matrix(1.00, 0.00, -0.00, -1.00, 777.2, 623.1)">A</text><text xml:space="preserve" font-family="BebasNeue,Bebas Neue" font-size="104.0" fill="#FEFBC3" transform="matrix(1.00, 0.00, -0.00, -1.00, 817.7, 623.1)">T</text><text xml:space="preserve" font-family="BebasNeue,Bebas Neue" font-size="104.0" fill="#FEFBC3" transform="matrix(1.00, 0.00, -0.00, -1.00, 856.8, 623.1)">E</text><text xml:space="preserve" font-family="BebasNeue,Bebas Neue" font-size="104.0" fill="#FEFBC3" transform="matrix(1.00, 0.00, -0.00, -1.00, 342.2, 498.1)">M</text><text xml:space="preserve" font-family="BebasNeue,Bebas Neue" font-size="104.0" fill="#FEFBC3" transform="matrix(1.00, 0.00, -0.00, -1.00, 400.6, 498.1)">A</text><text xml:space="preserve" font-family="BebasNeue,Bebas Neue" font-size="104.0" fill="#FEFBC3" transform="matrix(1.00, 0.00, -0.00, -1.00, 444.9, 498.1)">C</text><text xml:space="preserve" font-family="BebasNeue,Bebas Neue" font-size="104.0" fill="#FEFBC3" transform="matrix(1.00, 0.00, -0.00, -1.00, 487.1, 498.1)">H</text><text xml:space="preserve" font-family="BebasNeue,Bebas Neue" font-size="104.0" fill="#FEFBC3" transform="matrix(1.00, 0.00, -0.00, -1.00, 533.6, 498.1)">I</text><text xml:space="preserve" font-family="BebasNeue,Bebas Neue" font-size="104.0" fill="#FEFBC3" transform="matrix(1.00, 0.00, -0.00, -1.00, 555.4, 498.1)">N</text><text xml:space="preserve" font-family="BebasNeue,Bebas Neue" font-size="104.0" fill="#FEFBC3" transform="matrix(1.00, 0.00, -0.00, -1.00, 601.9, 498.1)">E</text><text xml:space="preserve" font-family="BebasNeue,Bebas Neue" font-size="104.0" fill="#FEFBC3" transform="matrix(1.00, 0.00, -0.00, -1.00, 642.3, 498.1)">?</text><text xml:space="preserve" font-family="BebasNeue,Bebas Neue" font-size="288.0" fill="#FEFBC3" transform="matrix(1.00, 0.00, -0.00, -1.00, 459.0, 212.9)">?</text></g></svg>