<?xml version="1.0" encoding="UTF-8" standalone="no"?><svg xmlns="http://www.w3.org/2000/svg" xmlns:xlink="http://www.w3.org/1999/xlink" clip-rule="evenodd" stroke-miterlimit="10" viewBox="0 0 1024 768"><desc>SVG generated by Keynote</desc><defs></defs><g transform="matrix(1.00, 0.00, -0.00, -1.00, 0.0, 768.0)"><path d="M 0.0 768.0 L 1024.0 768.0 L 1024.0 0.0 L 0.0 0.0 Z M 0.0 768.0 " fill="#0CAE86"></path><text xml:space="preserve" font-family="BebasNeue,Bebas Neue" font-size="78.0" fill="#FFFFFF" transform="matrix(1.00, 0.00, -0.00, -1.00, 28.0, 670.4)">W</text><text xml:space="preserve" font-family="BebasNeue,Bebas Neue" font-size="78.0" fill="#FFFFFF" transform="matrix(1.00, 0.00, -0.00, -1.00, 73.5, 670.4)">H</text><text xml:space="preserve" font-family="BebasNeue,Bebas Neue" font-size="78.0" fill="#FFFFFF" transform="matrix(1.00, 0.00, -0.00, -1.00, 108.3, 670.4)">A</text><text xml:space="preserve" font-family="BebasNeue,Bebas Neue" font-size="78.0" fill="#FFFFFF" transform="matrix(1.00, 0.00, -0.00, -1.00, 138.7, 670.4)">T</text><text xml:space="preserve" font-family="BebasNeue,Bebas Neue" font-size="78.0" fill="#FEFFFF" transform="matrix(1.00, 0.00, -0.00, -1.00, 168.0, 670.4)"> </text><text xml:space="preserve" font-family="BebasNeue,Bebas Neue" font-size="78.0" fill="#FEFDD5" transform="matrix(1.00, 0.00, -0.00, -1.00, 181.7, 670.4)">I</text><text xml:space="preserve" font-family="BebasNeue,Bebas Neue" font-size="78.0" fill="#FEFDD5" transform="matrix(1.00, 0.00, -0.00, -1.00, 198.0, 670.4)">S</text><text xml:space="preserve" font-family="BebasNeue,Bebas Neue" font-size="78.0" fill="#FEFBC3" transform="matrix(1.00, 0.00, -0.00, -1.00, 228.8, 670.4)"> </text><text xml:space="preserve" font-family="BebasNeue,Bebas Neue" font-size="78.0" fill="#FEFDD5" transform="matrix(1.00, 0.00, -0.00, -1.00, 242.4, 670.4)">A</text><text xml:space="preserve" font-family="BebasNeue,Bebas Neue" font-size="78.0" fill="#FEFBC3" transform="matrix(1.00, 0.00, -0.00, -1.00, 275.7, 670.4)"> </text><text xml:space="preserve" font-family="BebasNeue,Bebas Neue" font-size="78.0" fill="#FEFBC3" transform="matrix(1.00, 0.00, -0.00, -1.00, 289.4, 670.4)">f</text><text xml:space="preserve" font-family="BebasNeue,Bebas Neue" font-size="78.0" fill="#FEFBC3" transform="matrix(1.00, 0.00, -0.00, -1.00, 317.8, 670.4)">I</text><text xml:space="preserve" font-family="BebasNeue,Bebas Neue" font-size="78.0" fill="#FEFBC3" transform="matrix(1.00, 0.00, -0.00, -1.00, 334.1, 670.4)">N</text><text xml:space="preserve" font-family="BebasNeue,Bebas Neue" font-size="78.0" fill="#FEFBC3" transform="matrix(1.00, 0.00, -0.00, -1.00, 369.0, 670.4)">I</text><text xml:space="preserve" font-family="BebasNeue,Bebas Neue" font-size="78.0" fill="#FEFBC3" transform="matrix(1.00, 0.00, -0.00, -1.00, 385.4, 670.4)">T</text><text xml:space="preserve" font-family="BebasNeue,Bebas Neue" font-size="78.0" fill="#FEFBC3" transform="matrix(1.00, 0.00, -0.00, -1.00, 414.7, 670.4)">E</text><text xml:space="preserve" font-family="BebasNeue,Bebas Neue" font-size="78.0" fill="#FEFBC3" transform="matrix(1.00, 0.00, -0.00, -1.00, 445.0, 670.4)"> </text><text xml:space="preserve" font-family="BebasNeue,Bebas Neue" font-size="78.0" fill="#FEFBC3" transform="matrix(1.00, 0.00, -0.00, -1.00, 458.6, 670.4)">S</text><text xml:space="preserve" font-family="BebasNeue,Bebas Neue" font-size="78.0" fill="#FEFBC3" transform="matrix(1.00, 0.00, -0.00, -1.00, 489.4, 670.4)">T</text><text xml:space="preserve" font-family="BebasNeue,Bebas Neue" font-size="78.0" fill="#FEFBC3" transform="matrix(1.00, 0.00, -0.00, -1.00, 515.7, 670.4)">A</text><text xml:space="preserve" font-family="BebasNeue,Bebas Neue" font-size="78.0" fill="#FEFBC3" transform="matrix(1.00, 0.00, -0.00, -1.00, 546.1, 670.4)">T</text><text xml:space="preserve" font-family="BebasNeue,Bebas Neue" font-size="78.0" fill="#FEFBC3" transform="matrix(1.00, 0.00, -0.00, -1.00, 575.4, 670.4)">E</text><text xml:space="preserve" font-family="BebasNeue,Bebas Neue" font-size="78.0" fill="#FEFBC3" transform="matrix(1.00, 0.00, -0.00, -1.00, 605.7, 670.4)"> </text><text xml:space="preserve" font-family="BebasNeue,Bebas Neue" font-size="78.0" fill="#FEFBC3" transform="matrix(1.00, 0.00, -0.00, -1.00, 619.3, 670.4)">M</text><text xml:space="preserve" font-family="BebasNeue,Bebas Neue" font-size="78.0" fill="#FEFBC3" transform="matrix(1.00, 0.00, -0.00, -1.00, 663.1, 670.4)">A</text><text xml:space="preserve" font-family="BebasNeue,Bebas Neue" font-size="78.0" fill="#FEFBC3" transform="matrix(1.00, 0.00, -0.00, -1.00, 696.3, 670.4)">C</text><text xml:space="preserve" font-family="BebasNeue,Bebas Neue" font-size="78.0" fill="#FEFBC3" transform="matrix(1.00, 0.00, -0.00, -1.00, 728.0, 670.4)">H</text><text xml:space="preserve" font-family="BebasNeue,Bebas Neue" font-size="78.0" fill="#FEFBC3" transform="matrix(1.00, 0.00, -0.00, -1.00, 762.8, 670.4)">I</text><text xml:space="preserve" font-family="BebasNeue,Bebas Neue" font-size="78.0" fill="#FEFBC3" transform="matrix(1.00, 0.00, -0.00, -1.00, 779.2, 670.4)">N</text><text xml:space="preserve" font-family="BebasNeue,Bebas Neue" font-size="78.0" fill="#FEFBC3" transform="matrix(1.00, 0.00, -0.00, -1.00, 814.1, 670.4)">E</text><text xml:space="preserve" font-family="BebasNeue,Bebas Neue" font-size="78.0" fill="#FEFBC3" transform="matrix(1.00, 0.00, -0.00, -1.00, 844.3, 670.4)">?</text><text xml:space="preserve" font-family="HelveticaNeue-Bold,Helvetica Neue" font-weight="bold" font-size="52.5" fill="#FEFFFF" transform="matrix(1.00, 0.00, -0.00, -1.00, 21.0, 560.8)">•</text><text xml:space="preserve" font-family="HelveticaNeue-Bold,Helvetica Neue" font-weight="bold" font-size="42.0" fill="#FEFFFF" transform="matrix(1.00, 0.00, -0.00, -1.00, 51.0, 564.8)">A</text><text xml:space="preserve" font-family="HelveticaNeue-Bold,Helvetica Neue" font-weight="bold" font-size="42.0" fill="#FEFFFF" transform="matrix(1.00, 0.00, -0.00, -1.00, 80.6, 564.8)"> </text><text xml:space="preserve" font-family="HelveticaNeue-Bold,Helvetica Neue" font-weight="bold" font-size="42.0" fill="#FEFFFF" transform="matrix(1.00, 0.00, -0.00, -1.00, 93.1, 564.8)">c</text><text xml:space="preserve" font-family="HelveticaNeue-Bold,Helvetica Neue" font-weight="bold" font-size="42.0" fill="#FEFFFF" transform="matrix(1.00, 0.00, -0.00, -1.00, 118.1, 564.8)">o</text><text xml:space="preserve" font-family="HelveticaNeue-Bold,Helvetica Neue" font-weight="bold" font-size="42.0" fill="#FEFFFF" transform="matrix(1.00, 0.00, -0.00, -1.00, 144.6, 564.8)">m</text><text xml:space="preserve" font-family="HelveticaNeue-Bold,Helvetica Neue" font-weight="bold" font-size="42.0" fill="#FEFFFF" transform="matrix(1.00, 0.00, -0.00, -1.00, 183.5, 564.8)">p</text><text xml:space="preserve" font-family="HelveticaNeue-Bold,Helvetica Neue" font-weight="bold" font-size="42.0" fill="#FEFFFF" transform="matrix(1.00, 0.00, -0.00, -1.00, 210.0, 564.8)">u</text><text xml:space="preserve" font-family="HelveticaNeue-Bold,Helvetica Neue" font-weight="bold" font-size="42.0" fill="#FEFFFF" transform="matrix(1.00, 0.00, -0.00, -1.00, 235.7, 564.8)">t</text><text xml:space="preserve" font-family="HelveticaNeue-Bold,Helvetica Neue" font-weight="bold" font-size="42.0" fill="#FEFFFF" transform="matrix(1.00, 0.00, -0.00, -1.00, 251.3, 564.8)">a</text><text xml:space="preserve" font-family="HelveticaNeue-Bold,Helvetica Neue" font-weight="bold" font-size="42.0" fill="#FEFFFF" transform="matrix(1.00, 0.00, -0.00, -1.00, 276.3, 564.8)">t</text><text xml:space="preserve" font-family="HelveticaNeue-Bold,Helvetica Neue" font-weight="bold" font-size="42.0" fill="#FEFFFF" transform="matrix(1.00, 0.00, -0.00, -1.00, 291.9, 564.8)">i</text><text xml:space="preserve" font-family="HelveticaNeue-Bold,Helvetica Neue" font-weight="bold" font-size="42.0" fill="#FEFFFF" transform="matrix(1.00, 0.00, -0.00, -1.00, 303.6, 564.8)">o</text><text xml:space="preserve" font-family="HelveticaNeue-Bold,Helvetica Neue" font-weight="bold" font-size="42.0" fill="#FEFFFF" transform="matrix(1.00, 0.00, -0.00, -1.00, 330.1, 564.8)">n</text><text xml:space="preserve" font-family="HelveticaNeue-Bold,Helvetica Neue" font-weight="bold" font-size="42.0" fill="#FEFFFF" transform="matrix(1.00, 0.00, -0.00, -1.00, 355.8, 564.8)">a</text><text xml:space="preserve" font-family="HelveticaNeue-Bold,Helvetica Neue" font-weight="bold" font-size="42.0" fill="#FEFFFF" transform="matrix(1.00, 0.00, -0.00, -1.00, 380.8, 564.8)">l</text><text xml:space="preserve" font-family="HelveticaNeue-Bold,Helvetica Neue" font-weight="bold" font-size="42.0" fill="#FEFFFF" transform="matrix(1.00, 0.00, -0.00, -1.00, 392.5, 564.8)"> </text><text xml:space="preserve" font-family="HelveticaNeue-Bold,Helvetica Neue" font-weight="bold" font-size="42.0" fill="#FEFDD5" transform="matrix(1.00, 0.00, -0.00, -1.00, 405.0, 564.8)">a</text><text xml:space="preserve" font-family="HelveticaNeue-Bold,Helvetica Neue" font-weight="bold" font-size="42.0" fill="#FEFDD5" transform="matrix(1.00, 0.00, -0.00, -1.00, 429.9, 564.8)">b</text><text xml:space="preserve" font-family="HelveticaNeue-Bold,Helvetica Neue" font-weight="bold" font-size="42.0" fill="#FEFDD5" transform="matrix(1.00, 0.00, -0.00, -1.00, 456.4, 564.8)">s</text><text xml:space="preserve" font-family="HelveticaNeue-Bold,Helvetica Neue" font-weight="bold" font-size="42.0" fill="#FEFDD5" transform="matrix(1.00, 0.00, -0.00, -1.00, 479.8, 564.8)">t</text><text xml:space="preserve" font-family="HelveticaNeue-Bold,Helvetica Neue" font-weight="bold" font-size="42.0" fill="#FEFDD5" transform="matrix(1.00, 0.00, -0.00, -1.00, 495.4, 564.8)">r</text><text xml:space="preserve" font-family="HelveticaNeue-Bold,Helvetica Neue" font-weight="bold" font-size="42.0" fill="#FEFDD5" transform="matrix(1.00, 0.00, -0.00, -1.00, 512.6, 564.8)">a</text><text xml:space="preserve" font-family="HelveticaNeue-Bold,Helvetica Neue" font-weight="bold" font-size="42.0" fill="#FEFDD5" transform="matrix(1.00, 0.00, -0.00, -1.00, 537.6, 564.8)">c</text><text xml:space="preserve" font-family="HelveticaNeue-Bold,Helvetica Neue" font-weight="bold" font-size="42.0" fill="#FEFDD5" transform="matrix(1.00, 0.00, -0.00, -1.00, 562.5, 564.8)">t</text><text xml:space="preserve" font-family="HelveticaNeue-Bold,Helvetica Neue" font-weight="bold" font-size="42.0" fill="#FEFDD5" transform="matrix(1.00, 0.00, -0.00, -1.00, 578.1, 564.8)">i</text><text xml:space="preserve" font-family="HelveticaNeue-Bold,Helvetica Neue" font-weight="bold" font-size="42.0" fill="#FEFDD5" transform="matrix(1.00, 0.00, -0.00, -1.00, 589.8, 564.8)">o</text><text xml:space="preserve" font-family="HelveticaNeue-Bold,Helvetica Neue" font-weight="bold" font-size="42.0" fill="#FEFDD5" transform="matrix(1.00, 0.00, -0.00, -1.00, 616.3, 564.8)">n</text><text xml:space="preserve" font-family="HelveticaNeue-Bold,Helvetica Neue" font-weight="bold" font-size="42.0" fill="#FEFFFF" transform="matrix(1.00, 0.00, -0.00, -1.00, 642.1, 564.8)"> </text><text xml:space="preserve" font-family="HelveticaNeue-Bold,Helvetica Neue" font-weight="bold" font-size="42.0" fill="#FEFFFF" transform="matrix(1.00, 0.00, -0.00, -1.00, 654.6, 564.8)">t</text><text xml:space="preserve" font-family="HelveticaNeue-Bold,Helvetica Neue" font-weight="bold" font-size="42.0" fill="#FEFFFF" transform="matrix(1.00, 0.00, -0.00, -1.00, 670.2, 564.8)">h</text><text xml:space="preserve" font-family="HelveticaNeue-Bold,Helvetica Neue" font-weight="bold" font-size="42.0" fill="#FEFFFF" transform="matrix(1.00, 0.00, -0.00, -1.00, 696.0, 564.8)">a</text><text xml:space="preserve" font-family="HelveticaNeue-Bold,Helvetica Neue" font-weight="bold" font-size="42.0" fill="#FEFFFF" transform="matrix(1.00, 0.00, -0.00, -1.00, 720.9, 564.8)">t</text><text xml:space="preserve" font-family="HelveticaNeue-Bold,Helvetica Neue" font-weight="bold" font-size="42.0" fill="#FEFFFF" transform="matrix(1.00, 0.00, -0.00, -1.00, 736.5, 564.8)">:</text></g></svg>