<?xml version="1.0" encoding="UTF-8" standalone="no"?><svg xmlns="http://www.w3.org/2000/svg" xmlns:xlink="http://www.w3.org/1999/xlink" clip-rule="evenodd" stroke-miterlimit="10" viewBox="0 0 363 49"><desc>SVG generated by Keynote</desc><defs></defs><g transform="matrix(1.00, 0.00, -0.00, -1.00, 0.0, 49.0)"><text xml:space="preserve" font-family="HelveticaNeue,Helvetica Neue" font-size="48.0" fill="#6FB1D8" transform="matrix(1.00, 0.00, -0.00, -1.00, 1.5, 12.1)">W</text><text xml:space="preserve" font-family="HelveticaNeue,Helvetica Neue" font-size="48.0" fill="#6FB1D8" transform="matrix(1.00, 0.00, -0.00, -1.00, 45.9, 12.1)">h</text><text xml:space="preserve" font-family="HelveticaNeue,Helvetica Neue" font-size="48.0" fill="#6FB1D8" transform="matrix(1.00, 0.00, -0.00, -1.00, 72.6, 12.1)">a</text><text xml:space="preserve" font-family="HelveticaNeue,Helvetica Neue" font-size="48.0" fill="#6FB1D8" transform="matrix(1.00, 0.00, -0.00, -1.00, 98.4, 12.1)">t</text><text xml:space="preserve" font-family="HelveticaNeue,Helvetica Neue" font-size="48.0" fill="#6FB1D8" transform="matrix(1.00, 0.00, -0.00, -1.00, 113.5, 12.1)"> </text><text xml:space="preserve" font-family="HelveticaNeue,Helvetica Neue" font-size="48.0" fill="#6FB1D8" transform="matrix(1.00, 0.00, -0.00, -1.00, 126.8, 12.1)">g</text><text xml:space="preserve" font-family="HelveticaNeue,Helvetica Neue" font-size="48.0" fill="#6FB1D8" transform="matrix(1.00, 0.00, -0.00, -1.00, 154.4, 12.1)">o</text><text xml:space="preserve" font-family="HelveticaNeue,Helvetica Neue" font-size="48.0" fill="#6FB1D8" transform="matrix(1.00, 0.00, -0.00, -1.00, 182.0, 12.1)">e</text><text xml:space="preserve" font-family="HelveticaNeue,Helvetica Neue" font-size="48.0" fill="#6FB1D8" transform="matrix(1.00, 0.00, -0.00, -1.00, 207.7, 12.1)">s</text><text xml:space="preserve" font-family="HelveticaNeue,Helvetica Neue" font-size="48.0" fill="#6FB1D8" transform="matrix(1.00, 0.00, -0.00, -1.00, 231.7, 12.1)"> </text><text xml:space="preserve" font-family="HelveticaNeue,Helvetica Neue" font-size="48.0" fill="#6FB1D8" transform="matrix(1.00, 0.00, -0.00, -1.00, 245.1, 12.1)">h</text><text xml:space="preserve" font-family="HelveticaNeue,Helvetica Neue" font-size="48.0" fill="#6FB1D8" transform="matrix(1.00, 0.00, -0.00, -1.00, 271.8, 12.1)">e</text><text xml:space="preserve" font-family="HelveticaNeue,Helvetica Neue" font-size="48.0" fill="#6FB1D8" transform="matrix(1.00, 0.00, -0.00, -1.00, 297.5, 12.1)">r</text><text xml:space="preserve" font-family="HelveticaNeue,Helvetica Neue" font-size="48.0" fill="#6FB1D8" transform="matrix(1.00, 0.00, -0.00, -1.00, 312.7, 12.1)">e</text><text xml:space="preserve" font-family="HelveticaNeue,Helvetica Neue" font-size="48.0" fill="#6FB1D8" transform="matrix(1.00, 0.00, -0.00, -1.00, 338.4, 12.1)">?</text></g></svg>