<?xml version="1.0" encoding="UTF-8" standalone="no"?><svg xmlns="http://www.w3.org/2000/svg" xmlns:xlink="http://www.w3.org/1999/xlink" clip-rule="evenodd" stroke-miterlimit="10" viewBox="0 0 1024 768"><desc>SVG generated by Keynote</desc><defs></defs><g transform="matrix(1.00, 0.00, -0.00, -1.00, 0.0, 768.0)"><path d="M 0.0 768.0 L 1024.0 768.0 L 1024.0 0.0 L 0.0 0.0 Z M 0.0 768.0 " fill="#FDFEF7"></path><text xml:space="preserve" font-family="BebasNeue,Bebas Neue" font-size="78.0" fill="#5E5E5E" transform="matrix(1.00, 0.00, -0.00, -1.00, 28.0, 670.4)">O</text><text xml:space="preserve" font-family="BebasNeue,Bebas Neue" font-size="78.0" fill="#5E5E5E" transform="matrix(1.00, 0.00, -0.00, -1.00, 60.4, 670.4)">M</text><text xml:space="preserve" font-family="BebasNeue,Bebas Neue" font-size="78.0" fill="#5E5E5E" transform="matrix(1.00, 0.00, -0.00, -1.00, 104.2, 670.4)">G</text><text xml:space="preserve" font-family="BebasNeue,Bebas Neue" font-size="78.0" fill="#6EB1D8" transform="matrix(1.00, 0.00, -0.00, -1.00, 149.8, 670.4)">C</text><text xml:space="preserve" font-family="BebasNeue,Bebas Neue" font-size="78.0" fill="#6EB1D8" transform="matrix(1.00, 0.00, -0.00, -1.00, 181.5, 670.4)">O</text><text xml:space="preserve" font-family="BebasNeue,Bebas Neue" font-size="78.0" fill="#6EB1D8" transform="matrix(1.00, 0.00, -0.00, -1.00, 214.0, 670.4)">D</text><text xml:space="preserve" font-family="BebasNeue,Bebas Neue" font-size="78.0" fill="#6EB1D8" transform="matrix(1.00, 0.00, -0.00, -1.00, 247.3, 670.4)">E</text><text xml:space="preserve" font-family="BebasNeue,Bebas Neue" font-size="78.0" fill="#6EB1D8" transform="matrix(1.00, 0.00, -0.00, -1.00, 277.6, 670.4)">!</text><text xml:space="preserve" font-family="AndaleMono,Andale Mono" font-size="54.0" fill="#0042A9" transform="matrix(1.00, 0.00, -0.00, -1.00, 7.0, 425.8)">v</text><text xml:space="preserve" font-family="AndaleMono,Andale Mono" font-size="54.0" fill="#0042A9" transform="matrix(1.00, 0.00, -0.00, -1.00, 34.8, 425.8)">a</text><text xml:space="preserve" font-family="AndaleMono,Andale Mono" font-size="54.0" fill="#0042A9" transform="matrix(1.00, 0.00, -0.00, -1.00, 62.5, 425.8)">r</text><text xml:space="preserve" font-family="AndaleMono,Andale Mono" font-size="54.0" fill="#304863" transform="matrix(1.00, 0.00, -0.00, -1.00, 90.3, 425.8)"> </text><text xml:space="preserve" font-family="AndaleMono,Andale Mono" font-size="54.0" fill="#304863" transform="matrix(1.00, 0.00, -0.00, -1.00, 118.1, 425.8)">f</text><text xml:space="preserve" font-family="AndaleMono,Andale Mono" font-size="54.0" fill="#304863" transform="matrix(1.00, 0.00, -0.00, -1.00, 145.8, 425.8)">s</text><text xml:space="preserve" font-family="AndaleMono,Andale Mono" font-size="54.0" fill="#304863" transform="matrix(1.00, 0.00, -0.00, -1.00, 173.6, 425.8)">m</text><text xml:space="preserve" font-family="AndaleMono,Andale Mono" font-size="54.0" fill="#304863" transform="matrix(1.00, 0.00, -0.00, -1.00, 201.4, 425.8)"> </text><text xml:space="preserve" font-family="AndaleMono,Andale Mono" font-size="54.0" fill="#304863" transform="matrix(1.00, 0.00, -0.00, -1.00, 229.2, 425.8)">=</text><text xml:space="preserve" font-family="AndaleMono,Andale Mono" font-size="54.0" fill="#304863" transform="matrix(1.00, 0.00, -0.00, -1.00, 256.9, 425.8)"> </text><text xml:space="preserve" font-family="AndaleMono,Andale Mono" font-size="54.0" fill="#0042A9" transform="matrix(1.00, 0.00, -0.00, -1.00, 284.6, 425.8)">n</text><text xml:space="preserve" font-family="AndaleMono,Andale Mono" font-size="54.0" fill="#0042A9" transform="matrix(1.00, 0.00, -0.00, -1.00, 312.4, 425.8)">e</text><text xml:space="preserve" font-family="AndaleMono,Andale Mono" font-size="54.0" fill="#0042A9" transform="matrix(1.00, 0.00, -0.00, -1.00, 340.2, 425.8)">w</text><text xml:space="preserve" font-family="AndaleMono,Andale Mono" font-size="54.0" fill="#304863" transform="matrix(1.00, 0.00, -0.00, -1.00, 367.9, 425.8)"> </text><text xml:space="preserve" font-family="AndaleMono,Andale Mono" font-size="54.0" fill="#304863" transform="matrix(1.00, 0.00, -0.00, -1.00, 395.7, 425.8)">m</text><text xml:space="preserve" font-family="AndaleMono,Andale Mono" font-size="54.0" fill="#304863" transform="matrix(1.00, 0.00, -0.00, -1.00, 423.5, 425.8)">a</text><text xml:space="preserve" font-family="AndaleMono,Andale Mono" font-size="54.0" fill="#304863" transform="matrix(1.00, 0.00, -0.00, -1.00, 451.3, 425.8)">c</text><text xml:space="preserve" font-family="AndaleMono,Andale Mono" font-size="54.0" fill="#304863" transform="matrix(1.00, 0.00, -0.00, -1.00, 479.0, 425.8)">h</text><text xml:space="preserve" font-family="AndaleMono,Andale Mono" font-size="54.0" fill="#304863" transform="matrix(1.00, 0.00, -0.00, -1.00, 506.8, 425.8)">i</text><text xml:space="preserve" font-family="AndaleMono,Andale Mono" font-size="54.0" fill="#304863" transform="matrix(1.00, 0.00, -0.00, -1.00, 534.6, 425.8)">n</text><text xml:space="preserve" font-family="AndaleMono,Andale Mono" font-size="54.0" fill="#304863" transform="matrix(1.00, 0.00, -0.00, -1.00, 562.3, 425.8)">a</text><text xml:space="preserve" font-family="AndaleMono,Andale Mono" font-size="54.0" fill="#304863" transform="matrix(1.00, 0.00, -0.00, -1.00, 590.1, 425.8)">.</text><text xml:space="preserve" font-family="AndaleMono,Andale Mono" font-size="54.0" fill="#304863" transform="matrix(1.00, 0.00, -0.00, -1.00, 617.9, 425.8)">F</text><text xml:space="preserve" font-family="AndaleMono,Andale Mono" font-size="54.0" fill="#304863" transform="matrix(1.00, 0.00, -0.00, -1.00, 645.7, 425.8)">s</text><text xml:space="preserve" font-family="AndaleMono,Andale Mono" font-size="54.0" fill="#304863" transform="matrix(1.00, 0.00, -0.00, -1.00, 673.4, 425.8)">m</text><text xml:space="preserve" font-family="AndaleMono,Andale Mono" font-size="54.0" fill="#304863" transform="matrix(1.00, 0.00, -0.00, -1.00, 701.2, 425.8)">(</text><text xml:space="preserve" font-family="AndaleMono,Andale Mono" font-size="54.0" fill="#304863" transform="matrix(1.00, 0.00, -0.00, -1.00, 729.0, 425.8)">{</text><text xml:space="preserve" font-family="AndaleMono,Andale Mono" font-size="54.0" fill="#304863" transform="matrix(1.00, 0.00, -0.00, -1.00, 756.7, 425.8)"> </text><text xml:space="preserve" font-family="AndaleMono,Andale Mono" font-size="54.0" fill="#304863" transform="matrix(1.00, 0.00, -0.00, -1.00, 784.5, 425.8)">.</text><text xml:space="preserve" font-family="AndaleMono,Andale Mono" font-size="54.0" fill="#304863" transform="matrix(1.00, 0.00, -0.00, -1.00, 812.3, 425.8)">.</text><text xml:space="preserve" font-family="AndaleMono,Andale Mono" font-size="54.0" fill="#304863" transform="matrix(1.00, 0.00, -0.00, -1.00, 840.1, 425.8)">.</text><text xml:space="preserve" font-family="AndaleMono,Andale Mono" font-size="54.0" fill="#304863" transform="matrix(1.00, 0.00, -0.00, -1.00, 867.8, 425.8)"> </text><text xml:space="preserve" font-family="AndaleMono,Andale Mono" font-size="54.0" fill="#304863" transform="matrix(1.00, 0.00, -0.00, -1.00, 895.6, 425.8)">}</text><text xml:space="preserve" font-family="AndaleMono,Andale Mono" font-size="54.0" fill="#304863" transform="matrix(1.00, 0.00, -0.00, -1.00, 923.4, 425.8)">)</text><text xml:space="preserve" font-family="AndaleMono,Andale Mono" font-size="54.0" fill="#304863" transform="matrix(1.00, 0.00, -0.00, -1.00, 951.2, 425.8)">;</text><text xml:space="preserve" font-family="AndaleMono,Andale Mono" font-size="52.0" fill="#0042A9" transform="matrix(1.00, 0.00, -0.00, -1.00, 6.0, 180.3)">v</text><text xml:space="preserve" font-family="AndaleMono,Andale Mono" font-size="52.0" fill="#0042A9" transform="matrix(1.00, 0.00, -0.00, -1.00, 32.7, 180.3)">a</text><text xml:space="preserve" font-family="AndaleMono,Andale Mono" font-size="52.0" fill="#0042A9" transform="matrix(1.00, 0.00, -0.00, -1.00, 59.5, 180.3)">r</text><text xml:space="preserve" font-family="AndaleMono,Andale Mono" font-size="52.0" fill="#304863" transform="matrix(1.00, 0.00, -0.00, -1.00, 86.2, 180.3)"> </text><text xml:space="preserve" font-family="AndaleMono,Andale Mono" font-size="52.0" fill="#304863" transform="matrix(1.00, 0.00, -0.00, -1.00, 113.0, 180.3)">F</text><text xml:space="preserve" font-family="AndaleMono,Andale Mono" font-size="52.0" fill="#304863" transform="matrix(1.00, 0.00, -0.00, -1.00, 139.7, 180.3)">s</text><text xml:space="preserve" font-family="AndaleMono,Andale Mono" font-size="52.0" fill="#304863" transform="matrix(1.00, 0.00, -0.00, -1.00, 166.4, 180.3)">m</text><text xml:space="preserve" font-family="AndaleMono,Andale Mono" font-size="52.0" fill="#304863" transform="matrix(1.00, 0.00, -0.00, -1.00, 193.2, 180.3)"> </text><text xml:space="preserve" font-family="AndaleMono,Andale Mono" font-size="52.0" fill="#304863" transform="matrix(1.00, 0.00, -0.00, -1.00, 219.9, 180.3)">=</text><text xml:space="preserve" font-family="AndaleMono,Andale Mono" font-size="52.0" fill="#304863" transform="matrix(1.00, 0.00, -0.00, -1.00, 246.7, 180.3)"> </text><text xml:space="preserve" font-family="AndaleMono,Andale Mono" font-size="52.0" fill="#304863" transform="matrix(1.00, 0.00, -0.00, -1.00, 273.4, 180.3)">m</text><text xml:space="preserve" font-family="AndaleMono,Andale Mono" font-size="52.0" fill="#304863" transform="matrix(1.00, 0.00, -0.00, -1.00, 300.2, 180.3)">a</text><text xml:space="preserve" font-family="AndaleMono,Andale Mono" font-size="52.0" fill="#304863" transform="matrix(1.00, 0.00, -0.00, -1.00, 326.9, 180.3)">c</text><text xml:space="preserve" font-family="AndaleMono,Andale Mono" font-size="52.0" fill="#304863" transform="matrix(1.00, 0.00, -0.00, -1.00, 353.6, 180.3)">h</text><text xml:space="preserve" font-family="AndaleMono,Andale Mono" font-size="52.0" fill="#304863" transform="matrix(1.00, 0.00, -0.00, -1.00, 380.4, 180.3)">i</text><text xml:space="preserve" font-family="AndaleMono,Andale Mono" font-size="52.0" fill="#304863" transform="matrix(1.00, 0.00, -0.00, -1.00, 407.1, 180.3)">n</text><text xml:space="preserve" font-family="AndaleMono,Andale Mono" font-size="52.0" fill="#304863" transform="matrix(1.00, 0.00, -0.00, -1.00, 433.9, 180.3)">a</text><text xml:space="preserve" font-family="AndaleMono,Andale Mono" font-size="52.0" fill="#304863" transform="matrix(1.00, 0.00, -0.00, -1.00, 460.6, 180.3)">.</text><text xml:space="preserve" font-family="AndaleMono,Andale Mono" font-size="52.0" fill="#304863" transform="matrix(1.00, 0.00, -0.00, -1.00, 487.4, 180.3)">F</text><text xml:space="preserve" font-family="AndaleMono,Andale Mono" font-size="52.0" fill="#304863" transform="matrix(1.00, 0.00, -0.00, -1.00, 514.1, 180.3)">s</text><text xml:space="preserve" font-family="AndaleMono,Andale Mono" font-size="52.0" fill="#304863" transform="matrix(1.00, 0.00, -0.00, -1.00, 540.8, 180.3)">m</text><text xml:space="preserve" font-family="AndaleMono,Andale Mono" font-size="52.0" fill="#304863" transform="matrix(1.00, 0.00, -0.00, -1.00, 567.6, 180.3)">.</text><text xml:space="preserve" font-family="AndaleMono,Andale Mono" font-size="52.0" fill="#304863" transform="matrix(1.00, 0.00, -0.00, -1.00, 594.3, 180.3)">e</text><text xml:space="preserve" font-family="AndaleMono,Andale Mono" font-size="52.0" fill="#304863" transform="matrix(1.00, 0.00, -0.00, -1.00, 621.1, 180.3)">x</text><text xml:space="preserve" font-family="AndaleMono,Andale Mono" font-size="52.0" fill="#304863" transform="matrix(1.00, 0.00, -0.00, -1.00, 647.8, 180.3)">t</text><text xml:space="preserve" font-family="AndaleMono,Andale Mono" font-size="52.0" fill="#304863" transform="matrix(1.00, 0.00, -0.00, -1.00, 674.6, 180.3)">e</text><text xml:space="preserve" font-family="AndaleMono,Andale Mono" font-size="52.0" fill="#304863" transform="matrix(1.00, 0.00, -0.00, -1.00, 701.3, 180.3)">n</text><text xml:space="preserve" font-family="AndaleMono,Andale Mono" font-size="52.0" fill="#304863" transform="matrix(1.00, 0.00, -0.00, -1.00, 728.1, 180.3)">d</text><text xml:space="preserve" font-family="AndaleMono,Andale Mono" font-size="52.0" fill="#304863" transform="matrix(1.00, 0.00, -0.00, -1.00, 754.8, 180.3)">(</text><text xml:space="preserve" font-family="AndaleMono,Andale Mono" font-size="52.0" fill="#304863" transform="matrix(1.00, 0.00, -0.00, -1.00, 781.5, 180.3)">{</text><text xml:space="preserve" font-family="AndaleMono,Andale Mono" font-size="52.0" fill="#304863" transform="matrix(1.00, 0.00, -0.00, -1.00, 808.3, 180.3)"> </text><text xml:space="preserve" font-family="AndaleMono,Andale Mono" font-size="52.0" fill="#304863" transform="matrix(1.00, 0.00, -0.00, -1.00, 835.0, 180.3)">.</text><text xml:space="preserve" font-family="AndaleMono,Andale Mono" font-size="52.0" fill="#304863" transform="matrix(1.00, 0.00, -0.00, -1.00, 861.8, 180.3)">.</text><text xml:space="preserve" font-family="AndaleMono,Andale Mono" font-size="52.0" fill="#304863" transform="matrix(1.00, 0.00, -0.00, -1.00, 888.5, 180.3)">.</text><text xml:space="preserve" font-family="AndaleMono,Andale Mono" font-size="52.0" fill="#304863" transform="matrix(1.00, 0.00, -0.00, -1.00, 915.3, 180.3)"> </text><text xml:space="preserve" font-family="AndaleMono,Andale Mono" font-size="52.0" fill="#304863" transform="matrix(1.00, 0.00, -0.00, -1.00, 942.0, 180.3)">}</text><text xml:space="preserve" font-family="AndaleMono,Andale Mono" font-size="52.0" fill="#304863" transform="matrix(1.00, 0.00, -0.00, -1.00, 968.7, 180.3)">)</text><text xml:space="preserve" font-family="AndaleMono,Andale Mono" font-size="52.0" fill="#304863" transform="matrix(1.00, 0.00, -0.00, -1.00, 995.5, 180.3)">;</text><text xml:space="preserve" font-family="HelveticaNeue-Italic,Helvetica Neue" font-style="italic" font-size="48.0" fill="#304863" transform="matrix(1.00, 0.00, -0.00, -1.00, 55.5, 574.1)">I</text><text xml:space="preserve" font-family="HelveticaNeue-Italic,Helvetica Neue" font-style="italic" font-size="48.0" fill="#304863" transform="matrix(1.00, 0.00, -0.00, -1.00, 67.9, 574.1)">n</text><text xml:space="preserve" font-family="HelveticaNeue-Italic,Helvetica Neue" font-style="italic" font-size="48.0" fill="#304863" transform="matrix(1.00, 0.00, -0.00, -1.00, 94.6, 574.1)">s</text><text xml:space="preserve" font-family="HelveticaNeue-Italic,Helvetica Neue" font-style="italic" font-size="48.0" fill="#304863" transform="matrix(1.00, 0.00, -0.00, -1.00, 117.7, 574.1)">t</text><text xml:space="preserve" font-family="HelveticaNeue-Italic,Helvetica Neue" font-style="italic" font-size="48.0" fill="#304863" transform="matrix(1.00, 0.00, -0.00, -1.00, 132.8, 574.1)">a</text><text xml:space="preserve" font-family="HelveticaNeue-Italic,Helvetica Neue" font-style="italic" font-size="48.0" fill="#304863" transform="matrix(1.00, 0.00, -0.00, -1.00, 157.7, 574.1)">n</text><text xml:space="preserve" font-family="HelveticaNeue-Italic,Helvetica Neue" font-style="italic" font-size="48.0" fill="#304863" transform="matrix(1.00, 0.00, -0.00, -1.00, 184.4, 574.1)">c</text><text xml:space="preserve" font-family="HelveticaNeue-Italic,Helvetica Neue" font-style="italic" font-size="48.0" fill="#304863" transform="matrix(1.00, 0.00, -0.00, -1.00, 210.2, 574.1)">e</text><text xml:space="preserve" font-family="HelveticaNeue-Italic,Helvetica Neue" font-style="italic" font-size="48.0" fill="#304863" transform="matrix(1.00, 0.00, -0.00, -1.00, 236.0, 574.1)">s</text><text xml:space="preserve" font-family="HelveticaNeue-Italic,Helvetica Neue" font-style="italic" font-size="48.0" fill="#304863" transform="matrix(1.00, 0.00, -0.00, -1.00, 259.1, 574.1)"> </text><text xml:space="preserve" font-family="HelveticaNeue-Italic,Helvetica Neue" font-style="italic" font-size="48.0" fill="#304863" transform="matrix(1.00, 0.00, -0.00, -1.00, 272.4, 574.1)">a</text><text xml:space="preserve" font-family="HelveticaNeue-Italic,Helvetica Neue" font-style="italic" font-size="48.0" fill="#304863" transform="matrix(1.00, 0.00, -0.00, -1.00, 297.3, 574.1)">n</text><text xml:space="preserve" font-family="HelveticaNeue-Italic,Helvetica Neue" font-style="italic" font-size="48.0" fill="#304863" transform="matrix(1.00, 0.00, -0.00, -1.00, 324.0, 574.1)">d</text><text xml:space="preserve" font-family="HelveticaNeue-Italic,Helvetica Neue" font-style="italic" font-size="48.0" fill="#304863" transform="matrix(1.00, 0.00, -0.00, -1.00, 352.5, 574.1)"> </text><text xml:space="preserve" font-family="HelveticaNeue-Italic,Helvetica Neue" font-style="italic" font-size="48.0" fill="#304863" transform="matrix(1.00, 0.00, -0.00, -1.00, 365.8, 574.1)">C</text><text xml:space="preserve" font-family="HelveticaNeue-Italic,Helvetica Neue" font-style="italic" font-size="48.0" fill="#304863" transform="matrix(1.00, 0.00, -0.00, -1.00, 400.5, 574.1)">o</text><text xml:space="preserve" font-family="HelveticaNeue-Italic,Helvetica Neue" font-style="italic" font-size="48.0" fill="#304863" transform="matrix(1.00, 0.00, -0.00, -1.00, 428.0, 574.1)">n</text><text xml:space="preserve" font-family="HelveticaNeue-Italic,Helvetica Neue" font-style="italic" font-size="48.0" fill="#304863" transform="matrix(1.00, 0.00, -0.00, -1.00, 454.7, 574.1)">s</text><text xml:space="preserve" font-family="HelveticaNeue-Italic,Helvetica Neue" font-style="italic" font-size="48.0" fill="#304863" transform="matrix(1.00, 0.00, -0.00, -1.00, 477.8, 574.1)">t</text><text xml:space="preserve" font-family="HelveticaNeue-Italic,Helvetica Neue" font-style="italic" font-size="48.0" fill="#304863" transform="matrix(1.00, 0.00, -0.00, -1.00, 492.9, 574.1)">r</text><text xml:space="preserve" font-family="HelveticaNeue-Italic,Helvetica Neue" font-style="italic" font-size="48.0" fill="#304863" transform="matrix(1.00, 0.00, -0.00, -1.00, 508.9, 574.1)">u</text><text xml:space="preserve" font-family="HelveticaNeue-Italic,Helvetica Neue" font-style="italic" font-size="48.0" fill="#304863" transform="matrix(1.00, 0.00, -0.00, -1.00, 535.6, 574.1)">c</text><text xml:space="preserve" font-family="HelveticaNeue-Italic,Helvetica Neue" font-style="italic" font-size="48.0" fill="#304863" transform="matrix(1.00, 0.00, -0.00, -1.00, 561.4, 574.1)">t</text><text xml:space="preserve" font-family="HelveticaNeue-Italic,Helvetica Neue" font-style="italic" font-size="48.0" fill="#304863" transform="matrix(1.00, 0.00, -0.00, -1.00, 576.5, 574.1)">o</text><text xml:space="preserve" font-family="HelveticaNeue-Italic,Helvetica Neue" font-style="italic" font-size="48.0" fill="#304863" transform="matrix(1.00, 0.00, -0.00, -1.00, 604.0, 574.1)">r</text><text xml:space="preserve" font-family="HelveticaNeue-Italic,Helvetica Neue" font-style="italic" font-size="48.0" fill="#304863" transform="matrix(1.00, 0.00, -0.00, -1.00, 620.0, 574.1)">s</text><text xml:space="preserve" font-family="HelveticaNeue,Helvetica Neue" font-size="48.0" fill="#6FB1D8" transform="matrix(1.00, 0.00, -0.00, -1.00, 290.5, 303.1)">W</text><text xml:space="preserve" font-family="HelveticaNeue,Helvetica Neue" font-size="48.0" fill="#6FB1D8" transform="matrix(1.00, 0.00, -0.00, -1.00, 334.9, 303.1)">h</text><text xml:space="preserve" font-family="HelveticaNeue,Helvetica Neue" font-size="48.0" fill="#6FB1D8" transform="matrix(1.00, 0.00, -0.00, -1.00, 361.6, 303.1)">a</text><text xml:space="preserve" font-family="HelveticaNeue,Helvetica Neue" font-size="48.0" fill="#6FB1D8" transform="matrix(1.00, 0.00, -0.00, -1.00, 387.4, 303.1)">t</text><text xml:space="preserve" font-family="HelveticaNeue,Helvetica Neue" font-size="48.0" fill="#6FB1D8" transform="matrix(1.00, 0.00, -0.00, -1.00, 402.5, 303.1)"> </text><text xml:space="preserve" font-family="HelveticaNeue,Helvetica Neue" font-size="48.0" fill="#6FB1D8" transform="matrix(1.00, 0.00, -0.00, -1.00, 415.8, 303.1)">g</text><text xml:space="preserve" font-family="HelveticaNeue,Helvetica Neue" font-size="48.0" fill="#6FB1D8" transform="matrix(1.00, 0.00, -0.00, -1.00, 443.4, 303.1)">o</text><text xml:space="preserve" font-family="HelveticaNeue,Helvetica Neue" font-size="48.0" fill="#6FB1D8" transform="matrix(1.00, 0.00, -0.00, -1.00, 471.0, 303.1)">e</text><text xml:space="preserve" font-family="HelveticaNeue,Helvetica Neue" font-size="48.0" fill="#6FB1D8" transform="matrix(1.00, 0.00, -0.00, -1.00, 496.7, 303.1)">s</text><text xml:space="preserve" font-family="HelveticaNeue,Helvetica Neue" font-size="48.0" fill="#6FB1D8" transform="matrix(1.00, 0.00, -0.00, -1.00, 520.7, 303.1)"> </text><text xml:space="preserve" font-family="HelveticaNeue,Helvetica Neue" font-size="48.0" fill="#6FB1D8" transform="matrix(1.00, 0.00, -0.00, -1.00, 534.1, 303.1)">h</text><text xml:space="preserve" font-family="HelveticaNeue,Helvetica Neue" font-size="48.0" fill="#6FB1D8" transform="matrix(1.00, 0.00, -0.00, -1.00, 560.8, 303.1)">e</text><text xml:space="preserve" font-family="HelveticaNeue,Helvetica Neue" font-size="48.0" fill="#6FB1D8" transform="matrix(1.00, 0.00, -0.00, -1.00, 586.5, 303.1)">r</text><text xml:space="preserve" font-family="HelveticaNeue,Helvetica Neue" font-size="48.0" fill="#6FB1D8" transform="matrix(1.00, 0.00, -0.00, -1.00, 601.7, 303.1)">e</text><text xml:space="preserve" font-family="HelveticaNeue,Helvetica Neue" font-size="48.0" fill="#6FB1D8" transform="matrix(1.00, 0.00, -0.00, -1.00, 627.4, 303.1)">?</text><path d="M 123.5 7.8 L 121.5 9.4 L 0.0 103.2 " fill="none" stroke="#6FB1D8" stroke-width="5.00" transform="matrix(1.00, 0.00, 0.00, -1.00, 663.9, 413.1)"></path><path d="M 787.6 392.5 L 797.5 413.1 L 775.1 408.7 L 785.4 403.7 Z M 787.6 392.5 " fill="#6FB1D8"></path><path d="M 160.3 74.4 L 158.1 73.3 L 0.0 0.0 " fill="none" stroke="#6FB1D8" stroke-width="5.00" transform="matrix(1.00, 0.00, 0.00, -1.00, 665.4, 299.9)"></path><path d="M 814.5 219.5 L 837.3 220.1 L 823.1 238.0 L 823.4 226.6 Z M 814.5 219.5 " fill="#6FB1D8"></path></g></svg>