<?xml version="1.0" encoding="UTF-8" standalone="no"?><svg xmlns="http://www.w3.org/2000/svg" xmlns:xlink="http://www.w3.org/1999/xlink" clip-rule="evenodd" stroke-miterlimit="10" viewBox="0 0 905 133"><desc>SVG generated by Keynote</desc><defs></defs><g transform="matrix(1.00, 0.00, -0.00, -1.00, 0.0, 133.0)"><text xml:space="preserve" font-family="HelveticaNeue,Helvetica Neue" font-size="60.0" fill="#797979" transform="matrix(1.00, 0.00, -0.00, -1.00, 0.0, 74.8)">•</text><text xml:space="preserve" font-family="HelveticaNeue,Helvetica Neue" font-size="48.0" fill="#797979" transform="matrix(1.00, 0.00, -0.00, -1.00, 21.0, 79.6)">M</text><text xml:space="preserve" font-family="HelveticaNeue,Helvetica Neue" font-size="48.0" fill="#797979" transform="matrix(1.00, 0.00, -0.00, -1.00, 62.8, 79.6)">a</text><text xml:space="preserve" font-family="HelveticaNeue,Helvetica Neue" font-size="48.0" fill="#797979" transform="matrix(1.00, 0.00, -0.00, -1.00, 88.6, 79.6)">n</text><text xml:space="preserve" font-family="HelveticaNeue,Helvetica Neue" font-size="48.0" fill="#797979" transform="matrix(1.00, 0.00, -0.00, -1.00, 115.3, 79.6)">a</text><text xml:space="preserve" font-family="HelveticaNeue,Helvetica Neue" font-size="48.0" fill="#797979" transform="matrix(1.00, 0.00, -0.00, -1.00, 141.0, 79.6)">g</text><text xml:space="preserve" font-family="HelveticaNeue,Helvetica Neue" font-size="48.0" fill="#797979" transform="matrix(1.00, 0.00, -0.00, -1.00, 168.6, 79.6)">i</text><text xml:space="preserve" font-family="HelveticaNeue,Helvetica Neue" font-size="48.0" fill="#797979" transform="matrix(1.00, 0.00, -0.00, -1.00, 179.3, 79.6)">n</text><text xml:space="preserve" font-family="HelveticaNeue,Helvetica Neue" font-size="48.0" fill="#797979" transform="matrix(1.00, 0.00, -0.00, -1.00, 205.9, 79.6)">g</text><text xml:space="preserve" font-family="HelveticaNeue,Helvetica Neue" font-size="48.0" fill="#797979" transform="matrix(1.00, 0.00, -0.00, -1.00, 233.5, 79.6)"> </text><text xml:space="preserve" font-family="HelveticaNeue,Helvetica Neue" font-size="48.0" fill="#797979" transform="matrix(1.00, 0.00, -0.00, -1.00, 246.8, 79.6)">o</text><text xml:space="preserve" font-family="HelveticaNeue,Helvetica Neue" font-size="48.0" fill="#797979" transform="matrix(1.00, 0.00, -0.00, -1.00, 274.4, 79.6)">n</text><text xml:space="preserve" font-family="HelveticaNeue,Helvetica Neue" font-size="48.0" fill="#797979" transform="matrix(1.00, 0.00, -0.00, -1.00, 301.1, 79.6)">l</text><text xml:space="preserve" font-family="HelveticaNeue,Helvetica Neue" font-size="48.0" fill="#797979" transform="matrix(1.00, 0.00, -0.00, -1.00, 311.7, 79.6)">i</text><text xml:space="preserve" font-family="HelveticaNeue,Helvetica Neue" font-size="48.0" fill="#797979" transform="matrix(1.00, 0.00, -0.00, -1.00, 322.4, 79.6)">n</text><text xml:space="preserve" font-family="HelveticaNeue,Helvetica Neue" font-size="48.0" fill="#797979" transform="matrix(1.00, 0.00, -0.00, -1.00, 349.1, 79.6)">e</text><text xml:space="preserve" font-family="HelveticaNeue,Helvetica Neue" font-size="48.0" fill="#797979" transform="matrix(1.00, 0.00, -0.00, -1.00, 374.9, 79.6)">/</text><text xml:space="preserve" font-family="HelveticaNeue,Helvetica Neue" font-size="48.0" fill="#797979" transform="matrix(1.00, 0.00, -0.00, -1.00, 390.8, 79.6)">o</text><text xml:space="preserve" font-family="HelveticaNeue,Helvetica Neue" font-size="48.0" fill="#797979" transform="matrix(1.00, 0.00, -0.00, -1.00, 418.4, 79.6)">ﬄ</text><text xml:space="preserve" font-family="HelveticaNeue,Helvetica Neue" font-size="48.0" fill="#797979" transform="matrix(1.00, 0.00, -0.00, -1.00, 456.7, 79.6)">i</text><text xml:space="preserve" font-family="HelveticaNeue,Helvetica Neue" font-size="48.0" fill="#797979" transform="matrix(1.00, 0.00, -0.00, -1.00, 467.4, 79.6)">n</text><text xml:space="preserve" font-family="HelveticaNeue,Helvetica Neue" font-size="48.0" fill="#797979" transform="matrix(1.00, 0.00, -0.00, -1.00, 494.1, 79.6)">e</text><text xml:space="preserve" font-family="HelveticaNeue,Helvetica Neue" font-size="48.0" fill="#797979" transform="matrix(1.00, 0.00, -0.00, -1.00, 519.9, 79.6)"> </text><text xml:space="preserve" font-family="HelveticaNeue,Helvetica Neue" font-size="48.0" fill="#797979" transform="matrix(1.00, 0.00, -0.00, -1.00, 533.2, 79.6)">i</text><text xml:space="preserve" font-family="HelveticaNeue,Helvetica Neue" font-size="48.0" fill="#797979" transform="matrix(1.00, 0.00, -0.00, -1.00, 543.9, 79.6)">n</text><text xml:space="preserve" font-family="HelveticaNeue,Helvetica Neue" font-size="48.0" fill="#797979" transform="matrix(1.00, 0.00, -0.00, -1.00, 570.6, 79.6)"> </text><text xml:space="preserve" font-family="HelveticaNeue,Helvetica Neue" font-size="48.0" fill="#797979" transform="matrix(1.00, 0.00, -0.00, -1.00, 583.9, 79.6)">w</text><text xml:space="preserve" font-family="HelveticaNeue,Helvetica Neue" font-size="48.0" fill="#797979" transform="matrix(1.00, 0.00, -0.00, -1.00, 620.3, 79.6)">e</text><text xml:space="preserve" font-family="HelveticaNeue,Helvetica Neue" font-size="48.0" fill="#797979" transform="matrix(1.00, 0.00, -0.00, -1.00, 646.1, 79.6)">b</text><text xml:space="preserve" font-family="HelveticaNeue,Helvetica Neue" font-size="48.0" fill="#797979" transform="matrix(1.00, 0.00, -0.00, -1.00, 674.5, 79.6)"> </text><text xml:space="preserve" font-family="HelveticaNeue,Helvetica Neue" font-size="48.0" fill="#797979" transform="matrix(1.00, 0.00, -0.00, -1.00, 687.9, 79.6)">&amp;</text><text xml:space="preserve" font-family="HelveticaNeue,Helvetica Neue" font-size="48.0" fill="#797979" transform="matrix(1.00, 0.00, -0.00, -1.00, 718.1, 79.6)"> </text><text xml:space="preserve" font-family="HelveticaNeue,Helvetica Neue" font-size="48.0" fill="#797979" transform="matrix(1.00, 0.00, -0.00, -1.00, 731.4, 79.6)">m</text><text xml:space="preserve" font-family="HelveticaNeue,Helvetica Neue" font-size="48.0" fill="#797979" transform="matrix(1.00, 0.00, -0.00, -1.00, 772.4, 79.6)">o</text><text xml:space="preserve" font-family="HelveticaNeue,Helvetica Neue" font-size="48.0" fill="#797979" transform="matrix(1.00, 0.00, -0.00, -1.00, 799.9, 79.6)">b</text><text xml:space="preserve" font-family="HelveticaNeue,Helvetica Neue" font-size="48.0" fill="#797979" transform="matrix(1.00, 0.00, -0.00, -1.00, 828.4, 79.6)">i</text><text xml:space="preserve" font-family="HelveticaNeue,Helvetica Neue" font-size="48.0" fill="#797979" transform="matrix(1.00, 0.00, -0.00, -1.00, 839.1, 79.6)">l</text><text xml:space="preserve" font-family="HelveticaNeue,Helvetica Neue" font-size="48.0" fill="#797979" transform="matrix(1.00, 0.00, -0.00, -1.00, 849.7, 79.6)">e</text><text xml:space="preserve" font-family="HelveticaNeue,Helvetica Neue" font-size="48.0" fill="#797979" transform="matrix(1.00, 0.00, -0.00, -1.00, 875.5, 79.6)"> </text><text xml:space="preserve" font-family="HelveticaNeue,Helvetica Neue" font-size="48.0" fill="#797979" transform="matrix(1.00, 0.00, -0.00, -1.00, 16.0, 11.4)">a</text><text xml:space="preserve" font-family="HelveticaNeue,Helvetica Neue" font-size="48.0" fill="#797979" transform="matrix(1.00, 0.00, -0.00, -1.00, 41.8, 11.4)">p</text><text xml:space="preserve" font-family="HelveticaNeue,Helvetica Neue" font-size="48.0" fill="#797979" transform="matrix(1.00, 0.00, -0.00, -1.00, 70.2, 11.4)">p</text><text xml:space="preserve" font-family="HelveticaNeue,Helvetica Neue" font-size="48.0" fill="#797979" transform="matrix(1.00, 0.00, -0.00, -1.00, 98.7, 11.4)">s</text><text xml:space="preserve" font-family="HelveticaNeue,Helvetica Neue" font-size="48.0" fill="#797979" transform="matrix(1.00, 0.00, -0.00, -1.00, 122.7, 11.4)"> </text><text xml:space="preserve" font-family="HelveticaNeue,Helvetica Neue" font-size="48.0" fill="#797979" transform="matrix(1.00, 0.00, -0.00, -1.00, 136.0, 11.4)">c</text><text xml:space="preserve" font-family="HelveticaNeue,Helvetica Neue" font-size="48.0" fill="#797979" transform="matrix(1.00, 0.00, -0.00, -1.00, 161.8, 11.4)">a</text><text xml:space="preserve" font-family="HelveticaNeue,Helvetica Neue" font-size="48.0" fill="#797979" transform="matrix(1.00, 0.00, -0.00, -1.00, 187.6, 11.4)">n</text><text xml:space="preserve" font-family="HelveticaNeue,Helvetica Neue" font-size="48.0" fill="#797979" transform="matrix(1.00, 0.00, -0.00, -1.00, 214.3, 11.4)"> </text><text xml:space="preserve" font-family="HelveticaNeue,Helvetica Neue" font-size="48.0" fill="#797979" transform="matrix(1.00, 0.00, -0.00, -1.00, 227.6, 11.4)">b</text><text xml:space="preserve" font-family="HelveticaNeue,Helvetica Neue" font-size="48.0" fill="#797979" transform="matrix(1.00, 0.00, -0.00, -1.00, 256.1, 11.4)">e</text><text xml:space="preserve" font-family="HelveticaNeue,Helvetica Neue" font-size="48.0" fill="#797979" transform="matrix(1.00, 0.00, -0.00, -1.00, 281.9, 11.4)"> </text><text xml:space="preserve" font-family="HelveticaNeue,Helvetica Neue" font-size="48.0" fill="#797979" transform="matrix(1.00, 0.00, -0.00, -1.00, 295.2, 11.4)">d</text><text xml:space="preserve" font-family="HelveticaNeue,Helvetica Neue" font-size="48.0" fill="#797979" transform="matrix(1.00, 0.00, -0.00, -1.00, 323.7, 11.4)">o</text><text xml:space="preserve" font-family="HelveticaNeue,Helvetica Neue" font-size="48.0" fill="#797979" transform="matrix(1.00, 0.00, -0.00, -1.00, 351.2, 11.4)">n</text><text xml:space="preserve" font-family="HelveticaNeue,Helvetica Neue" font-size="48.0" fill="#797979" transform="matrix(1.00, 0.00, -0.00, -1.00, 377.9, 11.4)">e</text><text xml:space="preserve" font-family="HelveticaNeue,Helvetica Neue" font-size="48.0" fill="#797979" transform="matrix(1.00, 0.00, -0.00, -1.00, 403.7, 11.4)"> </text><text xml:space="preserve" font-family="HelveticaNeue,Helvetica Neue" font-size="48.0" fill="#797979" transform="matrix(1.00, 0.00, -0.00, -1.00, 417.0, 11.4)">q</text><text xml:space="preserve" font-family="HelveticaNeue,Helvetica Neue" font-size="48.0" fill="#797979" transform="matrix(1.00, 0.00, -0.00, -1.00, 445.5, 11.4)">u</text><text xml:space="preserve" font-family="HelveticaNeue,Helvetica Neue" font-size="48.0" fill="#797979" transform="matrix(1.00, 0.00, -0.00, -1.00, 472.2, 11.4)">i</text><text xml:space="preserve" font-family="HelveticaNeue,Helvetica Neue" font-size="48.0" fill="#797979" transform="matrix(1.00, 0.00, -0.00, -1.00, 482.8, 11.4)">t</text><text xml:space="preserve" font-family="HelveticaNeue,Helvetica Neue" font-size="48.0" fill="#797979" transform="matrix(1.00, 0.00, -0.00, -1.00, 498.0, 11.4)">e</text><text xml:space="preserve" font-family="HelveticaNeue,Helvetica Neue" font-size="48.0" fill="#797979" transform="matrix(1.00, 0.00, -0.00, -1.00, 523.7, 11.4)"> </text><text xml:space="preserve" font-family="HelveticaNeue,Helvetica Neue" font-size="48.0" fill="#797979" transform="matrix(1.00, 0.00, -0.00, -1.00, 537.1, 11.4)">s</text><text xml:space="preserve" font-family="HelveticaNeue,Helvetica Neue" font-size="48.0" fill="#797979" transform="matrix(1.00, 0.00, -0.00, -1.00, 561.1, 11.4)">i</text><text xml:space="preserve" font-family="HelveticaNeue,Helvetica Neue" font-size="48.0" fill="#797979" transform="matrix(1.00, 0.00, -0.00, -1.00, 571.7, 11.4)">m</text><text xml:space="preserve" font-family="HelveticaNeue,Helvetica Neue" font-size="48.0" fill="#797979" transform="matrix(1.00, 0.00, -0.00, -1.00, 612.7, 11.4)">p</text><text xml:space="preserve" font-family="HelveticaNeue,Helvetica Neue" font-size="48.0" fill="#797979" transform="matrix(1.00, 0.00, -0.00, -1.00, 641.2, 11.4)">l</text><text xml:space="preserve" font-family="HelveticaNeue,Helvetica Neue" font-size="48.0" fill="#797979" transform="matrix(1.00, 0.00, -0.00, -1.00, 651.8, 11.4)">y</text><text xml:space="preserve" font-family="HelveticaNeue,Helvetica Neue" font-size="48.0" fill="#797979" transform="matrix(1.00, 0.00, -0.00, -1.00, 675.8, 11.4)">!</text><text xml:space="preserve" font-family="HelveticaNeue,Helvetica Neue" font-size="48.0" fill="#797979" transform="matrix(1.00, 0.00, -0.00, -1.00, 688.2, 11.4)"> </text><text xml:space="preserve" font-family="HelveticaNeue,Helvetica Neue" font-size="48.0" fill="#797979" transform="matrix(1.00, 0.00, -0.00, -1.00, 701.6, 11.4)">B</text><text xml:space="preserve" font-family="HelveticaNeue,Helvetica Neue" font-size="48.0" fill="#797979" transform="matrix(1.00, 0.00, -0.00, -1.00, 734.5, 11.4)">u</text><text xml:space="preserve" font-family="HelveticaNeue,Helvetica Neue" font-size="48.0" fill="#797979" transform="matrix(1.00, 0.00, -0.00, -1.00, 761.2, 11.4)">t</text><text xml:space="preserve" font-family="HelveticaNeue,Helvetica Neue" font-size="48.0" fill="#797979" transform="matrix(1.00, 0.00, -0.00, -1.00, 776.3, 11.4)"> </text><text xml:space="preserve" font-family="HelveticaNeue,Helvetica Neue" font-size="48.0" fill="#797979" transform="matrix(1.00, 0.00, -0.00, -1.00, 789.6, 11.4)">h</text><text xml:space="preserve" font-family="HelveticaNeue,Helvetica Neue" font-size="48.0" fill="#797979" transform="matrix(1.00, 0.00, -0.00, -1.00, 816.3, 11.4)">o</text><text xml:space="preserve" font-family="HelveticaNeue,Helvetica Neue" font-size="48.0" fill="#797979" transform="matrix(1.00, 0.00, -0.00, -1.00, 843.9, 11.4)">w</text><text xml:space="preserve" font-family="HelveticaNeue,Helvetica Neue" font-size="48.0" fill="#797979" transform="matrix(1.00, 0.00, -0.00, -1.00, 880.2, 11.4)">?</text></g></svg>