<?xml version="1.0" encoding="UTF-8" standalone="no"?><svg xmlns="http://www.w3.org/2000/svg" xmlns:xlink="http://www.w3.org/1999/xlink" clip-rule="evenodd" stroke-miterlimit="10" viewBox="0 0 1024 768"><desc>SVG generated by Keynote</desc><defs></defs><g transform="matrix(1.00, 0.00, -0.00, -1.00, 0.0, 768.0)"><path d="M 0.0 768.0 L 1024.0 768.0 L 1024.0 0.0 L 0.0 0.0 Z M 0.0 768.0 " fill="#FDFEF7"></path><text xml:space="preserve" font-family="BebasNeue,Bebas Neue" font-size="78.0" fill="#5E5E5E" transform="matrix(1.00, 0.00, -0.00, -1.00, 28.0, 670.4)">W</text><text xml:space="preserve" font-family="BebasNeue,Bebas Neue" font-size="78.0" fill="#5E5E5E" transform="matrix(1.00, 0.00, -0.00, -1.00, 73.5, 670.4)">h</text><text xml:space="preserve" font-family="BebasNeue,Bebas Neue" font-size="78.0" fill="#5E5E5E" transform="matrix(1.00, 0.00, -0.00, -1.00, 108.3, 670.4)">y</text><text xml:space="preserve" font-family="BebasNeue,Bebas Neue" font-size="78.0" fill="#6EB1D8" transform="matrix(1.00, 0.00, -0.00, -1.00, 154.4, 670.4)">A</text><text xml:space="preserve" font-family="BebasNeue,Bebas Neue" font-size="78.0" fill="#6EB1D8" transform="matrix(1.00, 0.00, -0.00, -1.00, 187.7, 670.4)">r</text><text xml:space="preserve" font-family="BebasNeue,Bebas Neue" font-size="78.0" fill="#6EB1D8" transform="matrix(1.00, 0.00, -0.00, -1.00, 220.7, 670.4)">e</text><text xml:space="preserve" font-family="BebasNeue,Bebas Neue" font-size="78.0" fill="#6EB1D8" transform="matrix(1.00, 0.00, -0.00, -1.00, 264.6, 670.4)">W</text><text xml:space="preserve" font-family="BebasNeue,Bebas Neue" font-size="78.0" fill="#6EB1D8" transform="matrix(1.00, 0.00, -0.00, -1.00, 310.0, 670.4)">e</text><text xml:space="preserve" font-family="BebasNeue,Bebas Neue" font-size="78.0" fill="#6EB1D8" transform="matrix(1.00, 0.00, -0.00, -1.00, 354.0, 670.4)">h</text><text xml:space="preserve" font-family="BebasNeue,Bebas Neue" font-size="78.0" fill="#6EB1D8" transform="matrix(1.00, 0.00, -0.00, -1.00, 388.8, 670.4)">e</text><text xml:space="preserve" font-family="BebasNeue,Bebas Neue" font-size="78.0" fill="#6EB1D8" transform="matrix(1.00, 0.00, -0.00, -1.00, 419.1, 670.4)">r</text><text xml:space="preserve" font-family="BebasNeue,Bebas Neue" font-size="78.0" fill="#6EB1D8" transform="matrix(1.00, 0.00, -0.00, -1.00, 452.0, 670.4)">e</text><text xml:space="preserve" font-family="BebasNeue,Bebas Neue" font-size="78.0" fill="#6EB1D8" transform="matrix(1.00, 0.00, -0.00, -1.00, 482.3, 670.4)">?</text><text xml:space="preserve" font-family="HelveticaNeue,Helvetica Neue" font-size="60.0" fill="#797979" transform="matrix(1.00, 0.00, -0.00, -1.00, 50.0, 562.8)">•</text><text xml:space="preserve" font-family="HelveticaNeue,Helvetica Neue" font-size="48.0" fill="#797979" transform="matrix(1.00, 0.00, -0.00, -1.00, 71.0, 567.6)">M</text><text xml:space="preserve" font-family="HelveticaNeue,Helvetica Neue" font-size="48.0" fill="#797979" transform="matrix(1.00, 0.00, -0.00, -1.00, 112.8, 567.6)">a</text><text xml:space="preserve" font-family="HelveticaNeue,Helvetica Neue" font-size="48.0" fill="#797979" transform="matrix(1.00, 0.00, -0.00, -1.00, 138.6, 567.6)">n</text><text xml:space="preserve" font-family="HelveticaNeue,Helvetica Neue" font-size="48.0" fill="#797979" transform="matrix(1.00, 0.00, -0.00, -1.00, 165.3, 567.6)">a</text><text xml:space="preserve" font-family="HelveticaNeue,Helvetica Neue" font-size="48.0" fill="#797979" transform="matrix(1.00, 0.00, -0.00, -1.00, 191.0, 567.6)">g</text><text xml:space="preserve" font-family="HelveticaNeue,Helvetica Neue" font-size="48.0" fill="#797979" transform="matrix(1.00, 0.00, -0.00, -1.00, 218.6, 567.6)">i</text><text xml:space="preserve" font-family="HelveticaNeue,Helvetica Neue" font-size="48.0" fill="#797979" transform="matrix(1.00, 0.00, -0.00, -1.00, 229.3, 567.6)">n</text><text xml:space="preserve" font-family="HelveticaNeue,Helvetica Neue" font-size="48.0" fill="#797979" transform="matrix(1.00, 0.00, -0.00, -1.00, 255.9, 567.6)">g</text><text xml:space="preserve" font-family="HelveticaNeue,Helvetica Neue" font-size="48.0" fill="#797979" transform="matrix(1.00, 0.00, -0.00, -1.00, 283.5, 567.6)"> </text><text xml:space="preserve" font-family="HelveticaNeue,Helvetica Neue" font-size="48.0" fill="#797979" transform="matrix(1.00, 0.00, -0.00, -1.00, 296.8, 567.6)">o</text><text xml:space="preserve" font-family="HelveticaNeue,Helvetica Neue" font-size="48.0" fill="#797979" transform="matrix(1.00, 0.00, -0.00, -1.00, 324.4, 567.6)">n</text><text xml:space="preserve" font-family="HelveticaNeue,Helvetica Neue" font-size="48.0" fill="#797979" transform="matrix(1.00, 0.00, -0.00, -1.00, 351.1, 567.6)">l</text><text xml:space="preserve" font-family="HelveticaNeue,Helvetica Neue" font-size="48.0" fill="#797979" transform="matrix(1.00, 0.00, -0.00, -1.00, 361.7, 567.6)">i</text><text xml:space="preserve" font-family="HelveticaNeue,Helvetica Neue" font-size="48.0" fill="#797979" transform="matrix(1.00, 0.00, -0.00, -1.00, 372.4, 567.6)">n</text><text xml:space="preserve" font-family="HelveticaNeue,Helvetica Neue" font-size="48.0" fill="#797979" transform="matrix(1.00, 0.00, -0.00, -1.00, 399.1, 567.6)">e</text><text xml:space="preserve" font-family="HelveticaNeue,Helvetica Neue" font-size="48.0" fill="#797979" transform="matrix(1.00, 0.00, -0.00, -1.00, 424.9, 567.6)">/</text><text xml:space="preserve" font-family="HelveticaNeue,Helvetica Neue" font-size="48.0" fill="#797979" transform="matrix(1.00, 0.00, -0.00, -1.00, 440.8, 567.6)">o</text><text xml:space="preserve" font-family="HelveticaNeue,Helvetica Neue" font-size="48.0" fill="#797979" transform="matrix(1.00, 0.00, -0.00, -1.00, 468.4, 567.6)">ﬄ</text><text xml:space="preserve" font-family="HelveticaNeue,Helvetica Neue" font-size="48.0" fill="#797979" transform="matrix(1.00, 0.00, -0.00, -1.00, 506.7, 567.6)">i</text><text xml:space="preserve" font-family="HelveticaNeue,Helvetica Neue" font-size="48.0" fill="#797979" transform="matrix(1.00, 0.00, -0.00, -1.00, 517.4, 567.6)">n</text><text xml:space="preserve" font-family="HelveticaNeue,Helvetica Neue" font-size="48.0" fill="#797979" transform="matrix(1.00, 0.00, -0.00, -1.00, 544.1, 567.6)">e</text><text xml:space="preserve" font-family="HelveticaNeue,Helvetica Neue" font-size="48.0" fill="#797979" transform="matrix(1.00, 0.00, -0.00, -1.00, 569.9, 567.6)"> </text><text xml:space="preserve" font-family="HelveticaNeue,Helvetica Neue" font-size="48.0" fill="#797979" transform="matrix(1.00, 0.00, -0.00, -1.00, 583.2, 567.6)">i</text><text xml:space="preserve" font-family="HelveticaNeue,Helvetica Neue" font-size="48.0" fill="#797979" transform="matrix(1.00, 0.00, -0.00, -1.00, 593.9, 567.6)">n</text><text xml:space="preserve" font-family="HelveticaNeue,Helvetica Neue" font-size="48.0" fill="#797979" transform="matrix(1.00, 0.00, -0.00, -1.00, 620.6, 567.6)"> </text><text xml:space="preserve" font-family="HelveticaNeue,Helvetica Neue" font-size="48.0" fill="#797979" transform="matrix(1.00, 0.00, -0.00, -1.00, 633.9, 567.6)">w</text><text xml:space="preserve" font-family="HelveticaNeue,Helvetica Neue" font-size="48.0" fill="#797979" transform="matrix(1.00, 0.00, -0.00, -1.00, 670.3, 567.6)">e</text><text xml:space="preserve" font-family="HelveticaNeue,Helvetica Neue" font-size="48.0" fill="#797979" transform="matrix(1.00, 0.00, -0.00, -1.00, 696.1, 567.6)">b</text><text xml:space="preserve" font-family="HelveticaNeue,Helvetica Neue" font-size="48.0" fill="#797979" transform="matrix(1.00, 0.00, -0.00, -1.00, 724.5, 567.6)"> </text><text xml:space="preserve" font-family="HelveticaNeue,Helvetica Neue" font-size="48.0" fill="#797979" transform="matrix(1.00, 0.00, -0.00, -1.00, 737.9, 567.6)">&amp;</text><text xml:space="preserve" font-family="HelveticaNeue,Helvetica Neue" font-size="48.0" fill="#797979" transform="matrix(1.00, 0.00, -0.00, -1.00, 768.1, 567.6)"> </text><text xml:space="preserve" font-family="HelveticaNeue,Helvetica Neue" font-size="48.0" fill="#797979" transform="matrix(1.00, 0.00, -0.00, -1.00, 781.4, 567.6)">m</text><text xml:space="preserve" font-family="HelveticaNeue,Helvetica Neue" font-size="48.0" fill="#797979" transform="matrix(1.00, 0.00, -0.00, -1.00, 822.4, 567.6)">o</text><text xml:space="preserve" font-family="HelveticaNeue,Helvetica Neue" font-size="48.0" fill="#797979" transform="matrix(1.00, 0.00, -0.00, -1.00, 849.9, 567.6)">b</text><text xml:space="preserve" font-family="HelveticaNeue,Helvetica Neue" font-size="48.0" fill="#797979" transform="matrix(1.00, 0.00, -0.00, -1.00, 878.4, 567.6)">i</text><text xml:space="preserve" font-family="HelveticaNeue,Helvetica Neue" font-size="48.0" fill="#797979" transform="matrix(1.00, 0.00, -0.00, -1.00, 889.1, 567.6)">l</text><text xml:space="preserve" font-family="HelveticaNeue,Helvetica Neue" font-size="48.0" fill="#797979" transform="matrix(1.00, 0.00, -0.00, -1.00, 899.7, 567.6)">e</text><text xml:space="preserve" font-family="HelveticaNeue,Helvetica Neue" font-size="48.0" fill="#797979" transform="matrix(1.00, 0.00, -0.00, -1.00, 925.5, 567.6)"> </text><text xml:space="preserve" font-family="HelveticaNeue,Helvetica Neue" font-size="48.0" fill="#797979" transform="matrix(1.00, 0.00, -0.00, -1.00, 66.0, 499.4)">a</text><text xml:space="preserve" font-family="HelveticaNeue,Helvetica Neue" font-size="48.0" fill="#797979" transform="matrix(1.00, 0.00, -0.00, -1.00, 91.8, 499.4)">p</text><text xml:space="preserve" font-family="HelveticaNeue,Helvetica Neue" font-size="48.0" fill="#797979" transform="matrix(1.00, 0.00, -0.00, -1.00, 120.2, 499.4)">p</text><text xml:space="preserve" font-family="HelveticaNeue,Helvetica Neue" font-size="48.0" fill="#797979" transform="matrix(1.00, 0.00, -0.00, -1.00, 148.7, 499.4)">s</text><text xml:space="preserve" font-family="HelveticaNeue,Helvetica Neue" font-size="48.0" fill="#797979" transform="matrix(1.00, 0.00, -0.00, -1.00, 172.7, 499.4)"> </text><text xml:space="preserve" font-family="HelveticaNeue,Helvetica Neue" font-size="48.0" fill="#797979" transform="matrix(1.00, 0.00, -0.00, -1.00, 186.0, 499.4)">c</text><text xml:space="preserve" font-family="HelveticaNeue,Helvetica Neue" font-size="48.0" fill="#797979" transform="matrix(1.00, 0.00, -0.00, -1.00, 211.8, 499.4)">a</text><text xml:space="preserve" font-family="HelveticaNeue,Helvetica Neue" font-size="48.0" fill="#797979" transform="matrix(1.00, 0.00, -0.00, -1.00, 237.6, 499.4)">n</text><text xml:space="preserve" font-family="HelveticaNeue,Helvetica Neue" font-size="48.0" fill="#797979" transform="matrix(1.00, 0.00, -0.00, -1.00, 264.3, 499.4)"> </text><text xml:space="preserve" font-family="HelveticaNeue,Helvetica Neue" font-size="48.0" fill="#797979" transform="matrix(1.00, 0.00, -0.00, -1.00, 277.6, 499.4)">b</text><text xml:space="preserve" font-family="HelveticaNeue,Helvetica Neue" font-size="48.0" fill="#797979" transform="matrix(1.00, 0.00, -0.00, -1.00, 306.1, 499.4)">e</text><text xml:space="preserve" font-family="HelveticaNeue,Helvetica Neue" font-size="48.0" fill="#797979" transform="matrix(1.00, 0.00, -0.00, -1.00, 331.9, 499.4)"> </text><text xml:space="preserve" font-family="HelveticaNeue,Helvetica Neue" font-size="48.0" fill="#797979" transform="matrix(1.00, 0.00, -0.00, -1.00, 345.2, 499.4)">d</text><text xml:space="preserve" font-family="HelveticaNeue,Helvetica Neue" font-size="48.0" fill="#797979" transform="matrix(1.00, 0.00, -0.00, -1.00, 373.7, 499.4)">o</text><text xml:space="preserve" font-family="HelveticaNeue,Helvetica Neue" font-size="48.0" fill="#797979" transform="matrix(1.00, 0.00, -0.00, -1.00, 401.2, 499.4)">n</text><text xml:space="preserve" font-family="HelveticaNeue,Helvetica Neue" font-size="48.0" fill="#797979" transform="matrix(1.00, 0.00, -0.00, -1.00, 427.9, 499.4)">e</text><text xml:space="preserve" font-family="HelveticaNeue,Helvetica Neue" font-size="48.0" fill="#797979" transform="matrix(1.00, 0.00, -0.00, -1.00, 453.7, 499.4)"> </text><text xml:space="preserve" font-family="HelveticaNeue,Helvetica Neue" font-size="48.0" fill="#797979" transform="matrix(1.00, 0.00, -0.00, -1.00, 467.0, 499.4)">q</text><text xml:space="preserve" font-family="HelveticaNeue,Helvetica Neue" font-size="48.0" fill="#797979" transform="matrix(1.00, 0.00, -0.00, -1.00, 495.5, 499.4)">u</text><text xml:space="preserve" font-family="HelveticaNeue,Helvetica Neue" font-size="48.0" fill="#797979" transform="matrix(1.00, 0.00, -0.00, -1.00, 522.2, 499.4)">i</text><text xml:space="preserve" font-family="HelveticaNeue,Helvetica Neue" font-size="48.0" fill="#797979" transform="matrix(1.00, 0.00, -0.00, -1.00, 532.8, 499.4)">t</text><text xml:space="preserve" font-family="HelveticaNeue,Helvetica Neue" font-size="48.0" fill="#797979" transform="matrix(1.00, 0.00, -0.00, -1.00, 548.0, 499.4)">e</text><text xml:space="preserve" font-family="HelveticaNeue,Helvetica Neue" font-size="48.0" fill="#797979" transform="matrix(1.00, 0.00, -0.00, -1.00, 573.7, 499.4)"> </text><text xml:space="preserve" font-family="HelveticaNeue,Helvetica Neue" font-size="48.0" fill="#797979" transform="matrix(1.00, 0.00, -0.00, -1.00, 587.1, 499.4)">s</text><text xml:space="preserve" font-family="HelveticaNeue,Helvetica Neue" font-size="48.0" fill="#797979" transform="matrix(1.00, 0.00, -0.00, -1.00, 611.1, 499.4)">i</text><text xml:space="preserve" font-family="HelveticaNeue,Helvetica Neue" font-size="48.0" fill="#797979" transform="matrix(1.00, 0.00, -0.00, -1.00, 621.7, 499.4)">m</text><text xml:space="preserve" font-family="HelveticaNeue,Helvetica Neue" font-size="48.0" fill="#797979" transform="matrix(1.00, 0.00, -0.00, -1.00, 662.7, 499.4)">p</text><text xml:space="preserve" font-family="HelveticaNeue,Helvetica Neue" font-size="48.0" fill="#797979" transform="matrix(1.00, 0.00, -0.00, -1.00, 691.2, 499.4)">l</text><text xml:space="preserve" font-family="HelveticaNeue,Helvetica Neue" font-size="48.0" fill="#797979" transform="matrix(1.00, 0.00, -0.00, -1.00, 701.8, 499.4)">y</text><text xml:space="preserve" font-family="HelveticaNeue,Helvetica Neue" font-size="48.0" fill="#797979" transform="matrix(1.00, 0.00, -0.00, -1.00, 725.8, 499.4)">!</text><text xml:space="preserve" font-family="HelveticaNeue,Helvetica Neue" font-size="48.0" fill="#797979" transform="matrix(1.00, 0.00, -0.00, -1.00, 738.2, 499.4)"> </text><text xml:space="preserve" font-family="HelveticaNeue,Helvetica Neue" font-size="48.0" fill="#797979" transform="matrix(1.00, 0.00, -0.00, -1.00, 751.6, 499.4)">B</text><text xml:space="preserve" font-family="HelveticaNeue,Helvetica Neue" font-size="48.0" fill="#797979" transform="matrix(1.00, 0.00, -0.00, -1.00, 784.5, 499.4)">u</text><text xml:space="preserve" font-family="HelveticaNeue,Helvetica Neue" font-size="48.0" fill="#797979" transform="matrix(1.00, 0.00, -0.00, -1.00, 811.2, 499.4)">t</text><text xml:space="preserve" font-family="HelveticaNeue,Helvetica Neue" font-size="48.0" fill="#797979" transform="matrix(1.00, 0.00, -0.00, -1.00, 826.3, 499.4)"> </text><text xml:space="preserve" font-family="HelveticaNeue,Helvetica Neue" font-size="48.0" fill="#797979" transform="matrix(1.00, 0.00, -0.00, -1.00, 839.6, 499.4)">h</text><text xml:space="preserve" font-family="HelveticaNeue,Helvetica Neue" font-size="48.0" fill="#797979" transform="matrix(1.00, 0.00, -0.00, -1.00, 866.3, 499.4)">o</text><text xml:space="preserve" font-family="HelveticaNeue,Helvetica Neue" font-size="48.0" fill="#797979" transform="matrix(1.00, 0.00, -0.00, -1.00, 893.9, 499.4)">w</text><text xml:space="preserve" font-family="HelveticaNeue,Helvetica Neue" font-size="48.0" fill="#797979" transform="matrix(1.00, 0.00, -0.00, -1.00, 930.2, 499.4)">?</text></g></svg>