<?xml version="1.0" encoding="UTF-8" standalone="no"?><svg xmlns="http://www.w3.org/2000/svg" xmlns:xlink="http://www.w3.org/1999/xlink" clip-rule="evenodd" stroke-miterlimit="10" viewBox="0 0 1024 768"><desc>SVG generated by Keynote</desc><defs></defs><g transform="matrix(1.00, 0.00, -0.00, -1.00, 0.0, 768.0)"><path d="M 0.0 768.0 L 1024.0 768.0 L 1024.0 0.0 L 0.0 0.0 Z M 0.0 768.0 " fill="#FDFEF7"></path><text xml:space="preserve" font-family="BebasNeue,Bebas Neue" font-size="78.0" fill="#5E5E5E" transform="matrix(1.00, 0.00, -0.00, -1.00, 28.0, 670.4)">S</text><text xml:space="preserve" font-family="BebasNeue,Bebas Neue" font-size="78.0" fill="#5E5E5E" transform="matrix(1.00, 0.00, -0.00, -1.00, 58.7, 670.4)">O</text><text xml:space="preserve" font-family="BebasNeue,Bebas Neue" font-size="78.0" fill="#5E5E5E" transform="matrix(1.00, 0.00, -0.00, -1.00, 91.2, 670.4)"> </text><text xml:space="preserve" font-family="BebasNeue,Bebas Neue" font-size="78.0" fill="#6EB1D8" transform="matrix(1.00, 0.00, -0.00, -1.00, 104.8, 670.4)">i</text><text xml:space="preserve" font-family="BebasNeue,Bebas Neue" font-size="78.0" fill="#6EB1D8" transform="matrix(1.00, 0.00, -0.00, -1.00, 121.2, 670.4)">T</text><text xml:space="preserve" font-family="BebasNeue,Bebas Neue" font-size="78.0" fill="#6EB1D8" transform="matrix(1.00, 0.00, -0.00, -1.00, 150.5, 670.4)"> </text><text xml:space="preserve" font-family="BebasNeue,Bebas Neue" font-size="78.0" fill="#6EB1D8" transform="matrix(1.00, 0.00, -0.00, -1.00, 164.2, 670.4)">T</text><text xml:space="preserve" font-family="BebasNeue,Bebas Neue" font-size="78.0" fill="#6EB1D8" transform="matrix(1.00, 0.00, -0.00, -1.00, 193.5, 670.4)">u</text><text xml:space="preserve" font-family="BebasNeue,Bebas Neue" font-size="78.0" fill="#6EB1D8" transform="matrix(1.00, 0.00, -0.00, -1.00, 226.1, 670.4)">r</text><text xml:space="preserve" font-family="BebasNeue,Bebas Neue" font-size="78.0" fill="#6EB1D8" transform="matrix(1.00, 0.00, -0.00, -1.00, 259.0, 670.4)">n</text><text xml:space="preserve" font-family="BebasNeue,Bebas Neue" font-size="78.0" fill="#6EB1D8" transform="matrix(1.00, 0.00, -0.00, -1.00, 293.9, 670.4)">s</text><text xml:space="preserve" font-family="BebasNeue,Bebas Neue" font-size="78.0" fill="#6EB1D8" transform="matrix(1.00, 0.00, -0.00, -1.00, 324.6, 670.4)"> </text><text xml:space="preserve" font-family="BebasNeue,Bebas Neue" font-size="78.0" fill="#6EB1D8" transform="matrix(1.00, 0.00, -0.00, -1.00, 338.3, 670.4)">o</text><text xml:space="preserve" font-family="BebasNeue,Bebas Neue" font-size="78.0" fill="#6EB1D8" transform="matrix(1.00, 0.00, -0.00, -1.00, 370.7, 670.4)">u</text><text xml:space="preserve" font-family="BebasNeue,Bebas Neue" font-size="78.0" fill="#6EB1D8" transform="matrix(1.00, 0.00, -0.00, -1.00, 403.3, 670.4)">t</text><text xml:space="preserve" font-family="BebasNeue,Bebas Neue" font-size="78.0" fill="#6EB1D8" transform="matrix(1.00, 0.00, -0.00, -1.00, 432.7, 670.4)"> </text><text xml:space="preserve" font-family="BebasNeue,Bebas Neue" font-size="78.0" fill="#6EB1D8" transform="matrix(1.00, 0.00, -0.00, -1.00, 446.3, 670.4)">t</text><text xml:space="preserve" font-family="BebasNeue,Bebas Neue" font-size="78.0" fill="#6EB1D8" transform="matrix(1.00, 0.00, -0.00, -1.00, 475.6, 670.4)">h</text><text xml:space="preserve" font-family="BebasNeue,Bebas Neue" font-size="78.0" fill="#6EB1D8" transform="matrix(1.00, 0.00, -0.00, -1.00, 510.5, 670.4)">a</text><text xml:space="preserve" font-family="BebasNeue,Bebas Neue" font-size="78.0" fill="#6EB1D8" transform="matrix(1.00, 0.00, -0.00, -1.00, 540.8, 670.4)">t</text><text xml:space="preserve" font-family="BebasNeue,Bebas Neue" font-size="78.0" fill="#6EB1D8" transform="matrix(1.00, 0.00, -0.00, -1.00, 565.5, 670.4)">…</text><text xml:space="preserve" font-family="HelveticaNeue,Helvetica Neue" font-size="60.0" fill="#797979" transform="matrix(1.00, 0.00, -0.00, -1.00, 47.0, 516.8)">•</text><text xml:space="preserve" font-family="HelveticaNeue,Helvetica Neue" font-size="48.0" fill="#797979" transform="matrix(1.00, 0.00, -0.00, -1.00, 78.0, 521.6)">T</text><text xml:space="preserve" font-family="HelveticaNeue,Helvetica Neue" font-size="48.0" fill="#797979" transform="matrix(1.00, 0.00, -0.00, -1.00, 105.6, 521.6)">h</text><text xml:space="preserve" font-family="HelveticaNeue,Helvetica Neue" font-size="48.0" fill="#797979" transform="matrix(1.00, 0.00, -0.00, -1.00, 132.2, 521.6)">i</text><text xml:space="preserve" font-family="HelveticaNeue,Helvetica Neue" font-size="48.0" fill="#797979" transform="matrix(1.00, 0.00, -0.00, -1.00, 142.9, 521.6)">s</text><text xml:space="preserve" font-family="HelveticaNeue,Helvetica Neue" font-size="48.0" fill="#797979" transform="matrix(1.00, 0.00, -0.00, -1.00, 166.9, 521.6)"> </text><text xml:space="preserve" font-family="HelveticaNeue,Helvetica Neue" font-size="48.0" fill="#797979" transform="matrix(1.00, 0.00, -0.00, -1.00, 180.2, 521.6)">p</text><text xml:space="preserve" font-family="HelveticaNeue,Helvetica Neue" font-size="48.0" fill="#797979" transform="matrix(1.00, 0.00, -0.00, -1.00, 208.7, 521.6)">a</text><text xml:space="preserve" font-family="HelveticaNeue,Helvetica Neue" font-size="48.0" fill="#797979" transform="matrix(1.00, 0.00, -0.00, -1.00, 234.5, 521.6)">t</text><text xml:space="preserve" font-family="HelveticaNeue,Helvetica Neue" font-size="48.0" fill="#797979" transform="matrix(1.00, 0.00, -0.00, -1.00, 249.6, 521.6)">t</text><text xml:space="preserve" font-family="HelveticaNeue,Helvetica Neue" font-size="48.0" fill="#797979" transform="matrix(1.00, 0.00, -0.00, -1.00, 264.7, 521.6)">e</text><text xml:space="preserve" font-family="HelveticaNeue,Helvetica Neue" font-size="48.0" fill="#797979" transform="matrix(1.00, 0.00, -0.00, -1.00, 290.5, 521.6)">r</text><text xml:space="preserve" font-family="HelveticaNeue,Helvetica Neue" font-size="48.0" fill="#797979" transform="matrix(1.00, 0.00, -0.00, -1.00, 307.3, 521.6)">n</text><text xml:space="preserve" font-family="HelveticaNeue,Helvetica Neue" font-size="48.0" fill="#797979" transform="matrix(1.00, 0.00, -0.00, -1.00, 334.0, 521.6)"> </text><text xml:space="preserve" font-family="HelveticaNeue,Helvetica Neue" font-size="48.0" fill="#797979" transform="matrix(1.00, 0.00, -0.00, -1.00, 347.4, 521.6)">c</text><text xml:space="preserve" font-family="HelveticaNeue,Helvetica Neue" font-size="48.0" fill="#797979" transform="matrix(1.00, 0.00, -0.00, -1.00, 373.2, 521.6)">a</text><text xml:space="preserve" font-family="HelveticaNeue,Helvetica Neue" font-size="48.0" fill="#797979" transform="matrix(1.00, 0.00, -0.00, -1.00, 398.9, 521.6)">n</text><text xml:space="preserve" font-family="HelveticaNeue,Helvetica Neue" font-size="48.0" fill="#797979" transform="matrix(1.00, 0.00, -0.00, -1.00, 425.6, 521.6)"> </text><text xml:space="preserve" font-family="HelveticaNeue,Helvetica Neue" font-size="48.0" fill="#797979" transform="matrix(1.00, 0.00, -0.00, -1.00, 439.0, 521.6)">b</text><text xml:space="preserve" font-family="HelveticaNeue,Helvetica Neue" font-size="48.0" fill="#797979" transform="matrix(1.00, 0.00, -0.00, -1.00, 467.4, 521.6)">e</text><text xml:space="preserve" font-family="HelveticaNeue,Helvetica Neue" font-size="48.0" fill="#797979" transform="matrix(1.00, 0.00, -0.00, -1.00, 493.2, 521.6)"> </text><text xml:space="preserve" font-family="HelveticaNeue,Helvetica Neue" font-size="48.0" fill="#797979" transform="matrix(1.00, 0.00, -0.00, -1.00, 506.5, 521.6)">u</text><text xml:space="preserve" font-family="HelveticaNeue,Helvetica Neue" font-size="48.0" fill="#797979" transform="matrix(1.00, 0.00, -0.00, -1.00, 533.2, 521.6)">s</text><text xml:space="preserve" font-family="HelveticaNeue,Helvetica Neue" font-size="48.0" fill="#797979" transform="matrix(1.00, 0.00, -0.00, -1.00, 557.2, 521.6)">e</text><text xml:space="preserve" font-family="HelveticaNeue,Helvetica Neue" font-size="48.0" fill="#797979" transform="matrix(1.00, 0.00, -0.00, -1.00, 583.0, 521.6)">f</text><text xml:space="preserve" font-family="HelveticaNeue,Helvetica Neue" font-size="48.0" fill="#797979" transform="matrix(1.00, 0.00, -0.00, -1.00, 597.2, 521.6)">u</text><text xml:space="preserve" font-family="HelveticaNeue,Helvetica Neue" font-size="48.0" fill="#797979" transform="matrix(1.00, 0.00, -0.00, -1.00, 623.9, 521.6)">l</text><text xml:space="preserve" font-family="HelveticaNeue,Helvetica Neue" font-size="48.0" fill="#797979" transform="matrix(1.00, 0.00, -0.00, -1.00, 634.6, 521.6)"> </text><text xml:space="preserve" font-family="HelveticaNeue,Helvetica Neue" font-size="48.0" fill="#797979" transform="matrix(1.00, 0.00, -0.00, -1.00, 647.9, 521.6)">f</text><text xml:space="preserve" font-family="HelveticaNeue,Helvetica Neue" font-size="48.0" fill="#797979" transform="matrix(1.00, 0.00, -0.00, -1.00, 662.1, 521.6)">o</text><text xml:space="preserve" font-family="HelveticaNeue,Helvetica Neue" font-size="48.0" fill="#797979" transform="matrix(1.00, 0.00, -0.00, -1.00, 689.7, 521.6)">r</text><text xml:space="preserve" font-family="HelveticaNeue,Helvetica Neue" font-size="48.0" fill="#797979" transform="matrix(1.00, 0.00, -0.00, -1.00, 705.6, 521.6)"> </text><text xml:space="preserve" font-family="HelveticaNeue,Helvetica Neue" font-size="48.0" fill="#797979" transform="matrix(1.00, 0.00, -0.00, -1.00, 719.0, 521.6)">o</text><text xml:space="preserve" font-family="HelveticaNeue,Helvetica Neue" font-size="48.0" fill="#797979" transform="matrix(1.00, 0.00, -0.00, -1.00, 746.5, 521.6)">t</text><text xml:space="preserve" font-family="HelveticaNeue,Helvetica Neue" font-size="48.0" fill="#797979" transform="matrix(1.00, 0.00, -0.00, -1.00, 761.7, 521.6)">h</text><text xml:space="preserve" font-family="HelveticaNeue,Helvetica Neue" font-size="48.0" fill="#797979" transform="matrix(1.00, 0.00, -0.00, -1.00, 788.4, 521.6)">e</text><text xml:space="preserve" font-family="HelveticaNeue,Helvetica Neue" font-size="48.0" fill="#797979" transform="matrix(1.00, 0.00, -0.00, -1.00, 814.1, 521.6)">r</text><text xml:space="preserve" font-family="HelveticaNeue,Helvetica Neue" font-size="48.0" fill="#797979" transform="matrix(1.00, 0.00, -0.00, -1.00, 830.1, 521.6)"> </text><text xml:space="preserve" font-family="HelveticaNeue,Helvetica Neue" font-size="48.0" fill="#797979" transform="matrix(1.00, 0.00, -0.00, -1.00, 843.5, 521.6)">t</text><text xml:space="preserve" font-family="HelveticaNeue,Helvetica Neue" font-size="48.0" fill="#797979" transform="matrix(1.00, 0.00, -0.00, -1.00, 858.6, 521.6)">h</text><text xml:space="preserve" font-family="HelveticaNeue,Helvetica Neue" font-size="48.0" fill="#797979" transform="matrix(1.00, 0.00, -0.00, -1.00, 885.3, 521.6)">i</text><text xml:space="preserve" font-family="HelveticaNeue,Helvetica Neue" font-size="48.0" fill="#797979" transform="matrix(1.00, 0.00, -0.00, -1.00, 895.9, 521.6)">n</text><text xml:space="preserve" font-family="HelveticaNeue,Helvetica Neue" font-size="48.0" fill="#797979" transform="matrix(1.00, 0.00, -0.00, -1.00, 922.6, 521.6)">g</text><text xml:space="preserve" font-family="HelveticaNeue,Helvetica Neue" font-size="48.0" fill="#797979" transform="matrix(1.00, 0.00, -0.00, -1.00, 950.2, 521.6)">s</text><text xml:space="preserve" font-family="HelveticaNeue,Helvetica Neue" font-size="48.0" fill="#797979" transform="matrix(1.00, 0.00, -0.00, -1.00, 974.2, 521.6)">:</text><text xml:space="preserve" font-family="HelveticaNeue,Helvetica Neue" font-size="48.0" fill="#797979" transform="matrix(1.00, 0.00, -0.00, -1.00, 987.5, 521.6)">
</text><text xml:space="preserve" font-family="HelveticaNeue,Helvetica Neue" font-size="60.0" fill="#787878" transform="matrix(1.00, 0.00, -0.00, -1.00, 80.0, 432.8)">•</text><text xml:space="preserve" font-family="HelveticaNeue,Helvetica Neue" font-size="48.0" fill="#787878" transform="matrix(1.00, 0.00, -0.00, -1.00, 111.0, 437.6)">H</text><text xml:space="preserve" font-family="HelveticaNeue,Helvetica Neue" font-size="48.0" fill="#787878" transform="matrix(1.00, 0.00, -0.00, -1.00, 145.7, 437.6)">a</text><text xml:space="preserve" font-family="HelveticaNeue,Helvetica Neue" font-size="48.0" fill="#787878" transform="matrix(1.00, 0.00, -0.00, -1.00, 171.4, 437.6)">n</text><text xml:space="preserve" font-family="HelveticaNeue,Helvetica Neue" font-size="48.0" fill="#787878" transform="matrix(1.00, 0.00, -0.00, -1.00, 198.1, 437.6)">d</text><text xml:space="preserve" font-family="HelveticaNeue,Helvetica Neue" font-size="48.0" fill="#787878" transform="matrix(1.00, 0.00, -0.00, -1.00, 226.6, 437.6)">l</text><text xml:space="preserve" font-family="HelveticaNeue,Helvetica Neue" font-size="48.0" fill="#787878" transform="matrix(1.00, 0.00, -0.00, -1.00, 237.2, 437.6)">i</text><text xml:space="preserve" font-family="HelveticaNeue,Helvetica Neue" font-size="48.0" fill="#787878" transform="matrix(1.00, 0.00, -0.00, -1.00, 247.9, 437.6)">n</text><text xml:space="preserve" font-family="HelveticaNeue,Helvetica Neue" font-size="48.0" fill="#787878" transform="matrix(1.00, 0.00, -0.00, -1.00, 274.6, 437.6)">g</text><text xml:space="preserve" font-family="HelveticaNeue,Helvetica Neue" font-size="48.0" fill="#787878" transform="matrix(1.00, 0.00, -0.00, -1.00, 302.1, 437.6)"> </text><text xml:space="preserve" font-family="HelveticaNeue,Helvetica Neue" font-size="48.0" fill="#787878" transform="matrix(1.00, 0.00, -0.00, -1.00, 315.5, 437.6)">c</text><text xml:space="preserve" font-family="HelveticaNeue,Helvetica Neue" font-size="48.0" fill="#787878" transform="matrix(1.00, 0.00, -0.00, -1.00, 341.3, 437.6)">o</text><text xml:space="preserve" font-family="HelveticaNeue,Helvetica Neue" font-size="48.0" fill="#787878" transform="matrix(1.00, 0.00, -0.00, -1.00, 368.8, 437.6)">m</text><text xml:space="preserve" font-family="HelveticaNeue,Helvetica Neue" font-size="48.0" fill="#787878" transform="matrix(1.00, 0.00, -0.00, -1.00, 409.8, 437.6)">p</text><text xml:space="preserve" font-family="HelveticaNeue,Helvetica Neue" font-size="48.0" fill="#787878" transform="matrix(1.00, 0.00, -0.00, -1.00, 438.2, 437.6)">l</text><text xml:space="preserve" font-family="HelveticaNeue,Helvetica Neue" font-size="48.0" fill="#787878" transform="matrix(1.00, 0.00, -0.00, -1.00, 448.9, 437.6)">e</text><text xml:space="preserve" font-family="HelveticaNeue,Helvetica Neue" font-size="48.0" fill="#787878" transform="matrix(1.00, 0.00, -0.00, -1.00, 474.6, 437.6)">x</text><text xml:space="preserve" font-family="HelveticaNeue,Helvetica Neue" font-size="48.0" fill="#787878" transform="matrix(1.00, 0.00, -0.00, -1.00, 499.5, 437.6)"> </text><text xml:space="preserve" font-family="HelveticaNeue,Helvetica Neue" font-size="48.0" fill="#787878" transform="matrix(1.00, 0.00, -0.00, -1.00, 512.9, 437.6)">U</text><text xml:space="preserve" font-family="HelveticaNeue,Helvetica Neue" font-size="48.0" fill="#787878" transform="matrix(1.00, 0.00, -0.00, -1.00, 547.5, 437.6)">I</text><text xml:space="preserve" font-family="HelveticaNeue,Helvetica Neue" font-size="48.0" fill="#787878" transform="matrix(1.00, 0.00, -0.00, -1.00, 559.9, 437.6)"> </text><text xml:space="preserve" font-family="HelveticaNeue,Helvetica Neue" font-size="48.0" fill="#787878" transform="matrix(1.00, 0.00, -0.00, -1.00, 573.3, 437.6)">w</text><text xml:space="preserve" font-family="HelveticaNeue,Helvetica Neue" font-size="48.0" fill="#787878" transform="matrix(1.00, 0.00, -0.00, -1.00, 609.7, 437.6)">o</text><text xml:space="preserve" font-family="HelveticaNeue,Helvetica Neue" font-size="48.0" fill="#787878" transform="matrix(1.00, 0.00, -0.00, -1.00, 637.2, 437.6)">r</text><text xml:space="preserve" font-family="HelveticaNeue,Helvetica Neue" font-size="48.0" fill="#787878" transform="matrix(1.00, 0.00, -0.00, -1.00, 653.2, 437.6)">k</text><text xml:space="preserve" font-family="HelveticaNeue,Helvetica Neue" font-size="48.0" fill="#787878" transform="matrix(1.00, 0.00, -0.00, -1.00, 678.1, 437.6)">ﬂ</text><text xml:space="preserve" font-family="HelveticaNeue,Helvetica Neue" font-size="48.0" fill="#787878" transform="matrix(1.00, 0.00, -0.00, -1.00, 703.0, 437.6)">o</text><text xml:space="preserve" font-family="HelveticaNeue,Helvetica Neue" font-size="48.0" fill="#787878" transform="matrix(1.00, 0.00, -0.00, -1.00, 730.5, 437.6)">w</text><text xml:space="preserve" font-family="HelveticaNeue,Helvetica Neue" font-size="48.0" fill="#787878" transform="matrix(1.00, 0.00, -0.00, -1.00, 766.9, 437.6)">
</text><text xml:space="preserve" font-family="HelveticaNeue,Helvetica Neue" font-size="60.0" fill="#787878" transform="matrix(1.00, 0.00, -0.00, -1.00, 80.0, 348.8)">•</text><text xml:space="preserve" font-family="HelveticaNeue,Helvetica Neue" font-size="48.0" fill="#787878" transform="matrix(1.00, 0.00, -0.00, -1.00, 111.0, 353.6)">I</text><text xml:space="preserve" font-family="HelveticaNeue,Helvetica Neue" font-size="48.0" fill="#787878" transform="matrix(1.00, 0.00, -0.00, -1.00, 123.4, 353.6)">n</text><text xml:space="preserve" font-family="HelveticaNeue,Helvetica Neue" font-size="48.0" fill="#787878" transform="matrix(1.00, 0.00, -0.00, -1.00, 150.1, 353.6)">i</text><text xml:space="preserve" font-family="HelveticaNeue,Helvetica Neue" font-size="48.0" fill="#787878" transform="matrix(1.00, 0.00, -0.00, -1.00, 160.8, 353.6)">t</text><text xml:space="preserve" font-family="HelveticaNeue,Helvetica Neue" font-size="48.0" fill="#787878" transform="matrix(1.00, 0.00, -0.00, -1.00, 175.9, 353.6)">i</text><text xml:space="preserve" font-family="HelveticaNeue,Helvetica Neue" font-size="48.0" fill="#787878" transform="matrix(1.00, 0.00, -0.00, -1.00, 186.6, 353.6)">a</text><text xml:space="preserve" font-family="HelveticaNeue,Helvetica Neue" font-size="48.0" fill="#787878" transform="matrix(1.00, 0.00, -0.00, -1.00, 212.3, 353.6)">l</text><text xml:space="preserve" font-family="HelveticaNeue,Helvetica Neue" font-size="48.0" fill="#787878" transform="matrix(1.00, 0.00, -0.00, -1.00, 223.0, 353.6)">i</text><text xml:space="preserve" font-family="HelveticaNeue,Helvetica Neue" font-size="48.0" fill="#787878" transform="matrix(1.00, 0.00, -0.00, -1.00, 233.6, 353.6)">z</text><text xml:space="preserve" font-family="HelveticaNeue,Helvetica Neue" font-size="48.0" fill="#787878" transform="matrix(1.00, 0.00, -0.00, -1.00, 256.7, 353.6)">a</text><text xml:space="preserve" font-family="HelveticaNeue,Helvetica Neue" font-size="48.0" fill="#787878" transform="matrix(1.00, 0.00, -0.00, -1.00, 282.5, 353.6)">t</text><text xml:space="preserve" font-family="HelveticaNeue,Helvetica Neue" font-size="48.0" fill="#787878" transform="matrix(1.00, 0.00, -0.00, -1.00, 297.6, 353.6)">i</text><text xml:space="preserve" font-family="HelveticaNeue,Helvetica Neue" font-size="48.0" fill="#787878" transform="matrix(1.00, 0.00, -0.00, -1.00, 308.2, 353.6)">o</text><text xml:space="preserve" font-family="HelveticaNeue,Helvetica Neue" font-size="48.0" fill="#787878" transform="matrix(1.00, 0.00, -0.00, -1.00, 335.8, 353.6)">n</text></g></svg>