<?xml version="1.0" encoding="UTF-8" standalone="no"?><svg xmlns="http://www.w3.org/2000/svg" xmlns:xlink="http://www.w3.org/1999/xlink" clip-rule="evenodd" stroke-miterlimit="10" viewBox="0 0 1024 768"><desc>SVG generated by Keynote</desc><defs></defs><g transform="matrix(1.00, 0.00, -0.00, -1.00, 0.0, 768.0)"><path d="M 0.0 768.0 L 1024.0 768.0 L 1024.0 0.0 L 0.0 0.0 Z M 0.0 768.0 " fill="#FDFEF7"></path><text xml:space="preserve" font-family="BebasNeue,Bebas Neue" font-size="144.0" fill="#5E5E5E" transform="matrix(1.00, 0.00, -0.00, -1.00, 252.0, 427.1)">h</text><text xml:space="preserve" font-family="BebasNeue,Bebas Neue" font-size="144.0" fill="#5E5E5E" transform="matrix(1.00, 0.00, -0.00, -1.00, 316.4, 427.1)">o</text><text xml:space="preserve" font-family="BebasNeue,Bebas Neue" font-size="144.0" fill="#5E5E5E" transform="matrix(1.00, 0.00, -0.00, -1.00, 376.3, 427.1)">w</text><text xml:space="preserve" font-family="BebasNeue,Bebas Neue" font-size="144.0" fill="#5E5E5E" transform="matrix(1.00, 0.00, -0.00, -1.00, 485.4, 427.1)">d</text><text xml:space="preserve" font-family="BebasNeue,Bebas Neue" font-size="144.0" fill="#5E5E5E" transform="matrix(1.00, 0.00, -0.00, -1.00, 547.1, 427.1)">o</text><text xml:space="preserve" font-family="BebasNeue,Bebas Neue" font-size="144.0" fill="#5E5E5E" transform="matrix(1.00, 0.00, -0.00, -1.00, 632.2, 427.1)">w</text><text xml:space="preserve" font-family="BebasNeue,Bebas Neue" font-size="144.0" fill="#5E5E5E" transform="matrix(1.00, 0.00, -0.00, -1.00, 716.1, 427.1)">e</text><text xml:space="preserve" font-family="BebasNeue,Bebas Neue" font-size="144.0" fill="#5E5E5E" transform="matrix(1.00, 0.00, -0.00, -1.00, 230.0, 254.1)">a</text><text xml:space="preserve" font-family="BebasNeue,Bebas Neue" font-size="144.0" fill="#5E5E5E" transform="matrix(1.00, 0.00, -0.00, -1.00, 291.5, 254.1)">p</text><text xml:space="preserve" font-family="BebasNeue,Bebas Neue" font-size="144.0" fill="#5E5E5E" transform="matrix(1.00, 0.00, -0.00, -1.00, 348.7, 254.1)">p</text><text xml:space="preserve" font-family="BebasNeue,Bebas Neue" font-size="144.0" fill="#5E5E5E" transform="matrix(1.00, 0.00, -0.00, -1.00, 405.9, 254.1)">l</text><text xml:space="preserve" font-family="BebasNeue,Bebas Neue" font-size="144.0" fill="#5E5E5E" transform="matrix(1.00, 0.00, -0.00, -1.00, 448.6, 254.1)">y</text><text xml:space="preserve" font-family="BebasNeue,Bebas Neue" font-size="144.0" fill="#6EB1D8" transform="matrix(1.00, 0.00, -0.00, -1.00, 533.7, 254.1)">t</text><text xml:space="preserve" font-family="BebasNeue,Bebas Neue" font-size="144.0" fill="#6EB1D8" transform="matrix(1.00, 0.00, -0.00, -1.00, 587.9, 254.1)">h</text><text xml:space="preserve" font-family="BebasNeue,Bebas Neue" font-size="144.0" fill="#6EB1D8" transform="matrix(1.00, 0.00, -0.00, -1.00, 652.3, 254.1)">i</text><text xml:space="preserve" font-family="BebasNeue,Bebas Neue" font-size="144.0" fill="#6EB1D8" transform="matrix(1.00, 0.00, -0.00, -1.00, 682.5, 254.1)">s</text><text xml:space="preserve" font-family="BebasNeue,Bebas Neue" font-size="144.0" fill="#5E5E5E" transform="matrix(1.00, 0.00, -0.00, -1.00, 739.2, 254.1)">?</text></g></svg>