<?xml version="1.0" encoding="UTF-8" standalone="no"?><svg xmlns="http://www.w3.org/2000/svg" xmlns:xlink="http://www.w3.org/1999/xlink" clip-rule="evenodd" stroke-miterlimit="10" viewBox="0 0 272 45"><desc>SVG generated by Keynote</desc><defs></defs><g transform="matrix(1.00, 0.00, -0.00, -1.00, 0.0, 45.0)"><text xml:space="preserve" font-family="BebasNeue,Bebas Neue" font-size="58.0" fill="#FFFFFF" transform="matrix(1.00, 0.00, -0.00, -1.00, -0.9, 2.6)">l</text><text xml:space="preserve" font-family="BebasNeue,Bebas Neue" font-size="58.0" fill="#FFFFFF" transform="matrix(1.00, 0.00, -0.00, -1.00, 20.0, 2.6)">o</text><text xml:space="preserve" font-family="BebasNeue,Bebas Neue" font-size="58.0" fill="#FFFFFF" transform="matrix(1.00, 0.00, -0.00, -1.00, 44.1, 2.6)">n</text><text xml:space="preserve" font-family="BebasNeue,Bebas Neue" font-size="58.0" fill="#FFFFFF" transform="matrix(1.00, 0.00, -0.00, -1.00, 70.0, 2.6)">g</text><text xml:space="preserve" font-family="BebasNeue,Bebas Neue" font-size="58.0" fill="#FFFFFF" transform="matrix(1.00, 0.00, -0.00, -1.00, 93.8, 2.6)">-</text><text xml:space="preserve" font-family="BebasNeue,Bebas Neue" font-size="58.0" fill="#FFFFFF" transform="matrix(1.00, 0.00, -0.00, -1.00, 110.6, 2.6)">r</text><text xml:space="preserve" font-family="BebasNeue,Bebas Neue" font-size="58.0" fill="#FFFFFF" transform="matrix(1.00, 0.00, -0.00, -1.00, 135.1, 2.6)">u</text><text xml:space="preserve" font-family="BebasNeue,Bebas Neue" font-size="58.0" fill="#FFFFFF" transform="matrix(1.00, 0.00, -0.00, -1.00, 159.3, 2.6)">n</text><text xml:space="preserve" font-family="BebasNeue,Bebas Neue" font-size="58.0" fill="#FFFFFF" transform="matrix(1.00, 0.00, -0.00, -1.00, 185.3, 2.6)">n</text><text xml:space="preserve" font-family="BebasNeue,Bebas Neue" font-size="58.0" fill="#FFFFFF" transform="matrix(1.00, 0.00, -0.00, -1.00, 211.2, 2.6)">i</text><text xml:space="preserve" font-family="BebasNeue,Bebas Neue" font-size="58.0" fill="#FFFFFF" transform="matrix(1.00, 0.00, -0.00, -1.00, 223.4, 2.6)">n</text><text xml:space="preserve" font-family="BebasNeue,Bebas Neue" font-size="58.0" fill="#FFFFFF" transform="matrix(1.00, 0.00, -0.00, -1.00, 249.3, 2.6)">g</text></g></svg>