<?xml version="1.0" encoding="UTF-8" standalone="no"?><svg xmlns="http://www.w3.org/2000/svg" xmlns:xlink="http://www.w3.org/1999/xlink" clip-rule="evenodd" stroke-miterlimit="10" viewBox="0 0 213 43"><desc>SVG generated by Keynote</desc><defs></defs><g transform="matrix(1.00, 0.00, -0.00, -1.00, 0.0, 43.0)"><text xml:space="preserve" font-family="BebasNeue,Bebas Neue" font-size="58.0" fill="#FFFFFF" transform="matrix(1.00, 0.00, -0.00, -1.00, -1.0, 1.1)">e</text><text xml:space="preserve" font-family="BebasNeue,Bebas Neue" font-size="58.0" fill="#FFFFFF" transform="matrix(1.00, 0.00, -0.00, -1.00, 21.5, 1.1)">x</text><text xml:space="preserve" font-family="BebasNeue,Bebas Neue" font-size="58.0" fill="#FFFFFF" transform="matrix(1.00, 0.00, -0.00, -1.00, 47.6, 1.1)">t</text><text xml:space="preserve" font-family="BebasNeue,Bebas Neue" font-size="58.0" fill="#FFFFFF" transform="matrix(1.00, 0.00, -0.00, -1.00, 69.4, 1.1)">r</text><text xml:space="preserve" font-family="BebasNeue,Bebas Neue" font-size="58.0" fill="#FFFFFF" transform="matrix(1.00, 0.00, -0.00, -1.00, 93.9, 1.1)">e</text><text xml:space="preserve" font-family="BebasNeue,Bebas Neue" font-size="58.0" fill="#FFFFFF" transform="matrix(1.00, 0.00, -0.00, -1.00, 116.4, 1.1)">m</text><text xml:space="preserve" font-family="BebasNeue,Bebas Neue" font-size="58.0" fill="#FFFFFF" transform="matrix(1.00, 0.00, -0.00, -1.00, 148.9, 1.1)">e</text><text xml:space="preserve" font-family="BebasNeue,Bebas Neue" font-size="58.0" fill="#FFFFFF" transform="matrix(1.00, 0.00, -0.00, -1.00, 171.4, 1.1)">l</text><text xml:space="preserve" font-family="BebasNeue,Bebas Neue" font-size="58.0" fill="#FFFFFF" transform="matrix(1.00, 0.00, -0.00, -1.00, 188.7, 1.1)">y</text></g></svg>