<?xml version="1.0" encoding="UTF-8" standalone="no"?><svg xmlns="http://www.w3.org/2000/svg" xmlns:xlink="http://www.w3.org/1999/xlink" clip-rule="evenodd" stroke-miterlimit="10" viewBox="0 0 1024 768"><desc>SVG generated by Keynote</desc><defs></defs><g transform="matrix(1.00, 0.00, -0.00, -1.00, 0.0, 768.0)"><path d="M 0.0 768.0 L 1024.0 768.0 L 1024.0 0.0 L 0.0 0.0 Z M 0.0 768.0 " fill="#FDFEF7"></path><text xml:space="preserve" font-family="BebasNeue,Bebas Neue" font-size="78.0" fill="#5E5E5E" transform="matrix(1.00, 0.00, -0.00, -1.00, 28.0, 670.4)">T</text><text xml:space="preserve" font-family="BebasNeue,Bebas Neue" font-size="78.0" fill="#5E5E5E" transform="matrix(1.00, 0.00, -0.00, -1.00, 57.3, 670.4)">W</text><text xml:space="preserve" font-family="BebasNeue,Bebas Neue" font-size="78.0" fill="#5E5E5E" transform="matrix(1.00, 0.00, -0.00, -1.00, 102.8, 670.4)">O</text><text xml:space="preserve" font-family="BebasNeue,Bebas Neue" font-size="78.0" fill="#6EB1D8" transform="matrix(1.00, 0.00, -0.00, -1.00, 148.9, 670.4)">B</text><text xml:space="preserve" font-family="BebasNeue,Bebas Neue" font-size="78.0" fill="#6EB1D8" transform="matrix(1.00, 0.00, -0.00, -1.00, 182.1, 670.4)">a</text><text xml:space="preserve" font-family="BebasNeue,Bebas Neue" font-size="78.0" fill="#6EB1D8" transform="matrix(1.00, 0.00, -0.00, -1.00, 215.4, 670.4)">s</text><text xml:space="preserve" font-family="BebasNeue,Bebas Neue" font-size="78.0" fill="#6EB1D8" transform="matrix(1.00, 0.00, -0.00, -1.00, 246.2, 670.4)">i</text><text xml:space="preserve" font-family="BebasNeue,Bebas Neue" font-size="78.0" fill="#6EB1D8" transform="matrix(1.00, 0.00, -0.00, -1.00, 262.5, 670.4)">c</text><text xml:space="preserve" font-family="BebasNeue,Bebas Neue" font-size="78.0" fill="#6EB1D8" transform="matrix(1.00, 0.00, -0.00, -1.00, 307.9, 670.4)">T</text><text xml:space="preserve" font-family="BebasNeue,Bebas Neue" font-size="78.0" fill="#6EB1D8" transform="matrix(1.00, 0.00, -0.00, -1.00, 337.2, 670.4)">y</text><text xml:space="preserve" font-family="BebasNeue,Bebas Neue" font-size="78.0" fill="#6EB1D8" transform="matrix(1.00, 0.00, -0.00, -1.00, 369.6, 670.4)">p</text><text xml:space="preserve" font-family="BebasNeue,Bebas Neue" font-size="78.0" fill="#6EB1D8" transform="matrix(1.00, 0.00, -0.00, -1.00, 400.6, 670.4)">e</text><text xml:space="preserve" font-family="BebasNeue,Bebas Neue" font-size="78.0" fill="#6EB1D8" transform="matrix(1.00, 0.00, -0.00, -1.00, 430.9, 670.4)">s</text><text xml:space="preserve" font-family="HelveticaNeue,Helvetica Neue" font-size="60.0" fill="#304863" transform="matrix(1.00, 0.00, -0.00, -1.00, 34.8, 552.8)">•</text><text xml:space="preserve" font-family="HelveticaNeue,Helvetica Neue" font-size="48.0" fill="#304863" transform="matrix(1.00, 0.00, -0.00, -1.00, 79.8, 557.6)">A</text><text xml:space="preserve" font-family="HelveticaNeue,Helvetica Neue" font-size="48.0" fill="#304863" transform="matrix(1.00, 0.00, -0.00, -1.00, 110.9, 557.6)">c</text><text xml:space="preserve" font-family="HelveticaNeue,Helvetica Neue" font-size="48.0" fill="#304863" transform="matrix(1.00, 0.00, -0.00, -1.00, 136.7, 557.6)">c</text><text xml:space="preserve" font-family="HelveticaNeue,Helvetica Neue" font-size="48.0" fill="#304863" transform="matrix(1.00, 0.00, -0.00, -1.00, 162.4, 557.6)">e</text><text xml:space="preserve" font-family="HelveticaNeue,Helvetica Neue" font-size="48.0" fill="#304863" transform="matrix(1.00, 0.00, -0.00, -1.00, 188.2, 557.6)">p</text><text xml:space="preserve" font-family="HelveticaNeue,Helvetica Neue" font-size="48.0" fill="#304863" transform="matrix(1.00, 0.00, -0.00, -1.00, 216.7, 557.6)">t</text><text xml:space="preserve" font-family="HelveticaNeue,Helvetica Neue" font-size="48.0" fill="#304863" transform="matrix(1.00, 0.00, -0.00, -1.00, 231.8, 557.6)">o</text><text xml:space="preserve" font-family="HelveticaNeue,Helvetica Neue" font-size="48.0" fill="#304863" transform="matrix(1.00, 0.00, -0.00, -1.00, 259.4, 557.6)">r</text></g></svg>